G04 Layer: BottomLayer*
G04 EasyEDA Pro v2.2.32.3, 2025-10-31 12:43:36*
G04 Gerber Generator version 0.3*
G04 Scale: 100 percent, Rotated: No, Reflected: No*
G04 Dimensions in millimeters*
G04 Leading zeros omitted, absolute positions, 3 integers and 5 decimals*
%FSLAX35Y35*%
%MOMM*%
%ADD10C,0.2032*%
%ADD11C,0.254*%
%ADD12R,1.5X1.5*%
%ADD13C,1.5*%
%ADD14R,1.37701X1.13254*%
%ADD15R,0.79009X0.54*%
%ADD16R,0.54X0.79009*%
%ADD17R,0.54X0.79009*%
%ADD18R,0.7933X0.54*%
%ADD19R,0.79009X0.54*%
%ADD20R,1.75X0.3*%
%ADD21R,2.49999X2.0*%
%ADD22C,3.0*%
%ADD23C,0.61*%
%ADD24C,0.5*%
%ADD25C,0.3*%
G75*


G04 Copper Start*
G36*
G01X35814Y-254000D02*
G02X254000Y-35814I218186J0D01*
G01X8546000Y-35814D01*
G02X8764186Y-254000I0J-218186D01*
G01X8764186Y-3364000D01*
G02X8546000Y-3582186I-218186J0D01*
G01X254000Y-3582186D01*
G02X35814Y-3364000I0J218186D01*
G01X35814Y-254000D01*
G37*
%LPC*%
G36*
G01X68186Y-3364000D02*
G03X439814Y-3364000I185814J0D01*
G03X68186Y-3364000I-185814J0D01*
G37*
G36*
G01X68186Y-254000D02*
G03X439814Y-254000I185814J0D01*
G03X68186Y-254000I-185814J0D01*
G37*
G36*
G01X633400Y-3399814D02*
G03X729435Y-3360035I0J135814D01*
G03X769214Y-3264000I-96035J96035D01*
G01X769214Y-354000D01*
G03X633400Y-218186I-135814J0D01*
G03X497586Y-354000I0J-135814D01*
G01X497586Y-3264000D01*
G03X633400Y-3399814I135814J0D01*
G37*
G36*
G01X1795686Y-1819006D02*
G01X1795686Y-1835496D01*
G01X1793400Y-1835505D01*
G01X1595781Y-1835505D01*
G03X1561477Y-1849714I0J-48514D01*
G01X1375395Y-2035795D01*
G03X1361186Y-2070100I34305J-34305D01*
G01X1361186Y-2984500D01*
G03X1375395Y-3018805I48514J0D01*
G01X1527795Y-3171205D01*
G03X1562100Y-3185414I34305J34305D01*
G01X8128000Y-3185414D01*
G03X8162305Y-3171205I0J48514D01*
G01X8378205Y-2955305D01*
G03X8392414Y-2921000I-34305J34305D01*
G01X8392414Y-2068400D01*
G03X8378205Y-2034095I-48514J0D01*
G01X8318837Y-1974728D01*
G01X8317460Y-1973225D01*
G01X8320101Y-1959683D01*
G01X8320452Y-1957543D01*
G01X8321746Y-1947799D01*
G03X8322017Y-1944792I-35502J4716D01*
G01X8322276Y-1939376D01*
G01X8322310Y-1936952D01*
G03X8133143Y-1857643I-110810J952D01*
G03X8212452Y-2046810I78357J-78357D01*
G01X8214876Y-2046776D01*
G01X8220292Y-2046517D01*
G03X8223299Y-2046246I-1709J35773D01*
G01X8233043Y-2044952D01*
G01X8235183Y-2044601D01*
G01X8248725Y-2041960D01*
G01X8250228Y-2043337D01*
G01X8295386Y-2088495D01*
G01X8295386Y-2117592D01*
G03X8132473Y-2112319I-83886J-72407D01*
G01X8130782Y-2114056D01*
G01X8127135Y-2118070D01*
G03X8125201Y-2120388I26504J-24087D01*
G01X8119226Y-2128193D01*
G01X8117961Y-2129954D01*
G01X8110253Y-2141397D01*
G01X8108217Y-2141486D01*
G01X7886995Y-2141486D01*
G01X7343423Y-1597914D01*
G01X7454900Y-1597914D01*
G03X7489205Y-1583705I0J48514D01*
G01X7850395Y-1222514D01*
G01X8108217Y-1222514D01*
G01X8110253Y-1222603D01*
G01X8117961Y-1234046D01*
G01X8119226Y-1235807D01*
G01X8125201Y-1243612D01*
G03X8127135Y-1245930I28439J21769D01*
G01X8130782Y-1249943D01*
G01X8132473Y-1251681D01*
G03X8295386Y-1246407I79027J77681D01*
G01X8295386Y-1275505D01*
G01X8250228Y-1320663D01*
G01X8248725Y-1322040D01*
G01X8235183Y-1319399D01*
G01X8233043Y-1319048D01*
G01X8223299Y-1317754D01*
G03X8220292Y-1317483I-4716J-35502D01*
G01X8214876Y-1317224D01*
G01X8212452Y-1317190D01*
G03X8133143Y-1506357I-952J-110810D01*
G03X8322310Y-1427048I78357J78357D01*
G01X8322276Y-1424624D01*
G01X8322017Y-1419208D01*
G03X8321746Y-1416200I-35773J-1709D01*
G01X8320452Y-1406457D01*
G01X8320101Y-1404317D01*
G01X8317460Y-1390775D01*
G01X8318837Y-1389272D01*
G01X8358886Y-1349223D01*
G01X8358886Y-1453305D01*
G01X8241725Y-1570465D01*
G01X8238469Y-1570952D01*
G01X8231776Y-1571325D01*
G01X8217911Y-1571372D01*
G03X8137048Y-1764077I-6411J-110628D01*
G03X8320981Y-1664866I74452J82077D01*
G01X8320682Y-1662259D01*
G03X8320281Y-1659631I-35581J-4082D01*
G01X8318407Y-1649805D01*
G01X8318250Y-1649027D01*
G01X8316492Y-1640804D01*
G01X8315600Y-1635463D01*
G01X8315546Y-1634015D01*
G01X8317028Y-1632381D01*
G01X8441705Y-1507704D01*
G03X8455914Y-1473400I-34305J34305D01*
G01X8455914Y-1104900D01*
G03X8441705Y-1070595I-48514J0D01*
G01X8359704Y-988595D01*
G03X8325400Y-974386I-34305J-34305D01*
G01X8308050Y-974386D01*
G03X8278112Y-831442I-96550J54386D01*
G03X8132473Y-842319I-66612J-88558D01*
G01X8130782Y-844056D01*
G01X8127135Y-848070D01*
G03X8125201Y-850388I26504J-24087D01*
G01X8119226Y-858193D01*
G01X8117961Y-859954D01*
G01X8110253Y-871397D01*
G01X8108217Y-871486D01*
G01X7855700Y-871486D01*
G03X7821395Y-885695I0J-48514D01*
G01X7358605Y-1348486D01*
G01X2165074Y-1348486D01*
G01X2182346Y-1331214D01*
G01X2247895Y-1331214D01*
G02X2260878Y-1336530I0J-18512D01*
G03X2285995Y-1346814I25117J25530D01*
G01X2365005Y-1346814D01*
G03X2380008Y-1343520I0J35814D01*
G03X2395012Y-1346814I15004J32520D01*
G01X2474021Y-1346814D01*
G03X2509835Y-1311000I0J35814D01*
G01X2509835Y-1257000D01*
G03X2474021Y-1221186I-35814J0D01*
G01X2395012Y-1221186D01*
G03X2380008Y-1224480I0J-35814D01*
G03X2365005Y-1221186I-15004J-32520D01*
G01X2285995Y-1221186D01*
G03X2264104Y-1228655I0J-35814D01*
G02X2247895Y-1234186I-16208J20986D01*
G01X2162251Y-1234186D01*
G03X2127946Y-1248395I0J-48514D01*
G01X2042314Y-1334028D01*
G01X2042314Y-1319007D01*
G03X2040888Y-1309001I-35814J0D01*
G03X2042314Y-1298995I-34388J10006D01*
G01X2042314Y-1268995D01*
G03X2040891Y-1259001I-35814J0D01*
G03X2042314Y-1249007I-34391J9994D01*
G01X2042314Y-1219007D01*
G03X2006500Y-1183193I-35814J0D01*
G01X1831500Y-1183193D01*
G03X1795686Y-1219007I0J-35814D01*
G01X1795686Y-1249007D01*
G03X1797109Y-1259001I35814J0D01*
G03X1795686Y-1268995I34391J-9994D01*
G01X1795686Y-1298995D01*
G03X1797112Y-1309001I35814J0D01*
G03X1795686Y-1319007I34388J-10006D01*
G01X1795686Y-1349007D01*
G03X1797109Y-1359001I35814J0D01*
G03X1795686Y-1368994I34391J-9994D01*
G01X1795686Y-1398994D01*
G03X1797112Y-1409001I35814J0D01*
G03X1795686Y-1419007I34388J-10006D01*
G01X1795686Y-1449007D01*
G03X1797109Y-1459001I35814J0D01*
G03X1795686Y-1468994I34391J-9994D01*
G01X1795686Y-1498994D01*
G03X1797112Y-1509001I35814J0D01*
G03X1795686Y-1519007I34388J-10006D01*
G01X1795686Y-1549007D01*
G03X1797109Y-1559000I35814J0D01*
G03X1795686Y-1568994I34391J-9994D01*
G01X1795686Y-1598994D01*
G03X1797074Y-1608867I35814J0D01*
G03X1795686Y-1618740I34426J-9873D01*
G01X1795686Y-1648740D01*
G03X1797229Y-1659140I35814J0D01*
G03X1795686Y-1669540I34271J-10400D01*
G01X1795686Y-1699540D01*
G03X1797034Y-1709273I35814J0D01*
G03X1795686Y-1719006I34466J-9733D01*
G01X1795686Y-1749006D01*
G03X1797112Y-1759013I35814J0D01*
G03X1795686Y-1769019I34388J-10006D01*
G01X1795686Y-1799019D01*
G03X1797109Y-1809013I35814J0D01*
G03X1795686Y-1819006I34391J-9994D01*
G37*
G36*
G01X1761547Y-1200810D02*
G03X1797361Y-1164996I0J35814D01*
G01X1797361Y-964996D01*
G03X1761547Y-929182I-35814J0D01*
G01X1511548Y-929182D01*
G03X1475734Y-964996I0J-35814D01*
G01X1475734Y-1164996D01*
G03X1511548Y-1200810I35814J0D01*
G01X1761547Y-1200810D01*
G37*
G36*
G01X8360186Y-3364000D02*
G03X8731814Y-3364000I185814J0D01*
G03X8360186Y-3364000I-185814J0D01*
G37*
G36*
G01X8360186Y-254000D02*
G03X8731814Y-254000I185814J0D01*
G03X8360186Y-254000I-185814J0D01*
G37*
%LPD*%
G36*
G01X1458214Y-2090195D02*
G01X1615876Y-1932533D01*
G01X1793400Y-1932533D01*
G01X1795686Y-1932542D01*
G01X1795686Y-1949006D01*
G03X1797112Y-1959012I35814J0D01*
G03X1795686Y-1969019I34388J-10006D01*
G01X1795686Y-1999019D01*
G03X1797109Y-2009012I35814J0D01*
G03X1795686Y-2019006I34391J-9994D01*
G01X1795686Y-2049006D01*
G03X1797112Y-2059012I35814J0D01*
G03X1795686Y-2069018I34388J-10006D01*
G01X1795686Y-2099018D01*
G03X1797109Y-2109012I35814J0D01*
G03X1795686Y-2119006I34391J-9994D01*
G01X1795686Y-2149006D01*
G03X1797112Y-2159012I35814J0D01*
G03X1795686Y-2169018I34388J-10006D01*
G01X1795686Y-2199018D01*
G03X1797109Y-2209012I35814J0D01*
G03X1795686Y-2219005I34391J-9994D01*
G01X1795686Y-2249005D01*
G03X1797112Y-2259012I35814J0D01*
G03X1795686Y-2269018I34388J-10006D01*
G01X1795686Y-2299018D01*
G03X1797109Y-2309012I35814J0D01*
G03X1795686Y-2319005I34391J-9994D01*
G01X1795686Y-2349005D01*
G03X1797140Y-2359107I35814J0D01*
G03X1795656Y-2369310I34330J-10203D01*
G01X1795656Y-2399310D01*
G03X1831470Y-2435124I35814J0D01*
G01X2006470Y-2435124D01*
G03X2010778Y-2434864I0J35814D01*
G02X2034206Y-2433015I33792J-278868D01*
G01X2059686Y-2458495D01*
G01X2059686Y-2984500D01*
G03X2073895Y-3018805I48514J0D01*
G01X2143477Y-3088386D01*
G01X1582195Y-3088386D01*
G01X1458214Y-2964405D01*
G01X1458214Y-2090195D01*
G37*
%LPC*%
G36*
G01X1761547Y-2688818D02*
G03X1797361Y-2653004I0J35814D01*
G01X1797361Y-2453004D01*
G03X1761547Y-2417190I-35814J0D01*
G01X1511548Y-2417190D01*
G03X1475734Y-2453004I0J-35814D01*
G01X1475734Y-2653004D01*
G03X1511548Y-2688818I35814J0D01*
G01X1761547Y-2688818D01*
G37*
%LPD*%
G36*
G01X2240470Y-2096432D02*
G03X2257398Y-2127398I59530J12432D01*
G03X2260480Y-2138508I35602J3894D01*
G03X2257186Y-2153512I32520J-15004D01*
G01X2257186Y-2213977D01*
G01X2092923Y-2049714D01*
G03X2058618Y-2035504I-34305J-34305D01*
G01X2044600Y-2035504D01*
G01X2042314Y-2035495D01*
G01X2042314Y-2034833D01*
G01X2178871Y-2034833D01*
G01X2240470Y-2096432D01*
G37*
G36*
G01X2364996Y-2663814D02*
G03X2380000Y-2660520I0J35814D01*
G03X2395004Y-2663814I15004J32520D01*
G01X2474013Y-2663814D01*
G03X2509827Y-2628000I0J35814D01*
G01X2509827Y-2574000D01*
G03X2474013Y-2538186I-35814J0D01*
G01X2395004Y-2538186D01*
G03X2380000Y-2541480I0J-35814D01*
G03X2364996Y-2538186I-15004J-32520D01*
G01X2306601Y-2538186D01*
G01X2306601Y-2509814D01*
G01X2364996Y-2509814D01*
G03X2380000Y-2506520I0J35814D01*
G03X2395004Y-2509814I15004J32520D01*
G01X2474013Y-2509814D01*
G03X2509827Y-2474000I0J35814D01*
G01X2509827Y-2420000D01*
G03X2474013Y-2384186I-35814J0D01*
G01X2395004Y-2384186D01*
G03X2380000Y-2387480I0J-35814D01*
G03X2374006Y-2385337I-15004J-32520D01*
G01X2374006Y-2350892D01*
G03X2359796Y-2316587I-48514J0D01*
G01X2311544Y-2268335D01*
G01X2347000Y-2268335D01*
G03X2382814Y-2232521I0J35814D01*
G01X2382814Y-2153512D01*
G03X2382597Y-2149578I-35814J0D01*
G02X2397000Y-2146715I39403J-160577D01*
G02X2411402Y-2149578I-25000J-163440D01*
G03X2411186Y-2153512I35597J-3935D01*
G01X2411186Y-2232521D01*
G03X2447000Y-2268335I35814J0D01*
G01X2501000Y-2268335D01*
G03X2536814Y-2232521I0J35814D01*
G01X2536814Y-2153512D01*
G03X2536597Y-2149578I-35814J0D01*
G02X2576000Y-2144814I39403J-160577D01*
G01X2688250Y-2144814D01*
G02X2759984Y-2148091I0J-786653D01*
G03X2763249Y-2148241I3266J35665D01*
G01X2900951Y-2148241D01*
G03X2916660Y-2144611I0J35814D01*
G02X2975950Y-2130914I59291J-121474D01*
G01X7429710Y-2130914D01*
G01X7785798Y-2487002D01*
G03X7828800Y-2504814I43002J43002D01*
G01X8107487Y-2504814D01*
G01X8111026Y-2505113D01*
G01X8112426Y-2505487D01*
G01X8114132Y-2506264D01*
G01X8116735Y-2507918D01*
G01X8120403Y-2510804D01*
G01X8125176Y-2515056D01*
G01X8134932Y-2524106D01*
G03X8295386Y-2516407I76568J80106D01*
G01X8295386Y-2588306D01*
G03X8286500Y-2587186I-8886J-34694D01*
G01X8136500Y-2587186D01*
G03X8100686Y-2623000I0J-35814D01*
G01X8100686Y-2773000D01*
G03X8136500Y-2808814I35814J0D01*
G01X8286500Y-2808814D01*
G03X8295386Y-2807694I0J35814D01*
G01X8295386Y-2900905D01*
G01X8107905Y-3088386D01*
G01X2509827Y-3088386D01*
G01X2509827Y-3036000D01*
G03X2474013Y-3000186I-35814J0D01*
G01X2395004Y-3000186D01*
G03X2380000Y-3003480I0J-35814D01*
G03X2364996Y-3000186I-15004J-32520D01*
G01X2285987Y-3000186D01*
G03X2265463Y-3006650I0J-35814D01*
G02X2247887Y-3012186I-17576J25133D01*
G01X2204495Y-3012186D01*
G01X2156714Y-2964405D01*
G01X2156714Y-2808832D01*
G01X2245053Y-2897170D01*
G02X2250173Y-2914397I-26418J-17226D01*
G01X2250173Y-2936000D01*
G03X2285987Y-2971814I35814J0D01*
G01X2364996Y-2971814D01*
G03X2380000Y-2968520I0J35814D01*
G03X2395004Y-2971814I15004J32520D01*
G01X2474013Y-2971814D01*
G03X2509827Y-2936000I0J35814D01*
G01X2509827Y-2882000D01*
G03X2474013Y-2846186I-35814J0D01*
G01X2395004Y-2846186D01*
G03X2380000Y-2849480I0J-35814D01*
G03X2364996Y-2846186I-15004J-32520D01*
G01X2343393Y-2846186D01*
G02X2326166Y-2841066I0J31538D01*
G01X2302915Y-2817814D01*
G01X2364996Y-2817814D01*
G03X2380000Y-2814520I0J35814D01*
G03X2395004Y-2817814I15004J32520D01*
G01X2474013Y-2817814D01*
G03X2509827Y-2782000I0J35814D01*
G01X2509827Y-2728000D01*
G03X2474013Y-2692186I-35814J0D01*
G01X2395004Y-2692186D01*
G03X2380000Y-2695480I0J-35814D01*
G03X2364996Y-2692186I-15004J-32520D01*
G01X2343393Y-2692186D01*
G02X2326166Y-2687066I0J31538D01*
G01X2302915Y-2663814D01*
G01X2364996Y-2663814D01*
G37*
G36*
G01X7832595Y-2224305D02*
G03X7866900Y-2238514I34305J34305D01*
G01X8108217Y-2238514D01*
G01X8110253Y-2238603D01*
G01X8117961Y-2250046D01*
G01X8119226Y-2251807D01*
G01X8125201Y-2259612D01*
G03X8127135Y-2261930I28439J21769D01*
G01X8130782Y-2265943D01*
G01X8132473Y-2267681D01*
G03X8295386Y-2262407I79027J77681D01*
G01X8295386Y-2371592D01*
G03X8134932Y-2363894I-83886J-72407D01*
G01X8125176Y-2372944D01*
G01X8120403Y-2377196D01*
G01X8116735Y-2380082D01*
G01X8114132Y-2381736D01*
G01X8112426Y-2382513D01*
G01X8111026Y-2382886D01*
G01X8107487Y-2383186D01*
G01X7853990Y-2383186D01*
G01X7497902Y-2027098D01*
G03X7454900Y-2009286I-43002J-43002D01*
G01X2975950Y-2009286D01*
G02X2936332Y-1993622I0J57936D01*
G03X2900951Y-1963359I-35381J-5551D01*
G01X2763249Y-1963359D01*
G03X2727435Y-1999173I0J-35814D01*
G01X2727435Y-2007924D01*
G02X2688250Y-2023186I-39186J42673D01*
G01X2576000Y-2023186D01*
G02X2514353Y-2011264I0J165341D01*
G03X2501000Y-2008681I-13353J-33232D01*
G01X2447000Y-2008681D01*
G03X2433647Y-2011264I0J-35814D01*
G02X2397000Y-2021285I-61647J153418D01*
G02X2360353Y-2011264I25000J163440D01*
G03X2347000Y-2008681I-13353J-33232D01*
G01X2301510Y-2008681D01*
G02X2280809Y-1993047I45705J82041D01*
G01X2237212Y-1949450D01*
G01X2279846Y-1906816D01*
G03X2293000Y-1909319I13154J33311D01*
G01X2347000Y-1909319D01*
G03X2360346Y-1906739I0J35814D01*
G02X2396996Y-1896723I61654J-153535D01*
G02X2433647Y-1906745I-24996J-163440D01*
G03X2447000Y-1909327I13353J33232D01*
G01X2501000Y-1909327D01*
G03X2514353Y-1906745I0J35814D01*
G02X2576000Y-1894822I61647J-153418D01*
G01X2688250Y-1894822D01*
G02X2727435Y-1910085I0J-57936D01*
G01X2727435Y-1912427D01*
G03X2763249Y-1948241I35814J0D01*
G01X2900951Y-1948241D01*
G03X2936765Y-1912427I0J35814D01*
G01X2936765Y-1799173D01*
G03X2900951Y-1763359I-35814J0D01*
G01X2763249Y-1763359D01*
G03X2754015Y-1764570I0J-35814D01*
G02X2688250Y-1773195I-65766J246443D01*
G01X2576000Y-1773195D01*
G02X2536597Y-1768431I0J165341D01*
G03X2536814Y-1764496I-35597J3935D01*
G01X2536814Y-1685487D01*
G03X2501000Y-1649673I-35814J0D01*
G01X2447000Y-1649673D01*
G03X2411186Y-1685487I0J-35814D01*
G01X2411186Y-1764496D01*
G03X2411402Y-1768431I35814J0D01*
G02X2397004Y-1771293I-39403J160577D01*
G02X2382597Y-1768427I24996J163328D01*
G03X2382814Y-1764488I-35597J3940D01*
G01X2382814Y-1685478D01*
G03X2347000Y-1649664I-35814J0D01*
G01X2293614Y-1649664D01*
G01X2293614Y-1648714D01*
G01X7257005Y-1648714D01*
G01X7832595Y-2224305D01*
G37*
G54D10*
G01X35814Y-254000D02*
G02X254000Y-35814I218186J0D01*
G01X8546000Y-35814D01*
G02X8764186Y-254000I0J-218186D01*
G01X8764186Y-3364000D01*
G02X8546000Y-3582186I-218186J0D01*
G01X254000Y-3582186D01*
G02X35814Y-3364000I0J218186D01*
G01X35814Y-254000D01*
G01X68186Y-3364000D02*
G03X439814Y-3364000I185814J0D01*
G03X68186Y-3364000I-185814J0D01*
G01X68186Y-254000D02*
G03X439814Y-254000I185814J0D01*
G03X68186Y-254000I-185814J0D01*
G01X633400Y-3399814D02*
G03X729435Y-3360035I0J135814D01*
G03X769214Y-3264000I-96035J96035D01*
G01X769214Y-354000D01*
G03X633400Y-218186I-135814J0D01*
G03X497586Y-354000I0J-135814D01*
G01X497586Y-3264000D01*
G03X633400Y-3399814I135814J0D01*
G01X1795686Y-1819006D02*
G01X1795686Y-1835496D01*
G01X1793400Y-1835505D01*
G01X1595781Y-1835505D01*
G03X1561477Y-1849714I0J-48514D01*
G01X1375395Y-2035795D01*
G03X1361186Y-2070100I34305J-34305D01*
G01X1361186Y-2984500D01*
G03X1375395Y-3018805I48514J0D01*
G01X1527795Y-3171205D01*
G03X1562100Y-3185414I34305J34305D01*
G01X8128000Y-3185414D01*
G03X8162305Y-3171205I0J48514D01*
G01X8378205Y-2955305D01*
G03X8392414Y-2921000I-34305J34305D01*
G01X8392414Y-2068400D01*
G03X8378205Y-2034095I-48514J0D01*
G01X8318837Y-1974728D01*
G01X8317460Y-1973225D01*
G01X8320101Y-1959683D01*
G01X8320452Y-1957543D01*
G01X8321746Y-1947799D01*
G03X8322017Y-1944792I-35502J4716D01*
G01X8322276Y-1939376D01*
G01X8322310Y-1936952D01*
G03X8133143Y-1857643I-110810J952D01*
G03X8212452Y-2046810I78357J-78357D01*
G01X8214876Y-2046776D01*
G01X8220292Y-2046517D01*
G03X8223299Y-2046246I-1709J35773D01*
G01X8233043Y-2044952D01*
G01X8235183Y-2044601D01*
G01X8248725Y-2041960D01*
G01X8250228Y-2043337D01*
G01X8295386Y-2088495D01*
G01X8295386Y-2117592D01*
G03X8132473Y-2112319I-83886J-72407D01*
G01X8130782Y-2114056D01*
G01X8127135Y-2118070D01*
G03X8125201Y-2120388I26504J-24087D01*
G01X8119226Y-2128193D01*
G01X8117961Y-2129954D01*
G01X8110253Y-2141397D01*
G01X8108217Y-2141486D01*
G01X7886995Y-2141486D01*
G01X7343423Y-1597914D01*
G01X7454900Y-1597914D01*
G03X7489205Y-1583705I0J48514D01*
G01X7850395Y-1222514D01*
G01X8108217Y-1222514D01*
G01X8110253Y-1222603D01*
G01X8117961Y-1234046D01*
G01X8119226Y-1235807D01*
G01X8125201Y-1243612D01*
G03X8127135Y-1245930I28439J21769D01*
G01X8130782Y-1249943D01*
G01X8132473Y-1251681D01*
G03X8295386Y-1246407I79027J77681D01*
G01X8295386Y-1275505D01*
G01X8250228Y-1320663D01*
G01X8248725Y-1322040D01*
G01X8235183Y-1319399D01*
G01X8233043Y-1319048D01*
G01X8223299Y-1317754D01*
G03X8220292Y-1317483I-4716J-35502D01*
G01X8214876Y-1317224D01*
G01X8212452Y-1317190D01*
G03X8133143Y-1506357I-952J-110810D01*
G03X8322310Y-1427048I78357J78357D01*
G01X8322276Y-1424624D01*
G01X8322017Y-1419208D01*
G03X8321746Y-1416200I-35773J-1709D01*
G01X8320452Y-1406457D01*
G01X8320101Y-1404317D01*
G01X8317460Y-1390775D01*
G01X8318837Y-1389272D01*
G01X8358886Y-1349223D01*
G01X8358886Y-1453305D01*
G01X8241725Y-1570465D01*
G01X8238469Y-1570952D01*
G01X8231776Y-1571325D01*
G01X8217911Y-1571372D01*
G03X8137048Y-1764077I-6411J-110628D01*
G03X8320981Y-1664866I74452J82077D01*
G01X8320682Y-1662259D01*
G03X8320281Y-1659631I-35581J-4082D01*
G01X8318407Y-1649805D01*
G01X8318250Y-1649027D01*
G01X8316492Y-1640804D01*
G01X8315600Y-1635463D01*
G01X8315546Y-1634015D01*
G01X8317028Y-1632381D01*
G01X8441705Y-1507704D01*
G03X8455914Y-1473400I-34305J34305D01*
G01X8455914Y-1104900D01*
G03X8441705Y-1070595I-48514J0D01*
G01X8359704Y-988595D01*
G03X8325400Y-974386I-34305J-34305D01*
G01X8308050Y-974386D01*
G03X8278112Y-831442I-96550J54386D01*
G03X8132473Y-842319I-66612J-88558D01*
G01X8130782Y-844056D01*
G01X8127135Y-848070D01*
G03X8125201Y-850388I26504J-24087D01*
G01X8119226Y-858193D01*
G01X8117961Y-859954D01*
G01X8110253Y-871397D01*
G01X8108217Y-871486D01*
G01X7855700Y-871486D01*
G03X7821395Y-885695I0J-48514D01*
G01X7358605Y-1348486D01*
G01X2165074Y-1348486D01*
G01X2182346Y-1331214D01*
G01X2247895Y-1331214D01*
G02X2260878Y-1336530I0J-18512D01*
G03X2285995Y-1346814I25117J25530D01*
G01X2365005Y-1346814D01*
G03X2380008Y-1343520I0J35814D01*
G03X2395012Y-1346814I15004J32520D01*
G01X2474021Y-1346814D01*
G03X2509835Y-1311000I0J35814D01*
G01X2509835Y-1257000D01*
G03X2474021Y-1221186I-35814J0D01*
G01X2395012Y-1221186D01*
G03X2380008Y-1224480I0J-35814D01*
G03X2365005Y-1221186I-15004J-32520D01*
G01X2285995Y-1221186D01*
G03X2264104Y-1228655I0J-35814D01*
G02X2247895Y-1234186I-16208J20986D01*
G01X2162251Y-1234186D01*
G03X2127946Y-1248395I0J-48514D01*
G01X2042314Y-1334028D01*
G01X2042314Y-1319007D01*
G03X2040888Y-1309001I-35814J0D01*
G03X2042314Y-1298995I-34388J10006D01*
G01X2042314Y-1268995D01*
G03X2040891Y-1259001I-35814J0D01*
G03X2042314Y-1249007I-34391J9994D01*
G01X2042314Y-1219007D01*
G03X2006500Y-1183193I-35814J0D01*
G01X1831500Y-1183193D01*
G03X1795686Y-1219007I0J-35814D01*
G01X1795686Y-1249007D01*
G03X1797109Y-1259001I35814J0D01*
G03X1795686Y-1268995I34391J-9994D01*
G01X1795686Y-1298995D01*
G03X1797112Y-1309001I35814J0D01*
G03X1795686Y-1319007I34388J-10006D01*
G01X1795686Y-1349007D01*
G03X1797109Y-1359001I35814J0D01*
G03X1795686Y-1368994I34391J-9994D01*
G01X1795686Y-1398994D01*
G03X1797112Y-1409001I35814J0D01*
G03X1795686Y-1419007I34388J-10006D01*
G01X1795686Y-1449007D01*
G03X1797109Y-1459001I35814J0D01*
G03X1795686Y-1468994I34391J-9994D01*
G01X1795686Y-1498994D01*
G03X1797112Y-1509001I35814J0D01*
G03X1795686Y-1519007I34388J-10006D01*
G01X1795686Y-1549007D01*
G03X1797109Y-1559000I35814J0D01*
G03X1795686Y-1568994I34391J-9994D01*
G01X1795686Y-1598994D01*
G03X1797074Y-1608867I35814J0D01*
G03X1795686Y-1618740I34426J-9873D01*
G01X1795686Y-1648740D01*
G03X1797229Y-1659140I35814J0D01*
G03X1795686Y-1669540I34271J-10400D01*
G01X1795686Y-1699540D01*
G03X1797034Y-1709273I35814J0D01*
G03X1795686Y-1719006I34466J-9733D01*
G01X1795686Y-1749006D01*
G03X1797112Y-1759013I35814J0D01*
G03X1795686Y-1769019I34388J-10006D01*
G01X1795686Y-1799019D01*
G03X1797109Y-1809013I35814J0D01*
G03X1795686Y-1819006I34391J-9994D01*
G01X1761547Y-1200810D02*
G03X1797361Y-1164996I0J35814D01*
G01X1797361Y-964996D01*
G03X1761547Y-929182I-35814J0D01*
G01X1511548Y-929182D01*
G03X1475734Y-964996I0J-35814D01*
G01X1475734Y-1164996D01*
G03X1511548Y-1200810I35814J0D01*
G01X1761547Y-1200810D01*
G01X8360186Y-3364000D02*
G03X8731814Y-3364000I185814J0D01*
G03X8360186Y-3364000I-185814J0D01*
G01X8360186Y-254000D02*
G03X8731814Y-254000I185814J0D01*
G03X8360186Y-254000I-185814J0D01*
G01X1458214Y-2090195D02*
G01X1615876Y-1932533D01*
G01X1793400Y-1932533D01*
G01X1795686Y-1932542D01*
G01X1795686Y-1949006D01*
G03X1797112Y-1959012I35814J0D01*
G03X1795686Y-1969019I34388J-10006D01*
G01X1795686Y-1999019D01*
G03X1797109Y-2009012I35814J0D01*
G03X1795686Y-2019006I34391J-9994D01*
G01X1795686Y-2049006D01*
G03X1797112Y-2059012I35814J0D01*
G03X1795686Y-2069018I34388J-10006D01*
G01X1795686Y-2099018D01*
G03X1797109Y-2109012I35814J0D01*
G03X1795686Y-2119006I34391J-9994D01*
G01X1795686Y-2149006D01*
G03X1797112Y-2159012I35814J0D01*
G03X1795686Y-2169018I34388J-10006D01*
G01X1795686Y-2199018D01*
G03X1797109Y-2209012I35814J0D01*
G03X1795686Y-2219005I34391J-9994D01*
G01X1795686Y-2249005D01*
G03X1797112Y-2259012I35814J0D01*
G03X1795686Y-2269018I34388J-10006D01*
G01X1795686Y-2299018D01*
G03X1797109Y-2309012I35814J0D01*
G03X1795686Y-2319005I34391J-9994D01*
G01X1795686Y-2349005D01*
G03X1797140Y-2359107I35814J0D01*
G03X1795656Y-2369310I34330J-10203D01*
G01X1795656Y-2399310D01*
G03X1831470Y-2435124I35814J0D01*
G01X2006470Y-2435124D01*
G03X2010778Y-2434864I0J35814D01*
G02X2034206Y-2433015I33792J-278868D01*
G01X2059686Y-2458495D01*
G01X2059686Y-2984500D01*
G03X2073895Y-3018805I48514J0D01*
G01X2143477Y-3088386D01*
G01X1582195Y-3088386D01*
G01X1458214Y-2964405D01*
G01X1458214Y-2090195D01*
G01X1761547Y-2688818D02*
G03X1797361Y-2653004I0J35814D01*
G01X1797361Y-2453004D01*
G03X1761547Y-2417190I-35814J0D01*
G01X1511548Y-2417190D01*
G03X1475734Y-2453004I0J-35814D01*
G01X1475734Y-2653004D01*
G03X1511548Y-2688818I35814J0D01*
G01X1761547Y-2688818D01*
G01X2240470Y-2096432D02*
G03X2257398Y-2127398I59530J12432D01*
G03X2260480Y-2138508I35602J3894D01*
G03X2257186Y-2153512I32520J-15004D01*
G01X2257186Y-2213977D01*
G01X2092923Y-2049714D01*
G03X2058618Y-2035504I-34305J-34305D01*
G01X2044600Y-2035504D01*
G01X2042314Y-2035495D01*
G01X2042314Y-2034833D01*
G01X2178871Y-2034833D01*
G01X2240470Y-2096432D01*
G01X2364996Y-2663814D02*
G03X2380000Y-2660520I0J35814D01*
G03X2395004Y-2663814I15004J32520D01*
G01X2474013Y-2663814D01*
G03X2509827Y-2628000I0J35814D01*
G01X2509827Y-2574000D01*
G03X2474013Y-2538186I-35814J0D01*
G01X2395004Y-2538186D01*
G03X2380000Y-2541480I0J-35814D01*
G03X2364996Y-2538186I-15004J-32520D01*
G01X2306601Y-2538186D01*
G01X2306601Y-2509814D01*
G01X2364996Y-2509814D01*
G03X2380000Y-2506520I0J35814D01*
G03X2395004Y-2509814I15004J32520D01*
G01X2474013Y-2509814D01*
G03X2509827Y-2474000I0J35814D01*
G01X2509827Y-2420000D01*
G03X2474013Y-2384186I-35814J0D01*
G01X2395004Y-2384186D01*
G03X2380000Y-2387480I0J-35814D01*
G03X2374006Y-2385337I-15004J-32520D01*
G01X2374006Y-2350892D01*
G03X2359796Y-2316587I-48514J0D01*
G01X2311544Y-2268335D01*
G01X2347000Y-2268335D01*
G03X2382814Y-2232521I0J35814D01*
G01X2382814Y-2153512D01*
G03X2382597Y-2149578I-35814J0D01*
G02X2397000Y-2146715I39403J-160577D01*
G02X2411402Y-2149578I-25000J-163440D01*
G03X2411186Y-2153512I35597J-3935D01*
G01X2411186Y-2232521D01*
G03X2447000Y-2268335I35814J0D01*
G01X2501000Y-2268335D01*
G03X2536814Y-2232521I0J35814D01*
G01X2536814Y-2153512D01*
G03X2536597Y-2149578I-35814J0D01*
G02X2576000Y-2144814I39403J-160577D01*
G01X2688250Y-2144814D01*
G02X2759984Y-2148091I0J-786653D01*
G03X2763249Y-2148241I3266J35665D01*
G01X2900951Y-2148241D01*
G03X2916660Y-2144611I0J35814D01*
G02X2975950Y-2130914I59291J-121474D01*
G01X7429710Y-2130914D01*
G01X7785798Y-2487002D01*
G03X7828800Y-2504814I43002J43002D01*
G01X8107487Y-2504814D01*
G01X8111026Y-2505113D01*
G01X8112426Y-2505487D01*
G01X8114132Y-2506264D01*
G01X8116735Y-2507918D01*
G01X8120403Y-2510804D01*
G01X8125176Y-2515056D01*
G01X8134932Y-2524106D01*
G03X8295386Y-2516407I76568J80106D01*
G01X8295386Y-2588306D01*
G03X8286500Y-2587186I-8886J-34694D01*
G01X8136500Y-2587186D01*
G03X8100686Y-2623000I0J-35814D01*
G01X8100686Y-2773000D01*
G03X8136500Y-2808814I35814J0D01*
G01X8286500Y-2808814D01*
G03X8295386Y-2807694I0J35814D01*
G01X8295386Y-2900905D01*
G01X8107905Y-3088386D01*
G01X2509827Y-3088386D01*
G01X2509827Y-3036000D01*
G03X2474013Y-3000186I-35814J0D01*
G01X2395004Y-3000186D01*
G03X2380000Y-3003480I0J-35814D01*
G03X2364996Y-3000186I-15004J-32520D01*
G01X2285987Y-3000186D01*
G03X2265463Y-3006650I0J-35814D01*
G02X2247887Y-3012186I-17576J25133D01*
G01X2204495Y-3012186D01*
G01X2156714Y-2964405D01*
G01X2156714Y-2808832D01*
G01X2245053Y-2897170D01*
G02X2250173Y-2914397I-26418J-17226D01*
G01X2250173Y-2936000D01*
G03X2285987Y-2971814I35814J0D01*
G01X2364996Y-2971814D01*
G03X2380000Y-2968520I0J35814D01*
G03X2395004Y-2971814I15004J32520D01*
G01X2474013Y-2971814D01*
G03X2509827Y-2936000I0J35814D01*
G01X2509827Y-2882000D01*
G03X2474013Y-2846186I-35814J0D01*
G01X2395004Y-2846186D01*
G03X2380000Y-2849480I0J-35814D01*
G03X2364996Y-2846186I-15004J-32520D01*
G01X2343393Y-2846186D01*
G02X2326166Y-2841066I0J31538D01*
G01X2302915Y-2817814D01*
G01X2364996Y-2817814D01*
G03X2380000Y-2814520I0J35814D01*
G03X2395004Y-2817814I15004J32520D01*
G01X2474013Y-2817814D01*
G03X2509827Y-2782000I0J35814D01*
G01X2509827Y-2728000D01*
G03X2474013Y-2692186I-35814J0D01*
G01X2395004Y-2692186D01*
G03X2380000Y-2695480I0J-35814D01*
G03X2364996Y-2692186I-15004J-32520D01*
G01X2343393Y-2692186D01*
G02X2326166Y-2687066I0J31538D01*
G01X2302915Y-2663814D01*
G01X2364996Y-2663814D01*
G01X7832595Y-2224305D02*
G03X7866900Y-2238514I34305J34305D01*
G01X8108217Y-2238514D01*
G01X8110253Y-2238603D01*
G01X8117961Y-2250046D01*
G01X8119226Y-2251807D01*
G01X8125201Y-2259612D01*
G03X8127135Y-2261930I28439J21769D01*
G01X8130782Y-2265943D01*
G01X8132473Y-2267681D01*
G03X8295386Y-2262407I79027J77681D01*
G01X8295386Y-2371592D01*
G03X8134932Y-2363894I-83886J-72407D01*
G01X8125176Y-2372944D01*
G01X8120403Y-2377196D01*
G01X8116735Y-2380082D01*
G01X8114132Y-2381736D01*
G01X8112426Y-2382513D01*
G01X8111026Y-2382886D01*
G01X8107487Y-2383186D01*
G01X7853990Y-2383186D01*
G01X7497902Y-2027098D01*
G03X7454900Y-2009286I-43002J-43002D01*
G01X2975950Y-2009286D01*
G02X2936332Y-1993622I0J57936D01*
G03X2900951Y-1963359I-35381J-5551D01*
G01X2763249Y-1963359D01*
G03X2727435Y-1999173I0J-35814D01*
G01X2727435Y-2007924D01*
G02X2688250Y-2023186I-39186J42673D01*
G01X2576000Y-2023186D01*
G02X2514353Y-2011264I0J165341D01*
G03X2501000Y-2008681I-13353J-33232D01*
G01X2447000Y-2008681D01*
G03X2433647Y-2011264I0J-35814D01*
G02X2397000Y-2021285I-61647J153418D01*
G02X2360353Y-2011264I25000J163440D01*
G03X2347000Y-2008681I-13353J-33232D01*
G01X2301510Y-2008681D01*
G02X2280809Y-1993047I45705J82041D01*
G01X2237212Y-1949450D01*
G01X2279846Y-1906816D01*
G03X2293000Y-1909319I13154J33311D01*
G01X2347000Y-1909319D01*
G03X2360346Y-1906739I0J35814D01*
G02X2396996Y-1896723I61654J-153535D01*
G02X2433647Y-1906745I-24996J-163440D01*
G03X2447000Y-1909327I13353J33232D01*
G01X2501000Y-1909327D01*
G03X2514353Y-1906745I0J35814D01*
G02X2576000Y-1894822I61647J-153418D01*
G01X2688250Y-1894822D01*
G02X2727435Y-1910085I0J-57936D01*
G01X2727435Y-1912427D01*
G03X2763249Y-1948241I35814J0D01*
G01X2900951Y-1948241D01*
G03X2936765Y-1912427I0J35814D01*
G01X2936765Y-1799173D01*
G03X2900951Y-1763359I-35814J0D01*
G01X2763249Y-1763359D01*
G03X2754015Y-1764570I0J-35814D01*
G02X2688250Y-1773195I-65766J246443D01*
G01X2576000Y-1773195D01*
G02X2536597Y-1768431I0J165341D01*
G03X2536814Y-1764496I-35597J3935D01*
G01X2536814Y-1685487D01*
G03X2501000Y-1649673I-35814J0D01*
G01X2447000Y-1649673D01*
G03X2411186Y-1685487I0J-35814D01*
G01X2411186Y-1764496D01*
G03X2411402Y-1768431I35814J0D01*
G02X2397004Y-1771293I-39403J160577D01*
G02X2382597Y-1768427I24996J163328D01*
G03X2382814Y-1764488I-35597J3940D01*
G01X2382814Y-1685478D01*
G03X2347000Y-1649664I-35814J0D01*
G01X2293614Y-1649664D01*
G01X2293614Y-1648714D01*
G01X7257005Y-1648714D01*
G01X7832595Y-2224305D01*
G54D11*
G01X1636547Y-2652750D02*
G01X1636547Y-2678658D01*
G01X1636547Y-2453258D02*
G01X1636547Y-2427350D01*
G01X1511802Y-2553004D02*
G01X1485894Y-2553004D01*
G01X1761293Y-2553004D02*
G01X1787201Y-2553004D01*
G01X1636547Y-1164742D02*
G01X1636547Y-1190650D01*
G01X1636547Y-965250D02*
G01X1636547Y-939342D01*
G01X1511802Y-1064996D02*
G01X1485894Y-1064996D01*
G01X1761293Y-1064996D02*
G01X1787201Y-1064996D01*
G01X2320000Y-2232267D02*
G01X2320000Y-2258175D01*
G01X2293254Y-2193017D02*
G01X2267346Y-2193017D01*
G01X2346746Y-2193017D02*
G01X2372654Y-2193017D01*
G01X2320000Y-1685732D02*
G01X2320000Y-1659824D01*
G01X2346746Y-1724983D02*
G01X2372654Y-1724983D01*
G01X2473759Y-2601000D02*
G01X2499667Y-2601000D01*
G01X2434508Y-2627746D02*
G01X2434508Y-2653654D01*
G01X2434508Y-2574254D02*
G01X2434508Y-2548346D01*
G01X2473759Y-2447000D02*
G01X2499667Y-2447000D01*
G01X2434508Y-2473746D02*
G01X2434508Y-2499654D01*
G01X2434508Y-2420254D02*
G01X2434508Y-2394346D01*
G01X2473759Y-2755000D02*
G01X2499667Y-2755000D01*
G01X2434508Y-2781746D02*
G01X2434508Y-2807654D01*
G01X2434508Y-2728254D02*
G01X2434508Y-2702346D01*
G01X2473759Y-2909000D02*
G01X2499667Y-2909000D01*
G01X2434508Y-2935746D02*
G01X2434508Y-2961654D01*
G01X2434508Y-2882254D02*
G01X2434508Y-2856346D01*
G01X2473759Y-3063000D02*
G01X2499667Y-3063000D01*
G01X2434508Y-3036254D02*
G01X2434508Y-3010346D01*
G01X2473767Y-1284000D02*
G01X2499675Y-1284000D01*
G01X2434517Y-1257254D02*
G01X2434517Y-1231346D01*
G01X2434517Y-1310746D02*
G01X2434517Y-1336654D01*
G01X2474000Y-2232267D02*
G01X2474000Y-2258175D01*
G01X2447254Y-2193017D02*
G01X2421346Y-2193017D01*
G01X2500746Y-2193017D02*
G01X2526654Y-2193017D01*
G01X2474000Y-1685741D02*
G01X2474000Y-1659833D01*
G01X2500746Y-1724992D02*
G01X2526654Y-1724992D01*
G01X2447254Y-1724992D02*
G01X2421346Y-1724992D01*
G01X8211500Y-2772746D02*
G01X8211500Y-2798654D01*
G01X8211500Y-2623254D02*
G01X8211500Y-2597346D01*
G01X8136754Y-2698000D02*
G01X8110846Y-2698000D01*
G04 Copper End*

G04 TearDrop Start*
G36*
G01X8109000Y-2469000D02*
G01X8109000Y-2419000D01*
G01X8117202Y-2418306D01*
G01X8124552Y-2416344D01*
G01X8131242Y-2413296D01*
G01X8137463Y-2409343D01*
G01X8143408Y-2404666D01*
G01X8149268Y-2399445D01*
G01X8161500Y-2388098D01*
G01X8161500Y-2499902D01*
G01X8149268Y-2488555D01*
G01X8143408Y-2483334D01*
G01X8137463Y-2478657D01*
G01X8131242Y-2474703D01*
G01X8124552Y-2471655D01*
G01X8117202Y-2469694D01*
G01X8109000Y-2469000D01*
G37*
G36*
G01X8109000Y-2202700D02*
G01X8109000Y-2177300D01*
G01X8114664Y-2177052D01*
G01X8119568Y-2176330D01*
G01X8123807Y-2175164D01*
G01X8127476Y-2173587D01*
G01X8130670Y-2171631D01*
G01X8133482Y-2169326D01*
G01X8138344Y-2163799D01*
G01X8147665Y-2149961D01*
G01X8153639Y-2142156D01*
G01X8157287Y-2138143D01*
G01X8161500Y-2134098D01*
G01X8161500Y-2245902D01*
G01X8157287Y-2241857D01*
G01X8153639Y-2237843D01*
G01X8147665Y-2230038D01*
G01X8138344Y-2216200D01*
G01X8133482Y-2210674D01*
G01X8130670Y-2208369D01*
G01X8127476Y-2206413D01*
G01X8123807Y-2204836D01*
G01X8119568Y-2203670D01*
G01X8114664Y-2202948D01*
G01X8109000Y-2202700D01*
G37*
G36*
G01X8292959Y-1999498D02*
G01X8274998Y-2017458D01*
G01X8270818Y-2013629D01*
G01X8266839Y-2010672D01*
G01X8263017Y-2008498D01*
G01X8259308Y-2007019D01*
G01X8255667Y-2006144D01*
G01X8252048Y-2005785D01*
G01X8244702Y-2006255D01*
G01X8228327Y-2009450D01*
G01X8218583Y-2010744D01*
G01X8213166Y-2011003D01*
G01X8207327Y-2010884D01*
G01X8286384Y-1931827D01*
G01X8286503Y-1937666D01*
G01X8286244Y-1943083D01*
G01X8284950Y-1952827D01*
G01X8281755Y-1969202D01*
G01X8281285Y-1976548D01*
G01X8281644Y-1980167D01*
G01X8282519Y-1983808D01*
G01X8283998Y-1987517D01*
G01X8286172Y-1991339D01*
G01X8289129Y-1995318D01*
G01X8292959Y-1999498D01*
G37*
G36*
G01X8263661Y-1599179D02*
G01X8291087Y-1607673D01*
G01X8287460Y-1611672D01*
G01X8284614Y-1615601D01*
G01X8282477Y-1619485D01*
G01X8280977Y-1623349D01*
G01X8280041Y-1627218D01*
G01X8279597Y-1631116D01*
G01X8279898Y-1639101D01*
G01X8281300Y-1647501D01*
G01X8283227Y-1656514D01*
G01X8285101Y-1666340D01*
G01X8286345Y-1677177D01*
G01X8198391Y-1608155D01*
G01X8205604Y-1607401D01*
G01X8214080Y-1607199D01*
G01X8232834Y-1607136D01*
G01X8242120Y-1606618D01*
G01X8250684Y-1605338D01*
G01X8254540Y-1604310D01*
G01X8258030Y-1602968D01*
G01X8261091Y-1601271D01*
G01X8263661Y-1599179D01*
G37*
G36*
G01X8274998Y-1346541D02*
G01X8292959Y-1364502D01*
G01X8289129Y-1368682D01*
G01X8286172Y-1372661D01*
G01X8283998Y-1376482D01*
G01X8282519Y-1380192D01*
G01X8281644Y-1383833D01*
G01X8281285Y-1387452D01*
G01X8281755Y-1394798D01*
G01X8284950Y-1411173D01*
G01X8286244Y-1420917D01*
G01X8286503Y-1426334D01*
G01X8286384Y-1432173D01*
G01X8207327Y-1353116D01*
G01X8213166Y-1352997D01*
G01X8218583Y-1353256D01*
G01X8228327Y-1354550D01*
G01X8244702Y-1357744D01*
G01X8252048Y-1358215D01*
G01X8255667Y-1357855D01*
G01X8259308Y-1356981D01*
G01X8263017Y-1355501D01*
G01X8266839Y-1353328D01*
G01X8270818Y-1350371D01*
G01X8274998Y-1346541D01*
G37*
G36*
G01X8109000Y-1186700D02*
G01X8109000Y-1161300D01*
G01X8114664Y-1161052D01*
G01X8119568Y-1160330D01*
G01X8123807Y-1159164D01*
G01X8127476Y-1157587D01*
G01X8130670Y-1155631D01*
G01X8133482Y-1153326D01*
G01X8138344Y-1147799D01*
G01X8147665Y-1133961D01*
G01X8153639Y-1126156D01*
G01X8157287Y-1122143D01*
G01X8161500Y-1118098D01*
G01X8161500Y-1229902D01*
G01X8157287Y-1225857D01*
G01X8153639Y-1221843D01*
G01X8147665Y-1214038D01*
G01X8138344Y-1200200D01*
G01X8133482Y-1194674D01*
G01X8130670Y-1192369D01*
G01X8127476Y-1190413D01*
G01X8123807Y-1188836D01*
G01X8119568Y-1187670D01*
G01X8114664Y-1186948D01*
G01X8109000Y-1186700D01*
G37*
G36*
G01X8109000Y-932700D02*
G01X8109000Y-907300D01*
G01X8114664Y-907052D01*
G01X8119568Y-906330D01*
G01X8123807Y-905164D01*
G01X8127476Y-903587D01*
G01X8130670Y-901631D01*
G01X8133482Y-899326D01*
G01X8138344Y-893799D01*
G01X8147665Y-879961D01*
G01X8153639Y-872156D01*
G01X8157287Y-868143D01*
G01X8161500Y-864098D01*
G01X8161500Y-975902D01*
G01X8157287Y-971857D01*
G01X8153639Y-967843D01*
G01X8147665Y-960038D01*
G01X8138344Y-946200D01*
G01X8133482Y-940674D01*
G01X8130670Y-938369D01*
G01X8127476Y-936413D01*
G01X8123807Y-934836D01*
G01X8119568Y-933670D01*
G01X8114664Y-932948D01*
G01X8109000Y-932700D01*
G37*
G36*
G01X2688250Y-2109000D02*
G01X2688250Y-2059000D01*
G03X2763249Y-2021500I0J93750D01*
G01X2763249Y-2112427D01*
G03X2688250Y-2109000I-75000J-819041D01*
G37*
G36*
G01X2975950Y-2045100D02*
G01X2975950Y-2095100D01*
G03X2900951Y-2112427I0J-170985D01*
G01X2900951Y-2007600D01*
G03X2975950Y-2045100I75000J56250D01*
G37*
G36*
G01X2688250Y-1859008D02*
G01X2688250Y-1809009D01*
G03X2763249Y-1799173I0J290881D01*
G01X2763249Y-1896508D01*
G03X2688250Y-1859008I-75000J-56250D01*
G37*
G36*
G01X2247895Y-1295400D02*
G01X2247895Y-1270000D01*
G03X2285995Y-1257000I0J62330D01*
G01X2285995Y-1311000D01*
G03X2247895Y-1295400I-38100J-38725D01*
G37*
G36*
G01X2422000Y-1809009D02*
G01X2422000Y-1859008D01*
G03X2347000Y-1873505I0J-201266D01*
G01X2347000Y-1794495D01*
G03X2422000Y-1809009I75000J186530D01*
G37*
G36*
G01X2372000Y-2109000D02*
G01X2372000Y-2059000D01*
G03X2447000Y-2044495I0J201155D01*
G01X2447000Y-2123505D01*
G03X2372000Y-2109000I-75000J-186650D01*
G37*
G36*
G01X2576000Y-2059000D02*
G01X2576000Y-2109000D01*
G03X2501000Y-2123505I0J-201155D01*
G01X2501000Y-2044495D01*
G03X2576000Y-2059000I75000J186650D01*
G37*
G36*
G01X2283487Y-2613700D02*
G01X2283487Y-2588300D01*
G03X2285987Y-2574000I-39647J14300D01*
G01X2285987Y-2628000D01*
G03X2283487Y-2613700I-42147J0D01*
G37*
G36*
G01X2272517Y-2719986D02*
G01X2302982Y-2714529D01*
G03X2343393Y-2728000I40411J53882D01*
G01X2285987Y-2760397D01*
G03X2272517Y-2719986I-67352J0D01*
G37*
G36*
G01X2272517Y-2873986D02*
G01X2302982Y-2868529D01*
G03X2343393Y-2882000I40411J53882D01*
G01X2285987Y-2914397D01*
G03X2272517Y-2873986I-67352J0D01*
G37*
G36*
G01X2247887Y-3073400D02*
G01X2247887Y-3048000D01*
G03X2285987Y-3036000I0J66483D01*
G01X2285987Y-3090000D01*
G03X2247887Y-3073400I-38100J-35423D01*
G37*
G36*
G01X2044570Y-2371610D02*
G01X2044570Y-2397010D01*
G03X2006470Y-2399310I0J-316721D01*
G01X2006470Y-2369310D01*
G03X2044570Y-2371610I38100J314422D01*
G37*
G36*
G01X2044600Y-2071318D02*
G01X2044600Y-2096718D01*
G03X2006500Y-2099018I0J-316721D01*
G01X2006500Y-2069018D01*
G03X2044600Y-2071318I38100J314422D01*
G37*
G36*
G01X1793400Y-1896719D02*
G01X1793400Y-1871319D01*
G03X1831500Y-1869019I0J316721D01*
G01X1831500Y-1899019D01*
G03X1793400Y-1896719I-38100J-314422D01*
G37*
G36*
G01X2010944Y-1421307D02*
G01X2010944Y-1446707D01*
G03X2006500Y-1449007I0J-5443D01*
G01X2006500Y-1419007D01*
G03X2010944Y-1421307I4444J3143D01*
G37*
G36*
G01X2372000Y-1859008D02*
G01X2372000Y-1809009D01*
G03X2447000Y-1794504I0J201155D01*
G01X2447000Y-1873513D01*
G03X2372000Y-1859008I-75000J-186650D01*
G37*
G36*
G01X2576000Y-1809009D02*
G01X2576000Y-1859008D01*
G03X2501000Y-1873513I0J-201155D01*
G01X2501000Y-1794504D01*
G03X2576000Y-1809009I75000J186650D01*
G37*
G36*
G01X2273776Y-2079089D02*
G01X2255484Y-2018371D01*
G03X2293000Y-2044495I91731J91731D01*
G01X2293000Y-2123505D01*
G03X2273776Y-2079089I-65714J-2074D01*
G37*
G36*
G01X2422000Y-2059000D02*
G01X2422000Y-2109000D01*
G03X2347000Y-2123505I0J-201155D01*
G01X2347000Y-2044495D01*
G03X2422000Y-2059000I75000J186650D01*
G37*
G04 TearDrop End*

G04 Pad Start*
G54D12*
G01X8211500Y-2698000D03*
G54D13*
G01X8211500Y-2444000D03*
G01X8211500Y-2190000D03*
G01X8211500Y-1936000D03*
G01X8211500Y-1682000D03*
G01X8211500Y-1428000D03*
G01X8211500Y-1174000D03*
G01X8211500Y-920000D03*
G54D14*
G01X2832100Y-2055800D03*
G01X2832100Y-1855800D03*
G54D15*
G01X2434517Y-1284000D03*
G01X2325500Y-1284000D03*
G54D16*
G01X2320000Y-1834000D03*
G01X2320000Y-1724983D03*
G54D17*
G01X2474000Y-2084000D03*
G01X2474000Y-2193017D03*
G54D19*
G01X2325492Y-2447000D03*
G01X2434508Y-2447000D03*
G01X2325492Y-2601000D03*
G01X2434508Y-2601000D03*
G01X2325492Y-2755000D03*
G01X2434508Y-2755000D03*
G01X2325492Y-2909000D03*
G01X2434508Y-2909000D03*
G01X2325492Y-3063000D03*
G01X2434508Y-3063000D03*
G54D20*
G01X1918970Y-2384310D03*
G01X1919000Y-2334005D03*
G01X1919000Y-2284018D03*
G01X1919000Y-2234005D03*
G01X1919000Y-2184018D03*
G01X1919000Y-2134006D03*
G01X1919000Y-2084018D03*
G01X1919000Y-2034006D03*
G01X1919000Y-1984019D03*
G01X1919000Y-1934006D03*
G01X1919000Y-1884019D03*
G01X1919000Y-1834006D03*
G01X1919000Y-1784019D03*
G01X1919000Y-1734006D03*
G01X1919000Y-1684540D03*
G01X1919000Y-1633740D03*
G01X1919000Y-1583994D03*
G01X1919000Y-1534007D03*
G01X1919000Y-1483994D03*
G01X1919000Y-1434007D03*
G01X1919000Y-1383994D03*
G01X1919000Y-1334007D03*
G01X1919000Y-1283995D03*
G01X1919000Y-1234007D03*
G54D21*
G01X1636547Y-2553004D03*
G01X1636547Y-1064996D03*
G54D16*
G01X2474000Y-1834009D03*
G01X2474000Y-1724992D03*
G54D17*
G01X2320000Y-2084000D03*
G01X2320000Y-2193017D03*
G04 Pad End*

G04 Via Start*
G54D22*
G01X8546000Y-254000D03*
G01X8546000Y-3364000D03*
G01X254000Y-254000D03*
G01X254000Y-3364000D03*
G54D23*
G01X1051814Y-3074186D03*
G01X1051814Y-2566186D03*
G01X1051814Y-2058186D03*
G01X1051814Y-1550186D03*
G01X1051814Y-1042186D03*
G01X1051814Y-534186D03*
G01X1559814Y-2058186D03*
G01X1559814Y-1550186D03*
G01X1559814Y-534186D03*
G01X2067814Y-3074186D03*
G01X2067814Y-1042186D03*
G01X2067814Y-534186D03*
G01X2575814Y-3074186D03*
G01X2575814Y-2566186D03*
G01X2575814Y-1042186D03*
G01X2575814Y-534186D03*
G01X3083814Y-3074186D03*
G01X3083814Y-2566186D03*
G01X3083814Y-1042186D03*
G01X3083814Y-534186D03*
G01X3591814Y-3074186D03*
G01X3591814Y-2566186D03*
G01X3591814Y-1042186D03*
G01X3591814Y-534186D03*
G01X4099814Y-3074186D03*
G01X4099814Y-2566186D03*
G01X4099814Y-1042186D03*
G01X4099814Y-534186D03*
G01X4607814Y-3074186D03*
G01X4607814Y-2566186D03*
G01X4607814Y-1042186D03*
G01X4607814Y-534186D03*
G01X5115814Y-3074186D03*
G01X5115814Y-2566186D03*
G01X5115814Y-1042186D03*
G01X5115814Y-534186D03*
G01X5623814Y-3074186D03*
G01X5623814Y-2566186D03*
G01X5623814Y-1042186D03*
G01X5623814Y-534186D03*
G01X6131814Y-3074186D03*
G01X6131814Y-2566186D03*
G01X6131814Y-1042186D03*
G01X6131814Y-534186D03*
G01X6639814Y-3074186D03*
G01X6639814Y-2566186D03*
G01X6639814Y-1042186D03*
G01X6639814Y-534186D03*
G01X7147814Y-3074186D03*
G01X7147814Y-2566186D03*
G01X7147814Y-1042186D03*
G01X7147814Y-534186D03*
G01X7655814Y-3074186D03*
G01X7655814Y-2566186D03*
G01X7655814Y-1550186D03*
G01X7655814Y-534186D03*
G01X8671814Y-3074186D03*
G01X8671814Y-2566186D03*
G01X8671814Y-2058186D03*
G01X8671814Y-1550186D03*
G01X8671814Y-1042186D03*
G01X8671814Y-534186D03*
G01X3086100Y-1727200D03*
G01X3594100Y-1727200D03*
G01X4102100Y-1727200D03*
G01X4610100Y-1727200D03*
G01X5118100Y-1727200D03*
G01X5626100Y-1727200D03*
G01X6134100Y-1727200D03*
G01X6642100Y-1727200D03*
G01X7150100Y-1727200D03*
G04 Via End*

G04 Track Start*
G54D11*
G01X2258087Y-2575600D02*
G01X2283487Y-2601000D01*
G01X2325492Y-2601000D01*
G01X2209800Y-2639308D02*
G01X2325492Y-2755000D01*
G01X2159000Y-2742508D02*
G01X2325492Y-2909000D01*
G01X1919000Y-2284018D02*
G01X2030018Y-2284018D01*
G01X2159000Y-2413000D01*
G01X2159000Y-2742508D01*
G01X1919000Y-2234005D02*
G01X2056205Y-2234005D01*
G01X2209800Y-2387600D01*
G01X2209800Y-2639308D01*
G01X1919000Y-2184018D02*
G01X2082418Y-2184018D01*
G01X2258087Y-2359687D01*
G01X2258087Y-2575600D01*
G01X1919000Y-2084018D02*
G01X2058618Y-2084018D01*
G01X2325492Y-2350892D01*
G01X2325492Y-2447000D01*
G01X2108200Y-2984500D02*
G01X2184400Y-3060700D01*
G01X2323192Y-3060700D01*
G01X2325492Y-3063000D01*
G01X1918970Y-2384310D02*
G01X2054110Y-2384310D01*
G01X2108200Y-2438400D01*
G01X2108200Y-2984500D01*
G54D24*
G01X2810308Y-1834009D02*
G01X2832100Y-1855800D01*
G01X2803900Y-2084000D02*
G01X2832100Y-2055800D01*
G01X2846400Y-2070100D01*
G54D11*
G01X8343900Y-2921000D02*
G01X8128000Y-3136900D01*
G01X8343900Y-2068400D02*
G01X8343900Y-2921000D01*
G01X8211500Y-1936000D02*
G01X8343900Y-2068400D01*
G01X1562100Y-3136900D02*
G01X1409700Y-2984500D01*
G01X8128000Y-3136900D02*
G01X1562100Y-3136900D01*
G01X1409700Y-2984500D02*
G01X1409700Y-2070100D01*
G01X1595781Y-1884019D01*
G01X1919000Y-1884019D01*
G01X8211500Y-920000D02*
G01X7855700Y-920000D01*
G01X8407400Y-1473400D02*
G01X8211500Y-1669300D01*
G01X8407400Y-1104900D02*
G01X8407400Y-1473400D01*
G01X8325400Y-1022900D02*
G01X8407400Y-1104900D01*
G01X7834298Y-1022900D02*
G01X8325400Y-1022900D01*
G01X8211500Y-1669300D02*
G01X8211500Y-1682001D01*
G01X8211500Y-1174000D02*
G01X7830300Y-1174000D01*
G54D24*
G01X2846400Y-2070100D02*
G01X7454900Y-2070100D01*
G01X7828800Y-2444000D01*
G01X8211500Y-2444000D01*
G54D25*
G01X1919000Y-2034006D02*
G01X1583994Y-2034006D01*
G01X1559814Y-2058186D01*
G54D11*
G01X1919000Y-1434007D02*
G01X2010944Y-1434007D01*
G01X2324200Y-1282700D02*
G01X2325500Y-1284000D01*
G01X2162251Y-1282700D02*
G01X2324200Y-1282700D01*
G01X2010944Y-1434007D02*
G01X2162251Y-1282700D01*
G01X7855700Y-920000D02*
G01X7378700Y-1397000D01*
G01X7409398Y-1447800D02*
G01X7834298Y-1022900D01*
G01X7830300Y-1174000D02*
G01X7454900Y-1549400D01*
G01X1919000Y-1684540D02*
G01X2049260Y-1684540D01*
G01X8211500Y-1428000D02*
G01X8343900Y-1295600D01*
G01X8343900Y-1130300D01*
G01X8280400Y-1066800D01*
G01X7861300Y-1066800D01*
G01X7429500Y-1498600D01*
G01X2019300Y-1633740D02*
G01X1919000Y-1633740D01*
G01X7277100Y-1600200D02*
G01X7866900Y-2190000D01*
G01X8211500Y-2190000D01*
G01X2044700Y-1608340D02*
G01X2019300Y-1633740D01*
G01X2273300Y-1600200D02*
G01X7277100Y-1600200D01*
G01X7454900Y-1549400D02*
G01X2247900Y-1549400D01*
G01X7429500Y-1498600D02*
G01X2209800Y-1498600D01*
G01X2184400Y-1447800D02*
G01X7409398Y-1447800D01*
G01X7378700Y-1397000D02*
G01X2159000Y-1397000D01*
G01X2044700Y-1511300D01*
G01X2044700Y-1608340D01*
G01X1919000Y-1834006D02*
G01X2153794Y-1834006D01*
G01X2114881Y-1784019D02*
G01X1919000Y-1784019D01*
G01X2075994Y-1734006D02*
G01X1919000Y-1734006D01*
G01X2153794Y-1834006D02*
G01X2245100Y-1742700D01*
G01X2245100Y-1628400D01*
G01X2273300Y-1600200D01*
G01X2247900Y-1549400D02*
G01X2197100Y-1600200D01*
G01X2197100Y-1701800D01*
G01X2114881Y-1784019D01*
G01X2209800Y-1498600D02*
G01X2146300Y-1562100D01*
G01X2146300Y-1663700D01*
G01X2075994Y-1734006D01*
G01X2049260Y-1684540D02*
G01X2095500Y-1638300D01*
G01X2095500Y-1536700D01*
G01X2184400Y-1447800D01*
G54D24*
G01X2300009Y-1834009D02*
G01X2474000Y-1834009D01*
G01X2810308Y-1834009D01*
G54D25*
G01X1919000Y-1934006D02*
G01X2180794Y-1934006D01*
G01X2280800Y-1834000D01*
G01X2300000Y-1834000D01*
G01X1919000Y-1984019D02*
G01X2199919Y-1984019D01*
G01X2299900Y-2084000D01*
G54D24*
G01X2300000Y-2084000D02*
G01X2803900Y-2084000D01*
G04 Track End*

M02*

