G04 Layer: BottomPasteMaskLayer*
G04 EasyEDA Pro v2.2.32.3, 2025-10-31 12:43:36*
G04 Gerber Generator version 0.3*
G04 Scale: 100 percent, Rotated: No, Reflected: No*
G04 Dimensions in millimeters*
G04 Leading zeros omitted, absolute positions, 3 integers and 5 decimals*
%FSLAX35Y35*%
%MOMM*%
%ADD10R,1.75X0.3*%
%ADD11R,2.49999X2.0*%
G75*


G04 PolygonModel Start*
G36*
G01X2896100Y-1785798D02*
G01X2768102Y-1785798D01*
G01X2763101Y-1790799D01*
G01X2763101Y-1905800D01*
G01X2768102Y-1910799D01*
G01X2809105Y-1911302D01*
G01X2809105Y-1866301D01*
G01X2854104Y-1866301D01*
G01X2854104Y-1910301D01*
G01X2896100Y-1910799D01*
G01X2901102Y-1905800D01*
G01X2901102Y-1790799D01*
G01X2896100Y-1785798D01*
G37*
G36*
G01X2896100Y-2000799D02*
G01X2854104Y-2000801D01*
G01X2854104Y-2045299D01*
G01X2809105Y-2045299D01*
G01X2809105Y-2001302D01*
G01X2768102Y-2000799D01*
G01X2763101Y-2005800D01*
G01X2763101Y-2120798D01*
G01X2768102Y-2125800D01*
G01X2896100Y-2125800D01*
G01X2901102Y-2120798D01*
G01X2901102Y-2005800D01*
G01X2896100Y-2000799D01*
G37*
G36*
G01X2362005Y-1306502D02*
G01X2362005Y-1261501D01*
G01X2355007Y-1256502D01*
G01X2307006Y-1256502D01*
G01X2302005Y-1261501D01*
G01X2302005Y-1306502D01*
G01X2307006Y-1311501D01*
G01X2355007Y-1311501D01*
G01X2362005Y-1306502D01*
G37*
G36*
G01X2458007Y-1306502D02*
G01X2458007Y-1261501D01*
G01X2453006Y-1256502D01*
G01X2405007Y-1256502D01*
G01X2398007Y-1261501D01*
G01X2398007Y-1306502D01*
G01X2405007Y-1311501D01*
G01X2453006Y-1311501D01*
G01X2458007Y-1306502D01*
G37*
G36*
G01X2297498Y-1761488D02*
G01X2342499Y-1761488D01*
G01X2347498Y-1754490D01*
G01X2347498Y-1706489D01*
G01X2342499Y-1701488D01*
G01X2297498Y-1701488D01*
G01X2292499Y-1706489D01*
G01X2292499Y-1754490D01*
G01X2297498Y-1761488D01*
G37*
G36*
G01X2297498Y-1857490D02*
G01X2342499Y-1857490D01*
G01X2347498Y-1852489D01*
G01X2347498Y-1804490D01*
G01X2342499Y-1797490D01*
G01X2297498Y-1797490D01*
G01X2292499Y-1804490D01*
G01X2292499Y-1852489D01*
G01X2297498Y-1857490D01*
G37*
G36*
G01X2496502Y-2156512D02*
G01X2451501Y-2156512D01*
G01X2446502Y-2163510D01*
G01X2446502Y-2211510D01*
G01X2451501Y-2216512D01*
G01X2496502Y-2216512D01*
G01X2501500Y-2211510D01*
G01X2501500Y-2163510D01*
G01X2496502Y-2156512D01*
G37*
G36*
G01X2496502Y-2060510D02*
G01X2451501Y-2060510D01*
G01X2446502Y-2065511D01*
G01X2446502Y-2113510D01*
G01X2451501Y-2120510D01*
G01X2496502Y-2120510D01*
G01X2501500Y-2113510D01*
G01X2501500Y-2065511D01*
G01X2496502Y-2060510D01*
G37*
G36*
G01X2398004Y-2424498D02*
G01X2398004Y-2469499D01*
G01X2405001Y-2474498D01*
G01X2453002Y-2474498D01*
G01X2458003Y-2469499D01*
G01X2458003Y-2424498D01*
G01X2453002Y-2419499D01*
G01X2405001Y-2419499D01*
G01X2398004Y-2424498D01*
G37*
G36*
G01X2302002Y-2424498D02*
G01X2302002Y-2469499D01*
G01X2307003Y-2474498D01*
G01X2355001Y-2474498D01*
G01X2362002Y-2469499D01*
G01X2362002Y-2424498D01*
G01X2355001Y-2419499D01*
G01X2307003Y-2419499D01*
G01X2302002Y-2424498D01*
G37*
G36*
G01X2398004Y-2578498D02*
G01X2398004Y-2623499D01*
G01X2405001Y-2628498D01*
G01X2453002Y-2628498D01*
G01X2458003Y-2623499D01*
G01X2458003Y-2578498D01*
G01X2453002Y-2573499D01*
G01X2405001Y-2573499D01*
G01X2398004Y-2578498D01*
G37*
G36*
G01X2302002Y-2578498D02*
G01X2302002Y-2623499D01*
G01X2307003Y-2628498D01*
G01X2355001Y-2628498D01*
G01X2362002Y-2623499D01*
G01X2362002Y-2578498D01*
G01X2355001Y-2573499D01*
G01X2307003Y-2573499D01*
G01X2302002Y-2578498D01*
G37*
G36*
G01X2398004Y-2732498D02*
G01X2398004Y-2777499D01*
G01X2405001Y-2782498D01*
G01X2453002Y-2782498D01*
G01X2458003Y-2777499D01*
G01X2458003Y-2732498D01*
G01X2453002Y-2727499D01*
G01X2405001Y-2727499D01*
G01X2398004Y-2732498D01*
G37*
G36*
G01X2302002Y-2732498D02*
G01X2302002Y-2777499D01*
G01X2307003Y-2782498D01*
G01X2355001Y-2782498D01*
G01X2362002Y-2777499D01*
G01X2362002Y-2732498D01*
G01X2355001Y-2727499D01*
G01X2307003Y-2727499D01*
G01X2302002Y-2732498D01*
G37*
G36*
G01X2398004Y-2886498D02*
G01X2398004Y-2931499D01*
G01X2405001Y-2936498D01*
G01X2453002Y-2936498D01*
G01X2458003Y-2931499D01*
G01X2458003Y-2886498D01*
G01X2453002Y-2881499D01*
G01X2405001Y-2881499D01*
G01X2398004Y-2886498D01*
G37*
G36*
G01X2302002Y-2886498D02*
G01X2302002Y-2931499D01*
G01X2307003Y-2936498D01*
G01X2355001Y-2936498D01*
G01X2362002Y-2931499D01*
G01X2362002Y-2886498D01*
G01X2355001Y-2881499D01*
G01X2307003Y-2881499D01*
G01X2302002Y-2886498D01*
G37*
G36*
G01X2398004Y-3040498D02*
G01X2398004Y-3085499D01*
G01X2405001Y-3090498D01*
G01X2453002Y-3090498D01*
G01X2458003Y-3085499D01*
G01X2458003Y-3040498D01*
G01X2453002Y-3035499D01*
G01X2405001Y-3035499D01*
G01X2398004Y-3040498D01*
G37*
G36*
G01X2302002Y-3040498D02*
G01X2302002Y-3085499D01*
G01X2307003Y-3090498D01*
G01X2355001Y-3090498D01*
G01X2362002Y-3085499D01*
G01X2362002Y-3040498D01*
G01X2355001Y-3035499D01*
G01X2307003Y-3035499D01*
G01X2302002Y-3040498D01*
G37*
G36*
G01X2451498Y-1761497D02*
G01X2496499Y-1761497D01*
G01X2501498Y-1754499D01*
G01X2501498Y-1706498D01*
G01X2496499Y-1701497D01*
G01X2451498Y-1701497D01*
G01X2446499Y-1706498D01*
G01X2446499Y-1754499D01*
G01X2451498Y-1761497D01*
G37*
G36*
G01X2451498Y-1857498D02*
G01X2496499Y-1857498D01*
G01X2501498Y-1852497D01*
G01X2501498Y-1804499D01*
G01X2496499Y-1797499D01*
G01X2451498Y-1797499D01*
G01X2446499Y-1804499D01*
G01X2446499Y-1852497D01*
G01X2451498Y-1857498D01*
G37*
G36*
G01X2342502Y-2156512D02*
G01X2297501Y-2156512D01*
G01X2292502Y-2163510D01*
G01X2292502Y-2211510D01*
G01X2297501Y-2216512D01*
G01X2342502Y-2216512D01*
G01X2347501Y-2211510D01*
G01X2347501Y-2163510D01*
G01X2342502Y-2156512D01*
G37*
G36*
G01X2342502Y-2060510D02*
G01X2297501Y-2060510D01*
G01X2292502Y-2065511D01*
G01X2292502Y-2113510D01*
G01X2297501Y-2120510D01*
G01X2342502Y-2120510D01*
G01X2347501Y-2113510D01*
G01X2347501Y-2065511D01*
G01X2342502Y-2060510D01*
G37*

G04 Pad Start*
G54D10*
G01X1918970Y-2384310D03*
G01X1919000Y-2334005D03*
G01X1919000Y-2284018D03*
G01X1919000Y-2234005D03*
G01X1919000Y-2184018D03*
G01X1919000Y-2134006D03*
G01X1919000Y-2084018D03*
G01X1919000Y-2034006D03*
G01X1919000Y-1984019D03*
G01X1919000Y-1934006D03*
G01X1919000Y-1884019D03*
G01X1919000Y-1834006D03*
G01X1919000Y-1784019D03*
G01X1919000Y-1734006D03*
G01X1919000Y-1684540D03*
G01X1919000Y-1633740D03*
G01X1919000Y-1583994D03*
G01X1919000Y-1534007D03*
G01X1919000Y-1483994D03*
G01X1919000Y-1434007D03*
G01X1919000Y-1383994D03*
G01X1919000Y-1334007D03*
G01X1919000Y-1283995D03*
G01X1919000Y-1234007D03*
G54D11*
G01X1636547Y-2553004D03*
G01X1636547Y-1064996D03*
G04 Pad End*

M02*

