G04 Layer: BottomSolderMaskLayer*
G04 EasyEDA Pro v2.2.32.3, 2025-10-31 12:43:36*
G04 Gerber Generator version 0.3*
G04 Scale: 100 percent, Rotated: No, Reflected: No*
G04 Dimensions in millimeters*
G04 Leading zeros omitted, absolute positions, 3 integers and 5 decimals*
%FSLAX35Y35*%
%MOMM*%
%AMRoundRect*1,1,$1,$2,$3*1,1,$1,$4,$5*1,1,$1,0-$2,0-$3*1,1,$1,0-$4,0-$5*20,1,$1,$2,$3,$4,$5,0*20,1,$1,$4,$5,0-$2,0-$3,0*20,1,$1,0-$2,0-$3,0-$4,0-$5,0*20,1,$1,0-$4,0-$5,$2,$3,0*4,1,4,$2,$3,$4,$5,0-$2,0-$3,0-$4,0-$5,$2,$3,0*%
%ADD10RoundRect,0.09554X-0.75303X-0.75303X-0.75303X0.75303*%
%ADD11C,1.6016*%
%ADD12RoundRect,0.09387X0.69237X0.57013X0.69237X-0.57013*%
%ADD13RoundRect,0.08771X-0.40199X0.27695X0.40199X0.27695*%
%ADD14RoundRect,0.08771X0.27695X0.40199X0.27695X-0.40199*%
%ADD15RoundRect,0.08771X-0.27695X-0.40199X-0.27695X0.40199*%
%ADD16RoundRect,0.08771X0.40199X-0.27695X-0.40199X-0.27695*%
%ADD17RoundRect,0.08002X-0.885X-0.16X-0.885X0.16*%
%ADD18RoundRect,0.09548X-1.25227X-1.00227X-1.25227X1.00227*%
G75*


G04 Pad Start*
G54D10*
G01X8211500Y-2698000D03*
G54D11*
G01X8211500Y-2444000D03*
G01X8211500Y-2190000D03*
G01X8211500Y-1936000D03*
G01X8211500Y-1682000D03*
G01X8211500Y-1428000D03*
G01X8211500Y-1174000D03*
G01X8211500Y-920000D03*
G54D12*
G01X2832100Y-2055800D03*
G01X2832100Y-1855800D03*
G54D13*
G01X2434517Y-1284000D03*
G01X2325500Y-1284000D03*
G54D14*
G01X2320000Y-1834000D03*
G01X2320000Y-1724983D03*
G54D15*
G01X2474000Y-2084000D03*
G01X2474000Y-2193017D03*
G54D16*
G01X2325492Y-2447000D03*
G01X2434508Y-2447000D03*
G01X2325492Y-2601000D03*
G01X2434508Y-2601000D03*
G01X2325492Y-2755000D03*
G01X2434508Y-2755000D03*
G01X2325492Y-2909000D03*
G01X2434508Y-2909000D03*
G01X2325492Y-3063000D03*
G01X2434508Y-3063000D03*
G54D17*
G01X1918970Y-2384310D03*
G01X1919000Y-2334005D03*
G01X1919000Y-2284018D03*
G01X1919000Y-2234005D03*
G01X1919000Y-2184018D03*
G01X1919000Y-2134006D03*
G01X1919000Y-2084018D03*
G01X1919000Y-2034006D03*
G01X1919000Y-1984019D03*
G01X1919000Y-1934006D03*
G01X1919000Y-1884019D03*
G01X1919000Y-1834006D03*
G01X1919000Y-1784019D03*
G01X1919000Y-1734006D03*
G01X1919000Y-1684540D03*
G01X1919000Y-1633740D03*
G01X1919000Y-1583994D03*
G01X1919000Y-1534007D03*
G01X1919000Y-1483994D03*
G01X1919000Y-1434007D03*
G01X1919000Y-1383994D03*
G01X1919000Y-1334007D03*
G01X1919000Y-1283995D03*
G01X1919000Y-1234007D03*
G54D18*
G01X1636547Y-2553004D03*
G01X1636547Y-1064996D03*
G54D14*
G01X2474000Y-1834009D03*
G01X2474000Y-1724992D03*
G54D15*
G01X2320000Y-2084000D03*
G01X2320000Y-2193017D03*
G04 Pad End*

M02*

