G04 Layer: TopSolderMaskLayer*
G04 EasyEDA Pro v2.2.32.3, 2025-10-31 12:43:36*
G04 Gerber Generator version 0.3*
G04 Scale: 100 percent, Rotated: No, Reflected: No*
G04 Dimensions in millimeters*
G04 Leading zeros omitted, absolute positions, 3 integers and 5 decimals*
%FSLAX35Y35*%
%MOMM*%
%AMRoundRect*1,1,$1,$2,$3*1,1,$1,$4,$5*1,1,$1,0-$2,0-$3*1,1,$1,0-$4,0-$5*20,1,$1,$2,$3,$4,$5,0*20,1,$1,$4,$5,0-$2,0-$3,0*20,1,$1,0-$2,0-$3,0-$4,0-$5,0*20,1,$1,0-$4,0-$5,$2,$3,0*4,1,4,$2,$3,$4,$5,0-$2,0-$3,0-$4,0-$5,$2,$3,0*%
%ADD10RoundRect,0.09554X-0.75303X-0.75303X-0.75303X0.75303*%
%ADD11C,1.6016*%
%ADD12RoundRect,0.09131X-0.40514X-0.40514X-0.40514X0.40514*%
%ADD13RoundRect,0.09387X0.57013X-0.69237X-0.57013X-0.69237*%
G75*


G04 Image Start*
G36*
G01X444175Y-1117689D02*
G01X444175Y-1117689D01*
G01X436859Y-1117364D01*
G01X436859Y-1117364D01*
G01X429869Y-1116486D01*
G01X429869Y-1116486D01*
G01X429283Y-1115023D01*
G01X429283Y-1115023D01*
G01X421968Y-1114438D01*
G01X415237Y-1114438D01*
G01X415237Y-1112975D01*
G01X415237Y-1111512D01*
G01X407954Y-1111512D01*
G01X400671Y-1111512D01*
G01X400516Y-1110171D01*
G01X400516Y-1110171D01*
G01X397558Y-1108683D01*
G01X397558Y-1108683D01*
G01X394753Y-1107098D01*
G01X394753Y-1107098D01*
G01X393290Y-1105659D01*
G01X391827Y-1105659D01*
G01X391827Y-1102733D01*
G01X391827Y-1102733D01*
G01X390383Y-1099807D01*
G01X388939Y-1099807D01*
G01X388798Y-1095539D01*
G01X388798Y-1095539D01*
G01X387316Y-1091118D01*
G01X387316Y-1091118D01*
G01X385975Y-1088070D01*
G01X385975Y-1088070D01*
G01X384512Y-1085176D01*
G01X383048Y-1085176D01*
G01X383048Y-1082249D01*
G01X383048Y-1079323D01*
G01X381585Y-1079323D01*
G01X381585Y-1079323D01*
G01X380122Y-1077860D01*
G01X380122Y-1077860D01*
G01X381585Y-1076397D01*
G01X381585Y-1076397D01*
G01X383048Y-1074934D01*
G01X383048Y-1074934D01*
G01X384512Y-1073471D01*
G01X384512Y-1073471D01*
G01X385975Y-1072040D01*
G01X385975Y-1072040D01*
G01X387316Y-1070455D01*
G01X387316Y-1070455D01*
G01X388803Y-1067496D01*
G01X388803Y-1067496D01*
G01X390388Y-1064692D01*
G01X390388Y-1064692D01*
G01X391827Y-1063229D01*
G01X391827Y-1063229D01*
G01X393290Y-1061766D01*
G01X394753Y-1061766D01*
G01X394753Y-1058840D01*
G01X394753Y-1055913D01*
G01X396217Y-1055913D01*
G01X396217Y-1055913D01*
G01X397680Y-1054450D01*
G01X397680Y-1054450D01*
G01X399143Y-1052987D01*
G01X399143Y-1052987D01*
G01X400606Y-1051561D01*
G01X400606Y-1051561D01*
G01X402069Y-1048673D01*
G01X402069Y-1048673D01*
G01X403532Y-1045709D01*
G01X403532Y-1045709D01*
G01X404995Y-1044208D01*
G01X404995Y-1044208D01*
G01X406459Y-1041291D01*
G01X406459Y-1041291D01*
G01X407636Y-1038079D01*
G01X407636Y-1038079D01*
G01X409108Y-1036607D01*
G01X409108Y-1036607D01*
G01X409108Y-1034253D01*
G01X409108Y-1034253D01*
G01X407636Y-1032780D01*
G01X407636Y-1032780D01*
G01X406459Y-1031031D01*
G01X406459Y-1031031D01*
G01X404995Y-1029577D01*
G01X404995Y-1029577D01*
G01X403532Y-1028114D01*
G01X403532Y-1028114D01*
G01X402069Y-1026651D01*
G01X402069Y-1026651D01*
G01X400606Y-1025188D01*
G01X400606Y-1025188D01*
G01X399175Y-1023725D01*
G01X399175Y-1023725D01*
G01X397590Y-1022384D01*
G01X397590Y-1022384D01*
G01X396095Y-1020888D01*
G01X396095Y-1020888D01*
G01X394753Y-1019303D01*
G01X394753Y-1019303D01*
G01X393323Y-1017872D01*
G01X393323Y-1017872D01*
G01X391738Y-1016531D01*
G01X391738Y-1016531D01*
G01X390242Y-1015036D01*
G01X390242Y-1015036D01*
G01X388901Y-1013451D01*
G01X388901Y-1013451D01*
G01X387438Y-1012020D01*
G01X387438Y-1012020D01*
G01X385975Y-1010557D01*
G01X385975Y-1010557D01*
G01X384544Y-1009094D01*
G01X384544Y-1009094D01*
G01X382959Y-1007752D01*
G01X382959Y-1007752D01*
G01X381463Y-1006257D01*
G01X381463Y-1006257D01*
G01X380122Y-1004672D01*
G01X380122Y-1004672D01*
G01X378659Y-1003241D01*
G01X378659Y-1003241D01*
G01X377196Y-1001778D01*
G01X377196Y-1000315D01*
G01X371343Y-1000315D01*
G01X365491Y-1000315D01*
G01X365491Y-1001778D01*
G01X365491Y-1001778D01*
G01X364028Y-1003241D01*
G01X364028Y-1003241D01*
G01X362565Y-1004704D01*
G01X362565Y-1006167D01*
G01X359638Y-1006167D01*
G01X356712Y-1006167D01*
G01X356712Y-1007630D01*
G01X356712Y-1007630D01*
G01X355249Y-1009094D01*
G01X355249Y-1009094D01*
G01X353786Y-1010557D01*
G01X353786Y-1012020D01*
G01X350859Y-1012020D01*
G01X347933Y-1012020D01*
G01X347933Y-1013483D01*
G01X347933Y-1013483D01*
G01X346470Y-1014946D01*
G01X346470Y-1014946D01*
G01X345007Y-1016409D01*
G01X345007Y-1017872D01*
G01X342081Y-1017872D01*
G01X339154Y-1017872D01*
G01X339154Y-1019335D01*
G01X339154Y-1019335D01*
G01X337691Y-1020798D01*
G01X337691Y-1020798D01*
G01X336228Y-1022237D01*
G01X336228Y-1022237D01*
G01X333427Y-1023822D01*
G01X333427Y-1023822D01*
G01X330360Y-1025432D01*
G01X330360Y-1025432D01*
G01X329794Y-1025803D01*
G01X329794Y-1025803D01*
G01X328196Y-1024218D01*
G01X328196Y-1024218D01*
G01X324247Y-1023725D01*
G01X324247Y-1023725D01*
G01X321597Y-1022262D01*
G01X321597Y-1020798D01*
G01X318671Y-1020798D01*
G01X315744Y-1020798D01*
G01X315744Y-1019335D01*
G01X315744Y-1017872D01*
G01X311355Y-1017872D01*
G01X306965Y-1017872D01*
G01X306965Y-1016409D01*
G01X306965Y-1014946D01*
G01X304039Y-1014946D01*
G01X301113Y-1014946D01*
G01X301113Y-1013483D01*
G01X301113Y-1013483D01*
G01X299650Y-1012020D01*
G01X298187Y-1012020D01*
G01X298187Y-1009094D01*
G01X298187Y-1009094D01*
G01X296733Y-1006167D01*
G01X295280Y-1006167D01*
G01X295148Y-996047D01*
G01X295017Y-985928D01*
G01X293688Y-985774D01*
G01X292360Y-985621D01*
G01X292225Y-978459D01*
G01X292090Y-971296D01*
G01X290749Y-971142D01*
G01X290749Y-971142D01*
G01X289408Y-968094D01*
G01X289408Y-965200D01*
G01X261608Y-965200D01*
G01X233809Y-965200D01*
G01X233809Y-971052D01*
G01X233809Y-976905D01*
G01X232346Y-976905D01*
G01X230883Y-976905D01*
G01X230883Y-984221D01*
G01X230883Y-984221D01*
G01X230186Y-991536D01*
G01X230186Y-991536D01*
G01X228723Y-992303D01*
G01X228723Y-992303D01*
G01X227956Y-1001081D01*
G01X227956Y-1009094D01*
G01X226493Y-1009094D01*
G01X226493Y-1009094D01*
G01X225030Y-1010557D01*
G01X225030Y-1012020D01*
G01X222104Y-1012020D01*
G01X219178Y-1012020D01*
G01X219178Y-1013483D01*
G01X219178Y-1014946D01*
G01X216251Y-1014946D01*
G01X213325Y-1014946D01*
G01X213325Y-1016409D01*
G01X213325Y-1017872D01*
G01X208936Y-1017872D01*
G01X204546Y-1017872D01*
G01X204546Y-1019335D01*
G01X204546Y-1020798D01*
G01X201620Y-1020798D01*
G01X198694Y-1020798D01*
G01X198694Y-1022262D01*
G01X198694Y-1023725D01*
G01X192841Y-1023725D01*
G01X186989Y-1023725D01*
G01X186989Y-1022262D01*
G01X186989Y-1022262D01*
G01X185525Y-1020798D01*
G01X185525Y-1020798D01*
G01X184062Y-1019335D01*
G01X184062Y-1019335D01*
G01X182609Y-1017872D01*
G01X182609Y-1017872D01*
G01X180860Y-1016699D01*
G01X180860Y-1016699D01*
G01X179510Y-1015243D01*
G01X179510Y-1015243D01*
G01X176869Y-1014953D01*
G01X176869Y-1014953D01*
G01X175284Y-1013483D01*
G01X175284Y-1013483D01*
G01X173820Y-1012020D01*
G01X173820Y-1012020D01*
G01X172357Y-1010557D01*
G01X172357Y-1009094D01*
G01X169431Y-1009094D01*
G01X166505Y-1009094D01*
G01X166505Y-1007630D01*
G01X166505Y-1007630D01*
G01X165042Y-1006167D01*
G01X165042Y-1006167D01*
G01X163578Y-1004704D01*
G01X163578Y-1004704D01*
G01X162103Y-1003241D01*
G01X162103Y-1003241D01*
G01X160190Y-1002088D01*
G01X160190Y-1002088D01*
G01X158617Y-1000632D01*
G01X158617Y-1000632D01*
G01X153215Y-1000322D01*
G01X148947Y-1000315D01*
G01X148947Y-1001778D01*
G01X148947Y-1001778D01*
G01X147484Y-1003241D01*
G01X147484Y-1003241D01*
G01X146021Y-1004704D01*
G01X146021Y-1004704D01*
G01X144558Y-1006167D01*
G01X144558Y-1006167D01*
G01X143095Y-1007630D01*
G01X143095Y-1007630D01*
G01X141631Y-1009094D01*
G01X141631Y-1009094D01*
G01X140168Y-1010557D01*
G01X140168Y-1010557D01*
G01X138705Y-1012020D01*
G01X138705Y-1012020D01*
G01X137242Y-1013483D01*
G01X137242Y-1013483D01*
G01X135779Y-1014946D01*
G01X135779Y-1014946D01*
G01X134316Y-1016409D01*
G01X134316Y-1016409D01*
G01X132853Y-1017872D01*
G01X132853Y-1017872D01*
G01X131390Y-1019335D01*
G01X131390Y-1019335D01*
G01X129926Y-1020798D01*
G01X129926Y-1020798D01*
G01X128463Y-1022262D01*
G01X128463Y-1022262D01*
G01X127000Y-1023725D01*
G01X127000Y-1023725D01*
G01X125537Y-1025188D01*
G01X125537Y-1025188D01*
G01X124074Y-1026651D01*
G01X124074Y-1026651D01*
G01X122611Y-1028114D01*
G01X122611Y-1028114D01*
G01X121148Y-1029577D01*
G01X121148Y-1029577D01*
G01X119684Y-1031040D01*
G01X119684Y-1031040D01*
G01X118221Y-1032503D01*
G01X116758Y-1032503D01*
G01X116758Y-1036893D01*
G01X116758Y-1041282D01*
G01X118221Y-1041282D01*
G01X119684Y-1041282D01*
G01X119684Y-1044208D01*
G01X119684Y-1047135D01*
G01X121148Y-1047135D01*
G01X121148Y-1047135D01*
G01X122611Y-1048598D01*
G01X122611Y-1048598D01*
G01X124050Y-1050061D01*
G01X124050Y-1050061D01*
G01X125635Y-1052865D01*
G01X125635Y-1052865D01*
G01X127122Y-1055824D01*
G01X127122Y-1055824D01*
G01X128463Y-1057409D01*
G01X128463Y-1057409D01*
G01X129926Y-1058840D01*
G01X131390Y-1058840D01*
G01X131390Y-1061766D01*
G01X131390Y-1064692D01*
G01X132853Y-1064692D01*
G01X132853Y-1064692D01*
G01X134316Y-1066155D01*
G01X134316Y-1066155D01*
G01X135755Y-1067618D01*
G01X135755Y-1067618D01*
G01X137340Y-1070423D01*
G01X137340Y-1070423D01*
G01X138827Y-1073381D01*
G01X138827Y-1073381D01*
G01X140168Y-1074934D01*
G01X140168Y-1074934D01*
G01X138827Y-1076487D01*
G01X138827Y-1076487D01*
G01X137340Y-1079445D01*
G01X137340Y-1079445D01*
G01X136340Y-1082249D01*
G01X136340Y-1082249D01*
G01X134901Y-1082835D01*
G01X134901Y-1082835D01*
G01X134316Y-1085761D01*
G01X134316Y-1085761D01*
G01X132853Y-1088102D01*
G01X131390Y-1088102D01*
G01X131390Y-1092491D01*
G01X131390Y-1096881D01*
G01X134316Y-1096881D01*
G01X137242Y-1096881D01*
G01X137242Y-1098344D01*
G01X137242Y-1099807D01*
G01X141631Y-1099807D01*
G01X146021Y-1099807D01*
G01X146021Y-1101270D01*
G01X146021Y-1102733D01*
G01X148947Y-1102733D01*
G01X151873Y-1102733D01*
G01X151873Y-1104196D01*
G01X151873Y-1104196D01*
G01X154767Y-1105659D01*
G01X154767Y-1105659D01*
G01X157815Y-1107001D01*
G01X157815Y-1107001D01*
G01X162237Y-1108483D01*
G01X166505Y-1108624D01*
G01X166505Y-1110068D01*
G01X166505Y-1110068D01*
G01X169399Y-1111512D01*
G01X169399Y-1111512D01*
G01X172447Y-1112853D01*
G01X172447Y-1112853D01*
G01X176869Y-1114335D01*
G01X181136Y-1114476D01*
G01X181136Y-1115920D01*
G01X181136Y-1115920D01*
G01X184030Y-1117364D01*
G01X184030Y-1117364D01*
G01X187078Y-1118705D01*
G01X187078Y-1118705D01*
G01X191500Y-1120188D01*
G01X195767Y-1120329D01*
G01X195767Y-1121773D01*
G01X195767Y-1121773D01*
G01X198661Y-1123217D01*
G01X198661Y-1123217D01*
G01X201709Y-1124558D01*
G01X201709Y-1124558D01*
G01X206131Y-1126040D01*
G01X210399Y-1126181D01*
G01X210399Y-1127625D01*
G01X210399Y-1127625D01*
G01X213325Y-1129069D01*
G01X216251Y-1129069D01*
G01X216251Y-1127606D01*
G01X216251Y-1127606D01*
G01X217714Y-1126143D01*
G01X217714Y-1126143D01*
G01X219178Y-1124680D01*
G01X219178Y-1124680D01*
G01X220641Y-1123217D01*
G01X222104Y-1123217D01*
G01X222104Y-1120291D01*
G01X222104Y-1117364D01*
G01X223567Y-1117364D01*
G01X223567Y-1117364D01*
G01X225030Y-1115901D01*
G01X225030Y-1115901D01*
G01X226493Y-1114438D01*
G01X226493Y-1114438D01*
G01X227956Y-1112975D01*
G01X227956Y-1112975D01*
G01X229419Y-1111512D01*
G01X229419Y-1111512D01*
G01X230883Y-1110049D01*
G01X230883Y-1110049D01*
G01X232468Y-1108579D01*
G01X232468Y-1108579D01*
G01X235109Y-1108289D01*
G01X235109Y-1108289D01*
G01X236459Y-1106833D01*
G01X236459Y-1106833D01*
G01X238208Y-1105659D01*
G01X238208Y-1105659D01*
G01X239661Y-1104196D01*
G01X239661Y-1102733D01*
G01X242588Y-1102733D01*
G01X245514Y-1102733D01*
G01X245514Y-1101270D01*
G01X245514Y-1099807D01*
G01X261576Y-1099807D01*
G01X277638Y-1099807D01*
G01X277792Y-1101148D01*
G01X277792Y-1101148D01*
G01X280751Y-1102636D01*
G01X280751Y-1102636D01*
G01X283555Y-1104221D01*
G01X283555Y-1104221D01*
G01X286482Y-1105659D01*
G01X289408Y-1105659D01*
G01X289408Y-1107122D01*
G01X289408Y-1107122D01*
G01X290871Y-1108586D01*
G01X290871Y-1108586D01*
G01X292334Y-1110049D01*
G01X292334Y-1110049D01*
G01X293797Y-1111512D01*
G01X293797Y-1111512D01*
G01X295260Y-1112975D01*
G01X295260Y-1112975D01*
G01X296724Y-1114438D01*
G01X296724Y-1114438D01*
G01X298187Y-1115901D01*
G01X298187Y-1115901D01*
G01X299650Y-1117364D01*
G01X299650Y-1117364D01*
G01X301113Y-1118827D01*
G01X301113Y-1118827D01*
G01X302557Y-1120291D01*
G01X304001Y-1120291D01*
G01X304142Y-1124558D01*
G01X304142Y-1124558D01*
G01X305624Y-1128980D01*
G01X306965Y-1129134D01*
G01X306965Y-1133491D01*
G01X306965Y-1137848D01*
G01X308429Y-1137848D01*
G01X309892Y-1137848D01*
G01X309892Y-1145164D01*
G01X309892Y-1152479D01*
G01X308429Y-1152479D01*
G01X306965Y-1152479D01*
G01X306965Y-1156836D01*
G01X306965Y-1161193D01*
G01X305624Y-1161347D01*
G01X305624Y-1161347D01*
G01X304142Y-1165769D01*
G01X304001Y-1170037D01*
G01X302557Y-1170037D01*
G01X302557Y-1170037D01*
G01X301113Y-1171500D01*
G01X301113Y-1171500D01*
G01X299650Y-1172963D01*
G01X299650Y-1172963D01*
G01X298187Y-1174426D01*
G01X298187Y-1174426D01*
G01X296724Y-1175889D01*
G01X296724Y-1175889D01*
G01X295260Y-1177320D01*
G01X295260Y-1177320D01*
G01X293919Y-1178905D01*
G01X293919Y-1178905D01*
G01X292424Y-1180400D01*
G01X292424Y-1180400D01*
G01X290839Y-1181742D01*
G01X290839Y-1181742D01*
G01X289408Y-1183180D01*
G01X289408Y-1183180D01*
G01X286604Y-1184765D01*
G01X286604Y-1184765D01*
G01X283645Y-1186253D01*
G01X283645Y-1186253D01*
G01X282060Y-1187594D01*
G01X282060Y-1187594D01*
G01X280629Y-1189042D01*
G01X280629Y-1190489D01*
G01X274899Y-1190627D01*
G01X269168Y-1190764D01*
G01X269014Y-1192105D01*
G01X268859Y-1193446D01*
G01X263048Y-1193446D01*
G01X263048Y-1193446D01*
G01X256943Y-1192273D01*
G01X256943Y-1192273D01*
G01X255593Y-1190817D01*
G01X255593Y-1190817D01*
G01X248562Y-1190527D01*
G01X242588Y-1190520D01*
G01X242588Y-1189057D01*
G01X242588Y-1189057D01*
G01X241125Y-1187594D01*
G01X241125Y-1187594D01*
G01X239661Y-1186131D01*
G01X239661Y-1184668D01*
G01X236735Y-1184668D01*
G01X233809Y-1184668D01*
G01X233809Y-1183205D01*
G01X233809Y-1183205D01*
G01X232346Y-1181742D01*
G01X232346Y-1181742D01*
G01X230883Y-1180278D01*
G01X230883Y-1180278D01*
G01X229419Y-1178815D01*
G01X229419Y-1178815D01*
G01X227956Y-1177352D01*
G01X227956Y-1177352D01*
G01X226493Y-1175889D01*
G01X226493Y-1175889D01*
G01X225030Y-1174426D01*
G01X225030Y-1174426D01*
G01X223567Y-1172963D01*
G01X223567Y-1172963D01*
G01X222104Y-1170622D01*
G01X222104Y-1170622D01*
G01X221519Y-1167696D01*
G01X221519Y-1167696D01*
G01X220055Y-1167110D01*
G01X220055Y-1167110D01*
G01X219178Y-1165647D01*
G01X219178Y-1165647D01*
G01X217714Y-1164184D01*
G01X217714Y-1164184D01*
G01X216251Y-1162721D01*
G01X216251Y-1161258D01*
G01X213325Y-1161258D01*
G01X210399Y-1161258D01*
G01X210399Y-1162721D01*
G01X210399Y-1164184D01*
G01X207472Y-1164184D01*
G01X204546Y-1164184D01*
G01X204546Y-1165647D01*
G01X204546Y-1167110D01*
G01X200157Y-1167110D01*
G01X195767Y-1167110D01*
G01X195767Y-1168573D01*
G01X195767Y-1170037D01*
G01X192841Y-1170037D01*
G01X189915Y-1170037D01*
G01X189915Y-1171500D01*
G01X189915Y-1172963D01*
G01X186989Y-1172963D01*
G01X184062Y-1172963D01*
G01X184062Y-1174426D01*
G01X184062Y-1175889D01*
G01X179673Y-1175889D01*
G01X175284Y-1175889D01*
G01X175284Y-1177352D01*
G01X175284Y-1178815D01*
G01X172357Y-1178815D01*
G01X169431Y-1178815D01*
G01X169431Y-1180278D01*
G01X169431Y-1181742D01*
G01X165042Y-1181742D01*
G01X160652Y-1181742D01*
G01X160652Y-1183186D01*
G01X160652Y-1184630D01*
G01X156385Y-1184771D01*
G01X156385Y-1184771D01*
G01X151963Y-1186253D01*
G01X151963Y-1186253D01*
G01X148915Y-1187594D01*
G01X148915Y-1187594D01*
G01X146021Y-1189057D01*
G01X146021Y-1189057D01*
G01X143217Y-1190527D01*
G01X143217Y-1190527D01*
G01X139277Y-1190837D01*
G01X139277Y-1190837D01*
G01X137704Y-1192294D01*
G01X137704Y-1192294D01*
G01X135094Y-1193446D01*
G01X135094Y-1193446D01*
G01X132156Y-1194213D01*
G01X132156Y-1194213D01*
G01X131390Y-1198602D01*
G01X131390Y-1202225D01*
G01X132853Y-1202225D01*
G01X134316Y-1202225D01*
G01X134316Y-1205151D01*
G01X134316Y-1208078D01*
G01X135779Y-1208078D01*
G01X137242Y-1208078D01*
G01X137242Y-1211004D01*
G01X137242Y-1213930D01*
G01X138705Y-1213930D01*
G01X140168Y-1213930D01*
G01X140168Y-1216856D01*
G01X140168Y-1219783D01*
G01X138705Y-1219783D01*
G01X138705Y-1219783D01*
G01X137242Y-1221246D01*
G01X137242Y-1221246D01*
G01X135779Y-1222709D01*
G01X134316Y-1222709D01*
G01X134316Y-1225635D01*
G01X134316Y-1228561D01*
G01X132853Y-1228561D01*
G01X132853Y-1228561D01*
G01X131390Y-1230024D01*
G01X131390Y-1230024D01*
G01X129926Y-1231488D01*
G01X129926Y-1231488D01*
G01X128463Y-1232951D01*
G01X128463Y-1232951D01*
G01X127767Y-1234414D01*
G01X127767Y-1234414D01*
G01X126303Y-1235180D01*
G01X126303Y-1235180D01*
G01X125537Y-1238106D01*
G01X125537Y-1238106D01*
G01X124074Y-1240266D01*
G01X124074Y-1240266D01*
G01X122611Y-1241729D01*
G01X122611Y-1241729D01*
G01X121148Y-1243192D01*
G01X119684Y-1243192D01*
G01X119684Y-1246119D01*
G01X119684Y-1249045D01*
G01X118221Y-1249045D01*
G01X116758Y-1249045D01*
G01X116758Y-1253434D01*
G01X116758Y-1257824D01*
G01X118197Y-1257824D01*
G01X118197Y-1257824D01*
G01X119782Y-1260628D01*
G01X119782Y-1260628D01*
G01X121464Y-1263581D01*
G01X121464Y-1263581D01*
G01X123245Y-1264673D01*
G01X123245Y-1264673D01*
G01X124790Y-1266109D01*
G01X124790Y-1266109D01*
G01X127276Y-1266602D01*
G01X127276Y-1266602D01*
G01X128463Y-1268943D01*
G01X128463Y-1268943D01*
G01X129049Y-1271870D01*
G01X129049Y-1271870D01*
G01X131975Y-1272455D01*
G01X131975Y-1272455D01*
G01X134316Y-1273918D01*
G01X134316Y-1273918D01*
G01X135755Y-1275381D01*
G01X135755Y-1275381D01*
G01X137340Y-1278185D01*
G01X137486Y-1280990D01*
G01X140290Y-1281136D01*
G01X140290Y-1281136D01*
G01X143095Y-1282721D01*
G01X143095Y-1282721D01*
G01X144533Y-1284160D01*
G01X144533Y-1284160D01*
G01X146118Y-1286964D01*
G01X146265Y-1289768D01*
G01X153458Y-1289903D01*
G01X160652Y-1290038D01*
G01X160652Y-1288562D01*
G01X160652Y-1288562D01*
G01X162115Y-1287086D01*
G01X162115Y-1287086D01*
G01X163578Y-1285623D01*
G01X163578Y-1285623D01*
G01X165919Y-1284160D01*
G01X165919Y-1284160D01*
G01X168846Y-1283575D01*
G01X168846Y-1283575D01*
G01X169431Y-1282111D01*
G01X169431Y-1282111D01*
G01X170894Y-1281234D01*
G01X170894Y-1281234D01*
G01X172357Y-1279770D01*
G01X172357Y-1279770D01*
G01X173820Y-1278307D01*
G01X173820Y-1278307D01*
G01X175284Y-1276844D01*
G01X175284Y-1275381D01*
G01X178210Y-1275381D01*
G01X181136Y-1275381D01*
G01X181136Y-1273918D01*
G01X181136Y-1273918D01*
G01X182599Y-1272455D01*
G01X182599Y-1272455D01*
G01X184062Y-1270992D01*
G01X184062Y-1269529D01*
G01X186989Y-1269529D01*
G01X189915Y-1269529D01*
G01X189915Y-1268065D01*
G01X189915Y-1268065D01*
G01X192809Y-1266602D01*
G01X192809Y-1266602D01*
G01X195857Y-1267944D01*
G01X195857Y-1267944D01*
G01X200279Y-1269426D01*
G01X204546Y-1269567D01*
G01X204546Y-1271011D01*
G01X204546Y-1271011D01*
G01X207440Y-1272455D01*
G01X207440Y-1272455D01*
G01X210488Y-1273796D01*
G01X210488Y-1273796D01*
G01X214910Y-1275278D01*
G01X219178Y-1275419D01*
G01X219178Y-1276863D01*
G01X219178Y-1276863D01*
G01X222104Y-1278307D01*
G01X225030Y-1278307D01*
G01X225030Y-1279770D01*
G01X225030Y-1279770D01*
G01X226493Y-1281234D01*
G01X227956Y-1281234D01*
G01X227956Y-1289246D01*
G01X227956Y-1289246D01*
G01X228723Y-1298025D01*
G01X228723Y-1298025D01*
G01X230186Y-1298791D01*
G01X230186Y-1298791D01*
G01X230883Y-1306107D01*
G01X230883Y-1313422D01*
G01X232346Y-1313422D01*
G01X233809Y-1313422D01*
G01X233809Y-1319275D01*
G01X233809Y-1325127D01*
G01X235272Y-1325127D01*
G01X235272Y-1325127D01*
G01X236735Y-1326590D01*
G01X236735Y-1328053D01*
G01X261608Y-1328053D01*
G01X286482Y-1328053D01*
G01X286482Y-1326590D01*
G01X286482Y-1326590D01*
G01X287945Y-1325127D01*
G01X289408Y-1325127D01*
G01X289408Y-1322201D01*
G01X289408Y-1319275D01*
G01X290871Y-1319275D01*
G01X292334Y-1319275D01*
G01X292334Y-1311991D01*
G01X292334Y-1304708D01*
G01X293675Y-1304554D01*
G01X295017Y-1304400D01*
G01X295148Y-1294280D01*
G01X295280Y-1284160D01*
G01X296733Y-1284160D01*
G01X296733Y-1284160D01*
G01X298187Y-1281234D01*
G01X298187Y-1278307D01*
G01X299650Y-1278307D01*
G01X299650Y-1278307D01*
G01X301113Y-1276844D01*
G01X301113Y-1275381D01*
G01X305502Y-1275381D01*
G01X309892Y-1275381D01*
G01X309892Y-1273918D01*
G01X309892Y-1272455D01*
G01X312818Y-1272455D01*
G01X315744Y-1272455D01*
G01X315744Y-1270992D01*
G01X315744Y-1269529D01*
G01X318671Y-1269529D01*
G01X321597Y-1269529D01*
G01X321597Y-1268065D01*
G01X321597Y-1266602D01*
G01X328912Y-1266602D01*
G01X336228Y-1266602D01*
G01X336228Y-1268065D01*
G01X336228Y-1268065D01*
G01X337691Y-1269529D01*
G01X337691Y-1269529D01*
G01X339154Y-1270992D01*
G01X339154Y-1270992D01*
G01X340608Y-1272455D01*
G01X340608Y-1272455D01*
G01X342357Y-1273628D01*
G01X342357Y-1273628D01*
G01X343707Y-1275085D01*
G01X343707Y-1275085D01*
G01X346348Y-1275374D01*
G01X346348Y-1275374D01*
G01X347933Y-1276844D01*
G01X347933Y-1276844D01*
G01X349396Y-1278307D01*
G01X349396Y-1278307D01*
G01X350859Y-1279770D01*
G01X350859Y-1281234D01*
G01X353786Y-1281234D01*
G01X356712Y-1281234D01*
G01X356712Y-1282697D01*
G01X356712Y-1282697D01*
G01X358143Y-1284160D01*
G01X358143Y-1284160D01*
G01X359728Y-1285501D01*
G01X359728Y-1285501D01*
G01X362686Y-1286988D01*
G01X362686Y-1286988D01*
G01X365491Y-1288573D01*
G01X365491Y-1290012D01*
G01X371343Y-1290012D01*
G01X377196Y-1290012D01*
G01X377196Y-1288549D01*
G01X377196Y-1288549D01*
G01X378659Y-1287086D01*
G01X378659Y-1287086D01*
G01X380122Y-1285623D01*
G01X380122Y-1285623D01*
G01X381585Y-1284160D01*
G01X381585Y-1284160D01*
G01X383048Y-1282697D01*
G01X383048Y-1282697D01*
G01X384512Y-1281234D01*
G01X384512Y-1281234D01*
G01X385975Y-1279770D01*
G01X385975Y-1279770D01*
G01X387438Y-1278307D01*
G01X387438Y-1278307D01*
G01X388901Y-1276844D01*
G01X388901Y-1276844D01*
G01X390364Y-1275381D01*
G01X390364Y-1275381D01*
G01X391827Y-1273918D01*
G01X391827Y-1273918D01*
G01X393290Y-1272455D01*
G01X393290Y-1272455D01*
G01X394753Y-1270992D01*
G01X394753Y-1270992D01*
G01X396217Y-1269529D01*
G01X396217Y-1269529D01*
G01X397680Y-1268065D01*
G01X397680Y-1268065D01*
G01X399143Y-1266602D01*
G01X399143Y-1266602D01*
G01X400606Y-1265139D01*
G01X400606Y-1265139D01*
G01X402069Y-1263676D01*
G01X402069Y-1263676D01*
G01X403532Y-1262213D01*
G01X403532Y-1262213D01*
G01X404995Y-1260750D01*
G01X404995Y-1260750D01*
G01X406459Y-1259319D01*
G01X406459Y-1259319D01*
G01X407800Y-1257734D01*
G01X407800Y-1257734D01*
G01X409141Y-1254897D01*
G01X409141Y-1254897D01*
G01X407823Y-1252063D01*
G01X407823Y-1252063D01*
G01X406360Y-1249137D01*
G01X406360Y-1249137D01*
G01X404873Y-1246208D01*
G01X404873Y-1246208D01*
G01X403532Y-1244623D01*
G01X403532Y-1244623D01*
G01X402069Y-1243192D01*
G01X400606Y-1243192D01*
G01X400606Y-1240266D01*
G01X400606Y-1237340D01*
G01X399143Y-1237340D01*
G01X399143Y-1237340D01*
G01X397680Y-1235877D01*
G01X397680Y-1235877D01*
G01X396217Y-1234414D01*
G01X394753Y-1234414D01*
G01X394753Y-1231488D01*
G01X394753Y-1228561D01*
G01X393290Y-1228561D01*
G01X393290Y-1228561D01*
G01X391827Y-1227098D01*
G01X391827Y-1227098D01*
G01X390364Y-1225635D01*
G01X390364Y-1225635D01*
G01X388901Y-1224172D01*
G01X388901Y-1224172D01*
G01X387438Y-1222709D01*
G01X385975Y-1222709D01*
G01X385975Y-1219783D01*
G01X385975Y-1216856D01*
G01X384512Y-1216856D01*
G01X384512Y-1216856D01*
G01X383048Y-1215393D01*
G01X383048Y-1215393D01*
G01X382463Y-1213930D01*
G01X382463Y-1213930D01*
G01X382463Y-1213345D01*
G01X382463Y-1213345D01*
G01X383048Y-1208956D01*
G01X383048Y-1205151D01*
G01X384512Y-1205151D01*
G01X385975Y-1205151D01*
G01X385975Y-1202225D01*
G01X385975Y-1199299D01*
G01X387438Y-1199299D01*
G01X388901Y-1199299D01*
G01X388901Y-1194910D01*
G01X388901Y-1190520D01*
G01X390364Y-1190520D01*
G01X391827Y-1190520D01*
G01X391827Y-1187594D01*
G01X391827Y-1184668D01*
G01X393290Y-1184668D01*
G01X393290Y-1184668D01*
G01X394753Y-1183205D01*
G01X394753Y-1181742D01*
G01X399143Y-1181742D01*
G01X403532Y-1181742D01*
G01X403532Y-1180291D01*
G01X403532Y-1178841D01*
G01X410726Y-1178706D01*
G01X417920Y-1178571D01*
G01X418074Y-1177230D01*
G01X418228Y-1175889D01*
G01X426390Y-1175889D01*
G01X426390Y-1175889D01*
G01X435136Y-1175304D01*
G01X435136Y-1175304D01*
G01X435721Y-1173841D01*
G01X435721Y-1173841D01*
G01X440111Y-1172963D01*
G01X444500Y-1172963D01*
G01X444500Y-1145489D01*
G01X444500Y-1145489D01*
G01X444175Y-1117689D01*
G37*
G36*
G01X260145Y-1491923D02*
G01X146021Y-1491923D01*
G01X146021Y-1503628D01*
G01X146021Y-1515332D01*
G01X178210Y-1515332D01*
G01X210399Y-1515332D01*
G01X210399Y-1516796D01*
G01X210399Y-1516796D01*
G01X211862Y-1518259D01*
G01X213325Y-1518259D01*
G01X213325Y-1521185D01*
G01X213325Y-1524111D01*
G01X214788Y-1524111D01*
G01X216251Y-1524111D01*
G01X216251Y-1529964D01*
G01X216251Y-1535816D01*
G01X214788Y-1535816D01*
G01X214788Y-1535816D01*
G01X213325Y-1537279D01*
G01X213325Y-1537279D01*
G01X211862Y-1538742D01*
G01X211862Y-1538742D01*
G01X210399Y-1540202D01*
G01X210399Y-1541661D01*
G01X179795Y-1541787D01*
G01X149191Y-1541912D01*
G01X149037Y-1543254D01*
G01X149037Y-1543254D01*
G01X147452Y-1544595D01*
G01X146021Y-1544595D01*
G01X146021Y-1554837D01*
G01X146021Y-1565079D01*
G01X184062Y-1565079D01*
G01X222104Y-1565079D01*
G01X222104Y-1563615D01*
G01X222104Y-1563615D01*
G01X223567Y-1562152D01*
G01X223567Y-1562152D01*
G01X225030Y-1560713D01*
G01X225030Y-1560713D01*
G01X227834Y-1559128D01*
G01X227834Y-1559128D01*
G01X230793Y-1557641D01*
G01X230793Y-1557641D01*
G01X232378Y-1556300D01*
G01X232378Y-1556300D01*
G01X233809Y-1553374D01*
G01X233809Y-1550447D01*
G01X235272Y-1550447D01*
G01X236735Y-1550447D01*
G01X236735Y-1546058D01*
G01X236735Y-1541669D01*
G01X238198Y-1541669D01*
G01X239661Y-1541669D01*
G01X239661Y-1534353D01*
G01X239661Y-1527037D01*
G01X238198Y-1527037D01*
G01X236735Y-1527037D01*
G01X236735Y-1522648D01*
G01X236735Y-1518259D01*
G01X235272Y-1518259D01*
G01X235272Y-1518259D01*
G01X233809Y-1516796D01*
G01X233809Y-1515332D01*
G01X260145Y-1515332D01*
G01X286482Y-1515332D01*
G01X286482Y-1516808D01*
G01X286482Y-1516808D01*
G01X285329Y-1518721D01*
G01X285329Y-1518721D01*
G01X283873Y-1520294D01*
G01X283873Y-1520294D01*
G01X283562Y-1524233D01*
G01X283562Y-1524233D01*
G01X282092Y-1527037D01*
G01X280629Y-1527037D01*
G01X280629Y-1534353D01*
G01X280629Y-1541669D01*
G01X282092Y-1541669D01*
G01X283555Y-1541669D01*
G01X283555Y-1546058D01*
G01X283555Y-1550447D01*
G01X285019Y-1550447D01*
G01X285019Y-1550447D01*
G01X286482Y-1551910D01*
G01X286482Y-1551910D01*
G01X287945Y-1553374D01*
G01X287945Y-1553374D01*
G01X289408Y-1554837D01*
G01X289408Y-1554837D01*
G01X290871Y-1556300D01*
G01X290871Y-1556300D01*
G01X292334Y-1557763D01*
G01X292334Y-1557763D01*
G01X293797Y-1559226D01*
G01X293797Y-1559226D01*
G01X295260Y-1560689D01*
G01X295260Y-1560689D01*
G01X296691Y-1562152D01*
G01X296691Y-1562152D01*
G01X298276Y-1563493D01*
G01X298431Y-1564835D01*
G01X327571Y-1564960D01*
G01X356712Y-1565086D01*
G01X356712Y-1563619D01*
G01X356712Y-1562152D01*
G01X359638Y-1562152D01*
G01X362565Y-1562152D01*
G01X362565Y-1560689D01*
G01X362565Y-1560689D01*
G01X364028Y-1559226D01*
G01X364028Y-1559226D01*
G01X365491Y-1557763D01*
G01X365491Y-1557763D01*
G01X366954Y-1556300D01*
G01X366954Y-1556300D01*
G01X368417Y-1554837D01*
G01X368417Y-1554837D01*
G01X369880Y-1553374D01*
G01X371343Y-1553374D01*
G01X371343Y-1550447D01*
G01X371343Y-1547521D01*
G01X372806Y-1547521D01*
G01X374270Y-1547521D01*
G01X374270Y-1534353D01*
G01X374270Y-1521185D01*
G01X372806Y-1521185D01*
G01X371343Y-1521185D01*
G01X371343Y-1518259D01*
G01X371343Y-1515332D01*
G01X372806Y-1515332D01*
G01X374270Y-1515332D01*
G01X374270Y-1503628D01*
G01X374270Y-1491923D01*
G01X260145Y-1491923D01*
G37*
%LPC*%
G36*
G01X352613Y-1530240D02*
G01X352613Y-1530240D01*
G01X351156Y-1531590D01*
G01X351156Y-1531590D01*
G01X350866Y-1535694D01*
G01X350859Y-1538742D01*
G01X349396Y-1538742D01*
G01X349396Y-1538742D01*
G01X347933Y-1540205D01*
G01X347933Y-1541669D01*
G01X328912Y-1541669D01*
G01X309892Y-1541669D01*
G01X309892Y-1540205D01*
G01X309892Y-1540205D01*
G01X308429Y-1538742D01*
G01X308429Y-1538742D01*
G01X306965Y-1537279D01*
G01X306965Y-1537279D01*
G01X305502Y-1535816D01*
G01X304039Y-1535816D01*
G01X304039Y-1529964D01*
G01X304039Y-1524111D01*
G01X305502Y-1524111D01*
G01X305502Y-1524111D01*
G01X306965Y-1522438D01*
G01X306965Y-1522438D01*
G01X308063Y-1520609D01*
G01X308063Y-1520609D01*
G01X309316Y-1519356D01*
G01X309316Y-1519356D01*
G01X311145Y-1518259D01*
G01X311145Y-1518259D01*
G01X312818Y-1516796D01*
G01X312818Y-1515332D01*
G01X328912Y-1515332D01*
G01X345007Y-1515332D01*
G01X345007Y-1516796D01*
G01X345007Y-1516796D01*
G01X346470Y-1518259D01*
G01X346470Y-1518259D01*
G01X347933Y-1519722D01*
G01X347933Y-1519722D01*
G01X349396Y-1521185D01*
G01X350859Y-1521185D01*
G01X350859Y-1524111D01*
G01X350859Y-1527037D01*
G01X352323Y-1527037D01*
G01X352323Y-1527037D01*
G01X353786Y-1528491D01*
G01X353786Y-1528491D01*
G01X352613Y-1530240D01*
G37*
%LPD*%
G36*
G01X252830Y-1769915D02*
G01X233809Y-1769915D01*
G01X233809Y-1768452D01*
G01X233809Y-1768452D01*
G01X235272Y-1766989D01*
G01X236735Y-1766989D01*
G01X236735Y-1762599D01*
G01X236735Y-1758210D01*
G01X238198Y-1758210D01*
G01X239661Y-1758210D01*
G01X239661Y-1750895D01*
G01X239661Y-1743579D01*
G01X238198Y-1743579D01*
G01X236735Y-1743579D01*
G01X236735Y-1739190D01*
G01X236735Y-1734800D01*
G01X235272Y-1734800D01*
G01X235272Y-1734800D01*
G01X233809Y-1732459D01*
G01X233809Y-1732459D01*
G01X233224Y-1729533D01*
G01X233224Y-1729533D01*
G01X231793Y-1728948D01*
G01X231793Y-1728948D01*
G01X230793Y-1727607D01*
G01X230793Y-1727607D01*
G01X227834Y-1726119D01*
G01X227834Y-1726119D01*
G01X225030Y-1724534D01*
G01X225030Y-1723095D01*
G01X229419Y-1723095D01*
G01X233809Y-1723095D01*
G01X233809Y-1721632D01*
G01X233809Y-1721632D01*
G01X235272Y-1720169D01*
G01X236735Y-1720169D01*
G01X236735Y-1715780D01*
G01X236735Y-1711390D01*
G01X238210Y-1711390D01*
G01X239684Y-1711390D01*
G01X239551Y-1702734D01*
G01X239418Y-1694077D01*
G01X238095Y-1693924D01*
G01X238095Y-1693924D01*
G01X236632Y-1689535D01*
G01X236632Y-1689535D01*
G01X235150Y-1685144D01*
G01X235150Y-1685144D01*
G01X233809Y-1683559D01*
G01X233809Y-1683559D01*
G01X235272Y-1682128D01*
G01X236735Y-1682128D01*
G01X236735Y-1671886D01*
G01X236735Y-1661644D01*
G01X191378Y-1661644D01*
G01X146021Y-1661644D01*
G01X146021Y-1671886D01*
G01X146021Y-1682128D01*
G01X173788Y-1682128D01*
G01X201555Y-1682128D01*
G01X201709Y-1683469D01*
G01X201709Y-1683469D01*
G01X206131Y-1684951D01*
G01X210399Y-1685092D01*
G01X210399Y-1686536D01*
G01X210399Y-1686536D01*
G01X211862Y-1687980D01*
G01X211862Y-1687980D01*
G01X213325Y-1690140D01*
G01X213325Y-1690140D01*
G01X214091Y-1693067D01*
G01X214091Y-1693067D01*
G01X215555Y-1693833D01*
G01X215555Y-1693833D01*
G01X216251Y-1698222D01*
G01X216251Y-1702612D01*
G01X214788Y-1702612D01*
G01X213325Y-1702612D01*
G01X213325Y-1708464D01*
G01X213325Y-1714317D01*
G01X216251Y-1714317D01*
G01X219178Y-1714317D01*
G01X219178Y-1715780D01*
G01X219178Y-1715780D01*
G01X220641Y-1717243D01*
G01X220641Y-1717243D01*
G01X222104Y-1718706D01*
G01X222104Y-1718706D01*
G01X223567Y-1720169D01*
G01X223567Y-1720169D01*
G01X225030Y-1721632D01*
G01X225030Y-1723095D01*
G01X222104Y-1723095D01*
G01X219178Y-1723095D01*
G01X219178Y-1721632D01*
G01X219178Y-1720169D01*
G01X192963Y-1720218D01*
G01X192963Y-1720218D01*
G01X165529Y-1720603D01*
G01X165529Y-1720603D01*
G01X164154Y-1722018D01*
G01X164154Y-1722018D01*
G01X160862Y-1723095D01*
G01X157726Y-1723095D01*
G01X157726Y-1724558D01*
G01X157726Y-1724558D01*
G01X156263Y-1726022D01*
G01X156263Y-1726022D01*
G01X154800Y-1727485D01*
G01X154800Y-1727485D01*
G01X153337Y-1728948D01*
G01X153337Y-1728948D01*
G01X151873Y-1730378D01*
G01X151873Y-1730378D01*
G01X150532Y-1731964D01*
G01X150532Y-1731964D01*
G01X149045Y-1734922D01*
G01X149045Y-1734922D01*
G01X147460Y-1737726D01*
G01X146021Y-1737726D01*
G01X146021Y-1750895D01*
G01X146021Y-1764063D01*
G01X147441Y-1764063D01*
G01X147441Y-1764063D01*
G01X149026Y-1766968D01*
G01X149191Y-1769873D01*
G01X147728Y-1770016D01*
G01X146265Y-1770159D01*
G01X146134Y-1781742D01*
G01X146003Y-1793325D01*
G01X208927Y-1793325D01*
G01X271850Y-1793325D01*
G01X271850Y-1781620D01*
G01X271850Y-1769915D01*
G01X252830Y-1769915D01*
G37*
%LPC*%
G36*
G01X214910Y-1761226D02*
G01X214910Y-1761226D01*
G01X213423Y-1764185D01*
G01X213276Y-1766989D01*
G01X210374Y-1766989D01*
G01X210374Y-1766989D01*
G01X207472Y-1768452D01*
G01X207472Y-1769915D01*
G01X192874Y-1769915D01*
G01X178275Y-1769915D01*
G01X178120Y-1768574D01*
G01X178120Y-1768574D01*
G01X175162Y-1767086D01*
G01X175162Y-1767086D01*
G01X172357Y-1765501D01*
G01X172357Y-1765501D01*
G01X170894Y-1764063D01*
G01X169431Y-1764063D01*
G01X169431Y-1756779D01*
G01X169431Y-1749496D01*
G01X170772Y-1749342D01*
G01X170772Y-1749342D01*
G01X172268Y-1747846D01*
G01X172268Y-1747846D01*
G01X173853Y-1746505D01*
G01X173853Y-1746505D01*
G01X175284Y-1745042D01*
G01X175284Y-1743579D01*
G01X179673Y-1743579D01*
G01X184062Y-1743579D01*
G01X184062Y-1742116D01*
G01X184062Y-1740653D01*
G01X192841Y-1740653D01*
G01X201620Y-1740653D01*
G01X201620Y-1742116D01*
G01X201620Y-1743579D01*
G01X206009Y-1743579D01*
G01X210399Y-1743579D01*
G01X210399Y-1745042D01*
G01X210399Y-1745042D01*
G01X211862Y-1746505D01*
G01X211862Y-1746505D01*
G01X213325Y-1747968D01*
G01X213325Y-1747968D01*
G01X214788Y-1749431D01*
G01X216251Y-1749431D01*
G01X216251Y-1755251D01*
G01X216251Y-1761072D01*
G01X214910Y-1761226D01*
G37*
%LPD*%
G36*
G01X235969Y-1797018D02*
G01X235969Y-1797018D01*
G01X233809Y-1796251D01*
G01X233809Y-1796251D01*
G01X231649Y-1797018D01*
G01X231649Y-1797018D01*
G01X230883Y-1798481D01*
G01X230883Y-1798481D01*
G01X226493Y-1799177D01*
G01X222104Y-1799177D01*
G01X222104Y-1800641D01*
G01X222104Y-1802104D01*
G01X217714Y-1802104D01*
G01X213325Y-1802104D01*
G01X213325Y-1803567D01*
G01X213325Y-1805030D01*
G01X208936Y-1805030D01*
G01X204546Y-1805030D01*
G01X204546Y-1806493D01*
G01X204546Y-1807956D01*
G01X199460Y-1807956D01*
G01X199460Y-1807956D01*
G01X193608Y-1808723D01*
G01X193608Y-1808723D01*
G01X192841Y-1810186D01*
G01X192841Y-1810186D01*
G01X189915Y-1810882D01*
G01X186989Y-1810882D01*
G01X186989Y-1812345D01*
G01X186989Y-1813809D01*
G01X181902Y-1813809D01*
G01X181902Y-1813809D01*
G01X176050Y-1814575D01*
G01X176050Y-1814575D01*
G01X175284Y-1816038D01*
G01X175284Y-1816038D01*
G01X170894Y-1816735D01*
G01X166505Y-1816735D01*
G01X166505Y-1818198D01*
G01X166505Y-1819661D01*
G01X162701Y-1819661D01*
G01X162701Y-1819661D01*
G01X158311Y-1820246D01*
G01X158311Y-1820246D01*
G01X157726Y-1821709D01*
G01X157726Y-1821709D01*
G01X153337Y-1822587D01*
G01X148947Y-1822587D01*
G01X148947Y-1824050D01*
G01X148947Y-1824050D01*
G01X147484Y-1825514D01*
G01X146021Y-1825514D01*
G01X146021Y-1835755D01*
G01X146021Y-1845997D01*
G01X150378Y-1845997D01*
G01X154735Y-1845997D01*
G01X154889Y-1847338D01*
G01X155044Y-1848680D01*
G01X160774Y-1848817D01*
G01X166505Y-1848954D01*
G01X166505Y-1850402D01*
G01X166505Y-1851850D01*
G01X170894Y-1851850D01*
G01X175284Y-1851850D01*
G01X175284Y-1853313D01*
G01X175284Y-1854776D01*
G01X179641Y-1854776D01*
G01X183998Y-1854776D01*
G01X184152Y-1856117D01*
G01X184306Y-1857458D01*
G01X190037Y-1857596D01*
G01X195767Y-1857733D01*
G01X195767Y-1860628D01*
G01X195767Y-1863524D01*
G01X190037Y-1863661D01*
G01X184306Y-1863798D01*
G01X184152Y-1865140D01*
G01X183998Y-1866481D01*
G01X179641Y-1866481D01*
G01X175284Y-1866481D01*
G01X175284Y-1867944D01*
G01X175284Y-1869407D01*
G01X170894Y-1869407D01*
G01X166505Y-1869407D01*
G01X166505Y-1870870D01*
G01X166505Y-1872333D01*
G01X160652Y-1872333D01*
G01X154800Y-1872333D01*
G01X154800Y-1873796D01*
G01X154800Y-1875260D01*
G01X150410Y-1875260D01*
G01X146021Y-1875260D01*
G01X146021Y-1885501D01*
G01X146021Y-1895743D01*
G01X147484Y-1895743D01*
G01X147484Y-1895743D01*
G01X148947Y-1897206D01*
G01X148947Y-1898669D01*
G01X153337Y-1898669D01*
G01X153337Y-1898669D01*
G01X157726Y-1899547D01*
G01X157726Y-1899547D01*
G01X158311Y-1901010D01*
G01X158311Y-1901010D01*
G01X162701Y-1901596D01*
G01X166505Y-1901596D01*
G01X166505Y-1903059D01*
G01X166505Y-1904522D01*
G01X170894Y-1904522D01*
G01X170894Y-1904522D01*
G01X175284Y-1905219D01*
G01X175284Y-1905219D01*
G01X176050Y-1906682D01*
G01X176050Y-1906682D01*
G01X181902Y-1907448D01*
G01X186989Y-1907448D01*
G01X186989Y-1908911D01*
G01X186989Y-1908911D01*
G01X189882Y-1910374D01*
G01X189882Y-1910374D01*
G01X192931Y-1911716D01*
G01X193085Y-1913057D01*
G01X198816Y-1913194D01*
G01X204546Y-1913332D01*
G01X204546Y-1914779D01*
G01X204546Y-1916227D01*
G01X208936Y-1916227D01*
G01X213325Y-1916227D01*
G01X213325Y-1917690D01*
G01X213325Y-1919153D01*
G01X217714Y-1919153D01*
G01X222104Y-1919153D01*
G01X222104Y-1920616D01*
G01X222104Y-1922079D01*
G01X226484Y-1922079D01*
G01X226484Y-1922079D01*
G01X231159Y-1923256D01*
G01X231159Y-1923256D01*
G01X232632Y-1924729D01*
G01X232632Y-1924729D01*
G01X234982Y-1924730D01*
G01X234982Y-1924730D01*
G01X236439Y-1923379D01*
G01X236439Y-1923379D01*
G01X236728Y-1910496D01*
G01X236735Y-1898669D01*
G01X230915Y-1898669D01*
G01X225095Y-1898669D01*
G01X224941Y-1897328D01*
G01X224786Y-1895987D01*
G01X219056Y-1895850D01*
G01X213325Y-1895712D01*
G01X213325Y-1894265D01*
G01X213325Y-1892817D01*
G01X208936Y-1892817D01*
G01X204546Y-1892817D01*
G01X204546Y-1891354D01*
G01X204546Y-1889891D01*
G01X198726Y-1889891D01*
G01X192906Y-1889891D01*
G01X192752Y-1888550D01*
G01X192752Y-1888550D01*
G01X189793Y-1887062D01*
G01X189793Y-1887062D01*
G01X186989Y-1885477D01*
G01X186989Y-1884038D01*
G01X191378Y-1884038D01*
G01X195767Y-1884038D01*
G01X195767Y-1882591D01*
G01X195767Y-1881143D01*
G01X201498Y-1881006D01*
G01X207229Y-1880868D01*
G01X207381Y-1879546D01*
G01X207381Y-1879546D01*
G01X211771Y-1878082D01*
G01X211771Y-1878082D01*
G01X216162Y-1876601D01*
G01X216162Y-1876601D01*
G01X219210Y-1875260D01*
G01X219210Y-1875260D01*
G01X222104Y-1873796D01*
G01X222104Y-1872333D01*
G01X227956Y-1872333D01*
G01X233809Y-1872333D01*
G01X233809Y-1870870D01*
G01X233809Y-1870870D01*
G01X235272Y-1869407D01*
G01X236735Y-1869407D01*
G01X236735Y-1860628D01*
G01X236735Y-1851850D01*
G01X235272Y-1851850D01*
G01X235272Y-1851850D01*
G01X233809Y-1850387D01*
G01X233809Y-1848923D01*
G01X227956Y-1848923D01*
G01X222104Y-1848923D01*
G01X222104Y-1847460D01*
G01X222104Y-1847460D01*
G01X219210Y-1845997D01*
G01X219210Y-1845997D01*
G01X216162Y-1844656D01*
G01X216162Y-1844656D01*
G01X211740Y-1843174D01*
G01X207472Y-1843033D01*
G01X207472Y-1841589D01*
G01X207472Y-1840145D01*
G01X201620Y-1840145D01*
G01X195767Y-1840145D01*
G01X195767Y-1838682D01*
G01X195767Y-1837219D01*
G01X191378Y-1837219D01*
G01X186989Y-1837219D01*
G01X186989Y-1835780D01*
G01X186989Y-1835780D01*
G01X189793Y-1834195D01*
G01X189793Y-1834195D01*
G01X192752Y-1832707D01*
G01X192906Y-1831366D01*
G01X198726Y-1831366D01*
G01X204546Y-1831366D01*
G01X204546Y-1829903D01*
G01X204546Y-1828440D01*
G01X209632Y-1828440D01*
G01X209632Y-1828440D01*
G01X215485Y-1827673D01*
G01X215485Y-1827673D01*
G01X216251Y-1826229D01*
G01X216251Y-1826229D01*
G01X220519Y-1825411D01*
G01X220519Y-1825411D01*
G01X224941Y-1823929D01*
G01X225095Y-1822587D01*
G01X230915Y-1822587D01*
G01X236735Y-1822587D01*
G01X236735Y-1810186D01*
G01X236735Y-1810186D01*
G01X235969Y-1797018D01*
G37*
G36*
G01X372806Y-1799177D02*
G01X371343Y-1799177D01*
G01X371343Y-1794788D01*
G01X371343Y-1790399D01*
G01X369880Y-1790399D01*
G01X369880Y-1790399D01*
G01X368417Y-1788936D01*
G01X368417Y-1788936D01*
G01X366954Y-1787472D01*
G01X366954Y-1787472D01*
G01X365491Y-1786009D01*
G01X365491Y-1786009D01*
G01X364028Y-1784546D01*
G01X364028Y-1784546D01*
G01X362565Y-1783083D01*
G01X362565Y-1781620D01*
G01X359428Y-1781620D01*
G01X359428Y-1781620D01*
G01X356136Y-1780543D01*
G01X356136Y-1780543D01*
G01X354761Y-1779128D01*
G01X354761Y-1779128D01*
G01X344885Y-1778742D01*
G01X336228Y-1778694D01*
G01X336228Y-1780157D01*
G01X336228Y-1781620D01*
G01X333302Y-1781620D01*
G01X330376Y-1781620D01*
G01X330376Y-1783083D01*
G01X330376Y-1783083D01*
G01X328912Y-1784546D01*
G01X328912Y-1784546D01*
G01X327449Y-1786009D01*
G01X327449Y-1786009D01*
G01X325986Y-1787472D01*
G01X325986Y-1787472D01*
G01X324523Y-1788936D01*
G01X324523Y-1788936D01*
G01X323060Y-1790399D01*
G01X321597Y-1790399D01*
G01X321597Y-1794788D01*
G01X321597Y-1799177D01*
G01X320134Y-1799177D01*
G01X318671Y-1799177D01*
G01X318671Y-1810882D01*
G01X318671Y-1822587D01*
G01X317207Y-1822587D01*
G01X315744Y-1822587D01*
G01X315744Y-1825514D01*
G01X315744Y-1828440D01*
G01X311355Y-1828440D01*
G01X306965Y-1828440D01*
G01X306965Y-1826977D01*
G01X306965Y-1826977D01*
G01X305502Y-1825514D01*
G01X304039Y-1825514D01*
G01X304039Y-1813809D01*
G01X304039Y-1802104D01*
G01X305502Y-1802104D01*
G01X306965Y-1802104D01*
G01X306965Y-1799177D01*
G01X306965Y-1796251D01*
G01X308429Y-1796251D01*
G01X308429Y-1796251D01*
G01X309892Y-1794788D01*
G01X309892Y-1794788D01*
G01X311370Y-1793325D01*
G01X312849Y-1793325D01*
G01X312712Y-1787594D01*
G01X312574Y-1781864D01*
G01X311279Y-1781714D01*
G01X311279Y-1781714D01*
G01X309686Y-1780380D01*
G01X309686Y-1780380D01*
G01X308220Y-1778903D01*
G01X308220Y-1778903D01*
G01X306756Y-1777440D01*
G01X306756Y-1777440D01*
G01X305279Y-1775973D01*
G01X305279Y-1775973D01*
G01X303945Y-1774381D01*
G01X303945Y-1774381D01*
G01X300214Y-1772941D01*
G01X300214Y-1772941D01*
G01X295947Y-1773366D01*
G01X295947Y-1773366D01*
G01X295260Y-1776315D01*
G01X295260Y-1776315D01*
G01X293797Y-1778694D01*
G01X293797Y-1778694D01*
G01X292334Y-1780157D01*
G01X292334Y-1780157D01*
G01X290871Y-1781620D01*
G01X289408Y-1781620D01*
G01X289408Y-1784546D01*
G01X289408Y-1787472D01*
G01X287945Y-1787472D01*
G01X286482Y-1787472D01*
G01X286482Y-1790399D01*
G01X286482Y-1793325D01*
G01X285019Y-1793325D01*
G01X283555Y-1793325D01*
G01X283555Y-1797682D01*
G01X283555Y-1802039D01*
G01X282214Y-1802193D01*
G01X280873Y-1802348D01*
G01X280873Y-1813809D01*
G01X280873Y-1825270D01*
G01X282214Y-1825424D01*
G01X283555Y-1825578D01*
G01X283555Y-1829935D01*
G01X283555Y-1834292D01*
G01X285019Y-1834292D01*
G01X286482Y-1834292D01*
G01X286482Y-1837219D01*
G01X286482Y-1840145D01*
G01X287945Y-1840145D01*
G01X287945Y-1840145D01*
G01X289408Y-1841608D01*
G01X289408Y-1841608D01*
G01X290871Y-1843071D01*
G01X290871Y-1843071D01*
G01X292334Y-1844534D01*
G01X292334Y-1844534D01*
G01X293797Y-1845997D01*
G01X293797Y-1845997D01*
G01X295260Y-1847460D01*
G01X295260Y-1848923D01*
G01X298187Y-1848923D01*
G01X301113Y-1848923D01*
G01X301113Y-1850387D01*
G01X301113Y-1851850D01*
G01X311355Y-1851850D01*
G01X321597Y-1851850D01*
G01X321597Y-1850387D01*
G01X321597Y-1848923D01*
G01X324645Y-1848917D01*
G01X324645Y-1848917D01*
G01X328749Y-1848627D01*
G01X328749Y-1848627D01*
G01X330100Y-1847170D01*
G01X330100Y-1847170D01*
G01X331848Y-1845997D01*
G01X331848Y-1845997D01*
G01X333302Y-1843071D01*
G01X333302Y-1840145D01*
G01X334765Y-1840145D01*
G01X336228Y-1840145D01*
G01X336228Y-1837219D01*
G01X336228Y-1834292D01*
G01X337691Y-1834292D01*
G01X339154Y-1834292D01*
G01X339154Y-1822377D01*
G01X339154Y-1810463D01*
G01X340232Y-1810307D01*
G01X340232Y-1810307D01*
G01X341646Y-1808932D01*
G01X341646Y-1808932D01*
G01X342032Y-1804908D01*
G01X342081Y-1802104D01*
G01X346446Y-1802104D01*
G01X350811Y-1802104D01*
G01X350957Y-1804908D01*
G01X350957Y-1804908D01*
G01X352445Y-1807867D01*
G01X353786Y-1808021D01*
G01X353786Y-1815304D01*
G01X353786Y-1822587D01*
G01X352323Y-1822587D01*
G01X350859Y-1822587D01*
G01X350859Y-1825514D01*
G01X350859Y-1828440D01*
G01X349396Y-1828440D01*
G01X349396Y-1828440D01*
G01X347933Y-1829903D01*
G01X347933Y-1829903D01*
G01X347017Y-1831366D01*
G01X347017Y-1831366D01*
G01X345532Y-1832052D01*
G01X345532Y-1832052D01*
G01X345107Y-1836320D01*
G01X345107Y-1836320D01*
G01X346592Y-1840055D01*
G01X346592Y-1840055D01*
G01X347933Y-1841640D01*
G01X347933Y-1841640D01*
G01X349396Y-1843071D01*
G01X349396Y-1843071D01*
G01X350859Y-1843949D01*
G01X350859Y-1843949D01*
G01X351445Y-1845412D01*
G01X351445Y-1845412D01*
G01X354371Y-1845997D01*
G01X354371Y-1845997D01*
G01X356712Y-1847460D01*
G01X356712Y-1848923D01*
G01X361101Y-1848923D01*
G01X365491Y-1848923D01*
G01X365491Y-1847493D01*
G01X365491Y-1847493D01*
G01X366832Y-1845908D01*
G01X366832Y-1845908D01*
G01X368319Y-1842949D01*
G01X368319Y-1842949D01*
G01X369905Y-1840145D01*
G01X371343Y-1840145D01*
G01X371343Y-1835755D01*
G01X371343Y-1831366D01*
G01X372806Y-1831366D01*
G01X374270Y-1831366D01*
G01X374270Y-1815272D01*
G01X374270Y-1799177D01*
G01X372806Y-1799177D01*
G37*
G36*
G01X238223Y-1945489D02*
G01X236766Y-1945489D01*
G01X236629Y-1939759D01*
G01X236491Y-1934028D01*
G01X235150Y-1933874D01*
G01X235150Y-1933874D01*
G01X233809Y-1932289D01*
G01X233809Y-1932289D01*
G01X232346Y-1930858D01*
G01X232346Y-1930858D01*
G01X230883Y-1929395D01*
G01X230883Y-1929395D01*
G01X229419Y-1927932D01*
G01X229419Y-1927932D01*
G01X227956Y-1926450D01*
G01X227956Y-1924968D01*
G01X223689Y-1925109D01*
G01X219421Y-1925249D01*
G01X219275Y-1928054D01*
G01X219275Y-1928054D01*
G01X217690Y-1930858D01*
G01X217690Y-1930858D01*
G01X216251Y-1932321D01*
G01X216251Y-1932321D01*
G01X214788Y-1933784D01*
G01X214788Y-1933784D01*
G01X213325Y-1935215D01*
G01X213325Y-1935215D01*
G01X211984Y-1936800D01*
G01X211984Y-1936800D01*
G01X210643Y-1939637D01*
G01X210643Y-1939637D01*
G01X211984Y-1942473D01*
G01X211984Y-1942473D01*
G01X213325Y-1944059D01*
G01X213325Y-1944059D01*
G01X214788Y-1945489D01*
G01X216251Y-1945489D01*
G01X216251Y-1957194D01*
G01X216251Y-1968899D01*
G01X214788Y-1968899D01*
G01X214788Y-1968899D01*
G01X213325Y-1970362D01*
G01X213325Y-1971825D01*
G01X207351Y-1971818D01*
G01X207351Y-1971818D01*
G01X202595Y-1971196D01*
G01X202595Y-1971196D01*
G01X204132Y-1966448D01*
G01X204132Y-1966448D01*
G01X204491Y-1958170D01*
G01X204491Y-1958170D01*
G01X204250Y-1952968D01*
G01X204250Y-1952968D01*
G01X202793Y-1951618D01*
G01X201620Y-1951323D01*
G01X201620Y-1942554D01*
G01X201620Y-1933784D01*
G01X200157Y-1933784D01*
G01X200157Y-1933784D01*
G01X198694Y-1932321D01*
G01X198694Y-1932321D01*
G01X197231Y-1930858D01*
G01X197231Y-1930858D01*
G01X195767Y-1929395D01*
G01X195767Y-1929395D01*
G01X194304Y-1927932D01*
G01X194304Y-1927932D01*
G01X192841Y-1926469D01*
G01X192841Y-1926469D01*
G01X191378Y-1925006D01*
G01X191378Y-1925006D01*
G01X189915Y-1923542D01*
G01X189915Y-1922079D01*
G01X185525Y-1922079D01*
G01X181136Y-1922079D01*
G01X181136Y-1920616D01*
G01X181136Y-1919153D01*
G01X175284Y-1919153D01*
G01X169431Y-1919153D01*
G01X169431Y-1920616D01*
G01X169431Y-1922079D01*
G01X165042Y-1922079D01*
G01X160652Y-1922079D01*
G01X160652Y-1923542D01*
G01X160652Y-1925006D01*
G01X157726Y-1925006D01*
G01X154800Y-1925006D01*
G01X154800Y-1926469D01*
G01X154800Y-1926469D01*
G01X153337Y-1927932D01*
G01X151873Y-1927932D01*
G01X151873Y-1930858D01*
G01X151873Y-1933784D01*
G01X150410Y-1933784D01*
G01X150410Y-1933784D01*
G01X148947Y-1935260D01*
G01X148947Y-1935260D01*
G01X147795Y-1937173D01*
G01X147795Y-1937173D01*
G01X146338Y-1938746D01*
G01X146338Y-1938746D01*
G01X146028Y-1954390D01*
G01X146021Y-1968899D01*
G01X147484Y-1968899D01*
G01X147484Y-1968899D01*
G01X148947Y-1970362D01*
G01X148947Y-1970362D01*
G01X147484Y-1971825D01*
G01X146021Y-1971825D01*
G01X146021Y-1983533D01*
G01X146021Y-1995241D01*
G01X182477Y-1995116D01*
G01X218934Y-1994991D01*
G01X219088Y-1993650D01*
G01X219088Y-1993650D01*
G01X222136Y-1992309D01*
G01X222136Y-1992309D01*
G01X225030Y-1990870D01*
G01X225030Y-1990870D01*
G01X227834Y-1989285D01*
G01X230639Y-1989139D01*
G01X230785Y-1986335D01*
G01X230785Y-1986335D01*
G01X232370Y-1983530D01*
G01X232370Y-1983530D01*
G01X233809Y-1982067D01*
G01X233809Y-1982067D01*
G01X235272Y-1980604D01*
G01X236735Y-1980604D01*
G01X236735Y-1974784D01*
G01X236735Y-1968964D01*
G01X238076Y-1968810D01*
G01X239418Y-1968655D01*
G01X239548Y-1957072D01*
G01X239679Y-1945489D01*
G01X238223Y-1945489D01*
G37*
%LPC*%
G36*
G01X178210Y-1971825D02*
G01X172357Y-1971825D01*
G01X172357Y-1970362D01*
G01X172357Y-1970362D01*
G01X170913Y-1968899D01*
G01X169469Y-1968899D01*
G01X169328Y-1964632D01*
G01X169328Y-1964632D01*
G01X167846Y-1960210D01*
G01X167846Y-1960210D01*
G01X166505Y-1957116D01*
G01X166505Y-1957116D01*
G01X167518Y-1953912D01*
G01X167518Y-1953912D01*
G01X168981Y-1952463D01*
G01X168981Y-1952463D01*
G01X169431Y-1948416D01*
G01X169431Y-1948416D01*
G01X170772Y-1945400D01*
G01X170772Y-1945400D01*
G01X172268Y-1943904D01*
G01X172268Y-1943904D01*
G01X175328Y-1942563D01*
G01X175328Y-1942563D01*
G01X178672Y-1943716D01*
G01X178672Y-1943716D01*
G01X180123Y-1945133D01*
G01X180123Y-1945133D01*
G01X181143Y-1947029D01*
G01X181143Y-1947029D01*
G01X181433Y-1949715D01*
G01X181433Y-1949715D01*
G01X182889Y-1951066D01*
G01X184062Y-1951360D01*
G01X184062Y-1961593D01*
G01X184062Y-1971825D01*
G01X178210Y-1971825D01*
G37*
%LPD*%
G36*
G01X239336Y-2095052D02*
G01X239336Y-2095052D01*
G01X237873Y-2094727D01*
G01X237873Y-2094727D01*
G01X236735Y-2090338D01*
G01X236735Y-2085949D01*
G01X235272Y-2085949D01*
G01X235272Y-2085949D01*
G01X233809Y-2084486D01*
G01X233809Y-2084486D01*
G01X232346Y-2083022D01*
G01X232346Y-2083022D01*
G01X230883Y-2081559D01*
G01X230883Y-2081559D01*
G01X229419Y-2080096D01*
G01X229419Y-2080096D01*
G01X227956Y-2077936D01*
G01X227956Y-2077936D01*
G01X227190Y-2075010D01*
G01X227190Y-2075010D01*
G01X224264Y-2074244D01*
G01X224264Y-2074244D01*
G01X222104Y-2072781D01*
G01X222104Y-2072781D01*
G01X219210Y-2071317D01*
G01X219210Y-2071317D01*
G01X216162Y-2069976D01*
G01X216007Y-2068635D01*
G01X210277Y-2068498D01*
G01X204546Y-2068360D01*
G01X204546Y-2066905D01*
G01X204546Y-2065449D01*
G01X191500Y-2065579D01*
G01X178454Y-2065709D01*
G01X178299Y-2067050D01*
G01X178145Y-2068391D01*
G01X173788Y-2068391D01*
G01X169431Y-2068391D01*
G01X169431Y-2069854D01*
G01X169431Y-2071317D01*
G01X166505Y-2071317D01*
G01X163578Y-2071317D01*
G01X163578Y-2072781D01*
G01X163578Y-2074244D01*
G01X160652Y-2074244D01*
G01X157726Y-2074244D01*
G01X157726Y-2075707D01*
G01X157726Y-2075707D01*
G01X156263Y-2077170D01*
G01X156263Y-2077170D01*
G01X154800Y-2078633D01*
G01X154800Y-2078633D01*
G01X153337Y-2080096D01*
G01X151873Y-2080096D01*
G01X151873Y-2083022D01*
G01X151873Y-2085949D01*
G01X150410Y-2085949D01*
G01X148947Y-2085949D01*
G01X148947Y-2088875D01*
G01X148947Y-2091801D01*
G01X147484Y-2091801D01*
G01X146021Y-2091801D01*
G01X146021Y-2107310D01*
G01X146021Y-2107310D01*
G01X146606Y-2123404D01*
G01X146606Y-2123404D01*
G01X148045Y-2123990D01*
G01X148045Y-2123990D01*
G01X149045Y-2126794D01*
G01X149045Y-2126794D01*
G01X150532Y-2129753D01*
G01X150532Y-2129753D01*
G01X151873Y-2131338D01*
G01X151873Y-2131338D01*
G01X153312Y-2132768D01*
G01X153312Y-2132768D01*
G01X154897Y-2135573D01*
G01X155044Y-2138377D01*
G01X157818Y-2138522D01*
G01X157818Y-2138522D01*
G01X160744Y-2139986D01*
G01X160744Y-2139986D01*
G01X163578Y-2141303D01*
G01X166261Y-2141303D01*
G01X166407Y-2138499D01*
G01X166407Y-2138499D01*
G01X167992Y-2135695D01*
G01X167992Y-2135695D01*
G01X169431Y-2134232D01*
G01X169431Y-2134232D01*
G01X170894Y-2132768D01*
G01X170894Y-2132768D01*
G01X172357Y-2131305D01*
G01X172357Y-2131305D01*
G01X173820Y-2129842D01*
G01X175284Y-2129842D01*
G01X175284Y-2125453D01*
G01X175284Y-2121063D01*
G01X173820Y-2121063D01*
G01X173820Y-2121063D01*
G01X172357Y-2119600D01*
G01X172357Y-2119600D01*
G01X170894Y-2118137D01*
G01X169431Y-2118137D01*
G01X169424Y-2113626D01*
G01X169424Y-2113626D01*
G01X169124Y-2108017D01*
G01X169124Y-2108017D01*
G01X168155Y-2106920D01*
G01X168155Y-2106920D01*
G01X167480Y-2106432D01*
G01X167480Y-2106432D01*
G01X168155Y-2105945D01*
G01X168155Y-2105945D01*
G01X169124Y-2104847D01*
G01X169124Y-2104847D01*
G01X169424Y-2100656D01*
G01X169424Y-2100656D01*
G01X170444Y-2097297D01*
G01X170444Y-2097297D01*
G01X171882Y-2095915D01*
G01X171882Y-2095915D01*
G01X173673Y-2094640D01*
G01X173673Y-2094640D01*
G01X175194Y-2093142D01*
G01X175194Y-2093142D01*
G01X176779Y-2091801D01*
G01X176779Y-2091801D01*
G01X178210Y-2090338D01*
G01X178210Y-2088875D01*
G01X181136Y-2088875D01*
G01X184062Y-2088875D01*
G01X184062Y-2115211D01*
G01X184062Y-2141547D01*
G01X200157Y-2141547D01*
G01X216251Y-2141547D01*
G01X216251Y-2140084D01*
G01X216251Y-2138621D01*
G01X219178Y-2138621D01*
G01X222104Y-2138621D01*
G01X222104Y-2137158D01*
G01X222104Y-2137158D01*
G01X223567Y-2135695D01*
G01X223567Y-2135695D01*
G01X225030Y-2134232D01*
G01X225030Y-2134232D01*
G01X226493Y-2132768D01*
G01X226493Y-2132768D01*
G01X227956Y-2131305D01*
G01X227956Y-2131305D01*
G01X229419Y-2129842D01*
G01X229419Y-2129842D01*
G01X230883Y-2128379D01*
G01X230883Y-2128379D01*
G01X232346Y-2126916D01*
G01X232346Y-2126916D01*
G01X233809Y-2125453D01*
G01X233809Y-2125453D01*
G01X235272Y-2123990D01*
G01X236735Y-2123990D01*
G01X236735Y-2118137D01*
G01X236735Y-2112285D01*
G01X238198Y-2112285D01*
G01X239661Y-2112285D01*
G01X239661Y-2103831D01*
G01X239661Y-2103831D01*
G01X239336Y-2095052D01*
G37*
%LPC*%
G36*
G01X214788Y-2112285D02*
G01X214788Y-2112285D01*
G01X213325Y-2113748D01*
G01X213325Y-2113748D01*
G01X211862Y-2115211D01*
G01X211862Y-2115211D01*
G01X210399Y-2116674D01*
G01X210399Y-2118137D01*
G01X207253Y-2118137D01*
G01X204108Y-2118137D01*
G01X204081Y-2103506D01*
G01X204055Y-2088875D01*
G01X205764Y-2088875D01*
G01X205764Y-2088875D01*
G01X207472Y-2090338D01*
G01X207472Y-2090338D01*
G01X208936Y-2091801D01*
G01X208936Y-2091801D01*
G01X210399Y-2092679D01*
G01X210399Y-2092679D01*
G01X210984Y-2094142D01*
G01X210984Y-2094142D01*
G01X212447Y-2094727D01*
G01X212447Y-2094727D01*
G01X213325Y-2096190D01*
G01X213325Y-2096190D01*
G01X214788Y-2097654D01*
G01X216251Y-2097654D01*
G01X216251Y-2104969D01*
G01X216251Y-2112285D01*
G01X214788Y-2112285D01*
G37*
%LPD*%
G36*
G01X372825Y-1597267D02*
G01X371381Y-1597267D01*
G01X371240Y-1593000D01*
G01X371240Y-1593000D01*
G01X369758Y-1588578D01*
G01X369758Y-1588578D01*
G01X368417Y-1586993D01*
G01X368417Y-1586993D01*
G01X366954Y-1585562D01*
G01X366954Y-1585562D01*
G01X365491Y-1584099D01*
G01X365491Y-1584099D01*
G01X364060Y-1582636D01*
G01X364060Y-1582636D01*
G01X362475Y-1581295D01*
G01X362475Y-1581295D01*
G01X359516Y-1579807D01*
G01X359516Y-1579807D01*
G01X356712Y-1578222D01*
G01X356712Y-1578222D01*
G01X353786Y-1576783D01*
G01X350859Y-1576783D01*
G01X350859Y-1575320D01*
G01X350859Y-1573857D01*
G01X328216Y-1573857D01*
G01X328216Y-1573857D01*
G01X304806Y-1574624D01*
G01X304806Y-1574624D01*
G01X304039Y-1576062D01*
G01X304039Y-1576062D01*
G01X301235Y-1576881D01*
G01X301235Y-1576881D01*
G01X298276Y-1578368D01*
G01X298276Y-1578368D01*
G01X296691Y-1579710D01*
G01X296691Y-1579710D01*
G01X295260Y-1581173D01*
G01X295260Y-1581173D01*
G01X293797Y-1582636D01*
G01X293797Y-1582636D01*
G01X292334Y-1584099D01*
G01X292334Y-1584099D01*
G01X290871Y-1585562D01*
G01X290871Y-1585562D01*
G01X289408Y-1587025D01*
G01X289408Y-1587025D01*
G01X287945Y-1588488D01*
G01X286482Y-1588488D01*
G01X286482Y-1591415D01*
G01X286482Y-1594341D01*
G01X285019Y-1594341D01*
G01X283555Y-1594341D01*
G01X283555Y-1598730D01*
G01X283555Y-1603120D01*
G01X282082Y-1603120D01*
G01X280609Y-1603120D01*
G01X280741Y-1613239D01*
G01X280873Y-1623359D01*
G01X282196Y-1623512D01*
G01X282196Y-1623512D01*
G01X283659Y-1627901D01*
G01X283659Y-1627901D01*
G01X285140Y-1632292D01*
G01X285140Y-1632292D01*
G01X286482Y-1635341D01*
G01X286482Y-1635341D01*
G01X287945Y-1638234D01*
G01X287945Y-1638234D01*
G01X289408Y-1639698D01*
G01X289408Y-1639698D01*
G01X290871Y-1641161D01*
G01X290871Y-1641161D01*
G01X292334Y-1642624D01*
G01X292334Y-1642624D01*
G01X293797Y-1644087D01*
G01X293797Y-1644087D01*
G01X295260Y-1645550D01*
G01X295260Y-1647013D01*
G01X298187Y-1647013D01*
G01X301113Y-1647013D01*
G01X301113Y-1645550D01*
G01X301113Y-1645550D01*
G01X302576Y-1644087D01*
G01X302576Y-1644087D01*
G01X304039Y-1642624D01*
G01X304039Y-1642624D01*
G01X305502Y-1641161D01*
G01X305502Y-1641161D01*
G01X306965Y-1639698D01*
G01X306965Y-1639698D01*
G01X308429Y-1638234D01*
G01X308429Y-1638234D01*
G01X309892Y-1636804D01*
G01X309892Y-1636804D01*
G01X311233Y-1635219D01*
G01X311233Y-1635219D01*
G01X312574Y-1632382D01*
G01X312574Y-1632382D01*
G01X311233Y-1629545D01*
G01X311233Y-1629545D01*
G01X309892Y-1627960D01*
G01X309892Y-1627960D01*
G01X308453Y-1626529D01*
G01X308453Y-1626529D01*
G01X306868Y-1623725D01*
G01X306868Y-1623725D01*
G01X305380Y-1620767D01*
G01X304039Y-1620612D01*
G01X304039Y-1611866D01*
G01X304039Y-1603120D01*
G01X305502Y-1603120D01*
G01X305502Y-1603120D01*
G01X306965Y-1601656D01*
G01X306965Y-1601656D01*
G01X308429Y-1600193D01*
G01X308429Y-1600193D01*
G01X309892Y-1598730D01*
G01X309892Y-1597267D01*
G01X314281Y-1597267D01*
G01X318671Y-1597267D01*
G01X318671Y-1622140D01*
G01X318671Y-1647013D01*
G01X320134Y-1647013D01*
G01X320134Y-1647013D01*
G01X321597Y-1647710D01*
G01X321597Y-1647710D01*
G01X322363Y-1649173D01*
G01X322363Y-1649173D01*
G01X331264Y-1649933D01*
G01X331264Y-1649933D01*
G01X340454Y-1649643D01*
G01X340454Y-1649643D01*
G01X341805Y-1648186D01*
G01X341805Y-1648186D01*
G01X347943Y-1647013D01*
G01X353786Y-1647013D01*
G01X353786Y-1645550D01*
G01X353786Y-1644087D01*
G01X356712Y-1644087D01*
G01X359638Y-1644087D01*
G01X359638Y-1642624D01*
G01X359638Y-1642624D01*
G01X361101Y-1641161D01*
G01X361101Y-1641161D01*
G01X362565Y-1639698D01*
G01X362565Y-1639698D01*
G01X364028Y-1638234D01*
G01X364028Y-1638234D01*
G01X365491Y-1636771D01*
G01X365491Y-1636771D01*
G01X366954Y-1635308D01*
G01X366954Y-1635308D01*
G01X368417Y-1633845D01*
G01X368417Y-1633845D01*
G01X369880Y-1632382D01*
G01X371343Y-1632382D01*
G01X371343Y-1627993D01*
G01X371343Y-1623603D01*
G01X372806Y-1623603D01*
G01X374270Y-1623603D01*
G01X374270Y-1610435D01*
G01X374270Y-1597267D01*
G01X372825Y-1597267D01*
G37*
%LPC*%
G36*
G01X352445Y-1614914D02*
G01X352445Y-1614914D01*
G01X350957Y-1617873D01*
G01X350957Y-1617873D01*
G01X349372Y-1620677D01*
G01X349372Y-1620677D01*
G01X347933Y-1622105D01*
G01X347933Y-1623534D01*
G01X343543Y-1623691D01*
G01X339152Y-1623847D01*
G01X339153Y-1610557D01*
G01X339154Y-1597267D01*
G01X343544Y-1597267D01*
G01X347933Y-1597267D01*
G01X347933Y-1598730D01*
G01X347933Y-1598730D01*
G01X349372Y-1600193D01*
G01X349372Y-1600193D01*
G01X350957Y-1602998D01*
G01X350957Y-1602998D01*
G01X352445Y-1605956D01*
G01X353786Y-1606111D01*
G01X353786Y-1610435D01*
G01X353786Y-1614760D01*
G01X352445Y-1614914D01*
G37*
%LPD*%
G36*
G01X373944Y-2182840D02*
G01X373944Y-2182840D01*
G01X372481Y-2182514D01*
G01X372481Y-2182514D01*
G01X371343Y-2179588D01*
G01X371343Y-2176662D01*
G01X369880Y-2176662D01*
G01X369880Y-2176662D01*
G01X368417Y-2175199D01*
G01X368417Y-2175199D01*
G01X366954Y-2173736D01*
G01X366954Y-2173736D01*
G01X365491Y-2172273D01*
G01X365491Y-2172273D01*
G01X364028Y-2170809D01*
G01X364028Y-2170809D01*
G01X362565Y-2169346D01*
G01X362565Y-2169346D01*
G01X361101Y-2167883D01*
G01X361101Y-2167883D01*
G01X359638Y-2166420D01*
G01X359638Y-2164957D01*
G01X355249Y-2164957D01*
G01X350859Y-2164957D01*
G01X350859Y-2163494D01*
G01X350859Y-2162031D01*
G01X346502Y-2162031D01*
G01X342145Y-2162031D01*
G01X341991Y-2160690D01*
G01X341837Y-2159348D01*
G01X328669Y-2159211D01*
G01X328669Y-2159211D01*
G01X314411Y-2159341D01*
G01X314411Y-2159341D01*
G01X313016Y-2160819D01*
G01X313016Y-2160819D01*
G01X308376Y-2162031D01*
G01X304039Y-2162031D01*
G01X304039Y-2163494D01*
G01X304039Y-2164957D01*
G01X301113Y-2164957D01*
G01X298187Y-2164957D01*
G01X298187Y-2166420D01*
G01X298187Y-2166420D01*
G01X296724Y-2167883D01*
G01X296724Y-2167883D01*
G01X295260Y-2169282D01*
G01X295260Y-2169282D01*
G01X293242Y-2170952D01*
G01X293242Y-2170952D01*
G01X290523Y-2171924D01*
G01X290523Y-2171924D01*
G01X289550Y-2174644D01*
G01X289550Y-2174644D01*
G01X287881Y-2176662D01*
G01X287881Y-2176662D01*
G01X286482Y-2179588D01*
G01X286482Y-2182514D01*
G01X285019Y-2182514D01*
G01X283555Y-2182514D01*
G01X283555Y-2185651D01*
G01X283555Y-2185651D01*
G01X282478Y-2188943D01*
G01X282478Y-2188943D01*
G01X281064Y-2190318D01*
G01X281064Y-2190318D01*
G01X280684Y-2200072D01*
G01X280684Y-2200072D01*
G01X280946Y-2209741D01*
G01X280946Y-2209741D01*
G01X282403Y-2211314D01*
G01X282403Y-2211314D01*
G01X283555Y-2214691D01*
G01X283555Y-2217629D01*
G01X285019Y-2217629D01*
G01X286482Y-2217629D01*
G01X286482Y-2221433D01*
G01X286482Y-2221433D01*
G01X287067Y-2225823D01*
G01X287067Y-2225823D01*
G01X288530Y-2226408D01*
G01X288530Y-2226408D01*
G01X289408Y-2227871D01*
G01X289408Y-2227871D01*
G01X290871Y-2229334D01*
G01X290871Y-2229334D01*
G01X292334Y-2230797D01*
G01X292334Y-2230797D01*
G01X294773Y-2232260D01*
G01X294773Y-2232260D01*
G01X297211Y-2232748D01*
G01X297211Y-2232748D01*
G01X298187Y-2233236D01*
G01X298187Y-2233236D01*
G01X299162Y-2232748D01*
G01X299162Y-2232748D01*
G01X301601Y-2232260D01*
G01X301601Y-2232260D01*
G01X304039Y-2230830D01*
G01X304039Y-2230830D01*
G01X305380Y-2229245D01*
G01X305380Y-2229245D01*
G01X306868Y-2226286D01*
G01X306868Y-2226286D01*
G01X308453Y-2223482D01*
G01X309892Y-2223482D01*
G01X309892Y-2219092D01*
G01X309892Y-2214703D01*
G01X308429Y-2214703D01*
G01X306965Y-2214703D01*
G01X306965Y-2211777D01*
G01X306965Y-2208851D01*
G01X305502Y-2208851D01*
G01X304039Y-2208851D01*
G01X304039Y-2200072D01*
G01X304039Y-2191293D01*
G01X305502Y-2191293D01*
G01X305502Y-2191293D01*
G01X306965Y-2189830D01*
G01X306965Y-2189830D01*
G01X308429Y-2188367D01*
G01X308429Y-2188367D01*
G01X309892Y-2186904D01*
G01X309892Y-2186904D01*
G01X311355Y-2185441D01*
G01X311355Y-2185441D01*
G01X312818Y-2183978D01*
G01X312818Y-2183978D01*
G01X315740Y-2182514D01*
G01X318662Y-2182514D01*
G01X318788Y-2208729D01*
G01X318914Y-2234943D01*
G01X334887Y-2235071D01*
G01X350859Y-2235200D01*
G01X350859Y-2233730D01*
G01X350859Y-2232260D01*
G01X353786Y-2232260D01*
G01X356712Y-2232260D01*
G01X356712Y-2230797D01*
G01X356712Y-2229334D01*
G01X359638Y-2229334D01*
G01X362565Y-2229334D01*
G01X362565Y-2227871D01*
G01X362565Y-2227871D01*
G01X364028Y-2226408D01*
G01X364028Y-2226408D01*
G01X365491Y-2224945D01*
G01X365491Y-2224945D01*
G01X366954Y-2223482D01*
G01X368417Y-2223482D01*
G01X368417Y-2220556D01*
G01X368417Y-2217629D01*
G01X369880Y-2217629D01*
G01X371343Y-2217629D01*
G01X371343Y-2214703D01*
G01X371343Y-2211777D01*
G01X372806Y-2211777D01*
G01X374270Y-2211777D01*
G01X374270Y-2197471D01*
G01X374270Y-2197471D01*
G01X373944Y-2182840D01*
G37*
%LPC*%
G36*
G01X352323Y-2202998D02*
G01X352323Y-2202998D01*
G01X350859Y-2204429D01*
G01X350859Y-2204429D01*
G01X349518Y-2206014D01*
G01X349518Y-2206014D01*
G01X348023Y-2207509D01*
G01X348023Y-2207509D01*
G01X346438Y-2208851D01*
G01X346438Y-2208851D01*
G01X345007Y-2210314D01*
G01X345007Y-2211777D01*
G01X342081Y-2211777D01*
G01X339154Y-2211777D01*
G01X339154Y-2197146D01*
G01X339154Y-2182514D01*
G01X340618Y-2182514D01*
G01X340618Y-2182514D01*
G01X342081Y-2183392D01*
G01X342081Y-2183392D01*
G01X342666Y-2184855D01*
G01X342666Y-2184855D01*
G01X345592Y-2185441D01*
G01X345592Y-2185441D01*
G01X347933Y-2186904D01*
G01X347933Y-2186904D01*
G01X349396Y-2188367D01*
G01X349396Y-2188367D01*
G01X350859Y-2189830D01*
G01X350859Y-2189830D01*
G01X352323Y-2191293D01*
G01X353786Y-2191293D01*
G01X353786Y-2197146D01*
G01X353786Y-2202998D01*
G01X352323Y-2202998D01*
G37*
%LPD*%
G36*
G01X372806Y-1430472D02*
G01X371343Y-1430472D01*
G01X371343Y-1426668D01*
G01X371343Y-1426668D01*
G01X370758Y-1422278D01*
G01X370758Y-1422278D01*
G01X369295Y-1421693D01*
G01X369295Y-1421693D01*
G01X368417Y-1420230D01*
G01X368417Y-1420230D01*
G01X366954Y-1418767D01*
G01X366954Y-1418767D01*
G01X365491Y-1417304D01*
G01X365491Y-1417304D01*
G01X364060Y-1415840D01*
G01X364060Y-1415840D01*
G01X362475Y-1414499D01*
G01X362475Y-1414499D01*
G01X359516Y-1413012D01*
G01X359516Y-1413012D01*
G01X356712Y-1411427D01*
G01X356712Y-1411427D01*
G01X353786Y-1409988D01*
G01X350859Y-1409988D01*
G01X350859Y-1408525D01*
G01X350859Y-1407062D01*
G01X329034Y-1407110D01*
G01X329034Y-1407110D01*
G01X305990Y-1407496D01*
G01X305990Y-1407496D01*
G01X304615Y-1408911D01*
G01X304615Y-1408911D01*
G01X301323Y-1409988D01*
G01X298187Y-1409988D01*
G01X298187Y-1411451D01*
G01X298187Y-1411451D01*
G01X296724Y-1412914D01*
G01X296724Y-1412914D01*
G01X295260Y-1414377D01*
G01X295260Y-1414377D01*
G01X293797Y-1415840D01*
G01X293797Y-1415840D01*
G01X292334Y-1417304D01*
G01X292334Y-1417304D01*
G01X290871Y-1418767D01*
G01X290871Y-1418767D01*
G01X289408Y-1420230D01*
G01X289408Y-1420230D01*
G01X287945Y-1421693D01*
G01X286482Y-1421693D01*
G01X286482Y-1424619D01*
G01X286482Y-1427545D01*
G01X285019Y-1427545D01*
G01X283555Y-1427545D01*
G01X283555Y-1431935D01*
G01X283555Y-1436324D01*
G01X282092Y-1436324D01*
G01X280629Y-1436324D01*
G01X280629Y-1445103D01*
G01X280629Y-1453882D01*
G01X282092Y-1453882D01*
G01X283555Y-1453882D01*
G01X283555Y-1458271D01*
G01X283555Y-1462660D01*
G01X284994Y-1462660D01*
G01X284994Y-1462660D01*
G01X286579Y-1465465D01*
G01X286579Y-1465465D01*
G01X288067Y-1468423D01*
G01X288067Y-1468423D01*
G01X289408Y-1470008D01*
G01X289408Y-1470008D01*
G01X290871Y-1471439D01*
G01X290871Y-1471439D01*
G01X292334Y-1472902D01*
G01X292334Y-1472902D01*
G01X293765Y-1474365D01*
G01X293765Y-1474365D01*
G01X295350Y-1475706D01*
G01X295350Y-1475706D01*
G01X298309Y-1477194D01*
G01X298309Y-1477194D01*
G01X301113Y-1478779D01*
G01X301113Y-1480218D01*
G01X305470Y-1480218D01*
G01X309827Y-1480218D01*
G01X309981Y-1481559D01*
G01X310136Y-1482900D01*
G01X328912Y-1482900D01*
G01X347689Y-1482900D01*
G01X347844Y-1481559D01*
G01X347998Y-1480218D01*
G01X352355Y-1480218D01*
G01X356712Y-1480218D01*
G01X356712Y-1478755D01*
G01X356712Y-1478755D01*
G01X358175Y-1477291D01*
G01X358175Y-1477291D01*
G01X359638Y-1475828D01*
G01X359638Y-1475828D01*
G01X361979Y-1474365D01*
G01X361979Y-1474365D01*
G01X364906Y-1473780D01*
G01X364906Y-1473780D01*
G01X365491Y-1472317D01*
G01X365491Y-1472317D01*
G01X366369Y-1471439D01*
G01X366369Y-1471439D01*
G01X367832Y-1470854D01*
G01X367832Y-1470854D01*
G01X368417Y-1467927D01*
G01X368417Y-1467927D01*
G01X369880Y-1465586D01*
G01X371343Y-1465586D01*
G01X371343Y-1462660D01*
G01X371343Y-1459734D01*
G01X372806Y-1459734D01*
G01X374270Y-1459734D01*
G01X374270Y-1445103D01*
G01X374270Y-1430472D01*
G01X372806Y-1430472D01*
G37*
%LPC*%
G36*
G01X352613Y-1445379D02*
G01X352613Y-1445379D01*
G01X351156Y-1446729D01*
G01X351156Y-1446729D01*
G01X350866Y-1450833D01*
G01X350859Y-1453882D01*
G01X349396Y-1453882D01*
G01X349396Y-1453882D01*
G01X347933Y-1455320D01*
G01X347933Y-1455320D01*
G01X345129Y-1456905D01*
G01X345129Y-1456905D01*
G01X342170Y-1458393D01*
G01X342016Y-1459734D01*
G01X328912Y-1459734D01*
G01X315809Y-1459734D01*
G01X315655Y-1458393D01*
G01X315655Y-1458393D01*
G01X312696Y-1456905D01*
G01X312696Y-1456905D01*
G01X309892Y-1455320D01*
G01X309892Y-1455320D01*
G01X308429Y-1453882D01*
G01X308429Y-1453882D01*
G01X306965Y-1452418D01*
G01X306965Y-1452418D01*
G01X305502Y-1450955D01*
G01X304039Y-1450955D01*
G01X304039Y-1445103D01*
G01X304039Y-1439250D01*
G01X305502Y-1439250D01*
G01X305502Y-1439250D01*
G01X306965Y-1437797D01*
G01X306965Y-1437797D01*
G01X308142Y-1436047D01*
G01X308142Y-1436047D01*
G01X309615Y-1434575D01*
G01X309615Y-1434575D01*
G01X311364Y-1433398D01*
G01X311364Y-1433398D01*
G01X312818Y-1431935D01*
G01X312818Y-1430472D01*
G01X328912Y-1430472D01*
G01X345007Y-1430472D01*
G01X345007Y-1431935D01*
G01X345007Y-1431935D01*
G01X346470Y-1433398D01*
G01X346470Y-1433398D01*
G01X347933Y-1434861D01*
G01X347933Y-1434861D01*
G01X349396Y-1436324D01*
G01X350859Y-1436324D01*
G01X350859Y-1439250D01*
G01X350859Y-1442177D01*
G01X352323Y-1442177D01*
G01X352323Y-1442177D01*
G01X353786Y-1443630D01*
G01X353786Y-1443630D01*
G01X352613Y-1445379D01*
G37*
%LPD*%
G36*
G01X372814Y-1881112D02*
G01X371343Y-1881112D01*
G01X371343Y-1876723D01*
G01X371343Y-1872333D01*
G01X369880Y-1872333D01*
G01X369880Y-1872333D01*
G01X368417Y-1870870D01*
G01X368417Y-1870870D01*
G01X366954Y-1869407D01*
G01X366954Y-1869407D01*
G01X365491Y-1867944D01*
G01X365491Y-1867944D01*
G01X364028Y-1866481D01*
G01X364028Y-1866481D01*
G01X362565Y-1865018D01*
G01X362565Y-1865018D01*
G01X361134Y-1863555D01*
G01X361134Y-1863555D01*
G01X359549Y-1862213D01*
G01X359549Y-1862213D01*
G01X356590Y-1860726D01*
G01X356590Y-1860726D01*
G01X353786Y-1859141D01*
G01X353786Y-1857702D01*
G01X328912Y-1857702D01*
G01X304039Y-1857702D01*
G01X304039Y-1859165D01*
G01X304039Y-1860628D01*
G01X301113Y-1860628D01*
G01X298187Y-1860628D01*
G01X298187Y-1862092D01*
G01X298187Y-1862092D01*
G01X296724Y-1863555D01*
G01X296724Y-1863555D01*
G01X295260Y-1865018D01*
G01X295260Y-1865018D01*
G01X293797Y-1866481D01*
G01X293797Y-1866481D01*
G01X292334Y-1867944D01*
G01X292334Y-1867944D01*
G01X290871Y-1869407D01*
G01X290871Y-1869407D01*
G01X289408Y-1870870D01*
G01X289408Y-1870870D01*
G01X287945Y-1872333D01*
G01X286482Y-1872333D01*
G01X286482Y-1875260D01*
G01X286482Y-1878186D01*
G01X285019Y-1878186D01*
G01X283555Y-1878186D01*
G01X283555Y-1881112D01*
G01X283555Y-1881112D01*
G01X282640Y-1884038D01*
G01X282640Y-1884038D01*
G01X281166Y-1884711D01*
G01X281166Y-1884711D01*
G01X280740Y-1894831D01*
G01X280873Y-1904278D01*
G01X282214Y-1904432D01*
G01X282214Y-1904432D01*
G01X283555Y-1908358D01*
G01X283555Y-1908358D01*
G01X284141Y-1912715D01*
G01X284141Y-1912715D01*
G01X285604Y-1913301D01*
G01X285604Y-1913301D01*
G01X286482Y-1914764D01*
G01X286482Y-1914764D01*
G01X287945Y-1916227D01*
G01X289408Y-1916227D01*
G01X289408Y-1919153D01*
G01X289408Y-1922079D01*
G01X292334Y-1922079D01*
G01X295260Y-1922079D01*
G01X295260Y-1923542D01*
G01X295260Y-1923542D01*
G01X296724Y-1925006D01*
G01X296724Y-1925006D01*
G01X298187Y-1926469D01*
G01X298187Y-1926469D01*
G01X299650Y-1927932D01*
G01X299650Y-1927932D01*
G01X301113Y-1929395D01*
G01X301113Y-1930858D01*
G01X311323Y-1930858D01*
G01X321532Y-1930858D01*
G01X321686Y-1932199D01*
G01X321841Y-1933540D01*
G01X328912Y-1933540D01*
G01X335984Y-1933540D01*
G01X336139Y-1932199D01*
G01X336293Y-1930858D01*
G01X345039Y-1930858D01*
G01X353786Y-1930858D01*
G01X353786Y-1929395D01*
G01X353786Y-1927932D01*
G01X356712Y-1927932D01*
G01X359638Y-1927932D01*
G01X359638Y-1926469D01*
G01X359638Y-1926469D01*
G01X361101Y-1925006D01*
G01X361101Y-1925006D01*
G01X362565Y-1923542D01*
G01X362565Y-1923542D01*
G01X364028Y-1922079D01*
G01X364028Y-1922079D01*
G01X365491Y-1920616D01*
G01X365491Y-1920616D01*
G01X366954Y-1919153D01*
G01X366954Y-1919153D01*
G01X368417Y-1917690D01*
G01X368417Y-1917690D01*
G01X369880Y-1916227D01*
G01X369880Y-1916227D01*
G01X371343Y-1913333D01*
G01X371343Y-1913333D01*
G01X372685Y-1910285D01*
G01X374026Y-1910131D01*
G01X374155Y-1895621D01*
G01X374284Y-1881112D01*
G01X372814Y-1881112D01*
G37*
%LPC*%
G36*
G01X352445Y-1895833D02*
G01X352445Y-1895833D01*
G01X350958Y-1898761D01*
G01X350958Y-1898761D01*
G01X349495Y-1901687D01*
G01X349495Y-1901687D01*
G01X348031Y-1904644D01*
G01X347885Y-1907448D01*
G01X343519Y-1907448D01*
G01X339154Y-1907448D01*
G01X339154Y-1908911D01*
G01X339154Y-1910374D01*
G01X328945Y-1910374D01*
G01X318735Y-1910374D01*
G01X318581Y-1909033D01*
G01X318581Y-1909033D01*
G01X314159Y-1907551D01*
G01X309892Y-1907410D01*
G01X309892Y-1905966D01*
G01X309892Y-1905966D01*
G01X308429Y-1904522D01*
G01X308429Y-1904522D01*
G01X306959Y-1902937D01*
G01X306959Y-1902937D01*
G01X306669Y-1900296D01*
G01X306669Y-1900296D01*
G01X305212Y-1898945D01*
G01X305212Y-1898945D01*
G01X304039Y-1894271D01*
G01X304039Y-1889891D01*
G01X305502Y-1889891D01*
G01X306965Y-1889891D01*
G01X306965Y-1886965D01*
G01X306965Y-1884038D01*
G01X308429Y-1884038D01*
G01X308429Y-1884038D01*
G01X309892Y-1882588D01*
G01X309892Y-1881138D01*
G01X317086Y-1881003D01*
G01X324279Y-1880868D01*
G01X324434Y-1879527D01*
G01X324434Y-1879527D01*
G01X327482Y-1878186D01*
G01X327482Y-1878186D01*
G01X330376Y-1878883D01*
G01X330376Y-1878883D01*
G01X331142Y-1880346D01*
G01X331142Y-1880346D01*
G01X338425Y-1881112D01*
G01X344942Y-1881112D01*
G01X345097Y-1882453D01*
G01X345097Y-1882453D01*
G01X346592Y-1883949D01*
G01X346592Y-1883949D01*
G01X347933Y-1885534D01*
G01X347933Y-1885534D01*
G01X349396Y-1886965D01*
G01X350859Y-1886965D01*
G01X350859Y-1889891D01*
G01X350859Y-1892817D01*
G01X352323Y-1892817D01*
G01X352323Y-1892817D01*
G01X353786Y-1894248D01*
G01X353786Y-1894248D01*
G01X352445Y-1895833D01*
G37*
%LPD*%
G36*
G01X337691Y-1942563D02*
G01X301113Y-1942563D01*
G01X301113Y-1944026D01*
G01X301113Y-1945489D01*
G01X298187Y-1945489D01*
G01X295260Y-1945489D01*
G01X295260Y-1946952D01*
G01X295260Y-1946952D01*
G01X293797Y-1948415D01*
G01X293797Y-1948415D01*
G01X292334Y-1949879D01*
G01X292334Y-1949879D01*
G01X290871Y-1951342D01*
G01X290871Y-1951342D01*
G01X289408Y-1952805D01*
G01X289408Y-1952805D01*
G01X287945Y-1954268D01*
G01X287945Y-1954268D01*
G01X286482Y-1955731D01*
G01X286482Y-1955731D01*
G01X285604Y-1957194D01*
G01X285604Y-1957194D01*
G01X284141Y-1957779D01*
G01X284141Y-1957779D01*
G01X283555Y-1962169D01*
G01X283555Y-1965973D01*
G01X282092Y-1965973D01*
G01X280629Y-1965973D01*
G01X280629Y-1974166D01*
G01X280629Y-1974166D01*
G01X281214Y-1982945D01*
G01X281214Y-1982945D01*
G01X282677Y-1983530D01*
G01X282677Y-1983530D01*
G01X283555Y-1986457D01*
G01X283555Y-1989383D01*
G01X285019Y-1989383D01*
G01X285019Y-1989383D01*
G01X286482Y-1990846D01*
G01X286482Y-1990846D01*
G01X285019Y-1992309D01*
G01X283555Y-1992309D01*
G01X283555Y-2004014D01*
G01X283555Y-2015719D01*
G01X328912Y-2015719D01*
G01X374270Y-2015719D01*
G01X374270Y-2004014D01*
G01X374270Y-1992309D01*
G01X343576Y-1992309D01*
G01X312883Y-1992309D01*
G01X312728Y-1990968D01*
G01X312728Y-1990968D01*
G01X309770Y-1989480D01*
G01X306965Y-1989334D01*
G01X306965Y-1986432D01*
G01X306965Y-1986432D01*
G01X305502Y-1983530D01*
G01X304039Y-1983530D01*
G01X304039Y-1979173D01*
G01X304039Y-1974816D01*
G01X305380Y-1974662D01*
G01X305380Y-1974662D01*
G01X306868Y-1971703D01*
G01X306868Y-1971703D01*
G01X308453Y-1968899D01*
G01X308453Y-1968899D01*
G01X309892Y-1967436D01*
G01X309892Y-1965973D01*
G01X314978Y-1965973D01*
G01X314978Y-1965973D01*
G01X320830Y-1965207D01*
G01X320830Y-1965207D01*
G01X321597Y-1963743D01*
G01X321597Y-1963743D01*
G01X322572Y-1963047D01*
G01X322572Y-1963047D01*
G01X323548Y-1963456D01*
G01X323548Y-1963456D01*
G01X324889Y-1964482D01*
G01X324889Y-1964482D01*
G01X342568Y-1965515D01*
G01X342568Y-1965515D01*
G01X364896Y-1965952D01*
G01X364896Y-1965952D01*
G01X371209Y-1965119D01*
G01X371209Y-1965119D01*
G01X372135Y-1963656D01*
G01X372135Y-1963656D01*
G01X373503Y-1963047D01*
G01X373503Y-1963047D01*
G01X374270Y-1952805D01*
G01X374270Y-1942563D01*
G01X337691Y-1942563D01*
G37*
G36*
G01X372825Y-2112285D02*
G01X371381Y-2112285D01*
G01X371240Y-2108017D01*
G01X371240Y-2108017D01*
G01X369758Y-2103596D01*
G01X369758Y-2103596D01*
G01X368417Y-2102011D01*
G01X368417Y-2102011D01*
G01X366954Y-2100580D01*
G01X366954Y-2100580D01*
G01X365491Y-2099117D01*
G01X365491Y-2099117D01*
G01X364028Y-2097654D01*
G01X364028Y-2097654D01*
G01X362565Y-2096190D01*
G01X362565Y-2096190D01*
G01X361101Y-2094727D01*
G01X361101Y-2094727D01*
G01X359638Y-2093264D01*
G01X359638Y-2091801D01*
G01X356712Y-2091801D01*
G01X353786Y-2091801D01*
G01X353786Y-2090338D01*
G01X353786Y-2088875D01*
G01X349396Y-2088875D01*
G01X345007Y-2088875D01*
G01X345007Y-2087412D01*
G01X345007Y-2085949D01*
G01X328912Y-2085949D01*
G01X312818Y-2085949D01*
G01X312818Y-2087396D01*
G01X312818Y-2088844D01*
G01X307087Y-2088981D01*
G01X301357Y-2089119D01*
G01X301203Y-2090460D01*
G01X301203Y-2090460D01*
G01X299617Y-2091801D01*
G01X299617Y-2091801D01*
G01X298187Y-2093264D01*
G01X298187Y-2093264D01*
G01X296724Y-2094727D01*
G01X296724Y-2094727D01*
G01X295260Y-2096101D01*
G01X295260Y-2096101D01*
G01X292700Y-2097930D01*
G01X290139Y-2098385D01*
G01X289685Y-2100946D01*
G01X289685Y-2100946D01*
G01X287856Y-2103506D01*
G01X287856Y-2103506D01*
G01X286482Y-2106432D01*
G01X286482Y-2109359D01*
G01X285019Y-2109359D01*
G01X283555Y-2109359D01*
G01X283555Y-2113748D01*
G01X283555Y-2118137D01*
G01X282092Y-2118137D01*
G01X280629Y-2118137D01*
G01X280629Y-2126916D01*
G01X280629Y-2135695D01*
G01X282092Y-2135695D01*
G01X283555Y-2135695D01*
G01X283555Y-2140084D01*
G01X283555Y-2144473D01*
G01X285019Y-2144473D01*
G01X286482Y-2144473D01*
G01X286482Y-2147400D01*
G01X286482Y-2150326D01*
G01X287945Y-2150326D01*
G01X287945Y-2150326D01*
G01X289408Y-2151789D01*
G01X289408Y-2151789D01*
G01X290871Y-2153252D01*
G01X290871Y-2153252D01*
G01X292334Y-2154715D01*
G01X292334Y-2154715D01*
G01X293797Y-2156178D01*
G01X293797Y-2156178D01*
G01X295260Y-2157641D01*
G01X295260Y-2159105D01*
G01X299650Y-2159105D01*
G01X304039Y-2159105D01*
G01X304039Y-2157641D01*
G01X304039Y-2157641D01*
G01X305502Y-2156178D01*
G01X305502Y-2156178D01*
G01X306965Y-2154715D01*
G01X306965Y-2154715D01*
G01X308429Y-2153252D01*
G01X308429Y-2153252D01*
G01X309892Y-2151789D01*
G01X309892Y-2151789D01*
G01X311355Y-2150326D01*
G01X312818Y-2150326D01*
G01X312818Y-2145936D01*
G01X312818Y-2141547D01*
G01X311355Y-2141547D01*
G01X311355Y-2141547D01*
G01X309892Y-2140084D01*
G01X309892Y-2140084D01*
G01X308429Y-2138621D01*
G01X306965Y-2138621D01*
G01X306965Y-2135695D01*
G01X306965Y-2132768D01*
G01X305502Y-2132768D01*
G01X304039Y-2132768D01*
G01X304039Y-2126916D01*
G01X304039Y-2121063D01*
G01X305502Y-2121063D01*
G01X306965Y-2121063D01*
G01X306965Y-2118137D01*
G01X306965Y-2115211D01*
G01X308429Y-2115211D01*
G01X308429Y-2115211D01*
G01X309892Y-2113748D01*
G01X309892Y-2112285D01*
G01X312818Y-2112285D01*
G01X315744Y-2112285D01*
G01X315744Y-2110822D01*
G01X315744Y-2109359D01*
G01X328912Y-2109359D01*
G01X342081Y-2109359D01*
G01X342081Y-2110822D01*
G01X342081Y-2110822D01*
G01X343511Y-2112285D01*
G01X343511Y-2112285D01*
G01X345097Y-2113626D01*
G01X345097Y-2113626D01*
G01X346592Y-2115121D01*
G01X346592Y-2115121D01*
G01X347933Y-2116706D01*
G01X347933Y-2116706D01*
G01X349396Y-2118137D01*
G01X350859Y-2118137D01*
G01X350859Y-2121063D01*
G01X350859Y-2123990D01*
G01X352323Y-2123990D01*
G01X353786Y-2123990D01*
G01X353786Y-2126916D01*
G01X353786Y-2129842D01*
G01X352323Y-2129842D01*
G01X350859Y-2129842D01*
G01X350859Y-2132768D01*
G01X350859Y-2135695D01*
G01X349396Y-2135695D01*
G01X347933Y-2135695D01*
G01X347933Y-2138621D01*
G01X347933Y-2141547D01*
G01X346470Y-2141547D01*
G01X345007Y-2141547D01*
G01X345007Y-2145936D01*
G01X345007Y-2150326D01*
G01X346470Y-2150326D01*
G01X346470Y-2150326D01*
G01X347933Y-2151789D01*
G01X347933Y-2151789D01*
G01X349396Y-2153252D01*
G01X349396Y-2153252D01*
G01X350859Y-2154715D01*
G01X350859Y-2154715D01*
G01X352323Y-2156178D01*
G01X352323Y-2156178D01*
G01X353786Y-2157641D01*
G01X353786Y-2159105D01*
G01X358175Y-2159105D01*
G01X362565Y-2159105D01*
G01X362565Y-2157641D01*
G01X362565Y-2157641D01*
G01X364028Y-2156178D01*
G01X364028Y-2156178D01*
G01X365491Y-2154715D01*
G01X365491Y-2154715D01*
G01X366954Y-2153252D01*
G01X366954Y-2153252D01*
G01X368417Y-2151789D01*
G01X368417Y-2151789D01*
G01X369295Y-2150326D01*
G01X369295Y-2150326D01*
G01X370758Y-2149741D01*
G01X370758Y-2149741D01*
G01X371343Y-2145351D01*
G01X371343Y-2141547D01*
G01X372806Y-2141547D01*
G01X374270Y-2141547D01*
G01X374270Y-2126916D01*
G01X374270Y-2112285D01*
G01X372825Y-2112285D01*
G37*
G36*
G01X239336Y-1597592D02*
G01X239336Y-1597592D01*
G01X237873Y-1597267D01*
G01X237873Y-1597267D01*
G01X236735Y-1592878D01*
G01X236735Y-1588488D01*
G01X235272Y-1588488D01*
G01X233809Y-1588488D01*
G01X233809Y-1585562D01*
G01X233809Y-1582636D01*
G01X232346Y-1582636D01*
G01X232346Y-1582636D01*
G01X230883Y-1581173D01*
G01X230883Y-1581173D01*
G01X229419Y-1579710D01*
G01X229419Y-1579710D01*
G01X227956Y-1578247D01*
G01X227956Y-1576783D01*
G01X225030Y-1576783D01*
G01X222104Y-1576783D01*
G01X222104Y-1578247D01*
G01X222104Y-1578247D01*
G01X220641Y-1579710D01*
G01X220641Y-1579710D01*
G01X219178Y-1581173D01*
G01X219178Y-1581173D01*
G01X217714Y-1582636D01*
G01X217714Y-1582636D01*
G01X216251Y-1584099D01*
G01X216251Y-1584099D01*
G01X214788Y-1585562D01*
G01X214788Y-1585562D01*
G01X213325Y-1588456D01*
G01X213325Y-1588456D01*
G01X211984Y-1591504D01*
G01X211984Y-1591504D01*
G01X210643Y-1594341D01*
G01X210643Y-1594341D01*
G01X211984Y-1597178D01*
G01X211984Y-1597178D01*
G01X213325Y-1598763D01*
G01X213325Y-1598763D01*
G01X214788Y-1600193D01*
G01X216251Y-1600193D01*
G01X216251Y-1610435D01*
G01X216251Y-1620677D01*
G01X214788Y-1620677D01*
G01X214788Y-1620677D01*
G01X213325Y-1622140D01*
G01X213325Y-1623603D01*
G01X208671Y-1623603D01*
G01X204017Y-1623603D01*
G01X204353Y-1614898D01*
G01X204353Y-1614898D01*
G01X204366Y-1604908D01*
G01X204366Y-1604908D01*
G01X202832Y-1603318D01*
G01X201620Y-1603014D01*
G01X201620Y-1595751D01*
G01X201620Y-1588488D01*
G01X200157Y-1588488D01*
G01X198694Y-1588488D01*
G01X198694Y-1585562D01*
G01X198694Y-1582636D01*
G01X197231Y-1582636D01*
G01X197231Y-1582636D01*
G01X195767Y-1581173D01*
G01X195767Y-1581173D01*
G01X194304Y-1579710D01*
G01X194304Y-1579710D01*
G01X192841Y-1578247D01*
G01X192841Y-1578247D01*
G01X191378Y-1576783D01*
G01X191378Y-1576783D01*
G01X189915Y-1576087D01*
G01X189915Y-1576087D01*
G01X189148Y-1574624D01*
G01X189148Y-1574624D01*
G01X174517Y-1573857D01*
G01X160652Y-1573857D01*
G01X160652Y-1575320D01*
G01X160652Y-1575320D01*
G01X159189Y-1576783D01*
G01X159189Y-1576783D01*
G01X157726Y-1578247D01*
G01X157726Y-1578247D01*
G01X156263Y-1579710D01*
G01X156263Y-1579710D01*
G01X154800Y-1581173D01*
G01X154800Y-1581173D01*
G01X153337Y-1582636D01*
G01X153337Y-1582636D01*
G01X151873Y-1584099D01*
G01X151873Y-1584099D01*
G01X150410Y-1585562D01*
G01X148947Y-1585562D01*
G01X148947Y-1588488D01*
G01X148947Y-1591415D01*
G01X147484Y-1591415D01*
G01X146021Y-1591415D01*
G01X146021Y-1606046D01*
G01X146021Y-1620677D01*
G01X147484Y-1620677D01*
G01X147484Y-1620677D01*
G01X148947Y-1622103D01*
G01X148947Y-1622103D01*
G01X147484Y-1624991D01*
G01X146021Y-1626454D01*
G01X146021Y-1636734D01*
G01X146021Y-1647013D01*
G01X184062Y-1647013D01*
G01X222104Y-1647013D01*
G01X222104Y-1645550D01*
G01X222104Y-1644087D01*
G01X225030Y-1644087D01*
G01X227956Y-1644087D01*
G01X227956Y-1642624D01*
G01X227956Y-1642624D01*
G01X229419Y-1641161D01*
G01X229419Y-1641161D01*
G01X230883Y-1639698D01*
G01X230883Y-1639698D01*
G01X232346Y-1638234D01*
G01X233809Y-1638234D01*
G01X233809Y-1635308D01*
G01X233809Y-1632382D01*
G01X235272Y-1632382D01*
G01X236735Y-1632382D01*
G01X236735Y-1626529D01*
G01X236735Y-1620677D01*
G01X238198Y-1620677D01*
G01X239661Y-1620677D01*
G01X239661Y-1609297D01*
G01X239661Y-1609297D01*
G01X239336Y-1597592D01*
G37*
%LPC*%
G36*
G01X176747Y-1623603D02*
G01X169431Y-1623603D01*
G01X169382Y-1619336D01*
G01X169382Y-1619336D01*
G01X168997Y-1613849D01*
G01X168997Y-1613849D01*
G01X167582Y-1612474D01*
G01X167582Y-1612474D01*
G01X166505Y-1609214D01*
G01X166505Y-1609214D01*
G01X167846Y-1605956D01*
G01X167846Y-1605956D01*
G01X169328Y-1601535D01*
G01X169469Y-1597267D01*
G01X170913Y-1597267D01*
G01X170913Y-1597267D01*
G01X172357Y-1595804D01*
G01X172357Y-1594341D01*
G01X175284Y-1594341D01*
G01X178210Y-1594341D01*
G01X178210Y-1595804D01*
G01X178210Y-1595804D01*
G01X179673Y-1597267D01*
G01X181136Y-1597267D01*
G01X181136Y-1600193D01*
G01X181136Y-1603120D01*
G01X182599Y-1603120D01*
G01X184062Y-1603120D01*
G01X184062Y-1613361D01*
G01X184062Y-1623603D01*
G01X176747Y-1623603D01*
G37*
%LPD*%
G36*
G01X328912Y-1658718D02*
G01X283555Y-1658718D01*
G01X283555Y-1670423D01*
G01X283555Y-1682128D01*
G01X314249Y-1682128D01*
G01X344942Y-1682128D01*
G01X345097Y-1683469D01*
G01X345097Y-1683469D01*
G01X346592Y-1684965D01*
G01X346592Y-1684965D01*
G01X347933Y-1686550D01*
G01X347933Y-1686550D01*
G01X349372Y-1687980D01*
G01X349372Y-1687980D01*
G01X350957Y-1690785D01*
G01X350957Y-1690785D01*
G01X352445Y-1693743D01*
G01X352445Y-1693743D01*
G01X353786Y-1695328D01*
G01X353786Y-1695328D01*
G01X352323Y-1696759D01*
G01X350859Y-1696759D01*
G01X350859Y-1699685D01*
G01X350859Y-1702612D01*
G01X349396Y-1702612D01*
G01X349396Y-1702612D01*
G01X347933Y-1704075D01*
G01X347933Y-1704075D01*
G01X346470Y-1705538D01*
G01X346470Y-1705538D01*
G01X345007Y-1707001D01*
G01X345007Y-1708464D01*
G01X314281Y-1708464D01*
G01X283555Y-1708464D01*
G01X283555Y-1720172D01*
G01X283555Y-1731880D01*
G01X320012Y-1731755D01*
G01X356468Y-1731630D01*
G01X356614Y-1730374D01*
G01X356614Y-1730374D01*
G01X359297Y-1728667D01*
G01X359297Y-1728667D01*
G01X361989Y-1727119D01*
G01X361989Y-1727119D01*
G01X363818Y-1726022D01*
G01X363818Y-1726022D01*
G01X365491Y-1724558D01*
G01X365491Y-1724558D01*
G01X366954Y-1723095D01*
G01X366954Y-1723095D01*
G01X368417Y-1721665D01*
G01X368417Y-1721665D01*
G01X369758Y-1720080D01*
G01X369758Y-1720080D01*
G01X371245Y-1717151D01*
G01X371245Y-1717151D01*
G01X372708Y-1714225D01*
G01X374026Y-1714073D01*
G01X374156Y-1701027D01*
G01X374286Y-1687980D01*
G01X372814Y-1687980D01*
G01X372814Y-1687980D01*
G01X371343Y-1685092D01*
G01X371343Y-1685092D01*
G01X372806Y-1680740D01*
G01X374270Y-1679277D01*
G01X374270Y-1668997D01*
G01X374270Y-1658718D01*
G01X328912Y-1658718D01*
G37*
G36*
G01X238198Y-2042055D02*
G01X236735Y-2042055D01*
G01X236735Y-2037666D01*
G01X236735Y-2033276D01*
G01X235272Y-2033276D01*
G01X235272Y-2033276D01*
G01X233809Y-2031813D01*
G01X233809Y-2031813D01*
G01X235272Y-2030350D01*
G01X236735Y-2030350D01*
G01X236735Y-2018645D01*
G01X236735Y-2006940D01*
G01X191963Y-2006940D01*
G01X191963Y-2006940D01*
G01X146606Y-2007525D01*
G01X146606Y-2007525D01*
G01X146021Y-2019230D01*
G01X146021Y-2030350D01*
G01X176747Y-2030350D01*
G01X207472Y-2030350D01*
G01X207472Y-2031813D01*
G01X207472Y-2031813D01*
G01X208903Y-2033276D01*
G01X208903Y-2033276D01*
G01X210488Y-2034618D01*
G01X210488Y-2034618D01*
G01X211984Y-2036113D01*
G01X211984Y-2036113D01*
G01X213325Y-2037698D01*
G01X213325Y-2037698D01*
G01X214788Y-2039129D01*
G01X216251Y-2039129D01*
G01X216251Y-2044981D01*
G01X216251Y-2050834D01*
G01X214788Y-2050834D01*
G01X213325Y-2050834D01*
G01X213325Y-2055223D01*
G01X213325Y-2059612D01*
G01X214788Y-2059612D01*
G01X214788Y-2059612D01*
G01X216251Y-2061076D01*
G01X216251Y-2061076D01*
G01X217714Y-2062539D01*
G01X217714Y-2062539D01*
G01X219178Y-2064002D01*
G01X219178Y-2064002D01*
G01X220641Y-2065465D01*
G01X220641Y-2065465D01*
G01X222104Y-2066928D01*
G01X222104Y-2066928D01*
G01X223567Y-2068391D01*
G01X223567Y-2068391D01*
G01X225030Y-2069854D01*
G01X225030Y-2071317D01*
G01X229419Y-2071317D01*
G01X233809Y-2071317D01*
G01X233809Y-2069887D01*
G01X233809Y-2069887D01*
G01X235150Y-2068302D01*
G01X235150Y-2068302D01*
G01X236632Y-2063880D01*
G01X236773Y-2059612D01*
G01X238217Y-2059612D01*
G01X239661Y-2059612D01*
G01X239661Y-2050834D01*
G01X239661Y-2042055D01*
G01X238198Y-2042055D01*
G37*
G36*
G01X328912Y-2030350D02*
G01X283555Y-2030350D01*
G01X283555Y-2042055D01*
G01X283555Y-2053760D01*
G01X314249Y-2053760D01*
G01X344942Y-2053760D01*
G01X345097Y-2055101D01*
G01X345097Y-2055101D01*
G01X346562Y-2056594D01*
G01X346562Y-2056594D01*
G01X348026Y-2058057D01*
G01X348026Y-2058057D01*
G01X349495Y-2059521D01*
G01X349495Y-2059521D01*
G01X350958Y-2062447D01*
G01X350958Y-2062447D01*
G01X352445Y-2065375D01*
G01X352445Y-2065375D01*
G01X353786Y-2066960D01*
G01X353786Y-2066960D01*
G01X352323Y-2068391D01*
G01X350859Y-2068391D01*
G01X350859Y-2071317D01*
G01X350859Y-2074244D01*
G01X349396Y-2074244D01*
G01X347933Y-2074244D01*
G01X347933Y-2077170D01*
G01X347933Y-2080096D01*
G01X349396Y-2080096D01*
G01X349396Y-2080096D01*
G01X350859Y-2081559D01*
G01X350859Y-2081559D01*
G01X352323Y-2083022D01*
G01X352323Y-2083022D01*
G01X353786Y-2084486D01*
G01X353786Y-2084486D01*
G01X355249Y-2085949D01*
G01X355249Y-2085949D01*
G01X356712Y-2087412D01*
G01X356712Y-2087412D01*
G01X358175Y-2088875D01*
G01X358175Y-2088875D01*
G01X359638Y-2089791D01*
G01X359638Y-2089791D01*
G01X360319Y-2091271D01*
G01X360319Y-2091271D01*
G01X366050Y-2091697D01*
G01X371099Y-2091557D01*
G01X371246Y-2088753D01*
G01X371246Y-2088753D01*
G01X372246Y-2085949D01*
G01X372246Y-2085949D01*
G01X373684Y-2085363D01*
G01X373684Y-2085363D01*
G01X374270Y-2072195D01*
G01X374270Y-2059612D01*
G01X372806Y-2059612D01*
G01X371343Y-2059612D01*
G01X371343Y-2056499D01*
G01X371343Y-2056499D01*
G01X372313Y-2053133D01*
G01X372313Y-2053133D01*
G01X373776Y-2051581D01*
G01X373776Y-2051581D01*
G01X374270Y-2040316D01*
G01X374270Y-2030350D01*
G01X328912Y-2030350D01*
G37*
G36*
G01X431800Y-2482850D02*
G01X431800Y-2311400D01*
G01X260350Y-2311400D01*
G01X88900Y-2311400D01*
G01X88900Y-2482850D01*
G01X88900Y-2654300D01*
G01X260350Y-2654300D01*
G01X431800Y-2654300D01*
G01X431800Y-2482850D01*
G37*
%LPC*%
G36*
G01X362763Y-2591658D02*
G01X362473Y-2591243D01*
G01X362473Y-2588295D01*
G01X362473Y-2585346D01*
G01X359296Y-2585346D01*
G01X356119Y-2585346D01*
G01X356119Y-2588300D01*
G01X356119Y-2591255D01*
G01X355854Y-2591617D01*
G01X355589Y-2591980D01*
G01X352519Y-2591980D01*
G01X349450Y-2591980D01*
G01X349141Y-2591724D01*
G01X348831Y-2591467D01*
G01X348831Y-2588427D01*
G01X348831Y-2585386D01*
G01X349158Y-2585238D01*
G01X349485Y-2585090D01*
G01X352569Y-2584984D01*
G01X355652Y-2584879D01*
G01X355704Y-2581899D01*
G01X355755Y-2578918D01*
G01X356060Y-2578582D01*
G01X356364Y-2578245D01*
G01X359321Y-2578245D01*
G01X362279Y-2578245D01*
G01X362381Y-2577825D01*
G01X362483Y-2577404D01*
G01X362431Y-2571144D01*
G01X362379Y-2564884D01*
G01X359399Y-2564833D01*
G01X356418Y-2564781D01*
G01X356082Y-2564477D01*
G01X355745Y-2564172D01*
G01X355745Y-2558045D01*
G01X355745Y-2551918D01*
G01X355330Y-2551627D01*
G01X354915Y-2551337D01*
G01X352284Y-2551337D01*
G01X349653Y-2551337D01*
G01X349429Y-2551561D01*
G01X349205Y-2551785D01*
G01X349205Y-2557997D01*
G01X349205Y-2564209D01*
G01X348790Y-2564500D01*
G01X348374Y-2564791D01*
G01X345463Y-2564791D01*
G01X342553Y-2564791D01*
G01X342328Y-2564567D01*
G01X342104Y-2564342D01*
G01X342104Y-2561427D01*
G01X342104Y-2558512D01*
G01X341880Y-2558288D01*
G01X341656Y-2558064D01*
G01X338834Y-2558064D01*
G01X336012Y-2558064D01*
G01X335788Y-2558288D01*
G01X335564Y-2558512D01*
G01X335564Y-2561458D01*
G01X335564Y-2564404D01*
G01X335202Y-2564598D01*
G01X334841Y-2564791D01*
G01X332110Y-2564791D01*
G01X329379Y-2564791D01*
G01X328827Y-2564506D01*
G01X328276Y-2564221D01*
G01X328276Y-2557988D01*
G01X328276Y-2551756D01*
G01X328007Y-2551533D01*
G01X327738Y-2551309D01*
G01X324916Y-2551370D01*
G01X322095Y-2551430D01*
G01X321918Y-2551710D01*
G01X321741Y-2551991D01*
G01X321739Y-2554666D01*
G01X321736Y-2557341D01*
G01X321542Y-2557702D01*
G01X321349Y-2558064D01*
G01X318403Y-2558064D01*
G01X315457Y-2558064D01*
G01X315233Y-2558288D01*
G01X315008Y-2558512D01*
G01X315008Y-2561334D01*
G01X315008Y-2564156D01*
G01X315233Y-2564380D01*
G01X315457Y-2564604D01*
G01X318301Y-2564604D01*
G01X321144Y-2564604D01*
G01X321440Y-2564718D01*
G01X321736Y-2564831D01*
G01X321738Y-2570931D01*
G01X321741Y-2577031D01*
G01X321847Y-2577428D01*
G01X321954Y-2577826D01*
G01X322414Y-2578036D01*
G01X322874Y-2578245D01*
G01X325365Y-2578245D01*
G01X327856Y-2578245D01*
G01X328052Y-2578010D01*
G01X328248Y-2577774D01*
G01X328309Y-2574945D01*
G01X328369Y-2572117D01*
G01X328725Y-2571724D01*
G01X329081Y-2571331D01*
G01X332140Y-2571331D01*
G01X335199Y-2571331D01*
G01X335382Y-2571811D01*
G01X335564Y-2572290D01*
G01X335566Y-2574847D01*
G01X335569Y-2577404D01*
G01X335682Y-2577825D01*
G01X335794Y-2578245D01*
G01X338767Y-2578245D01*
G01X341740Y-2578245D01*
G01X341922Y-2577766D01*
G01X342104Y-2577287D01*
G01X342104Y-2574605D01*
G01X342104Y-2571922D01*
G01X342218Y-2571627D01*
G01X342331Y-2571331D01*
G01X345397Y-2571331D01*
G01X348463Y-2571331D01*
G01X348833Y-2571939D01*
G01X349204Y-2572546D01*
G01X349204Y-2574841D01*
G01X349205Y-2577136D01*
G01X348937Y-2577778D01*
G01X348669Y-2578419D01*
G01X348236Y-2578520D01*
G01X347804Y-2578622D01*
G01X345094Y-2578667D01*
G01X342384Y-2578713D01*
G01X342335Y-2585054D01*
G01X342286Y-2591396D01*
G01X341979Y-2591735D01*
G01X341672Y-2592073D01*
G01X338818Y-2592073D01*
G01X335964Y-2592073D01*
G01X335671Y-2591780D01*
G01X335377Y-2591486D01*
G01X335374Y-2585286D01*
G01X335371Y-2579086D01*
G01X335220Y-2578848D01*
G01X335069Y-2578610D01*
G01X331999Y-2578661D01*
G01X328930Y-2578713D01*
G01X328881Y-2585024D01*
G01X328832Y-2591335D01*
G01X328227Y-2591713D01*
G01X327622Y-2592091D01*
G01X324894Y-2592035D01*
G01X322166Y-2591980D01*
G01X321862Y-2591727D01*
G01X321558Y-2591475D01*
G01X321507Y-2588457D01*
G01X321455Y-2585440D01*
G01X318279Y-2585440D01*
G01X315102Y-2585440D01*
G01X315050Y-2588510D01*
G01X314999Y-2591580D01*
G01X314794Y-2591827D01*
G01X314589Y-2592073D01*
G01X311741Y-2592073D01*
G01X308892Y-2592073D01*
G01X308400Y-2591686D01*
G01X307908Y-2591299D01*
G01X307908Y-2588420D01*
G01X307908Y-2585540D01*
G01X307487Y-2585436D01*
G01X307067Y-2585333D01*
G01X304264Y-2585386D01*
G01X301461Y-2585440D01*
G01X301367Y-2588492D01*
G01X301274Y-2591544D01*
G01X300911Y-2591809D01*
G01X300548Y-2592073D01*
G01X297710Y-2592073D01*
G01X294873Y-2592073D01*
G01X294616Y-2591765D01*
G01X294360Y-2591456D01*
G01X294266Y-2585084D01*
G01X294173Y-2578713D01*
G01X291090Y-2578713D01*
G01X288006Y-2578713D01*
G01X287913Y-2585104D01*
G01X287819Y-2591495D01*
G01X287577Y-2591737D01*
G01X287334Y-2591980D01*
G01X284289Y-2591980D01*
G01X281244Y-2591980D01*
G01X280934Y-2591724D01*
G01X280625Y-2591467D01*
G01X280625Y-2588520D01*
G01X280625Y-2585573D01*
G01X280329Y-2585460D01*
G01X280034Y-2585346D01*
G01X277059Y-2585346D01*
G01X274085Y-2585346D01*
G01X274085Y-2588368D01*
G01X274085Y-2591390D01*
G01X273775Y-2591732D01*
G01X273466Y-2592073D01*
G01X270645Y-2592071D01*
G01X267825Y-2592068D01*
G01X267544Y-2591891D01*
G01X267264Y-2591714D01*
G01X267171Y-2588577D01*
G01X267077Y-2585440D01*
G01X263900Y-2585440D01*
G01X260724Y-2585440D01*
G01X260672Y-2588389D01*
G01X260621Y-2591337D01*
G01X260018Y-2591714D01*
G01X259416Y-2592091D01*
G01X256688Y-2592035D01*
G01X253960Y-2591980D01*
G01X253656Y-2591727D01*
G01X253352Y-2591475D01*
G01X253300Y-2588457D01*
G01X253249Y-2585440D01*
G01X250072Y-2585440D01*
G01X246896Y-2585440D01*
G01X246844Y-2588510D01*
G01X246793Y-2591580D01*
G01X246588Y-2591827D01*
G01X246383Y-2592073D01*
G01X243534Y-2592073D01*
G01X240686Y-2592073D01*
G01X240194Y-2591686D01*
G01X239701Y-2591299D01*
G01X239701Y-2581981D01*
G01X239701Y-2572664D01*
G01X239900Y-2572141D01*
G01X240098Y-2571619D01*
G01X240320Y-2571478D01*
G01X240542Y-2571337D01*
G01X243479Y-2571334D01*
G01X246415Y-2571331D01*
G01X246609Y-2571693D01*
G01X246802Y-2572054D01*
G01X246802Y-2574561D01*
G01X246802Y-2577068D01*
G01X247007Y-2577657D01*
G01X247212Y-2578245D01*
G01X250095Y-2578245D01*
G01X252978Y-2578245D01*
G01X253160Y-2577766D01*
G01X253343Y-2577287D01*
G01X253343Y-2571152D01*
G01X253343Y-2565018D01*
G01X253047Y-2564904D01*
G01X252751Y-2564791D01*
G01X249977Y-2564791D01*
G01X247203Y-2564791D01*
G01X246909Y-2564497D01*
G01X246615Y-2564204D01*
G01X246615Y-2561402D01*
G01X246615Y-2558600D01*
G01X246809Y-2558238D01*
G01X247002Y-2557877D01*
G01X249990Y-2557877D01*
G01X252978Y-2557877D01*
G01X253160Y-2557398D01*
G01X253343Y-2556918D01*
G01X253343Y-2551056D01*
G01X253343Y-2545194D01*
G01X253160Y-2544715D01*
G01X252978Y-2544236D01*
G01X250088Y-2544236D01*
G01X247198Y-2544236D01*
G01X247047Y-2544469D01*
G01X246897Y-2544703D01*
G01X246803Y-2547731D01*
G01X246709Y-2550759D01*
G01X246467Y-2551000D01*
G01X246225Y-2551241D01*
G01X243384Y-2551304D01*
G01X240542Y-2551367D01*
G01X240309Y-2551668D01*
G01X240075Y-2551969D01*
G01X240075Y-2558175D01*
G01X240075Y-2564381D01*
G01X239486Y-2564586D01*
G01X238898Y-2564791D01*
G01X236325Y-2564791D01*
G01X233752Y-2564791D01*
G01X233457Y-2564904D01*
G01X233161Y-2565018D01*
G01X233161Y-2567955D01*
G01X233161Y-2570892D01*
G01X232734Y-2571294D01*
G01X232307Y-2571695D01*
G01X229417Y-2571747D01*
G01X226527Y-2571798D01*
G01X226433Y-2574900D01*
G01X226339Y-2578002D01*
G01X226083Y-2578311D01*
G01X225827Y-2578619D01*
G01X215853Y-2578619D01*
G01X205878Y-2578619D01*
G01X205878Y-2585005D01*
G01X205878Y-2591390D01*
G01X205569Y-2591732D01*
G01X205260Y-2592073D01*
G01X202439Y-2592071D01*
G01X199618Y-2592068D01*
G01X199338Y-2591891D01*
G01X199058Y-2591714D01*
G01X198964Y-2588577D01*
G01X198871Y-2585440D01*
G01X195694Y-2585440D01*
G01X192517Y-2585440D01*
G01X192466Y-2588389D01*
G01X192414Y-2591337D01*
G01X191812Y-2591714D01*
G01X191209Y-2592091D01*
G01X188481Y-2592035D01*
G01X185753Y-2591980D01*
G01X185445Y-2591724D01*
G01X185136Y-2591467D01*
G01X185136Y-2581879D01*
G01X185136Y-2572290D01*
G01X185318Y-2571811D01*
G01X185501Y-2571331D01*
G01X188355Y-2571325D01*
G01X191209Y-2571319D01*
G01X191536Y-2571071D01*
G01X191863Y-2570823D01*
G01X191863Y-2564557D01*
G01X191863Y-2558291D01*
G01X191568Y-2558177D01*
G01X191272Y-2558064D01*
G01X188522Y-2558064D01*
G01X185772Y-2558064D01*
G01X185547Y-2558288D01*
G01X185323Y-2558512D01*
G01X185323Y-2561458D01*
G01X185323Y-2564404D01*
G01X184962Y-2564598D01*
G01X184600Y-2564791D01*
G01X178432Y-2564791D01*
G01X172265Y-2564791D01*
G01X172113Y-2565025D01*
G01X171962Y-2565258D01*
G01X171910Y-2567874D01*
G01X171857Y-2570490D01*
G01X171771Y-2570892D01*
G01X171684Y-2571294D01*
G01X171094Y-2571499D01*
G01X170505Y-2571705D01*
G01X168318Y-2571705D01*
G01X166132Y-2571705D01*
G01X165539Y-2571498D01*
G01X164947Y-2571292D01*
G01X164764Y-2570950D01*
G01X164581Y-2570608D01*
G01X164581Y-2561197D01*
G01X164581Y-2551785D01*
G01X164357Y-2551561D01*
G01X164132Y-2551337D01*
G01X161199Y-2551337D01*
G01X158266Y-2551337D01*
G01X158200Y-2554391D01*
G01X158134Y-2557446D01*
G01X157878Y-2557755D01*
G01X157621Y-2558064D01*
G01X154677Y-2558064D01*
G01X151733Y-2558064D01*
G01X151476Y-2557755D01*
G01X151220Y-2557446D01*
G01X151220Y-2554505D01*
G01X151220Y-2551563D01*
G01X151576Y-2551170D01*
G01X151932Y-2550776D01*
G01X154897Y-2550776D01*
G01X157863Y-2550776D01*
G01X157811Y-2547553D01*
G01X157760Y-2544329D01*
G01X154623Y-2544236D01*
G01X151486Y-2544142D01*
G01X151309Y-2543862D01*
G01X151132Y-2543582D01*
G01X151129Y-2540761D01*
G01X151127Y-2537940D01*
G01X151465Y-2537633D01*
G01X151804Y-2537327D01*
G01X158146Y-2537277D01*
G01X164488Y-2537228D01*
G01X164539Y-2534263D01*
G01X164591Y-2531298D01*
G01X164376Y-2531040D01*
G01X164161Y-2530781D01*
G01X157947Y-2530781D01*
G01X151733Y-2530781D01*
G01X151476Y-2530472D01*
G01X151220Y-2530163D01*
G01X151220Y-2527118D01*
G01X151220Y-2524072D01*
G01X151462Y-2523830D01*
G01X151705Y-2523587D01*
G01X154732Y-2523493D01*
G01X157760Y-2523400D01*
G01X157812Y-2520270D01*
G01X157863Y-2517140D01*
G01X154910Y-2517140D01*
G01X151957Y-2517140D01*
G01X151542Y-2516849D01*
G01X151127Y-2516558D01*
G01X151127Y-2513714D01*
G01X151127Y-2510870D01*
G01X151417Y-2510454D01*
G01X151708Y-2510039D01*
G01X154668Y-2510039D01*
G01X157627Y-2510039D01*
G01X157740Y-2509743D01*
G01X157854Y-2509448D01*
G01X157854Y-2506769D01*
G01X157854Y-2504090D01*
G01X157740Y-2503794D01*
G01X157627Y-2503499D01*
G01X154764Y-2503499D01*
G01X151901Y-2503499D01*
G01X151514Y-2503006D01*
G01X151127Y-2502514D01*
G01X151127Y-2499666D01*
G01X151127Y-2496817D01*
G01X151374Y-2496612D01*
G01X151620Y-2496407D01*
G01X154690Y-2496356D01*
G01X157760Y-2496304D01*
G01X157760Y-2493128D01*
G01X157760Y-2489951D01*
G01X154743Y-2489900D01*
G01X151725Y-2489848D01*
G01X151473Y-2489544D01*
G01X151220Y-2489240D01*
G01X151165Y-2486512D01*
G01X151109Y-2483784D01*
G01X151486Y-2483182D01*
G01X151863Y-2482579D01*
G01X154811Y-2482528D01*
G01X157760Y-2482476D01*
G01X157760Y-2479300D01*
G01X157760Y-2476123D01*
G01X154623Y-2476029D01*
G01X151486Y-2475936D01*
G01X151309Y-2475656D01*
G01X151132Y-2475375D01*
G01X151129Y-2472587D01*
G01X151127Y-2469799D01*
G01X151436Y-2469457D01*
G01X151745Y-2469115D01*
G01X154677Y-2469115D01*
G01X157609Y-2469115D01*
G01X157913Y-2469452D01*
G01X158218Y-2469788D01*
G01X158269Y-2472768D01*
G01X158321Y-2475749D01*
G01X161458Y-2475843D01*
G01X164595Y-2475936D01*
G01X164772Y-2476216D01*
G01X164949Y-2476497D01*
G01X164952Y-2479242D01*
G01X164955Y-2481988D01*
G01X165370Y-2482279D01*
G01X165785Y-2482570D01*
G01X168331Y-2482570D01*
G01X170876Y-2482570D01*
G01X171167Y-2482243D01*
G01X171457Y-2481916D01*
G01X171525Y-2479166D01*
G01X171593Y-2476417D01*
G01X171833Y-2476176D01*
G01X172073Y-2475936D01*
G01X175194Y-2475843D01*
G01X178316Y-2475749D01*
G01X178316Y-2462388D01*
G01X178316Y-2449027D01*
G01X172056Y-2448975D01*
G01X165796Y-2448923D01*
G01X165375Y-2449025D01*
G01X164955Y-2449128D01*
G01X164955Y-2452085D01*
G01X164955Y-2455042D01*
G01X164618Y-2455347D01*
G01X164282Y-2455651D01*
G01X161302Y-2455703D01*
G01X158321Y-2455754D01*
G01X158216Y-2458838D01*
G01X158110Y-2461921D01*
G01X157962Y-2462248D01*
G01X157814Y-2462575D01*
G01X154773Y-2462575D01*
G01X151733Y-2462575D01*
G01X151476Y-2462266D01*
G01X151220Y-2461956D01*
G01X151220Y-2458887D01*
G01X151220Y-2455817D01*
G01X151583Y-2455552D01*
G01X151945Y-2455287D01*
G01X154900Y-2455287D01*
G01X157854Y-2455287D01*
G01X157854Y-2452110D01*
G01X157854Y-2448934D01*
G01X154905Y-2448934D01*
G01X151957Y-2448934D01*
G01X151542Y-2448643D01*
G01X151127Y-2448352D01*
G01X151127Y-2445502D01*
G01X151127Y-2442652D01*
G01X151391Y-2442289D01*
G01X151656Y-2441926D01*
G01X154708Y-2441833D01*
G01X157760Y-2441739D01*
G01X157760Y-2438563D01*
G01X157760Y-2435386D01*
G01X154827Y-2435335D01*
G01X151894Y-2435283D01*
G01X151510Y-2434795D01*
G01X151127Y-2434308D01*
G01X151127Y-2431459D01*
G01X151127Y-2428611D01*
G01X151374Y-2428406D01*
G01X151620Y-2428201D01*
G01X154690Y-2428150D01*
G01X157760Y-2428098D01*
G01X157760Y-2424921D01*
G01X157760Y-2421745D01*
G01X154743Y-2421693D01*
G01X151725Y-2421642D01*
G01X151473Y-2421338D01*
G01X151220Y-2421034D01*
G01X151165Y-2418306D01*
G01X151109Y-2415578D01*
G01X151489Y-2414971D01*
G01X151869Y-2414363D01*
G01X158000Y-2414363D01*
G01X164132Y-2414363D01*
G01X164357Y-2414139D01*
G01X164581Y-2413915D01*
G01X164581Y-2411093D01*
G01X164581Y-2408272D01*
G01X164357Y-2408047D01*
G01X164132Y-2407823D01*
G01X157923Y-2407823D01*
G01X151714Y-2407823D01*
G01X151420Y-2407529D01*
G01X151127Y-2407236D01*
G01X151127Y-2404382D01*
G01X151127Y-2401528D01*
G01X151463Y-2401223D01*
G01X151799Y-2400919D01*
G01X154780Y-2400867D01*
G01X157760Y-2400816D01*
G01X157760Y-2397639D01*
G01X157760Y-2394462D01*
G01X154682Y-2394369D01*
G01X151604Y-2394275D01*
G01X151359Y-2393808D01*
G01X151114Y-2393341D01*
G01X151167Y-2390476D01*
G01X151220Y-2387611D01*
G01X151583Y-2387346D01*
G01X151945Y-2387081D01*
G01X154783Y-2387081D01*
G01X157621Y-2387081D01*
G01X157877Y-2387389D01*
G01X158133Y-2387698D01*
G01X158227Y-2390800D01*
G01X158321Y-2393902D01*
G01X161404Y-2393902D01*
G01X164488Y-2393902D01*
G01X164488Y-2387361D01*
G01X164488Y-2380821D01*
G01X158116Y-2380727D01*
G01X151744Y-2380634D01*
G01X151435Y-2380378D01*
G01X151127Y-2380121D01*
G01X151127Y-2377248D01*
G01X151127Y-2374374D01*
G01X151500Y-2374000D01*
G01X151874Y-2373627D01*
G01X260350Y-2373627D01*
G01X368826Y-2373627D01*
G01X369200Y-2374000D01*
G01X369573Y-2374374D01*
G01X369573Y-2482850D01*
G01X369573Y-2591326D01*
G01X369200Y-2591700D01*
G01X368826Y-2592073D01*
G01X365940Y-2592073D01*
G01X363054Y-2592073D01*
G01X362763Y-2591658D01*
G37*
%LPD*%
G36*
G01X225974Y-2571098D02*
G01X226064Y-2570864D01*
G01X226015Y-2561147D01*
G01X225967Y-2551430D01*
G01X219707Y-2551337D01*
G01X213447Y-2551243D01*
G01X213028Y-2551004D01*
G01X212610Y-2550765D01*
G01X212520Y-2550350D01*
G01X212431Y-2549935D01*
G01X212378Y-2547394D01*
G01X212325Y-2544853D01*
G01X212069Y-2544544D01*
G01X211812Y-2544236D01*
G01X209266Y-2544238D01*
G01X206719Y-2544241D01*
G01X206311Y-2544350D01*
G01X205903Y-2544460D01*
G01X205844Y-2547590D01*
G01X205785Y-2550720D01*
G01X205529Y-2551028D01*
G01X205272Y-2551337D01*
G01X202409Y-2551337D01*
G01X199546Y-2551337D01*
G01X199255Y-2550921D01*
G01X198964Y-2550506D01*
G01X198964Y-2547639D01*
G01X198964Y-2544772D01*
G01X199158Y-2544410D01*
G01X199351Y-2544049D01*
G01X202297Y-2544049D01*
G01X205243Y-2544049D01*
G01X205467Y-2543825D01*
G01X205692Y-2543600D01*
G01X205692Y-2537307D01*
G01X205692Y-2531014D01*
G01X206000Y-2530757D01*
G01X206309Y-2530501D01*
G01X212512Y-2530408D01*
G01X218716Y-2530314D01*
G01X219008Y-2530071D01*
G01X219300Y-2529829D01*
G01X219363Y-2526950D01*
G01X219426Y-2524072D01*
G01X219669Y-2523830D01*
G01X219912Y-2523587D01*
G01X226303Y-2523493D01*
G01X232694Y-2523400D01*
G01X232741Y-2506726D01*
G01X232789Y-2490052D01*
G01X232368Y-2489948D01*
G01X231946Y-2489844D01*
G01X229237Y-2489897D01*
G01X226527Y-2489951D01*
G01X226479Y-2503205D01*
G01X226431Y-2516459D01*
G01X226123Y-2516800D01*
G01X225815Y-2517140D01*
G01X222989Y-2517140D01*
G01X220163Y-2517140D01*
G01X219748Y-2516849D01*
G01X219333Y-2516558D01*
G01X219333Y-2510319D01*
G01X219333Y-2504081D01*
G01X218917Y-2503790D01*
G01X218502Y-2503499D01*
G01X216127Y-2503499D01*
G01X213751Y-2503499D01*
G01X213229Y-2503300D01*
G01X212707Y-2503102D01*
G01X212566Y-2502880D01*
G01X212424Y-2502658D01*
G01X212422Y-2499983D01*
G01X212419Y-2497308D01*
G01X212225Y-2496946D01*
G01X212032Y-2496585D01*
G01X209086Y-2496585D01*
G01X206140Y-2496585D01*
G01X205916Y-2496360D01*
G01X205692Y-2496136D01*
G01X205692Y-2493221D01*
G01X205692Y-2490306D01*
G01X205467Y-2490082D01*
G01X205243Y-2489858D01*
G01X195762Y-2489858D01*
G01X186282Y-2489858D01*
G01X185798Y-2490042D01*
G01X185314Y-2490226D01*
G01X185365Y-2493170D01*
G01X185417Y-2496114D01*
G01X185977Y-2496234D01*
G01X186538Y-2496354D01*
G01X192620Y-2496376D01*
G01X198703Y-2496398D01*
G01X198927Y-2496622D01*
G01X199151Y-2496846D01*
G01X199151Y-2499763D01*
G01X199151Y-2502680D01*
G01X198888Y-2503040D01*
G01X198625Y-2503399D01*
G01X195852Y-2503468D01*
G01X193078Y-2503537D01*
G01X192751Y-2503827D01*
G01X192424Y-2504117D01*
G01X192424Y-2506663D01*
G01X192424Y-2509208D01*
G01X192715Y-2509624D01*
G01X193006Y-2510039D01*
G01X202493Y-2510039D01*
G01X211980Y-2510039D01*
G01X212386Y-2510472D01*
G01X212792Y-2510904D01*
G01X212792Y-2513735D01*
G01X212792Y-2516566D01*
G01X212372Y-2516806D01*
G01X211952Y-2517047D01*
G01X208962Y-2517140D01*
G01X205972Y-2517233D01*
G01X205920Y-2520214D01*
G01X205869Y-2523195D01*
G01X205564Y-2523531D01*
G01X205260Y-2523867D01*
G01X199169Y-2523867D01*
G01X193078Y-2523866D01*
G01X192476Y-2523498D01*
G01X191873Y-2523131D01*
G01X191821Y-2520182D01*
G01X191770Y-2517233D01*
G01X185428Y-2517184D01*
G01X179087Y-2517135D01*
G01X178748Y-2516828D01*
G01X178409Y-2516521D01*
G01X178409Y-2510306D01*
G01X178409Y-2504090D01*
G01X178296Y-2503794D01*
G01X178182Y-2503499D01*
G01X175297Y-2503499D01*
G01X172412Y-2503499D01*
G01X171934Y-2503020D01*
G01X171455Y-2502541D01*
G01X171522Y-2499778D01*
G01X171590Y-2497014D01*
G01X171846Y-2496706D01*
G01X172101Y-2496398D01*
G01X174776Y-2496398D01*
G01X177450Y-2496398D01*
G01X177930Y-2496216D01*
G01X178409Y-2496033D01*
G01X178409Y-2493241D01*
G01X178409Y-2490449D01*
G01X178296Y-2490153D01*
G01X178182Y-2489858D01*
G01X172048Y-2489858D01*
G01X165913Y-2489858D01*
G01X165434Y-2490040D01*
G01X164955Y-2490222D01*
G01X164955Y-2503381D01*
G01X164955Y-2516539D01*
G01X165250Y-2516653D01*
G01X165546Y-2516766D01*
G01X168007Y-2516767D01*
G01X170467Y-2516768D01*
G01X171168Y-2516963D01*
G01X171869Y-2517158D01*
G01X171887Y-2526726D01*
G01X171906Y-2536294D01*
G01X172036Y-2536761D01*
G01X172166Y-2537228D01*
G01X175241Y-2537228D01*
G01X178316Y-2537228D01*
G01X178409Y-2534126D01*
G01X178502Y-2531024D01*
G01X178759Y-2530716D01*
G01X179015Y-2530408D01*
G01X185145Y-2530408D01*
G01X191274Y-2530408D01*
G01X191849Y-2530891D01*
G01X192424Y-2531375D01*
G01X192424Y-2537502D01*
G01X192424Y-2543629D01*
G01X192116Y-2543886D01*
G01X191808Y-2544142D01*
G01X188767Y-2544236D01*
G01X185727Y-2544329D01*
G01X185572Y-2544484D01*
G01X185417Y-2544639D01*
G01X185354Y-2547082D01*
G01X185292Y-2549525D01*
G01X185410Y-2550151D01*
G01X185527Y-2550776D01*
G01X188429Y-2550776D01*
G01X191332Y-2550776D01*
G01X191878Y-2551322D01*
G01X192424Y-2551868D01*
G01X192424Y-2554757D01*
G01X192424Y-2557646D01*
G01X192844Y-2557759D01*
G01X193265Y-2557872D01*
G01X195984Y-2557874D01*
G01X198703Y-2557877D01*
G01X198927Y-2558101D01*
G01X199151Y-2558325D01*
G01X199151Y-2561240D01*
G01X199151Y-2564156D01*
G01X199375Y-2564380D01*
G01X199600Y-2564604D01*
G01X202421Y-2564604D01*
G01X205243Y-2564604D01*
G01X205467Y-2564380D01*
G01X205692Y-2564156D01*
G01X205692Y-2561312D01*
G01X205692Y-2558468D01*
G01X205805Y-2558172D01*
G01X205918Y-2557877D01*
G01X209046Y-2557877D01*
G01X212174Y-2557877D01*
G01X212483Y-2558219D01*
G01X212792Y-2558560D01*
G01X212792Y-2561389D01*
G01X212792Y-2564217D01*
G01X213154Y-2564411D01*
G01X213515Y-2564604D01*
G01X216387Y-2564604D01*
G01X219258Y-2564604D01*
G01X219482Y-2564828D01*
G01X219707Y-2565053D01*
G01X219707Y-2567968D01*
G01X219707Y-2570883D01*
G01X219931Y-2571107D01*
G01X220155Y-2571331D01*
G01X223020Y-2571331D01*
G01X225885Y-2571331D01*
G01X225974Y-2571098D01*
G37*
G36*
G01X232660Y-2455165D02*
G01X232787Y-2455038D01*
G01X232787Y-2452102D01*
G01X232787Y-2449166D01*
G01X233096Y-2448910D01*
G01X233404Y-2448655D01*
G01X236506Y-2448561D01*
G01X239608Y-2448467D01*
G01X239659Y-2445533D01*
G01X239711Y-2442600D01*
G01X240198Y-2442216D01*
G01X240686Y-2441833D01*
G01X243534Y-2441833D01*
G01X246383Y-2441833D01*
G01X246588Y-2442080D01*
G01X246793Y-2442327D01*
G01X246844Y-2445397D01*
G01X246896Y-2448467D01*
G01X250072Y-2448467D01*
G01X253249Y-2448467D01*
G01X253298Y-2442246D01*
G01X253348Y-2436025D01*
G01X253152Y-2435659D01*
G01X252956Y-2435292D01*
G01X250089Y-2435292D01*
G01X247222Y-2435292D01*
G01X246965Y-2434984D01*
G01X246709Y-2434676D01*
G01X246615Y-2431574D01*
G01X246522Y-2428472D01*
G01X243546Y-2428420D01*
G01X240571Y-2428369D01*
G01X240370Y-2428569D01*
G01X240168Y-2428770D01*
G01X240116Y-2431424D01*
G01X240064Y-2434078D01*
G01X239977Y-2434480D01*
G01X239890Y-2434881D01*
G01X239301Y-2435087D01*
G01X238711Y-2435292D01*
G01X236245Y-2435292D01*
G01X233779Y-2435292D01*
G01X233484Y-2435620D01*
G01X233189Y-2435947D01*
G01X233128Y-2438812D01*
G01X233068Y-2441677D01*
G01X232705Y-2441942D01*
G01X232342Y-2442207D01*
G01X229504Y-2442207D01*
G01X226666Y-2442207D01*
G01X226413Y-2441901D01*
G01X226160Y-2441596D01*
G01X226090Y-2439052D01*
G01X226020Y-2436507D01*
G01X226234Y-2435713D01*
G01X226448Y-2434919D01*
G01X229322Y-2434919D01*
G01X232196Y-2434919D01*
G01X232492Y-2434805D01*
G01X232787Y-2434692D01*
G01X232787Y-2428369D01*
G01X232787Y-2422046D01*
G01X233203Y-2421755D01*
G01X233618Y-2421464D01*
G01X240097Y-2421464D01*
G01X246575Y-2421464D01*
G01X246689Y-2421760D01*
G01X246802Y-2422056D01*
G01X246802Y-2424899D01*
G01X246802Y-2427743D01*
G01X247026Y-2427967D01*
G01X247251Y-2428192D01*
G01X250072Y-2428192D01*
G01X252894Y-2428192D01*
G01X253118Y-2427967D01*
G01X253343Y-2427743D01*
G01X253343Y-2418262D01*
G01X253343Y-2408782D01*
G01X253160Y-2408302D01*
G01X252978Y-2407823D01*
G01X249990Y-2407823D01*
G01X247002Y-2407823D01*
G01X246809Y-2407462D01*
G01X246615Y-2407100D01*
G01X246615Y-2400928D01*
G01X246615Y-2394756D01*
G01X246254Y-2394562D01*
G01X245892Y-2394369D01*
G01X243217Y-2394366D01*
G01X240542Y-2394363D01*
G01X240320Y-2394222D01*
G01X240098Y-2394081D01*
G01X239900Y-2393559D01*
G01X239701Y-2393036D01*
G01X239701Y-2386995D01*
G01X239701Y-2380954D01*
G01X239406Y-2380841D01*
G01X239110Y-2380727D01*
G01X236431Y-2380727D01*
G01X233752Y-2380727D01*
G01X233457Y-2380841D01*
G01X233161Y-2380954D01*
G01X233161Y-2390801D01*
G01X233161Y-2400647D01*
G01X232937Y-2400872D01*
G01X232712Y-2401096D01*
G01X226434Y-2401096D01*
G01X220155Y-2401096D01*
G01X219931Y-2401320D01*
G01X219707Y-2401544D01*
G01X219707Y-2404393D01*
G01X219707Y-2407241D01*
G01X219291Y-2407532D01*
G01X218876Y-2407823D01*
G01X216127Y-2407823D01*
G01X213377Y-2407823D01*
G01X212898Y-2407641D01*
G01X212419Y-2407459D01*
G01X212419Y-2404471D01*
G01X212419Y-2401483D01*
G01X212057Y-2401289D01*
G01X211696Y-2401096D01*
G01X208918Y-2401096D01*
G01X206140Y-2401096D01*
G01X205916Y-2400872D01*
G01X205692Y-2400647D01*
G01X205692Y-2397870D01*
G01X205692Y-2395092D01*
G01X205498Y-2394730D01*
G01X205305Y-2394369D01*
G01X202317Y-2394369D01*
G01X199329Y-2394369D01*
G01X199147Y-2393889D01*
G01X198964Y-2393410D01*
G01X198962Y-2391040D01*
G01X198959Y-2388669D01*
G01X198853Y-2388272D01*
G01X198746Y-2387874D01*
G01X198286Y-2387664D01*
G01X197826Y-2387455D01*
G01X195416Y-2387455D01*
G01X193006Y-2387455D01*
G01X192715Y-2387870D01*
G01X192424Y-2388285D01*
G01X192424Y-2394484D01*
G01X192424Y-2400682D01*
G01X192720Y-2400796D01*
G01X193015Y-2400909D01*
G01X195722Y-2400909D01*
G01X198428Y-2400909D01*
G01X198790Y-2401102D01*
G01X199151Y-2401296D01*
G01X199151Y-2404242D01*
G01X199151Y-2407188D01*
G01X199375Y-2407412D01*
G01X199600Y-2407636D01*
G01X202541Y-2407636D01*
G01X205483Y-2407636D01*
G01X205634Y-2407870D01*
G01X205785Y-2408103D01*
G01X205878Y-2411187D01*
G01X205972Y-2414270D01*
G01X208887Y-2414321D01*
G01X211802Y-2414373D01*
G01X212250Y-2414849D01*
G01X212699Y-2415326D01*
G01X212792Y-2418193D01*
G01X212886Y-2421060D01*
G01X213041Y-2421216D01*
G01X213197Y-2421371D01*
G01X219582Y-2421422D01*
G01X225967Y-2421473D01*
G01X226200Y-2421785D01*
G01X226434Y-2422096D01*
G01X226434Y-2424928D01*
G01X226434Y-2427760D01*
G01X226097Y-2428064D01*
G01X225761Y-2428369D01*
G01X222781Y-2428420D01*
G01X219800Y-2428472D01*
G01X219707Y-2431502D01*
G01X219613Y-2434533D01*
G01X219280Y-2434866D01*
G01X218946Y-2435199D01*
G01X216196Y-2435262D01*
G01X213447Y-2435326D01*
G01X213139Y-2435601D01*
G01X212832Y-2435875D01*
G01X212765Y-2438751D01*
G01X212699Y-2441627D01*
G01X212457Y-2441870D01*
G01X212214Y-2442113D01*
G01X209093Y-2442207D01*
G01X205972Y-2442300D01*
G01X205921Y-2445312D01*
G01X205869Y-2448323D01*
G01X205538Y-2448624D01*
G01X205206Y-2448924D01*
G01X202225Y-2448976D01*
G01X199245Y-2449027D01*
G01X199191Y-2451737D01*
G01X199137Y-2454446D01*
G01X199241Y-2454867D01*
G01X199345Y-2455287D01*
G01X205769Y-2455287D01*
G01X212192Y-2455287D01*
G01X212305Y-2454992D01*
G01X212419Y-2454696D01*
G01X212419Y-2451822D01*
G01X212419Y-2448948D01*
G01X213213Y-2448734D01*
G01X214007Y-2448520D01*
G01X216552Y-2448590D01*
G01X219096Y-2448660D01*
G01X219397Y-2448909D01*
G01X219697Y-2449159D01*
G01X219749Y-2452176D01*
G01X219800Y-2455194D01*
G01X226167Y-2455243D01*
G01X232533Y-2455292D01*
G01X232660Y-2455165D01*
G37*
G36*
G01X335248Y-2448440D02*
G01X335377Y-2448311D01*
G01X335377Y-2438365D01*
G01X335377Y-2428418D01*
G01X335672Y-2428305D01*
G01X335968Y-2428192D01*
G01X338812Y-2428192D01*
G01X341656Y-2428192D01*
G01X341880Y-2427967D01*
G01X342104Y-2427743D01*
G01X342104Y-2421463D01*
G01X342104Y-2415182D01*
G01X342368Y-2414821D01*
G01X342632Y-2414460D01*
G01X345498Y-2414397D01*
G01X348364Y-2414333D01*
G01X348598Y-2414032D01*
G01X348831Y-2413731D01*
G01X348831Y-2407612D01*
G01X348831Y-2401492D01*
G01X348598Y-2401341D01*
G01X348364Y-2401189D01*
G01X345281Y-2401096D01*
G01X342198Y-2401002D01*
G01X342146Y-2397869D01*
G01X342095Y-2394735D01*
G01X342293Y-2394365D01*
G01X342491Y-2393995D01*
G01X345370Y-2393995D01*
G01X348249Y-2393995D01*
G01X348540Y-2393580D01*
G01X348831Y-2393164D01*
G01X348831Y-2390789D01*
G01X348831Y-2388413D01*
G01X348649Y-2387934D01*
G01X348467Y-2387455D01*
G01X342120Y-2387455D01*
G01X335773Y-2387455D01*
G01X335621Y-2387221D01*
G01X335470Y-2386988D01*
G01X335377Y-2383904D01*
G01X335283Y-2380821D01*
G01X322203Y-2380769D01*
G01X309122Y-2380718D01*
G01X308702Y-2380820D01*
G01X308281Y-2380921D01*
G01X308281Y-2383897D01*
G01X308281Y-2386873D01*
G01X307866Y-2387164D01*
G01X307451Y-2387455D01*
G01X304824Y-2387455D01*
G01X302198Y-2387455D01*
G01X301796Y-2387736D01*
G01X301393Y-2388018D01*
G01X301334Y-2390885D01*
G01X301274Y-2393752D01*
G01X301017Y-2394060D01*
G01X300761Y-2394369D01*
G01X297797Y-2394369D01*
G01X294834Y-2394369D01*
G01X294732Y-2394789D01*
G01X294631Y-2395210D01*
G01X294682Y-2411654D01*
G01X294733Y-2428098D01*
G01X300834Y-2428147D01*
G01X306936Y-2428197D01*
G01X307422Y-2428012D01*
G01X307908Y-2427827D01*
G01X307908Y-2424955D01*
G01X307908Y-2422083D01*
G01X308235Y-2421787D01*
G01X308562Y-2421492D01*
G01X311512Y-2421431D01*
G01X314462Y-2421371D01*
G01X314639Y-2421091D01*
G01X314816Y-2420810D01*
G01X314819Y-2414432D01*
G01X314822Y-2408054D01*
G01X314401Y-2407941D01*
G01X313981Y-2407828D01*
G01X307902Y-2407826D01*
G01X301824Y-2407823D01*
G01X301409Y-2407532D01*
G01X300993Y-2407241D01*
G01X300993Y-2404366D01*
G01X300993Y-2401491D01*
G01X301409Y-2401200D01*
G01X301824Y-2400909D01*
G01X304572Y-2400909D01*
G01X307320Y-2400909D01*
G01X307614Y-2400615D01*
G01X307908Y-2400322D01*
G01X307908Y-2397646D01*
G01X307908Y-2394971D01*
G01X308264Y-2394530D01*
G01X308621Y-2394088D01*
G01X311675Y-2393995D01*
G01X314728Y-2393902D01*
G01X314822Y-2390800D01*
G01X314915Y-2387698D01*
G01X315171Y-2387389D01*
G01X315428Y-2387081D01*
G01X318291Y-2387081D01*
G01X321154Y-2387081D01*
G01X321445Y-2387496D01*
G01X321736Y-2387912D01*
G01X321736Y-2390661D01*
G01X321736Y-2393410D01*
G01X321553Y-2393889D01*
G01X321371Y-2394369D01*
G01X318383Y-2394369D01*
G01X315395Y-2394369D01*
G01X315202Y-2394730D01*
G01X315008Y-2395092D01*
G01X315008Y-2401140D01*
G01X315008Y-2407188D01*
G01X315233Y-2407412D01*
G01X315457Y-2407636D01*
G01X318398Y-2407636D01*
G01X321340Y-2407636D01*
G01X321491Y-2407870D01*
G01X321642Y-2408103D01*
G01X321736Y-2414582D01*
G01X321829Y-2421060D01*
G01X321985Y-2421216D01*
G01X322140Y-2421371D01*
G01X324564Y-2421437D01*
G01X326987Y-2421502D01*
G01X327631Y-2421381D01*
G01X328276Y-2421261D01*
G01X328276Y-2418358D01*
G01X328276Y-2415456D01*
G01X328822Y-2414910D01*
G01X329368Y-2414363D01*
G01X331578Y-2414365D01*
G01X333789Y-2414368D01*
G01X334469Y-2414480D01*
G01X335149Y-2414593D01*
G01X335357Y-2415047D01*
G01X335564Y-2415502D01*
G01X335564Y-2418283D01*
G01X335564Y-2421064D01*
G01X335270Y-2421358D01*
G01X334976Y-2421651D01*
G01X332202Y-2421651D01*
G01X329428Y-2421651D01*
G01X329132Y-2421765D01*
G01X328837Y-2421878D01*
G01X328837Y-2428101D01*
G01X328837Y-2434325D01*
G01X328262Y-2434809D01*
G01X327687Y-2435292D01*
G01X324813Y-2435292D01*
G01X321939Y-2435292D01*
G01X321819Y-2435937D01*
G01X321698Y-2436582D01*
G01X321764Y-2438974D01*
G01X321830Y-2441366D01*
G01X321981Y-2441599D01*
G01X322131Y-2441833D01*
G01X324877Y-2441833D01*
G01X327622Y-2441834D01*
G01X328224Y-2442202D01*
G01X328827Y-2442569D01*
G01X328879Y-2445518D01*
G01X328930Y-2448467D01*
G01X332025Y-2448518D01*
G01X335119Y-2448569D01*
G01X335248Y-2448440D01*
G37*
%LPC*%
G36*
G01X328691Y-2407532D02*
G01X328276Y-2407241D01*
G01X328276Y-2404360D01*
G01X328276Y-2401479D01*
G01X328827Y-2401194D01*
G01X329379Y-2400909D01*
G01X332110Y-2400909D01*
G01X334841Y-2400909D01*
G01X335202Y-2401102D01*
G01X335564Y-2401296D01*
G01X335564Y-2404335D01*
G01X335564Y-2407375D01*
G01X335340Y-2407599D01*
G01X335115Y-2407823D01*
G01X332111Y-2407823D01*
G01X329107Y-2407823D01*
G01X328691Y-2407532D01*
G37*
%LPD*%
G36*
G01X334816Y-2482434D02*
G01X335097Y-2482327D01*
G01X335234Y-2482121D01*
G01X335371Y-2481916D01*
G01X335371Y-2472572D01*
G01X335371Y-2463229D01*
G01X335194Y-2462949D01*
G01X335017Y-2462668D01*
G01X332370Y-2462603D01*
G01X329722Y-2462538D01*
G01X329279Y-2462775D01*
G01X328837Y-2463012D01*
G01X328837Y-2465964D01*
G01X328837Y-2468915D01*
G01X328475Y-2469109D01*
G01X328114Y-2469302D01*
G01X321692Y-2469302D01*
G01X315270Y-2469302D01*
G01X315046Y-2469078D01*
G01X314822Y-2468854D01*
G01X314822Y-2465908D01*
G01X314822Y-2462962D01*
G01X314460Y-2462768D01*
G01X314099Y-2462575D01*
G01X311499Y-2462575D01*
G01X308900Y-2462575D01*
G01X308591Y-2462917D01*
G01X308281Y-2463258D01*
G01X308281Y-2466087D01*
G01X308281Y-2468915D01*
G01X307920Y-2469109D01*
G01X307558Y-2469302D01*
G01X304486Y-2469302D01*
G01X301413Y-2469302D01*
G01X301194Y-2469038D01*
G01X300975Y-2468775D01*
G01X301031Y-2462320D01*
G01X301087Y-2455866D01*
G01X301330Y-2455623D01*
G01X301573Y-2455381D01*
G01X304507Y-2455315D01*
G01X307440Y-2455249D01*
G01X307674Y-2455058D01*
G01X307908Y-2454868D01*
G01X307908Y-2445389D01*
G01X307908Y-2435911D01*
G01X307566Y-2435602D01*
G01X307224Y-2435292D01*
G01X304711Y-2435292D01*
G01X302198Y-2435292D01*
G01X301783Y-2435583D01*
G01X301367Y-2435874D01*
G01X301367Y-2442113D01*
G01X301367Y-2448352D01*
G01X300952Y-2448643D01*
G01X300537Y-2448934D01*
G01X297588Y-2448934D01*
G01X294640Y-2448934D01*
G01X294640Y-2451882D01*
G01X294640Y-2454830D01*
G01X294349Y-2455246D01*
G01X294058Y-2455661D01*
G01X291179Y-2455661D01*
G01X288300Y-2455661D01*
G01X288101Y-2456031D01*
G01X287903Y-2456402D01*
G01X287955Y-2459255D01*
G01X288006Y-2462108D01*
G01X291040Y-2462159D01*
G01X294075Y-2462211D01*
G01X294377Y-2462795D01*
G01X294679Y-2463380D01*
G01X294610Y-2466107D01*
G01X294541Y-2468835D01*
G01X294392Y-2469069D01*
G01X294244Y-2469302D01*
G01X291116Y-2469302D01*
G01X287988Y-2469302D01*
G01X287763Y-2469078D01*
G01X287539Y-2468854D01*
G01X287539Y-2465912D01*
G01X287539Y-2462971D01*
G01X287305Y-2462820D01*
G01X287072Y-2462668D01*
G01X284050Y-2462575D01*
G01X281029Y-2462482D01*
G01X280874Y-2462326D01*
G01X280718Y-2462171D01*
G01X280625Y-2459336D01*
G01X280532Y-2456502D01*
G01X280291Y-2456081D01*
G01X280051Y-2455661D01*
G01X273820Y-2455661D01*
G01X267588Y-2455661D01*
G01X267475Y-2456081D01*
G01X267363Y-2456502D01*
G01X267360Y-2459056D01*
G01X267358Y-2461610D01*
G01X267471Y-2461906D01*
G01X267584Y-2462201D01*
G01X270544Y-2462201D01*
G01X273503Y-2462201D01*
G01X273794Y-2462617D01*
G01X274085Y-2463032D01*
G01X274085Y-2465943D01*
G01X274085Y-2468854D01*
G01X273860Y-2469078D01*
G01X273636Y-2469302D01*
G01X270707Y-2469302D01*
G01X267777Y-2469302D01*
G01X267562Y-2469561D01*
G01X267348Y-2469819D01*
G01X267399Y-2472784D01*
G01X267451Y-2475749D01*
G01X270534Y-2475799D01*
G01X273618Y-2475848D01*
G01X273851Y-2476161D01*
G01X274085Y-2476475D01*
G01X274085Y-2479298D01*
G01X274085Y-2482121D01*
G01X274309Y-2482345D01*
G01X274533Y-2482570D01*
G01X277325Y-2482570D01*
G01X280117Y-2482570D01*
G01X280365Y-2482243D01*
G01X280613Y-2481916D01*
G01X280619Y-2479061D01*
G01X280625Y-2476207D01*
G01X281104Y-2476025D01*
G01X281584Y-2475843D01*
G01X284421Y-2475845D01*
G01X287259Y-2475848D01*
G01X287539Y-2476025D01*
G01X287819Y-2476202D01*
G01X287882Y-2479190D01*
G01X287945Y-2482177D01*
G01X288188Y-2482378D01*
G01X288430Y-2482580D01*
G01X291302Y-2482528D01*
G01X294173Y-2482476D01*
G01X294268Y-2479466D01*
G01X294363Y-2476456D01*
G01X294618Y-2476149D01*
G01X294873Y-2475843D01*
G01X297817Y-2475843D01*
G01X300761Y-2475843D01*
G01X301017Y-2476151D01*
G01X301274Y-2476460D01*
G01X301337Y-2479339D01*
G01X301401Y-2482218D01*
G01X301864Y-2482394D01*
G01X302326Y-2482570D01*
G01X304807Y-2482570D01*
G01X307289Y-2482570D01*
G01X307579Y-2482243D01*
G01X307870Y-2481916D01*
G01X307938Y-2479142D01*
G01X308007Y-2476369D01*
G01X308367Y-2476106D01*
G01X308726Y-2475843D01*
G01X311643Y-2475843D01*
G01X314560Y-2475843D01*
G01X314784Y-2476067D01*
G01X315008Y-2476291D01*
G01X315008Y-2479069D01*
G01X315008Y-2481847D01*
G01X315202Y-2482208D01*
G01X315395Y-2482570D01*
G01X318279Y-2482570D01*
G01X321162Y-2482570D01*
G01X321355Y-2482208D01*
G01X321549Y-2481847D01*
G01X321549Y-2479069D01*
G01X321549Y-2476291D01*
G01X321773Y-2476067D01*
G01X321997Y-2475843D01*
G01X324848Y-2475843D01*
G01X327698Y-2475843D01*
G01X328153Y-2476050D01*
G01X328607Y-2476257D01*
G01X328720Y-2476937D01*
G01X328832Y-2477618D01*
G01X328835Y-2479869D01*
G01X328837Y-2482121D01*
G01X329061Y-2482345D01*
G01X329285Y-2482570D01*
G01X331911Y-2482555D01*
G01X334536Y-2482540D01*
G01X334816Y-2482434D01*
G37*
G36*
G01X314628Y-2577884D02*
G01X314822Y-2577522D01*
G01X314822Y-2574907D01*
G01X314822Y-2572292D01*
G01X314528Y-2571999D01*
G01X314234Y-2571705D01*
G01X311530Y-2571705D01*
G01X308825Y-2571705D01*
G01X308366Y-2571246D01*
G01X307908Y-2570788D01*
G01X307908Y-2561357D01*
G01X307908Y-2551926D01*
G01X308391Y-2551351D01*
G01X308875Y-2550776D01*
G01X311624Y-2550776D01*
G01X314373Y-2550776D01*
G01X314597Y-2550552D01*
G01X314822Y-2550327D01*
G01X314822Y-2547550D01*
G01X314822Y-2544772D01*
G01X315015Y-2544410D01*
G01X315208Y-2544049D01*
G01X318154Y-2544049D01*
G01X321100Y-2544049D01*
G01X321325Y-2543825D01*
G01X321549Y-2543600D01*
G01X321549Y-2540654D01*
G01X321549Y-2537708D01*
G01X321910Y-2537515D01*
G01X322272Y-2537322D01*
G01X325050Y-2537322D01*
G01X327827Y-2537322D01*
G01X328052Y-2537097D01*
G01X328276Y-2536873D01*
G01X328276Y-2534124D01*
G01X328276Y-2531375D01*
G01X328851Y-2530891D01*
G01X329426Y-2530408D01*
G01X332299Y-2530408D01*
G01X335173Y-2530408D01*
G01X335294Y-2529763D01*
G01X335415Y-2529118D01*
G01X335349Y-2526726D01*
G01X335283Y-2524334D01*
G01X335132Y-2524101D01*
G01X334981Y-2523867D01*
G01X328556Y-2523867D01*
G01X322131Y-2523867D01*
G01X321983Y-2524101D01*
G01X321834Y-2524334D01*
G01X321738Y-2527324D01*
G01X321642Y-2530314D01*
G01X321491Y-2530548D01*
G01X321340Y-2530781D01*
G01X318368Y-2530781D01*
G01X315395Y-2530781D01*
G01X315202Y-2531143D01*
G01X315008Y-2531504D01*
G01X315008Y-2534282D01*
G01X315008Y-2537060D01*
G01X314784Y-2537284D01*
G01X314560Y-2537508D01*
G01X308548Y-2537508D01*
G01X302535Y-2537508D01*
G01X301951Y-2537625D01*
G01X301367Y-2537742D01*
G01X301367Y-2557703D01*
G01X301367Y-2577664D01*
G01X301783Y-2577954D01*
G01X302198Y-2578245D01*
G01X308316Y-2578245D01*
G01X314435Y-2578245D01*
G01X314628Y-2577884D01*
G37*
G36*
G01X198404Y-2482434D02*
G01X198684Y-2482327D01*
G01X198821Y-2482121D01*
G01X198959Y-2481916D01*
G01X198961Y-2479241D01*
G01X198964Y-2476565D01*
G01X199158Y-2476204D01*
G01X199351Y-2475843D01*
G01X202297Y-2475843D01*
G01X205243Y-2475843D01*
G01X205467Y-2475618D01*
G01X205692Y-2475394D01*
G01X205692Y-2472479D01*
G01X205692Y-2469564D01*
G01X205916Y-2469340D01*
G01X206140Y-2469115D01*
G01X209086Y-2469115D01*
G01X212032Y-2469115D01*
G01X212225Y-2468754D01*
G01X212419Y-2468392D01*
G01X212419Y-2465777D01*
G01X212419Y-2463162D01*
G01X212125Y-2462869D01*
G01X211831Y-2462575D01*
G01X202423Y-2462575D01*
G01X193015Y-2462575D01*
G01X192713Y-2462459D01*
G01X192410Y-2462343D01*
G01X192137Y-2461814D01*
G01X191863Y-2461285D01*
G01X191863Y-2451930D01*
G01X191863Y-2442575D01*
G01X192471Y-2442204D01*
G01X193078Y-2441834D01*
G01X199268Y-2441833D01*
G01X205458Y-2441833D01*
G01X205575Y-2441249D01*
G01X205692Y-2440665D01*
G01X205692Y-2435001D01*
G01X205692Y-2429337D01*
G01X205509Y-2428858D01*
G01X205327Y-2428378D01*
G01X202535Y-2428378D01*
G01X199742Y-2428378D01*
G01X199447Y-2428492D01*
G01X199151Y-2428605D01*
G01X199151Y-2431539D01*
G01X199151Y-2434474D01*
G01X198886Y-2434836D01*
G01X198621Y-2435199D01*
G01X192084Y-2435257D01*
G01X185548Y-2435314D01*
G01X185438Y-2435724D01*
G01X185328Y-2436133D01*
G01X185326Y-2455764D01*
G01X185323Y-2475394D01*
G01X185547Y-2475618D01*
G01X185772Y-2475843D01*
G01X188528Y-2475843D01*
G01X191285Y-2475843D01*
G01X191740Y-2476050D01*
G01X192195Y-2476257D01*
G01X192307Y-2476937D01*
G01X192420Y-2477618D01*
G01X192422Y-2479869D01*
G01X192424Y-2482121D01*
G01X192648Y-2482345D01*
G01X192873Y-2482570D01*
G01X195498Y-2482555D01*
G01X198123Y-2482540D01*
G01X198404Y-2482434D01*
G37*
G36*
G01X280432Y-2550415D02*
G01X280625Y-2550053D01*
G01X280625Y-2547249D01*
G01X280625Y-2544445D01*
G01X280859Y-2544293D01*
G01X281092Y-2544142D01*
G01X287633Y-2544049D01*
G01X294173Y-2543955D01*
G01X294224Y-2540975D01*
G01X294276Y-2537994D01*
G01X294576Y-2537662D01*
G01X294877Y-2537331D01*
G01X297888Y-2537279D01*
G01X300900Y-2537228D01*
G01X300954Y-2531155D01*
G01X301008Y-2525082D01*
G01X300899Y-2524475D01*
G01X300790Y-2523867D01*
G01X297715Y-2523867D01*
G01X294640Y-2523867D01*
G01X294639Y-2526623D01*
G01X294638Y-2529380D01*
G01X294443Y-2530080D01*
G01X294249Y-2530781D01*
G01X291291Y-2530781D01*
G01X288332Y-2530781D01*
G01X288140Y-2531015D01*
G01X287947Y-2531248D01*
G01X287883Y-2534199D01*
G01X287819Y-2537149D01*
G01X287539Y-2537326D01*
G01X287259Y-2537503D01*
G01X277518Y-2537506D01*
G01X267777Y-2537508D01*
G01X267562Y-2537767D01*
G01X267348Y-2538026D01*
G01X267399Y-2540990D01*
G01X267451Y-2543955D01*
G01X270534Y-2544005D01*
G01X273618Y-2544054D01*
G01X273851Y-2544368D01*
G01X274085Y-2544681D01*
G01X274085Y-2547504D01*
G01X274085Y-2550327D01*
G01X274309Y-2550552D01*
G01X274533Y-2550776D01*
G01X277386Y-2550776D01*
G01X280238Y-2550776D01*
G01X280432Y-2550415D01*
G37*
G36*
G01X280275Y-2421156D02*
G01X280532Y-2420847D01*
G01X280597Y-2418329D01*
G01X280663Y-2415811D01*
G01X280425Y-2415368D01*
G01X280188Y-2414924D01*
G01X277236Y-2414924D01*
G01X274285Y-2414924D01*
G01X274091Y-2414563D01*
G01X273898Y-2414201D01*
G01X273898Y-2411143D01*
G01X273898Y-2408085D01*
G01X274122Y-2407860D01*
G01X274346Y-2407636D01*
G01X280463Y-2407636D01*
G01X286580Y-2407636D01*
G01X287060Y-2407454D01*
G01X287539Y-2407272D01*
G01X287539Y-2401105D01*
G01X287539Y-2394939D01*
G01X286988Y-2394654D01*
G01X286436Y-2394369D01*
G01X284079Y-2394369D01*
G01X281722Y-2394369D01*
G01X281360Y-2394562D01*
G01X280999Y-2394756D01*
G01X280999Y-2397732D01*
G01X280999Y-2400709D01*
G01X280637Y-2400902D01*
G01X280276Y-2401096D01*
G01X274041Y-2401096D01*
G01X267806Y-2401096D01*
G01X267582Y-2401320D01*
G01X267358Y-2401544D01*
G01X267358Y-2404460D01*
G01X267358Y-2407375D01*
G01X267133Y-2407599D01*
G01X266909Y-2407823D01*
G01X264097Y-2407826D01*
G01X261284Y-2407829D01*
G01X261004Y-2408006D01*
G01X260724Y-2408183D01*
G01X260663Y-2411004D01*
G01X260603Y-2413825D01*
G01X260826Y-2414094D01*
G01X261050Y-2414363D01*
G01X263316Y-2414365D01*
G01X265582Y-2414368D01*
G01X266263Y-2414480D01*
G01X266943Y-2414593D01*
G01X267150Y-2415047D01*
G01X267358Y-2415502D01*
G01X267358Y-2418259D01*
G01X267358Y-2421016D01*
G01X267582Y-2421240D01*
G01X267806Y-2421464D01*
G01X273912Y-2421464D01*
G01X280019Y-2421464D01*
G01X280275Y-2421156D01*
G37*
G36*
G01X355418Y-2468913D02*
G01X355745Y-2468723D01*
G01X355745Y-2465868D01*
G01X355745Y-2463014D01*
G01X356178Y-2462608D01*
G01X356610Y-2462201D01*
G01X359428Y-2462201D01*
G01X362246Y-2462201D01*
G01X362359Y-2461906D01*
G01X362473Y-2461610D01*
G01X362473Y-2455272D01*
G01X362473Y-2448934D01*
G01X359524Y-2448934D01*
G01X356576Y-2448934D01*
G01X356161Y-2448643D01*
G01X355745Y-2448352D01*
G01X355745Y-2445393D01*
G01X355745Y-2442433D01*
G01X355450Y-2442320D01*
G01X355154Y-2442207D01*
G01X352475Y-2442207D01*
G01X349796Y-2442207D01*
G01X349501Y-2442320D01*
G01X349205Y-2442433D01*
G01X349205Y-2448641D01*
G01X349205Y-2454848D01*
G01X348773Y-2455255D01*
G01X348340Y-2455661D01*
G01X345432Y-2455661D01*
G01X342524Y-2455661D01*
G01X342319Y-2455414D01*
G01X342114Y-2455167D01*
G01X342062Y-2452097D01*
G01X342011Y-2449027D01*
G01X338834Y-2449027D01*
G01X335657Y-2449027D01*
G01X335605Y-2455194D01*
G01X335553Y-2461360D01*
G01X335655Y-2461781D01*
G01X335758Y-2462201D01*
G01X342023Y-2462201D01*
G01X348288Y-2462201D01*
G01X348746Y-2462660D01*
G01X349205Y-2463119D01*
G01X349205Y-2466004D01*
G01X349205Y-2468888D01*
G01X349501Y-2469002D01*
G01X349796Y-2469115D01*
G01X352444Y-2469110D01*
G01X355091Y-2469104D01*
G01X355418Y-2468913D01*
G37*
G36*
G01X184912Y-2434695D02*
G01X185136Y-2434470D01*
G01X185136Y-2431555D01*
G01X185136Y-2428640D01*
G01X185360Y-2428416D01*
G01X185585Y-2428192D01*
G01X188363Y-2428192D01*
G01X191141Y-2428192D01*
G01X191502Y-2427998D01*
G01X191863Y-2427805D01*
G01X191863Y-2424921D01*
G01X191863Y-2422038D01*
G01X191502Y-2421845D01*
G01X191141Y-2421651D01*
G01X188432Y-2421651D01*
G01X185724Y-2421651D01*
G01X185430Y-2421358D01*
G01X185136Y-2421064D01*
G01X185136Y-2411304D01*
G01X185136Y-2401544D01*
G01X184912Y-2401320D01*
G01X184688Y-2401096D01*
G01X178640Y-2401096D01*
G01X172592Y-2401096D01*
G01X172230Y-2401289D01*
G01X171869Y-2401483D01*
G01X171869Y-2404366D01*
G01X171869Y-2407249D01*
G01X172230Y-2407443D01*
G01X172592Y-2407636D01*
G01X175370Y-2407636D01*
G01X178147Y-2407636D01*
G01X178372Y-2407860D01*
G01X178596Y-2408085D01*
G01X178596Y-2411143D01*
G01X178596Y-2414201D01*
G01X178402Y-2414563D01*
G01X178209Y-2414924D01*
G01X175257Y-2414924D01*
G01X172306Y-2414924D01*
G01X172068Y-2415368D01*
G01X171831Y-2415811D01*
G01X171897Y-2418329D01*
G01X171962Y-2420847D01*
G01X172219Y-2421156D01*
G01X172475Y-2421464D01*
G01X175422Y-2421464D01*
G01X178369Y-2421464D01*
G01X178483Y-2421760D01*
G01X178596Y-2422056D01*
G01X178596Y-2424993D01*
G01X178596Y-2427930D01*
G01X178372Y-2428154D01*
G01X178147Y-2428378D01*
G01X175206Y-2428378D01*
G01X172265Y-2428378D01*
G01X172113Y-2428612D01*
G01X171962Y-2428846D01*
G01X171899Y-2431572D01*
G01X171836Y-2434298D01*
G01X172146Y-2434609D01*
G01X172456Y-2434919D01*
G01X178572Y-2434919D01*
G01X184688Y-2434919D01*
G01X184912Y-2434695D01*
G37*
G36*
G01X341975Y-2516646D02*
G01X342104Y-2516517D01*
G01X342104Y-2513502D01*
G01X342104Y-2510488D01*
G01X342328Y-2510263D01*
G01X342553Y-2510039D01*
G01X345510Y-2510039D01*
G01X348467Y-2510039D01*
G01X348649Y-2509560D01*
G01X348831Y-2509080D01*
G01X348831Y-2502853D01*
G01X348831Y-2496625D01*
G01X349127Y-2496511D01*
G01X349422Y-2496398D01*
G01X352105Y-2496398D01*
G01X354787Y-2496398D01*
G01X355266Y-2496216D01*
G01X355745Y-2496033D01*
G01X355745Y-2493128D01*
G01X355745Y-2490222D01*
G01X355266Y-2490040D01*
G01X354787Y-2489858D01*
G01X348652Y-2489858D01*
G01X342518Y-2489858D01*
G01X342404Y-2490153D01*
G01X342291Y-2490449D01*
G01X342291Y-2493223D01*
G01X342291Y-2495997D01*
G01X341997Y-2496291D01*
G01X341704Y-2496585D01*
G01X338867Y-2496588D01*
G01X336031Y-2496590D01*
G01X335796Y-2496740D01*
G01X335560Y-2496889D01*
G01X335609Y-2506781D01*
G01X335657Y-2516673D01*
G01X338752Y-2516724D01*
G01X341846Y-2516775D01*
G01X341975Y-2516646D01*
G37*
G36*
G01X294266Y-2520442D02*
G01X294266Y-2517385D01*
G01X294603Y-2517080D01*
G01X294939Y-2516776D01*
G01X297919Y-2516724D01*
G01X300900Y-2516673D01*
G01X300993Y-2513621D01*
G01X301087Y-2510569D01*
G01X301450Y-2510304D01*
G01X301812Y-2510039D01*
G01X304558Y-2510039D01*
G01X307304Y-2510039D01*
G01X307606Y-2509578D01*
G01X307908Y-2509118D01*
G01X307908Y-2506618D01*
G01X307908Y-2504117D01*
G01X307563Y-2503805D01*
G01X307218Y-2503494D01*
G01X300976Y-2503543D01*
G01X294733Y-2503592D01*
G01X294639Y-2506694D01*
G01X294546Y-2509796D01*
G01X294292Y-2510102D01*
G01X294038Y-2510408D01*
G01X287565Y-2510457D01*
G01X281092Y-2510506D01*
G01X281092Y-2516953D01*
G01X281092Y-2523400D01*
G01X287679Y-2523449D01*
G01X294266Y-2523498D01*
G01X294266Y-2520442D01*
G37*
G36*
G01X355325Y-2530095D02*
G01X355745Y-2529801D01*
G01X355745Y-2527057D01*
G01X355745Y-2524312D01*
G01X356010Y-2523950D01*
G01X356275Y-2523587D01*
G01X359327Y-2523493D01*
G01X362379Y-2523400D01*
G01X362430Y-2520270D01*
G01X362482Y-2517140D01*
G01X359529Y-2517140D01*
G01X356576Y-2517140D01*
G01X356161Y-2516849D01*
G01X355745Y-2516558D01*
G01X355745Y-2513679D01*
G01X355745Y-2510800D01*
G01X355375Y-2510601D01*
G01X355004Y-2510403D01*
G01X352151Y-2510455D01*
G01X349298Y-2510506D01*
G01X349247Y-2513540D01*
G01X349196Y-2516575D01*
G01X348649Y-2516857D01*
G01X348102Y-2517140D01*
G01X345192Y-2517140D01*
G01X342282Y-2517140D01*
G01X342333Y-2520270D01*
G01X342384Y-2523400D01*
G01X345415Y-2523493D01*
G01X348445Y-2523587D01*
G01X348779Y-2523920D01*
G01X349112Y-2524254D01*
G01X349176Y-2527097D01*
G01X349240Y-2529940D01*
G01X349432Y-2530174D01*
G01X349624Y-2530408D01*
G01X352264Y-2530398D01*
G01X354904Y-2530388D01*
G01X355325Y-2530095D01*
G37*
G36*
G01X280340Y-2577694D02*
G01X280625Y-2577143D01*
G01X280625Y-2571328D01*
G01X280625Y-2565514D01*
G01X280432Y-2565152D01*
G01X280238Y-2564791D01*
G01X277292Y-2564791D01*
G01X274346Y-2564791D01*
G01X274122Y-2564567D01*
G01X273898Y-2564342D01*
G01X273898Y-2561427D01*
G01X273898Y-2558512D01*
G01X273674Y-2558288D01*
G01X273449Y-2558064D01*
G01X267401Y-2558064D01*
G01X261353Y-2558064D01*
G01X260992Y-2558257D01*
G01X260630Y-2558451D01*
G01X260630Y-2561334D01*
G01X260630Y-2564217D01*
G01X260992Y-2564411D01*
G01X261353Y-2564604D01*
G01X264131Y-2564604D01*
G01X266909Y-2564604D01*
G01X267133Y-2564828D01*
G01X267358Y-2565053D01*
G01X267358Y-2567968D01*
G01X267358Y-2570883D01*
G01X267582Y-2571107D01*
G01X267806Y-2571331D01*
G01X270763Y-2571331D01*
G01X273720Y-2571331D01*
G01X273902Y-2571811D01*
G01X274085Y-2572290D01*
G01X274085Y-2575043D01*
G01X274085Y-2577797D01*
G01X274309Y-2578021D01*
G01X274533Y-2578245D01*
G01X277294Y-2578245D01*
G01X280055Y-2578245D01*
G01X280340Y-2577694D01*
G37*
G36*
G01X362386Y-2441603D02*
G01X362478Y-2441363D01*
G01X362428Y-2434918D01*
G01X362379Y-2428472D01*
G01X352382Y-2428472D01*
G01X342384Y-2428472D01*
G01X342332Y-2434732D01*
G01X342280Y-2440992D01*
G01X342382Y-2441412D01*
G01X342485Y-2441833D01*
G01X345460Y-2441833D01*
G01X348435Y-2441833D01*
G01X348587Y-2441599D01*
G01X348738Y-2441366D01*
G01X348831Y-2438344D01*
G01X348925Y-2435323D01*
G01X349080Y-2435168D01*
G01X349235Y-2435012D01*
G01X351869Y-2434951D01*
G01X354502Y-2434889D01*
G01X355106Y-2435003D01*
G01X355709Y-2435116D01*
G01X355860Y-2435438D01*
G01X356010Y-2435760D01*
G01X356111Y-2438750D01*
G01X356213Y-2441739D01*
G01X359253Y-2441791D01*
G01X362294Y-2441842D01*
G01X362386Y-2441603D01*
G37*
G36*
G01X280432Y-2393634D02*
G01X280625Y-2393272D01*
G01X280628Y-2390784D01*
G01X280630Y-2388296D01*
G01X280739Y-2387888D01*
G01X280849Y-2387481D01*
G01X281157Y-2387328D01*
G01X281466Y-2387175D01*
G01X287819Y-2387081D01*
G01X294173Y-2386988D01*
G01X294224Y-2383856D01*
G01X294275Y-2380724D01*
G01X284227Y-2380773D01*
G01X274178Y-2380821D01*
G01X274129Y-2387112D01*
G01X274080Y-2393403D01*
G01X274376Y-2393699D01*
G01X274672Y-2393995D01*
G01X277455Y-2393995D01*
G01X280238Y-2393995D01*
G01X280432Y-2393634D01*
G37*
G36*
G01X294175Y-2570911D02*
G01X294277Y-2570490D01*
G01X294225Y-2564324D01*
G01X294173Y-2558157D01*
G01X291036Y-2558064D01*
G01X287898Y-2557970D01*
G01X287722Y-2557690D01*
G01X287545Y-2557410D01*
G01X287542Y-2554627D01*
G01X287539Y-2551845D01*
G01X287212Y-2551597D01*
G01X286885Y-2551348D01*
G01X284166Y-2551343D01*
G01X281447Y-2551337D01*
G01X281223Y-2551561D01*
G01X280999Y-2551785D01*
G01X280999Y-2558001D01*
G01X280999Y-2564217D01*
G01X281360Y-2564411D01*
G01X281722Y-2564604D01*
G01X284593Y-2564604D01*
G01X287464Y-2564604D01*
G01X287689Y-2564828D01*
G01X287913Y-2565053D01*
G01X287913Y-2567968D01*
G01X287913Y-2570883D01*
G01X288137Y-2571107D01*
G01X288361Y-2571331D01*
G01X291217Y-2571331D01*
G01X294072Y-2571331D01*
G01X294175Y-2570911D01*
G37*
G36*
G01X253149Y-2482208D02*
G01X253343Y-2481847D01*
G01X253343Y-2472572D01*
G01X253343Y-2463298D01*
G01X253149Y-2462936D01*
G01X252956Y-2462575D01*
G01X246825Y-2462575D01*
G01X240694Y-2462575D01*
G01X240384Y-2462917D01*
G01X240075Y-2463258D01*
G01X240075Y-2469326D01*
G01X240075Y-2475394D01*
G01X240299Y-2475618D01*
G01X240523Y-2475843D01*
G01X243439Y-2475843D01*
G01X246354Y-2475843D01*
G01X246578Y-2476067D01*
G01X246802Y-2476291D01*
G01X246802Y-2479069D01*
G01X246802Y-2481847D01*
G01X246996Y-2482208D01*
G01X247189Y-2482570D01*
G01X250072Y-2482570D01*
G01X252956Y-2482570D01*
G01X253149Y-2482208D01*
G37*
G36*
G01X294168Y-2502891D02*
G01X294246Y-2502658D01*
G01X294305Y-2499761D01*
G01X294364Y-2496865D01*
G01X294513Y-2496631D01*
G01X294662Y-2496398D01*
G01X297604Y-2496398D01*
G01X300545Y-2496398D01*
G01X300769Y-2496174D01*
G01X300993Y-2495949D01*
G01X300993Y-2493128D01*
G01X300993Y-2490306D01*
G01X300769Y-2490082D01*
G01X300545Y-2489858D01*
G01X291133Y-2489858D01*
G01X281722Y-2489858D01*
G01X281360Y-2490051D01*
G01X280999Y-2490244D01*
G01X280999Y-2496491D01*
G01X280999Y-2502738D01*
G01X281360Y-2502932D01*
G01X281722Y-2503125D01*
G01X287906Y-2503125D01*
G01X294091Y-2503125D01*
G01X294168Y-2502891D01*
G37*
G36*
G01X178309Y-2393575D02*
G01X178402Y-2393154D01*
G01X178452Y-2390426D01*
G01X178502Y-2387698D01*
G01X178759Y-2387389D01*
G01X179015Y-2387081D01*
G01X181979Y-2387081D01*
G01X184942Y-2387081D01*
G01X185046Y-2386660D01*
G01X185150Y-2386240D01*
G01X185096Y-2383530D01*
G01X185043Y-2380821D01*
G01X178876Y-2380769D01*
G01X172710Y-2380717D01*
G01X172289Y-2380819D01*
G01X171869Y-2380921D01*
G01X171869Y-2387097D01*
G01X171869Y-2393272D01*
G01X172062Y-2393634D01*
G01X172256Y-2393995D01*
G01X175235Y-2393995D01*
G01X178215Y-2393995D01*
G01X178309Y-2393575D01*
G37*
G36*
G01X253214Y-2516646D02*
G01X253343Y-2516517D01*
G01X253343Y-2510369D01*
G01X253343Y-2504222D01*
G01X253149Y-2503860D01*
G01X252956Y-2503499D01*
G01X246806Y-2503499D01*
G01X240657Y-2503499D01*
G01X240366Y-2503914D01*
G01X240075Y-2504329D01*
G01X240075Y-2506633D01*
G01X240075Y-2508936D01*
G01X240360Y-2509488D01*
G01X240645Y-2510039D01*
G01X243514Y-2510039D01*
G01X246383Y-2510039D01*
G01X246588Y-2510286D01*
G01X246793Y-2510533D01*
G01X246844Y-2513603D01*
G01X246896Y-2516673D01*
G01X249990Y-2516724D01*
G01X253085Y-2516775D01*
G01X253214Y-2516646D01*
G37*
G36*
G01X341880Y-2543825D02*
G01X342104Y-2543600D01*
G01X342104Y-2540685D01*
G01X342104Y-2537770D01*
G01X342328Y-2537546D01*
G01X342553Y-2537322D01*
G01X345498Y-2537322D01*
G01X348444Y-2537322D01*
G01X348638Y-2536960D01*
G01X348831Y-2536599D01*
G01X348831Y-2533984D01*
G01X348831Y-2531369D01*
G01X348538Y-2531075D01*
G01X348244Y-2530781D01*
G01X342128Y-2530781D01*
G01X336012Y-2530781D01*
G01X335788Y-2531005D01*
G01X335564Y-2531230D01*
G01X335564Y-2537415D01*
G01X335564Y-2543600D01*
G01X335788Y-2543825D01*
G01X336012Y-2544049D01*
G01X338834Y-2544049D01*
G01X341656Y-2544049D01*
G01X341880Y-2543825D01*
G37*
G36*
G01X225946Y-2393701D02*
G01X226060Y-2393404D01*
G01X226060Y-2390725D01*
G01X226060Y-2388046D01*
G01X225947Y-2387750D01*
G01X225833Y-2387455D01*
G01X216049Y-2387455D01*
G01X206265Y-2387455D01*
G01X206067Y-2387825D01*
G01X205869Y-2388196D01*
G01X205920Y-2391049D01*
G01X205972Y-2393902D01*
G01X215902Y-2393950D01*
G01X225832Y-2393998D01*
G01X225946Y-2393701D01*
G37*
G36*
G01X184912Y-2557653D02*
G01X185136Y-2557428D01*
G01X185136Y-2554678D01*
G01X185136Y-2551928D01*
G01X185023Y-2551632D01*
G01X184909Y-2551337D01*
G01X178608Y-2551337D01*
G01X172306Y-2551337D01*
G01X172068Y-2551780D01*
G01X171831Y-2552224D01*
G01X171897Y-2554741D01*
G01X171962Y-2557259D01*
G01X172219Y-2557568D01*
G01X172475Y-2557877D01*
G01X178581Y-2557877D01*
G01X184688Y-2557877D01*
G01X184912Y-2557653D01*
G37*
G36*
G01X327949Y-2502875D02*
G01X328276Y-2502617D01*
G01X328276Y-2496431D01*
G01X328276Y-2490244D01*
G01X327915Y-2490051D01*
G01X327553Y-2489858D01*
G01X325124Y-2489858D01*
G01X322694Y-2489858D01*
G01X322215Y-2490040D01*
G01X321736Y-2490222D01*
G01X321736Y-2496370D01*
G01X321736Y-2502519D01*
G01X322044Y-2502775D01*
G01X322353Y-2503032D01*
G01X324987Y-2503082D01*
G01X327622Y-2503133D01*
G01X327949Y-2502875D01*
G37*
G36*
G01X239408Y-2537028D02*
G01X239701Y-2536734D01*
G01X239701Y-2534049D01*
G01X239701Y-2531363D01*
G01X239286Y-2531072D01*
G01X238871Y-2530781D01*
G01X232766Y-2530781D01*
G01X226661Y-2530781D01*
G01X226547Y-2531077D01*
G01X226434Y-2531372D01*
G01X226434Y-2534347D01*
G01X226434Y-2537322D01*
G01X232774Y-2537322D01*
G01X239114Y-2537322D01*
G01X239408Y-2537028D01*
G37*
G36*
G01X253152Y-2393629D02*
G01X253348Y-2393263D01*
G01X253298Y-2387042D01*
G01X253249Y-2380821D01*
G01X250072Y-2380821D01*
G01X246896Y-2380821D01*
G01X246846Y-2387042D01*
G01X246797Y-2393263D01*
G01X246993Y-2393629D01*
G01X247189Y-2393995D01*
G01X250072Y-2393995D01*
G01X252956Y-2393995D01*
G01X253152Y-2393629D01*
G37*
G36*
G01X294142Y-2441708D02*
G01X294266Y-2441584D01*
G01X294266Y-2434977D01*
G01X294266Y-2428369D01*
G01X291136Y-2428421D01*
G01X288006Y-2428472D01*
G01X287952Y-2434545D01*
G01X287898Y-2440618D01*
G01X288007Y-2441225D01*
G01X288117Y-2441833D01*
G01X291067Y-2441833D01*
G01X294017Y-2441833D01*
G01X294142Y-2441708D01*
G37*
G36*
G01X225975Y-2482335D02*
G01X226065Y-2482100D01*
G01X226016Y-2475748D01*
G01X225967Y-2469396D01*
G01X223095Y-2469344D01*
G01X220224Y-2469292D01*
G01X219965Y-2469507D01*
G01X219707Y-2469722D01*
G01X219707Y-2475921D01*
G01X219707Y-2482121D01*
G01X219931Y-2482345D01*
G01X220155Y-2482570D01*
G01X223020Y-2482570D01*
G01X225885Y-2482570D01*
G01X225975Y-2482335D01*
G37*
G36*
G01X362346Y-2386959D02*
G01X362473Y-2386832D01*
G01X362473Y-2383780D01*
G01X362473Y-2380727D01*
G01X356072Y-2380730D01*
G01X349672Y-2380733D01*
G01X349434Y-2380885D01*
G01X349195Y-2381036D01*
G01X349247Y-2384012D01*
G01X349298Y-2386988D01*
G01X355759Y-2387037D01*
G01X362219Y-2387086D01*
G01X362346Y-2386959D01*
G37*
G36*
G01X266657Y-2482441D02*
G01X266984Y-2482356D01*
G01X267092Y-2481923D01*
G01X267200Y-2481491D01*
G01X267139Y-2478962D01*
G01X267077Y-2476433D01*
G01X266922Y-2476278D01*
G01X266767Y-2476123D01*
G01X264026Y-2476072D01*
G01X261284Y-2476020D01*
G01X261004Y-2476205D01*
G01X260724Y-2476389D01*
G01X260663Y-2479210D01*
G01X260603Y-2482031D01*
G01X260826Y-2482301D01*
G01X261050Y-2482570D01*
G01X263690Y-2482548D01*
G01X266330Y-2482526D01*
G01X266657Y-2482441D01*
G37*
G36*
G01X266657Y-2550647D02*
G01X266984Y-2550562D01*
G01X267092Y-2550130D01*
G01X267200Y-2549698D01*
G01X267139Y-2547169D01*
G01X267077Y-2544639D01*
G01X266922Y-2544484D01*
G01X266767Y-2544329D01*
G01X264026Y-2544278D01*
G01X261284Y-2544227D01*
G01X261004Y-2544411D01*
G01X260724Y-2544595D01*
G01X260663Y-2547416D01*
G01X260603Y-2550238D01*
G01X260826Y-2550507D01*
G01X261050Y-2550776D01*
G01X263690Y-2550754D01*
G01X266330Y-2550733D01*
G01X266657Y-2550647D01*
G37*
G36*
G01X348632Y-2482126D02*
G01X348869Y-2481683D01*
G01X348803Y-2479165D01*
G01X348738Y-2476647D01*
G01X348471Y-2476325D01*
G01X348203Y-2476003D01*
G01X345427Y-2476063D01*
G01X342650Y-2476123D01*
G01X342474Y-2476403D01*
G01X342297Y-2476683D01*
G01X342294Y-2479402D01*
G01X342291Y-2482121D01*
G01X342515Y-2482345D01*
G01X342739Y-2482570D01*
G01X345567Y-2482570D01*
G01X348394Y-2482570D01*
G01X348632Y-2482126D01*
G37*
G36*
G01X205446Y-2421231D02*
G01X205597Y-2420997D01*
G01X205663Y-2418605D01*
G01X205730Y-2416213D01*
G01X205609Y-2415569D01*
G01X205488Y-2414924D01*
G01X202513Y-2414924D01*
G01X199538Y-2414924D01*
G01X199345Y-2415285D01*
G01X199151Y-2415647D01*
G01X199151Y-2418076D01*
G01X199151Y-2420506D01*
G01X199333Y-2420985D01*
G01X199516Y-2421464D01*
G01X202406Y-2421464D01*
G01X205296Y-2421464D01*
G01X205446Y-2421231D01*
G37*
G36*
G01X239392Y-2482228D02*
G01X239701Y-2481886D01*
G01X239701Y-2479060D01*
G01X239701Y-2476233D01*
G01X239057Y-2476112D01*
G01X238412Y-2475991D01*
G01X236020Y-2476058D01*
G01X233628Y-2476124D01*
G01X233395Y-2476274D01*
G01X233161Y-2476425D01*
G01X233161Y-2479207D01*
G01X233161Y-2481988D01*
G01X233576Y-2482279D01*
G01X233992Y-2482570D01*
G01X236537Y-2482570D01*
G01X239083Y-2482570D01*
G01X239392Y-2482228D01*
G37*
G36*
G01X267053Y-2400489D02*
G01X267166Y-2400068D01*
G01X267168Y-2397522D01*
G01X267171Y-2394975D01*
G01X266862Y-2394719D01*
G01X266553Y-2394462D01*
G01X264035Y-2394397D01*
G01X261517Y-2394331D01*
G01X261074Y-2394568D01*
G01X260630Y-2394806D01*
G01X260630Y-2397744D01*
G01X260630Y-2400682D01*
G01X260926Y-2400796D01*
G01X261221Y-2400909D01*
G01X264081Y-2400909D01*
G01X266940Y-2400909D01*
G01X267053Y-2400489D01*
G37*
G36*
G01X267053Y-2536901D02*
G01X267166Y-2536481D01*
G01X267168Y-2533934D01*
G01X267171Y-2531388D01*
G01X266862Y-2531131D01*
G01X266553Y-2530875D01*
G01X264035Y-2530809D01*
G01X261517Y-2530743D01*
G01X261074Y-2530981D01*
G01X260630Y-2531218D01*
G01X260630Y-2534046D01*
G01X260630Y-2536873D01*
G01X260855Y-2537097D01*
G01X261079Y-2537322D01*
G01X264009Y-2537322D01*
G01X266940Y-2537322D01*
G01X267053Y-2536901D01*
G37*
G36*
G01X212219Y-2482126D02*
G01X212457Y-2481683D01*
G01X212391Y-2479165D01*
G01X212325Y-2476647D01*
G01X212069Y-2476338D01*
G01X211812Y-2476029D01*
G01X209266Y-2476032D01*
G01X206719Y-2476034D01*
G01X206299Y-2476147D01*
G01X205878Y-2476260D01*
G01X205878Y-2479191D01*
G01X205878Y-2482121D01*
G01X206103Y-2482345D01*
G01X206327Y-2482570D01*
G01X209154Y-2482570D01*
G01X211982Y-2482570D01*
G01X212219Y-2482126D01*
G37*
G36*
G01X267053Y-2468695D02*
G01X267166Y-2468274D01*
G01X267165Y-2465752D01*
G01X267165Y-2463229D01*
G01X266988Y-2462949D01*
G01X266811Y-2462668D01*
G01X264163Y-2462603D01*
G01X261516Y-2462538D01*
G01X261073Y-2462775D01*
G01X260630Y-2463012D01*
G01X260630Y-2465950D01*
G01X260630Y-2468888D01*
G01X260926Y-2469002D01*
G01X261221Y-2469115D01*
G01X264081Y-2469115D01*
G01X266940Y-2469115D01*
G01X267053Y-2468695D01*
G37*
G36*
G01X348655Y-2550383D02*
G01X348866Y-2549989D01*
G01X348802Y-2547292D01*
G01X348738Y-2544595D01*
G01X348458Y-2544418D01*
G01X348177Y-2544241D01*
G01X345655Y-2544241D01*
G01X343132Y-2544241D01*
G01X342711Y-2544353D01*
G01X342291Y-2544466D01*
G01X342291Y-2547397D01*
G01X342291Y-2550327D01*
G01X342515Y-2550552D01*
G01X342739Y-2550776D01*
G01X345592Y-2550776D01*
G01X348444Y-2550776D01*
G01X348655Y-2550383D01*
G37*
G36*
G01X218945Y-2461874D02*
G01X219345Y-2461547D01*
G01X219292Y-2458651D01*
G01X219239Y-2455754D01*
G01X216363Y-2455703D01*
G01X213487Y-2455651D01*
G01X213140Y-2455965D01*
G01X212792Y-2456279D01*
G01X212792Y-2459016D01*
G01X212792Y-2461753D01*
G01X213017Y-2461977D01*
G01X213241Y-2462201D01*
G01X215892Y-2462201D01*
G01X218544Y-2462201D01*
G01X218945Y-2461874D01*
G37*
G36*
G01X212109Y-2570990D02*
G01X212419Y-2570648D01*
G01X212419Y-2568035D01*
G01X212419Y-2565423D01*
G01X212184Y-2565102D01*
G01X211949Y-2564781D01*
G01X208961Y-2564833D01*
G01X205972Y-2564884D01*
G01X205920Y-2567873D01*
G01X205868Y-2570862D01*
G01X206189Y-2571097D01*
G01X206510Y-2571331D01*
G01X209155Y-2571331D01*
G01X211800Y-2571331D01*
G01X212109Y-2570990D01*
G37*
G36*
G01X280443Y-2509560D02*
G01X280625Y-2509080D01*
G01X280625Y-2506606D01*
G01X280625Y-2504131D01*
G01X280390Y-2503810D01*
G01X280156Y-2503489D01*
G01X277167Y-2503540D01*
G01X274178Y-2503592D01*
G01X274127Y-2506557D01*
G01X274075Y-2509522D01*
G01X274290Y-2509781D01*
G01X274504Y-2510039D01*
G01X277382Y-2510039D01*
G01X280261Y-2510039D01*
G01X280443Y-2509560D01*
G37*
G36*
G01X273704Y-2502764D02*
G01X273898Y-2502402D01*
G01X273898Y-2499973D01*
G01X273898Y-2497543D01*
G01X273714Y-2497059D01*
G01X273530Y-2496575D01*
G01X270490Y-2496627D01*
G01X267451Y-2496678D01*
G01X267399Y-2499643D01*
G01X267348Y-2502608D01*
G01X267562Y-2502866D01*
G01X267777Y-2503125D01*
G01X270644Y-2503125D01*
G01X273511Y-2503125D01*
G01X273704Y-2502764D01*
G37*
G36*
G01X266610Y-2428025D02*
G01X267077Y-2427895D01*
G01X267129Y-2425032D01*
G01X267181Y-2422169D01*
G01X266966Y-2421910D01*
G01X266751Y-2421651D01*
G01X264052Y-2421651D01*
G01X261353Y-2421651D01*
G01X260992Y-2421845D01*
G01X260630Y-2422038D01*
G01X260630Y-2424921D01*
G01X260630Y-2427805D01*
G01X260992Y-2427998D01*
G01X261353Y-2428192D01*
G01X263748Y-2428173D01*
G01X266143Y-2428154D01*
G01X266610Y-2428025D01*
G37*
G36*
G01X171302Y-2441471D02*
G01X171495Y-2441110D01*
G01X171495Y-2438425D01*
G01X171495Y-2435741D01*
G01X171271Y-2435517D01*
G01X171047Y-2435292D01*
G01X168310Y-2435292D01*
G01X165573Y-2435292D01*
G01X165264Y-2435634D01*
G01X164955Y-2435976D01*
G01X164955Y-2438489D01*
G01X164955Y-2441002D01*
G01X165246Y-2441417D01*
G01X165536Y-2441833D01*
G01X168322Y-2441833D01*
G01X171108Y-2441833D01*
G01X171302Y-2441471D01*
G37*
G36*
G01X266988Y-2577766D02*
G01X267171Y-2577287D01*
G01X267168Y-2574916D01*
G01X267166Y-2572546D01*
G01X267053Y-2572125D01*
G01X266940Y-2571705D01*
G01X264094Y-2571705D01*
G01X261249Y-2571705D01*
G01X260940Y-2572047D01*
G01X260630Y-2572388D01*
G01X260630Y-2574902D01*
G01X260630Y-2577415D01*
G01X260921Y-2577830D01*
G01X261212Y-2578245D01*
G01X264009Y-2578245D01*
G01X266806Y-2578245D01*
G01X266988Y-2577766D01*
G37*
G36*
G01X205575Y-2577661D02*
G01X205692Y-2577077D01*
G01X205692Y-2574753D01*
G01X205692Y-2572428D01*
G01X205498Y-2572066D01*
G01X205305Y-2571705D01*
G01X202421Y-2571705D01*
G01X199538Y-2571705D01*
G01X199345Y-2572066D01*
G01X199151Y-2572428D01*
G01X199151Y-2574857D01*
G01X199151Y-2577287D01*
G01X199333Y-2577766D01*
G01X199516Y-2578245D01*
G01X202487Y-2578245D01*
G01X205458Y-2578245D01*
G01X205575Y-2577661D01*
G37*
G36*
G01X355325Y-2543856D02*
G01X355745Y-2543687D01*
G01X355745Y-2540803D01*
G01X355745Y-2537919D01*
G01X355157Y-2537714D01*
G01X354568Y-2537508D01*
G01X352248Y-2537508D01*
G01X349928Y-2537508D01*
G01X349566Y-2537702D01*
G01X349205Y-2537895D01*
G01X349205Y-2540859D01*
G01X349205Y-2543822D01*
G01X349501Y-2543935D01*
G01X349796Y-2544049D01*
G01X352350Y-2544037D01*
G01X354904Y-2544025D01*
G01X355325Y-2543856D01*
G37*
G36*
G01X185012Y-2543924D02*
G01X185136Y-2543800D01*
G01X185136Y-2540878D01*
G01X185136Y-2537957D01*
G01X184912Y-2537733D01*
G01X184688Y-2537508D01*
G01X181866Y-2537508D01*
G01X179044Y-2537508D01*
G01X178820Y-2537733D01*
G01X178596Y-2537957D01*
G01X178596Y-2540779D01*
G01X178596Y-2543600D01*
G01X178820Y-2543825D01*
G01X179044Y-2544049D01*
G01X181966Y-2544049D01*
G01X184887Y-2544049D01*
G01X185012Y-2543924D01*
G37*
G36*
G01X321325Y-2434695D02*
G01X321549Y-2434470D01*
G01X321549Y-2431538D01*
G01X321549Y-2428605D01*
G01X321253Y-2428492D01*
G01X320958Y-2428378D01*
G01X318165Y-2428378D01*
G01X315373Y-2428378D01*
G01X315191Y-2428858D01*
G01X315008Y-2429337D01*
G01X315008Y-2431766D01*
G01X315008Y-2434196D01*
G01X315202Y-2434557D01*
G01X315395Y-2434919D01*
G01X318248Y-2434919D01*
G01X321100Y-2434919D01*
G01X321325Y-2434695D01*
G37*
G36*
G01X171370Y-2400784D02*
G01X171495Y-2400660D01*
G01X171495Y-2397708D01*
G01X171495Y-2394756D01*
G01X171134Y-2394562D01*
G01X170772Y-2394369D01*
G01X168343Y-2394369D01*
G01X165913Y-2394369D01*
G01X165434Y-2394551D01*
G01X164955Y-2394733D01*
G01X164955Y-2397628D01*
G01X164955Y-2400522D01*
G01X165316Y-2400716D01*
G01X165678Y-2400909D01*
G01X168462Y-2400909D01*
G01X171246Y-2400909D01*
G01X171370Y-2400784D01*
G37*
G36*
G01X184943Y-2482208D02*
G01X185136Y-2481847D01*
G01X185136Y-2479162D01*
G01X185136Y-2476478D01*
G01X184912Y-2476254D01*
G01X184688Y-2476029D01*
G01X181824Y-2476029D01*
G01X178960Y-2476029D01*
G01X178778Y-2476509D01*
G01X178596Y-2476988D01*
G01X178596Y-2479417D01*
G01X178596Y-2481847D01*
G01X178789Y-2482208D01*
G01X178983Y-2482570D01*
G01X181866Y-2482570D01*
G01X184749Y-2482570D01*
G01X184943Y-2482208D01*
G37*
G36*
G01X280334Y-2529992D02*
G01X280625Y-2529577D01*
G01X280622Y-2527142D01*
G01X280620Y-2524708D01*
G01X280507Y-2524288D01*
G01X280395Y-2523867D01*
G01X277353Y-2523867D01*
G01X274312Y-2523867D01*
G01X274198Y-2524163D01*
G01X274085Y-2524458D01*
G01X274085Y-2527139D01*
G01X274085Y-2529820D01*
G01X274378Y-2530114D01*
G01X274672Y-2530408D01*
G01X277358Y-2530408D01*
G01X280043Y-2530408D01*
G01X280334Y-2529992D01*
G37*
G36*
G01X266988Y-2509560D02*
G01X267171Y-2509080D01*
G01X267168Y-2506710D01*
G01X267166Y-2504340D01*
G01X267053Y-2503919D01*
G01X266940Y-2503499D01*
G01X264094Y-2503499D01*
G01X261249Y-2503499D01*
G01X260940Y-2503840D01*
G01X260630Y-2504182D01*
G01X260630Y-2506695D01*
G01X260630Y-2509208D01*
G01X260921Y-2509624D01*
G01X261212Y-2510039D01*
G01X264009Y-2510039D01*
G01X266806Y-2510039D01*
G01X266988Y-2509560D01*
G37*
G36*
G01X314401Y-2496205D02*
G01X314822Y-2496036D01*
G01X314822Y-2493242D01*
G01X314822Y-2490449D01*
G01X314708Y-2490153D01*
G01X314595Y-2489858D01*
G01X311799Y-2489858D01*
G01X309004Y-2489858D01*
G01X308643Y-2490051D01*
G01X308281Y-2490244D01*
G01X308281Y-2493128D01*
G01X308281Y-2496011D01*
G01X308643Y-2496204D01*
G01X309004Y-2496398D01*
G01X311492Y-2496386D01*
G01X313981Y-2496374D01*
G01X314401Y-2496205D01*
G37*
G36*
G01X266750Y-2496205D02*
G01X267171Y-2496036D01*
G01X267171Y-2493129D01*
G01X267171Y-2490222D01*
G01X266691Y-2490040D01*
G01X266212Y-2489858D01*
G01X263783Y-2489858D01*
G01X261353Y-2489858D01*
G01X260992Y-2490051D01*
G01X260630Y-2490244D01*
G01X260630Y-2493128D01*
G01X260630Y-2496011D01*
G01X260992Y-2496204D01*
G01X261353Y-2496398D01*
G01X263841Y-2496386D01*
G01X266330Y-2496374D01*
G01X266750Y-2496205D01*
G37*
G36*
G01X246195Y-2496205D02*
G01X246615Y-2496036D01*
G01X246615Y-2493242D01*
G01X246615Y-2490449D01*
G01X246502Y-2490153D01*
G01X246388Y-2489858D01*
G01X243593Y-2489858D01*
G01X240798Y-2489858D01*
G01X240436Y-2490051D01*
G01X240075Y-2490244D01*
G01X240075Y-2493128D01*
G01X240075Y-2496011D01*
G01X240436Y-2496204D01*
G01X240798Y-2496398D01*
G01X243286Y-2496386D01*
G01X245774Y-2496374D01*
G01X246195Y-2496205D01*
G37*
G36*
G01X321355Y-2461840D02*
G01X321549Y-2461478D01*
G01X321549Y-2459049D01*
G01X321549Y-2456620D01*
G01X321367Y-2456140D01*
G01X321184Y-2455661D01*
G01X318302Y-2455661D01*
G01X315419Y-2455661D01*
G01X315214Y-2456249D01*
G01X315008Y-2456838D01*
G01X315008Y-2459158D01*
G01X315008Y-2461478D01*
G01X315202Y-2461840D01*
G01X315395Y-2462201D01*
G01X318279Y-2462201D01*
G01X321162Y-2462201D01*
G01X321355Y-2461840D01*
G37*
G36*
G01X280420Y-2441244D02*
G01X280625Y-2440656D01*
G01X280625Y-2438389D01*
G01X280625Y-2436123D01*
G01X280334Y-2435708D01*
G01X280043Y-2435292D01*
G01X277358Y-2435292D01*
G01X274672Y-2435292D01*
G01X274378Y-2435586D01*
G01X274085Y-2435880D01*
G01X274085Y-2438561D01*
G01X274085Y-2441242D01*
G01X274198Y-2441537D01*
G01X274312Y-2441833D01*
G01X277263Y-2441833D01*
G01X280215Y-2441833D01*
G01X280420Y-2441244D01*
G37*
G36*
G01X355019Y-2421347D02*
G01X355320Y-2421260D01*
G01X355532Y-2420793D01*
G01X355745Y-2420326D01*
G01X355745Y-2417849D01*
G01X355745Y-2415373D01*
G01X355521Y-2415148D01*
G01X355297Y-2414924D01*
G01X352461Y-2414924D01*
G01X349624Y-2414924D01*
G01X349401Y-2415193D01*
G01X349178Y-2415462D01*
G01X349238Y-2418261D01*
G01X349298Y-2421061D01*
G01X349454Y-2421216D01*
G01X349609Y-2421371D01*
G01X352163Y-2421403D01*
G01X354718Y-2421435D01*
G01X355019Y-2421347D01*
G37*
G36*
G01X266943Y-2441506D02*
G01X267077Y-2441179D01*
G01X267077Y-2438438D01*
G01X267077Y-2435697D01*
G01X266922Y-2435542D01*
G01X266767Y-2435386D01*
G01X264056Y-2435325D01*
G01X261345Y-2435264D01*
G01X260988Y-2435588D01*
G01X260630Y-2435911D01*
G01X260630Y-2438510D01*
G01X260630Y-2441110D01*
G01X260824Y-2441471D01*
G01X261017Y-2441833D01*
G01X263913Y-2441833D01*
G01X266809Y-2441833D01*
G01X266943Y-2441506D01*
G37*
G36*
G01X239505Y-2550507D02*
G01X239729Y-2550238D01*
G01X239668Y-2547439D01*
G01X239608Y-2544639D01*
G01X239452Y-2544484D01*
G01X239296Y-2544329D01*
G01X236556Y-2544329D01*
G01X233815Y-2544329D01*
G01X233488Y-2544463D01*
G01X233161Y-2544598D01*
G01X233161Y-2547396D01*
G01X233161Y-2550194D01*
G01X233576Y-2550485D01*
G01X233992Y-2550776D01*
G01X236637Y-2550776D01*
G01X239282Y-2550776D01*
G01X239505Y-2550507D01*
G37*
G36*
G01X362388Y-2414127D02*
G01X362482Y-2413881D01*
G01X362431Y-2410899D01*
G01X362379Y-2407917D01*
G01X359463Y-2407865D01*
G01X356546Y-2407814D01*
G01X356328Y-2408077D01*
G01X356109Y-2408340D01*
G01X356161Y-2411305D01*
G01X356213Y-2414270D01*
G01X359253Y-2414321D01*
G01X362294Y-2414373D01*
G01X362388Y-2414127D01*
G37*
G36*
G01X362390Y-2482329D02*
G01X362482Y-2482088D01*
G01X362431Y-2479105D01*
G01X362379Y-2476123D01*
G01X359508Y-2476071D01*
G01X356637Y-2476019D01*
G01X356378Y-2476234D01*
G01X356119Y-2476449D01*
G01X356119Y-2479285D01*
G01X356119Y-2482121D01*
G01X356343Y-2482345D01*
G01X356568Y-2482570D01*
G01X359432Y-2482570D01*
G01X362297Y-2482570D01*
G01X362390Y-2482329D01*
G37*
G36*
G01X225977Y-2543808D02*
G01X226070Y-2543567D01*
G01X226018Y-2540584D01*
G01X225967Y-2537602D01*
G01X223095Y-2537550D01*
G01X220224Y-2537498D01*
G01X219965Y-2537713D01*
G01X219707Y-2537928D01*
G01X219707Y-2540764D01*
G01X219707Y-2543600D01*
G01X219931Y-2543825D01*
G01X220155Y-2544049D01*
G01X223020Y-2544049D01*
G01X225885Y-2544049D01*
G01X225977Y-2543808D01*
G37*
G36*
G01X246491Y-2455163D02*
G01X246615Y-2455038D01*
G01X246615Y-2451981D01*
G01X246615Y-2448925D01*
G01X243392Y-2448976D01*
G01X240168Y-2449027D01*
G01X240117Y-2451898D01*
G01X240065Y-2454770D01*
G01X240280Y-2455028D01*
G01X240494Y-2455287D01*
G01X243430Y-2455287D01*
G01X246366Y-2455287D01*
G01X246491Y-2455163D01*
G37*
G36*
G01X246502Y-2523198D02*
G01X246615Y-2522902D01*
G01X246615Y-2520021D01*
G01X246615Y-2517140D01*
G01X243641Y-2517140D01*
G01X240666Y-2517140D01*
G01X240371Y-2517253D01*
G01X240075Y-2517367D01*
G01X240075Y-2520206D01*
G01X240075Y-2523045D01*
G01X240299Y-2523269D01*
G01X240523Y-2523493D01*
G01X243456Y-2523493D01*
G01X246388Y-2523493D01*
G01X246502Y-2523198D01*
G37*
G36*
G01X232663Y-2468991D02*
G01X232787Y-2468866D01*
G01X232787Y-2465945D01*
G01X232787Y-2463023D01*
G01X232563Y-2462799D01*
G01X232339Y-2462575D01*
G01X229500Y-2462575D01*
G01X226661Y-2462575D01*
G01X226547Y-2462871D01*
G01X226434Y-2463166D01*
G01X226434Y-2466141D01*
G01X226434Y-2469115D01*
G01X229486Y-2469115D01*
G01X232538Y-2469115D01*
G01X232663Y-2468991D01*
G37*
G36*
G01X362382Y-2502705D02*
G01X362486Y-2502284D01*
G01X362433Y-2499481D01*
G01X362379Y-2496678D01*
G01X359296Y-2496678D01*
G01X356213Y-2496678D01*
G01X356161Y-2499643D01*
G01X356109Y-2502608D01*
G01X356324Y-2502866D01*
G01X356539Y-2503125D01*
G01X359409Y-2503125D01*
G01X362279Y-2503125D01*
G01X362382Y-2502705D01*
G37*
G36*
G01X267081Y-2454867D02*
G01X267184Y-2454446D01*
G01X267131Y-2451737D01*
G01X267077Y-2449027D01*
G01X263900Y-2449027D01*
G01X260724Y-2449027D01*
G01X260672Y-2451898D01*
G01X260620Y-2454770D01*
G01X260835Y-2455028D01*
G01X261050Y-2455287D01*
G01X264013Y-2455287D01*
G01X266977Y-2455287D01*
G01X267081Y-2454867D01*
G37*
G36*
G01X273769Y-2584852D02*
G01X273898Y-2584723D01*
G01X273895Y-2581905D01*
G01X273892Y-2579086D01*
G01X273741Y-2578848D01*
G01X273590Y-2578610D01*
G01X270520Y-2578661D01*
G01X267451Y-2578713D01*
G01X267451Y-2581796D01*
G01X267451Y-2584879D01*
G01X270545Y-2584930D01*
G01X273640Y-2584981D01*
G01X273769Y-2584852D01*
G37*
G36*
G01X273769Y-2516646D02*
G01X273898Y-2516517D01*
G01X273895Y-2513699D01*
G01X273892Y-2510880D01*
G01X273741Y-2510642D01*
G01X273590Y-2510403D01*
G01X270520Y-2510455D01*
G01X267451Y-2510506D01*
G01X267451Y-2513590D01*
G01X267451Y-2516673D01*
G01X270545Y-2516724D01*
G01X273640Y-2516775D01*
G01X273769Y-2516646D01*
G37*
G36*
G01X266860Y-2523259D02*
G01X267181Y-2523024D01*
G01X267129Y-2520129D01*
G01X267077Y-2517233D01*
G01X263900Y-2517233D01*
G01X260724Y-2517233D01*
G01X260672Y-2520105D01*
G01X260620Y-2522976D01*
G01X260835Y-2523235D01*
G01X261050Y-2523493D01*
G01X263794Y-2523493D01*
G01X266539Y-2523493D01*
G01X266860Y-2523259D01*
G37*
G36*
G01X266966Y-2386822D02*
G01X267181Y-2386563D01*
G01X267129Y-2383692D01*
G01X267077Y-2380821D01*
G01X263900Y-2380821D01*
G01X260724Y-2380821D01*
G01X260672Y-2383692D01*
G01X260620Y-2386563D01*
G01X260835Y-2386822D01*
G01X261050Y-2387081D01*
G01X263900Y-2387081D01*
G01X266751Y-2387081D01*
G01X266966Y-2386822D01*
G37*
G36*
G01X164352Y-2434764D02*
G01X164590Y-2434610D01*
G01X164539Y-2431541D01*
G01X164488Y-2428472D01*
G01X161404Y-2428472D01*
G01X158321Y-2428472D01*
G01X158321Y-2431649D01*
G01X158321Y-2434825D01*
G01X161217Y-2434872D01*
G01X164114Y-2434918D01*
G01X164352Y-2434764D01*
G37*
%LPC*%
G36*
G01X171987Y-2591686D02*
G01X171495Y-2591299D01*
G01X171495Y-2588420D01*
G01X171495Y-2585540D01*
G01X171075Y-2585436D01*
G01X170654Y-2585333D01*
G01X167851Y-2585386D01*
G01X165048Y-2585440D01*
G01X165000Y-2588430D01*
G01X164953Y-2591419D01*
G01X164559Y-2591746D01*
G01X164166Y-2592073D01*
G01X161301Y-2592073D01*
G01X158436Y-2592073D01*
G01X158145Y-2591658D01*
G01X157854Y-2591243D01*
G01X157854Y-2588295D01*
G01X157854Y-2585346D01*
G01X154905Y-2585346D01*
G01X151957Y-2585346D01*
G01X151542Y-2585055D01*
G01X151127Y-2584764D01*
G01X151127Y-2581920D01*
G01X151127Y-2579076D01*
G01X151417Y-2578661D01*
G01X151708Y-2578245D01*
G01X154677Y-2578245D01*
G01X157646Y-2578245D01*
G01X157937Y-2578661D01*
G01X158227Y-2579076D01*
G01X158227Y-2582024D01*
G01X158227Y-2584973D01*
G01X161404Y-2584973D01*
G01X164581Y-2584973D01*
G01X164581Y-2582018D01*
G01X164581Y-2579064D01*
G01X164846Y-2578702D01*
G01X165111Y-2578339D01*
G01X171592Y-2578285D01*
G01X178073Y-2578231D01*
G01X178335Y-2578448D01*
G01X178596Y-2578665D01*
G01X178596Y-2585145D01*
G01X178596Y-2591625D01*
G01X178372Y-2591849D01*
G01X178147Y-2592073D01*
G01X175314Y-2592073D01*
G01X172480Y-2592073D01*
G01X171987Y-2591686D01*
G37*
G36*
G01X212727Y-2591724D02*
G01X212419Y-2591467D01*
G01X212419Y-2588414D01*
G01X212419Y-2585361D01*
G01X213213Y-2585147D01*
G01X214007Y-2584933D01*
G01X216552Y-2585003D01*
G01X219096Y-2585072D01*
G01X219401Y-2585326D01*
G01X219707Y-2585579D01*
G01X219707Y-2588417D01*
G01X219707Y-2591255D01*
G01X219473Y-2591555D01*
G01X219239Y-2591855D01*
G01X218866Y-2591949D01*
G01X218492Y-2592043D01*
G01X215764Y-2592012D01*
G01X213035Y-2591980D01*
G01X212727Y-2591724D01*
G37*
G36*
G01X151514Y-2571213D02*
G01X151127Y-2570720D01*
G01X151127Y-2567886D01*
G01X151127Y-2565053D01*
G01X151351Y-2564828D01*
G01X151575Y-2564604D01*
G01X154703Y-2564604D01*
G01X157832Y-2564604D01*
G01X157980Y-2564838D01*
G01X158128Y-2565071D01*
G01X158197Y-2567799D01*
G01X158267Y-2570526D01*
G01X157962Y-2571116D01*
G01X157657Y-2571705D01*
G01X154779Y-2571705D01*
G01X151901Y-2571705D01*
G01X151514Y-2571213D01*
G37*
G36*
G01X226351Y-2591658D02*
G01X226060Y-2591243D01*
G01X226060Y-2588449D01*
G01X226060Y-2585656D01*
G01X226369Y-2585314D01*
G01X226679Y-2584973D01*
G01X229504Y-2584973D01*
G01X232330Y-2584973D01*
G01X232746Y-2585263D01*
G01X233161Y-2585554D01*
G01X233161Y-2588523D01*
G01X233161Y-2591492D01*
G01X232746Y-2591783D01*
G01X232330Y-2592073D01*
G01X229486Y-2592073D01*
G01X226642Y-2592073D01*
G01X226351Y-2591658D01*
G37*
%LPD*%
G04 Image End*

G04 Pad Start*
G54D10*
G01X8211500Y-2698000D03*
G54D11*
G01X8211500Y-2444000D03*
G01X8211500Y-2190000D03*
G01X8211500Y-1936000D03*
G01X8211500Y-1682000D03*
G01X8211500Y-1428000D03*
G01X8211500Y-1174000D03*
G01X8211500Y-920000D03*
G54D12*
G01X8124254Y-609943D03*
G01X8284147Y-609257D03*
G54D13*
G01X8142300Y-3048000D03*
G01X8342300Y-3048000D03*
G04 Pad End*

M02*

