;TYPE=PLATED
;Layer: PTH_Through
;EasyEDA Pro v2.2.32.3, 2025-11-09 01:42:39
;Gerber Generator version 0.3
M48
METRIC,LZ,000.00000
;Hole size 1 = 0.30500 METRIC
T01C0.30500
;Hole size 2 = 1.00000 METRIC
T02C1.00000
;Hole size 3 = 2.00000 METRIC
T03C2.00000
%
G05
G90
T01
X10.51814Y-30.74186
X10.51814Y-25.66186
X10.51814Y-20.58186
X10.51814Y-15.50186
X10.51814Y-10.42186
X10.51814Y-5.34186
X15.59814Y-30.74186
X15.59814Y-20.58186
X15.59814Y-15.50186
X15.59814Y-5.34186
X20.67814Y-30.74186
X20.67814Y-25.66186
X20.67814Y-10.42186
X20.67814Y-5.34186
X25.75814Y-5.34186
X30.83814Y-30.74186
X30.83814Y-25.66186
X30.83814Y-10.42186
X30.83814Y-5.34186
X35.91814Y-30.74186
X35.91814Y-25.66186
X35.91814Y-10.42186
X35.91814Y-5.34186
X40.99814Y-30.74186
X40.99814Y-25.66186
X40.99814Y-10.42186
X40.99814Y-5.34186
X46.07814Y-30.74186
X46.07814Y-25.66186
X46.07814Y-10.42186
X46.07814Y-5.34186
X51.15814Y-30.74186
X51.15814Y-25.66186
X51.15814Y-10.42186
X51.15814Y-5.34186
X56.23814Y-30.74186
X56.23814Y-25.66186
X56.23814Y-10.42186
X56.23814Y-5.34186
X61.31814Y-30.74186
X61.31814Y-25.66186
X61.31814Y-10.42186
X61.31814Y-5.34186
X66.39814Y-30.74186
X66.39814Y-25.66186
X66.39814Y-10.42186
X66.39814Y-5.34186
X71.47814Y-30.74186
X71.47814Y-25.66186
X71.47814Y-10.42186
X71.47814Y-5.34186
X76.55814Y-30.74186
X76.55814Y-25.66186
X76.55814Y-20.58186
X76.55814Y-10.42186
X76.55814Y-5.34186
X81.63814Y-5.34186
X86.71814Y-30.74186
X86.71814Y-25.66186
X86.71814Y-20.58186
X86.71814Y-15.50186
X86.71814Y-10.42186
X86.71814Y-5.34186
X28.11656Y-18.06814
X33.19656Y-18.06814
X43.35656Y-18.06814
X48.43656Y-18.06814
X53.51656Y-18.06814
X58.59656Y-18.06814
X63.67656Y-18.06814
X68.75656Y-18.06814
X73.83656Y-18.06814
X78.91656Y-23.14814
X27.61457Y-18.82286
X32.69457Y-18.82286
T02
X82.115Y-26.98
X82.115Y-24.44
X82.115Y-21.9
X82.115Y-19.36
X82.115Y-16.82
X82.115Y-14.28
X82.115Y-11.74
X82.115Y-9.2
T03
X85.46Y-2.54
X85.46Y-33.64
X2.54Y-2.54
X2.54Y-33.64
M30