G04 Layer: BottomLayer*
G04 EasyEDA Pro v2.2.32.3, 2025-11-09 01:42:38*
G04 Gerber Generator version 0.3*
G04 Scale: 100 percent, Rotated: No, Reflected: No*
G04 Dimensions in millimeters*
G04 Leading zeros omitted, absolute positions, 3 integers and 5 decimals*
%FSLAX35Y35*%
%MOMM*%
%ADD10C,0.2032*%
%ADD11C,0.254*%
%ADD12R,1.5X1.5*%
%ADD13C,1.5*%
%ADD14R,1.37701X1.13254*%
%ADD15R,1.75X0.3*%
%ADD16R,2.5050X2.0*%
%ADD17R,2.49999X2.0*%
%ADD18R,0.8X0.9*%
%ADD19C,3.0*%
%ADD20C,0.61*%
%ADD21C,0.5*%
%ADD22C,0.3*%
G75*


G04 Copper Start*
G36*
G01X35814Y-254000D02*
G02X254000Y-35814I218186J0D01*
G01X8546000Y-35814D01*
G02X8764186Y-254000I0J-218186D01*
G01X8764186Y-3364000D01*
G02X8546000Y-3582186I-218186J0D01*
G01X254000Y-3582186D01*
G02X35814Y-3364000I0J218186D01*
G01X35814Y-254000D01*
G37*
%LPC*%
G36*
G01X68186Y-3364000D02*
G03X439814Y-3364000I185814J0D01*
G03X68186Y-3364000I-185814J0D01*
G37*
G36*
G01X68186Y-254000D02*
G03X439814Y-254000I185814J0D01*
G03X68186Y-254000I-185814J0D01*
G37*
G36*
G01X633400Y-3399814D02*
G03X729435Y-3360035I0J135814D01*
G03X769214Y-3264000I-96035J96035D01*
G01X769214Y-354000D01*
G03X633400Y-218186I-135814J0D01*
G03X497586Y-354000I0J-135814D01*
G01X497586Y-3264000D01*
G03X633400Y-3399814I135814J0D01*
G37*
G36*
G01X1761547Y-2688818D02*
G03X1797361Y-2653004I0J35814D01*
G01X1797361Y-2453004D01*
G03X1761547Y-2417190I-35814J0D01*
G01X1511548Y-2417190D01*
G03X1475734Y-2453004I0J-35814D01*
G01X1475734Y-2653004D01*
G03X1511548Y-2688818I35814J0D01*
G01X1761547Y-2688818D01*
G37*
G36*
G01X1761547Y-1200810D02*
G03X1797361Y-1164996I0J35814D01*
G01X1797361Y-964996D01*
G03X1761547Y-929182I-35814J0D01*
G01X1511548Y-929182D01*
G03X1475734Y-964996I0J-35814D01*
G01X1475734Y-1164996D01*
G03X1511548Y-1200810I35814J0D01*
G01X1761547Y-1200810D01*
G37*
G36*
G01X1795686Y-1819006D02*
G01X1795686Y-1849006D01*
G03X1797112Y-1859013I35814J0D01*
G03X1795686Y-1869019I34388J-10006D01*
G01X1795686Y-1899019D01*
G03X1797109Y-1909012I35814J0D01*
G03X1795686Y-1919006I34391J-9994D01*
G01X1795686Y-1949006D01*
G03X1797112Y-1959012I35814J0D01*
G03X1795686Y-1969019I34388J-10006D01*
G01X1795686Y-1999019D01*
G03X1797109Y-2009012I35814J0D01*
G03X1795686Y-2019006I34391J-9994D01*
G01X1795686Y-2049006D01*
G03X1797112Y-2059012I35814J0D01*
G03X1795686Y-2069018I34388J-10006D01*
G01X1795686Y-2099018D01*
G03X1797109Y-2109012I35814J0D01*
G03X1795686Y-2119006I34391J-9994D01*
G01X1795686Y-2149006D01*
G03X1797112Y-2159012I35814J0D01*
G03X1795686Y-2169018I34388J-10006D01*
G01X1795686Y-2199018D01*
G03X1797109Y-2209012I35814J0D01*
G03X1795686Y-2219005I34391J-9994D01*
G01X1795686Y-2249005D01*
G03X1797112Y-2259012I35814J0D01*
G03X1795686Y-2269018I34388J-10006D01*
G01X1795686Y-2299018D01*
G03X1797109Y-2309012I35814J0D01*
G03X1795686Y-2319005I34391J-9994D01*
G01X1795686Y-2349005D01*
G03X1797140Y-2359107I35814J0D01*
G03X1795656Y-2369310I34330J-10203D01*
G01X1795656Y-2399310D01*
G03X1831470Y-2435124I35814J0D01*
G01X2006470Y-2435124D01*
G03X2010778Y-2434864I0J35814D01*
G02X2044570Y-2432824I33792J-278868D01*
G01X2059415Y-2432824D01*
G01X2148586Y-2521995D01*
G01X2148586Y-3136900D01*
G03X2162795Y-3171205I48514J0D01*
G01X2275896Y-3284305D01*
G03X2310200Y-3298514I34305J34305D01*
G01X2351898Y-3298514D01*
G01X2354384Y-3298779D01*
G03X2389998Y-3330814I35614J3779D01*
G01X2469998Y-3330814D01*
G03X2500000Y-3314557I0J35814D01*
G03X2530003Y-3330814I30002J19557D01*
G01X2610002Y-3330814D01*
G03X2645816Y-3295000I0J35814D01*
G01X2645816Y-3205000D01*
G03X2610002Y-3169186I-35814J0D01*
G01X2530003Y-3169186D01*
G03X2500000Y-3185443I0J-35814D01*
G03X2469998Y-3169186I-30002J-19557D01*
G01X2389998Y-3169186D01*
G03X2354384Y-3201222I0J-35814D01*
G01X2351898Y-3201486D01*
G01X2330295Y-3201486D01*
G01X2245614Y-3116805D01*
G01X2245614Y-2961923D01*
G01X2317996Y-3034305D01*
G03X2352300Y-3048514I34305J34305D01*
G01X2354377Y-3048712D01*
G03X2389998Y-3080814I35621J3712D01*
G01X2469998Y-3080814D01*
G03X2500000Y-3064557I0J35814D01*
G03X2530003Y-3080814I30002J19557D01*
G01X2610002Y-3080814D01*
G03X2645816Y-3045000I0J35814D01*
G01X2645816Y-2955000D01*
G03X2610002Y-2919186I-35814J0D01*
G01X2530003Y-2919186D01*
G03X2500000Y-2935443I0J-35814D01*
G03X2469998Y-2919186I-30002J-19557D01*
G01X2389998Y-2919186D01*
G03X2358629Y-2937720I0J-35814D01*
G01X2296414Y-2875505D01*
G01X2296414Y-2758723D01*
G01X2321996Y-2784305D01*
G03X2354353Y-2798475I34305J34305D01*
G03X2389998Y-2830814I35645J3475D01*
G01X2469998Y-2830814D01*
G03X2500000Y-2814557I0J35814D01*
G03X2530003Y-2830814I30002J19557D01*
G01X2610002Y-2830814D01*
G03X2645816Y-2795000I0J35814D01*
G01X2645816Y-2705000D01*
G03X2610002Y-2669186I-35814J0D01*
G01X2530003Y-2669186D01*
G03X2500000Y-2685443I0J-35814D01*
G03X2469998Y-2669186I-30002J-19557D01*
G01X2389998Y-2669186D01*
G03X2360137Y-2685228I0J-35814D01*
G01X2347214Y-2672305D01*
G01X2347214Y-2485826D01*
G01X2349063Y-2487675D01*
G02X2354184Y-2504901I-26418J-17226D01*
G01X2354184Y-2545000D01*
G03X2389998Y-2580814I35814J0D01*
G01X2469998Y-2580814D01*
G03X2500000Y-2564557I0J35814D01*
G03X2530003Y-2580814I30002J19557D01*
G01X2610002Y-2580814D01*
G03X2645816Y-2545000I0J35814D01*
G01X2645816Y-2455000D01*
G03X2610002Y-2419186I-35814J0D01*
G01X2530003Y-2419186D01*
G03X2500000Y-2435443I0J-35814D01*
G03X2469998Y-2419186I-30002J-19557D01*
G01X2429899Y-2419186D01*
G02X2412673Y-2414066I0J31538D01*
G01X2297121Y-2298514D01*
G01X2351898Y-2298514D01*
G01X2354384Y-2298779D01*
G03X2389998Y-2330814I35614J3779D01*
G01X2469998Y-2330814D01*
G03X2500000Y-2314557I0J35814D01*
G03X2530003Y-2330814I30002J19557D01*
G01X2610002Y-2330814D01*
G03X2645816Y-2295000I0J35814D01*
G01X2645816Y-2205000D01*
G03X2637550Y-2182114I-35814J0D01*
G01X2866400Y-2182114D01*
G03X2900705Y-2167905I0J48514D01*
G01X2955868Y-2112741D01*
G01X2956998Y-2113902D01*
G01X3006998Y-2163902D01*
G03X3050000Y-2181714I43002J43002D01*
G01X3702850Y-2181714D01*
G03X3745852Y-2163902I0J60814D01*
G01X3795852Y-2113902D01*
G03X3813664Y-2070900I-43002J43002D01*
G02X3821027Y-2059274I12859J0D01*
G03X3844495Y-2048526I-2177J35748D01*
G02X3893850Y-2027714I49355J-48114D01*
G01X7339210Y-2027714D01*
G01X7805598Y-2494102D01*
G03X7848600Y-2511914I43002J43002D01*
G01X8113151Y-2511914D01*
G01X8117122Y-2512217D01*
G01X8118602Y-2512584D01*
G01X8120084Y-2513224D01*
G01X8122479Y-2514676D01*
G01X8126173Y-2517428D01*
G01X8131323Y-2521662D01*
G01X8131660Y-2521937D01*
G01X8139287Y-2528054D01*
G03X8295570Y-2516194I72213J84054D01*
G03X8283675Y-2359914I-84070J72194D01*
G01X8331200Y-2359914D01*
G03X8365505Y-2345705I0J48514D01*
G01X8479805Y-2231405D01*
G03X8494014Y-2197100I-34305J34305D01*
G01X8494014Y-2032000D01*
G03X8479805Y-1997695I-48514J0D01*
G01X8383805Y-1901695D01*
G03X8349500Y-1887486I-34305J-34305D01*
G01X8314783Y-1887486D01*
G01X8312747Y-1887397D01*
G01X8305039Y-1875954D01*
G01X8303774Y-1874193D01*
G01X8297799Y-1866388D01*
G03X8295865Y-1864070I-28439J-21769D01*
G01X8292217Y-1860056D01*
G01X8290527Y-1858319D01*
G03X8100686Y-1936000I-79027J-77681D01*
G03X8290527Y-2013681I110814J0D01*
G01X8292217Y-2011943D01*
G01X8295865Y-2007930D01*
G03X8297799Y-2005612I-26504J24087D01*
G01X8303774Y-1997807D01*
G01X8305039Y-1996046D01*
G01X8312747Y-1984603D01*
G01X8314783Y-1984514D01*
G01X8329405Y-1984514D01*
G01X8396986Y-2052095D01*
G01X8396986Y-2177005D01*
G01X8311105Y-2262886D01*
G01X8294967Y-2262886D01*
G03X8208860Y-2079215I-83519J72865D01*
G01X8206507Y-2079279D01*
G01X8201107Y-2079606D01*
G03X8198262Y-2079892I2162J-35749D01*
G01X8188502Y-2081270D01*
G01X8186352Y-2081641D01*
G01X8178025Y-2083339D01*
G01X8172838Y-2084297D01*
G01X8171284Y-2082875D01*
G01X7533923Y-1445514D01*
G01X7904705Y-1445514D01*
G01X8042895Y-1583705D01*
G03X8077200Y-1597914I34305J34305D01*
G01X8139325Y-1597914D01*
G03X8144383Y-1770176I72175J-84086D01*
G03X8311771Y-1729175I67117J88176D01*
G03X8313151Y-1726232I-31699J16667D01*
G01X8316798Y-1717444D01*
G01X8317589Y-1715354D01*
G01X8323533Y-1698049D01*
G01X8326121Y-1691043D01*
G01X8328493Y-1685848D01*
G01X8331146Y-1681483D01*
G01X8331886Y-1680526D01*
G01X8333622Y-1678633D01*
G01X8479805Y-1532450D01*
G03X8494014Y-1498146I-34305J34305D01*
G01X8494014Y-1168400D01*
G03X8479805Y-1134095I-48514J0D01*
G01X8365505Y-1019795D01*
G03X8331200Y-1005586I-34305J-34305D01*
G01X8281890Y-1005586D01*
G03X8276621Y-830340I-70390J85586D01*
G03X8108339Y-879535I-65121J-89660D01*
G03X8100795Y-885695I26762J-40465D01*
G01X7828505Y-1157986D01*
G01X2451100Y-1157986D01*
G03X2416795Y-1172195I0J-48514D01*
G01X2042314Y-1546677D01*
G01X2042314Y-1519007D01*
G03X2040888Y-1509001I-35814J0D01*
G03X2042314Y-1498994I-34388J10006D01*
G01X2042314Y-1482530D01*
G01X2044600Y-1482521D01*
G01X2058493Y-1482521D01*
G03X2092798Y-1468312I0J48514D01*
G01X2464305Y-1096805D01*
G03X2475070Y-1080453I-34305J34305D01*
G03X2500002Y-1064557I-5070J35453D01*
G03X2530005Y-1080814I30002J19557D01*
G01X2610005Y-1080814D01*
G03X2645819Y-1045000I0J35814D01*
G01X2645819Y-955000D01*
G03X2610005Y-919186I-35814J0D01*
G01X2530005Y-919186D01*
G03X2500002Y-935443I0J-35814D01*
G03X2470000Y-919186I-30002J-19557D01*
G01X2390000Y-919186D01*
G03X2354186Y-955000I0J-35814D01*
G01X2354186Y-1045000D01*
G03X2359738Y-1064153I35814J0D01*
G01X2042314Y-1381577D01*
G01X2042314Y-1368994D01*
G03X2040891Y-1359001I-35814J0D01*
G03X2042314Y-1349007I-34391J9994D01*
G01X2042314Y-1319007D01*
G03X2040888Y-1309001I-35814J0D01*
G03X2042314Y-1298995I-34388J10006D01*
G01X2042314Y-1268995D01*
G03X2040891Y-1259001I-35814J0D01*
G03X2042314Y-1249007I-34391J9994D01*
G01X2042314Y-1219007D01*
G03X2006500Y-1183193I-35814J0D01*
G01X1831500Y-1183193D01*
G03X1795686Y-1219007I0J-35814D01*
G01X1795686Y-1249007D01*
G03X1797109Y-1259001I35814J0D01*
G03X1795686Y-1268995I34391J-9994D01*
G01X1795686Y-1298995D01*
G03X1797112Y-1309001I35814J0D01*
G03X1795686Y-1319007I34388J-10006D01*
G01X1795686Y-1349007D01*
G03X1797109Y-1359001I35814J0D01*
G03X1795686Y-1368994I34391J-9994D01*
G01X1795686Y-1398994D01*
G03X1797112Y-1409001I35814J0D01*
G03X1795686Y-1419007I34388J-10006D01*
G01X1795686Y-1449007D01*
G03X1797109Y-1459001I35814J0D01*
G03X1795686Y-1468994I34391J-9994D01*
G01X1795686Y-1498994D01*
G03X1797112Y-1509001I35814J0D01*
G03X1795686Y-1519007I34388J-10006D01*
G01X1795686Y-1549007D01*
G03X1797109Y-1559000I35814J0D01*
G03X1795686Y-1568994I34391J-9994D01*
G01X1795686Y-1598994D01*
G03X1797074Y-1608867I35814J0D01*
G03X1795686Y-1618740I34426J-9873D01*
G01X1795686Y-1648740D01*
G03X1797229Y-1659140I35814J0D01*
G03X1795686Y-1669540I34271J-10400D01*
G01X1795686Y-1699540D01*
G03X1797034Y-1709273I35814J0D01*
G03X1795686Y-1719006I34466J-9733D01*
G01X1795686Y-1749006D01*
G03X1797112Y-1759013I35814J0D01*
G03X1795686Y-1769019I34388J-10006D01*
G01X1795686Y-1799019D01*
G03X1797109Y-1809013I35814J0D01*
G03X1795686Y-1819006I34391J-9994D01*
G37*
G36*
G01X8322314Y-2623000D02*
G03X8286500Y-2587186I-35814J0D01*
G01X8136500Y-2587186D01*
G03X8100686Y-2623000I0J-35814D01*
G01X8100686Y-2773000D01*
G03X8136500Y-2808814I35814J0D01*
G01X8286500Y-2808814D01*
G03X8322314Y-2773000I0J35814D01*
G01X8322314Y-2623000D01*
G37*
G36*
G01X8360186Y-3364000D02*
G03X8731814Y-3364000I185814J0D01*
G03X8360186Y-3364000I-185814J0D01*
G37*
G36*
G01X8360186Y-254000D02*
G03X8731814Y-254000I185814J0D01*
G03X8360186Y-254000I-185814J0D01*
G37*
%LPD*%
G36*
G01X2390000Y-1830814D02*
G01X2470000Y-1830814D01*
G03X2500002Y-1814557I0J35814D01*
G03X2530005Y-1830814I30002J19557D01*
G01X2610005Y-1830814D01*
G03X2645819Y-1795000I0J35814D01*
G01X2645819Y-1705000D01*
G03X2610005Y-1669186I-35814J0D01*
G01X2530005Y-1669186D01*
G03X2513387Y-1673275I0J-35814D01*
G01X2522948Y-1663714D01*
G01X2841852Y-1663714D01*
G01X2916697Y-1738559D01*
G02X2924186Y-1763033I-36246J-24474D01*
G01X2924186Y-1795000D01*
G03X2960000Y-1830814I35814J0D01*
G01X3040000Y-1830814D01*
G03X3070002Y-1814557I0J35814D01*
G03X3100005Y-1830814I30002J19557D01*
G01X3180005Y-1830814D01*
G03X3215819Y-1795000I0J35814D01*
G01X3215819Y-1705000D01*
G03X3210618Y-1686414I-35814J0D01*
G01X3654441Y-1686414D01*
G03X3645336Y-1710273I26709J-23859D01*
G01X3645336Y-1823527D01*
G03X3681150Y-1859341I35814J0D01*
G01X3818851Y-1859341D01*
G03X3854665Y-1823527I0J35814D01*
G01X3854665Y-1710273D01*
G03X3818851Y-1674459I-35814J0D01*
G01X3812500Y-1674459D01*
G01X3810764Y-1673139D01*
G03X3793002Y-1632598I-60764J-2461D01*
G01X3743002Y-1582598D01*
G03X3729669Y-1572514I-43002J-43002D01*
G01X7282405Y-1572514D01*
G01X8055595Y-2345705D01*
G03X8089900Y-2359914I34305J34305D01*
G01X8139325Y-2359914D01*
G03X8130296Y-2368597I72175J-84086D01*
G01X8119638Y-2379851D01*
G01X8115426Y-2383826D01*
G01X8111772Y-2386795D01*
G01X8108930Y-2388645D01*
G01X8106923Y-2389589D01*
G01X8104702Y-2390213D01*
G01X8103111Y-2390286D01*
G01X7873790Y-2390286D01*
G01X7407402Y-1923898D01*
G03X7364400Y-1906086I-43002J-43002D01*
G01X3893850Y-1906086D01*
G02X3844495Y-1885273I0J68927D01*
G03X3818851Y-1874459I-25645J-25000D01*
G01X3681150Y-1874459D01*
G03X3645336Y-1910273I0J-35814D01*
G01X3645336Y-2023527D01*
G03X3678504Y-2059243I35814J0D01*
G01X3677660Y-2060086D01*
G01X3212486Y-2060086D01*
G03X3215819Y-2045000I-32482J15086D01*
G01X3215819Y-1955000D01*
G03X3180005Y-1919186I-35814J0D01*
G01X3100005Y-1919186D01*
G03X3070002Y-1935443I0J-35814D01*
G03X3040000Y-1919186I-30002J-19557D01*
G01X2960000Y-1919186D01*
G03X2924186Y-1955000I0J-35814D01*
G01X2924186Y-1995099D01*
G02X2919066Y-2012325I-31538J0D01*
G01X2846305Y-2085086D01*
G01X2496595Y-2085086D01*
G01X2487664Y-2076155D01*
G03X2500002Y-2064557I-17664J31155D01*
G03X2530005Y-2080814I30002J19557D01*
G01X2610005Y-2080814D01*
G03X2645819Y-2045000I0J35814D01*
G01X2645819Y-1955000D01*
G03X2610005Y-1919186I-35814J0D01*
G01X2530005Y-1919186D01*
G03X2500002Y-1935443I0J-35814D01*
G03X2470000Y-1919186I-30002J-19557D01*
G01X2390000Y-1919186D01*
G03X2369660Y-1925522I0J-35814D01*
G02X2345000Y-1933205I-24660J35739D01*
G01X2253457Y-1933205D01*
G01X2365520Y-1821142D01*
G03X2390000Y-1830814I24480J26142D01*
G37*
G54D10*
G01X35814Y-254000D02*
G02X254000Y-35814I218186J0D01*
G01X8546000Y-35814D01*
G02X8764186Y-254000I0J-218186D01*
G01X8764186Y-3364000D01*
G02X8546000Y-3582186I-218186J0D01*
G01X254000Y-3582186D01*
G02X35814Y-3364000I0J218186D01*
G01X35814Y-254000D01*
G01X68186Y-3364000D02*
G03X439814Y-3364000I185814J0D01*
G03X68186Y-3364000I-185814J0D01*
G01X68186Y-254000D02*
G03X439814Y-254000I185814J0D01*
G03X68186Y-254000I-185814J0D01*
G01X633400Y-3399814D02*
G03X729435Y-3360035I0J135814D01*
G03X769214Y-3264000I-96035J96035D01*
G01X769214Y-354000D01*
G03X633400Y-218186I-135814J0D01*
G03X497586Y-354000I0J-135814D01*
G01X497586Y-3264000D01*
G03X633400Y-3399814I135814J0D01*
G01X1761547Y-2688818D02*
G03X1797361Y-2653004I0J35814D01*
G01X1797361Y-2453004D01*
G03X1761547Y-2417190I-35814J0D01*
G01X1511548Y-2417190D01*
G03X1475734Y-2453004I0J-35814D01*
G01X1475734Y-2653004D01*
G03X1511548Y-2688818I35814J0D01*
G01X1761547Y-2688818D01*
G01X1761547Y-1200810D02*
G03X1797361Y-1164996I0J35814D01*
G01X1797361Y-964996D01*
G03X1761547Y-929182I-35814J0D01*
G01X1511548Y-929182D01*
G03X1475734Y-964996I0J-35814D01*
G01X1475734Y-1164996D01*
G03X1511548Y-1200810I35814J0D01*
G01X1761547Y-1200810D01*
G01X1795686Y-1819006D02*
G01X1795686Y-1849006D01*
G03X1797112Y-1859013I35814J0D01*
G03X1795686Y-1869019I34388J-10006D01*
G01X1795686Y-1899019D01*
G03X1797109Y-1909012I35814J0D01*
G03X1795686Y-1919006I34391J-9994D01*
G01X1795686Y-1949006D01*
G03X1797112Y-1959012I35814J0D01*
G03X1795686Y-1969019I34388J-10006D01*
G01X1795686Y-1999019D01*
G03X1797109Y-2009012I35814J0D01*
G03X1795686Y-2019006I34391J-9994D01*
G01X1795686Y-2049006D01*
G03X1797112Y-2059012I35814J0D01*
G03X1795686Y-2069018I34388J-10006D01*
G01X1795686Y-2099018D01*
G03X1797109Y-2109012I35814J0D01*
G03X1795686Y-2119006I34391J-9994D01*
G01X1795686Y-2149006D01*
G03X1797112Y-2159012I35814J0D01*
G03X1795686Y-2169018I34388J-10006D01*
G01X1795686Y-2199018D01*
G03X1797109Y-2209012I35814J0D01*
G03X1795686Y-2219005I34391J-9994D01*
G01X1795686Y-2249005D01*
G03X1797112Y-2259012I35814J0D01*
G03X1795686Y-2269018I34388J-10006D01*
G01X1795686Y-2299018D01*
G03X1797109Y-2309012I35814J0D01*
G03X1795686Y-2319005I34391J-9994D01*
G01X1795686Y-2349005D01*
G03X1797140Y-2359107I35814J0D01*
G03X1795656Y-2369310I34330J-10203D01*
G01X1795656Y-2399310D01*
G03X1831470Y-2435124I35814J0D01*
G01X2006470Y-2435124D01*
G03X2010778Y-2434864I0J35814D01*
G02X2044570Y-2432824I33792J-278868D01*
G01X2059415Y-2432824D01*
G01X2148586Y-2521995D01*
G01X2148586Y-3136900D01*
G03X2162795Y-3171205I48514J0D01*
G01X2275896Y-3284305D01*
G03X2310200Y-3298514I34305J34305D01*
G01X2351898Y-3298514D01*
G01X2354384Y-3298779D01*
G03X2389998Y-3330814I35614J3779D01*
G01X2469998Y-3330814D01*
G03X2500000Y-3314557I0J35814D01*
G03X2530003Y-3330814I30002J19557D01*
G01X2610002Y-3330814D01*
G03X2645816Y-3295000I0J35814D01*
G01X2645816Y-3205000D01*
G03X2610002Y-3169186I-35814J0D01*
G01X2530003Y-3169186D01*
G03X2500000Y-3185443I0J-35814D01*
G03X2469998Y-3169186I-30002J-19557D01*
G01X2389998Y-3169186D01*
G03X2354384Y-3201222I0J-35814D01*
G01X2351898Y-3201486D01*
G01X2330295Y-3201486D01*
G01X2245614Y-3116805D01*
G01X2245614Y-2961923D01*
G01X2317996Y-3034305D01*
G03X2352300Y-3048514I34305J34305D01*
G01X2354377Y-3048712D01*
G03X2389998Y-3080814I35621J3712D01*
G01X2469998Y-3080814D01*
G03X2500000Y-3064557I0J35814D01*
G03X2530003Y-3080814I30002J19557D01*
G01X2610002Y-3080814D01*
G03X2645816Y-3045000I0J35814D01*
G01X2645816Y-2955000D01*
G03X2610002Y-2919186I-35814J0D01*
G01X2530003Y-2919186D01*
G03X2500000Y-2935443I0J-35814D01*
G03X2469998Y-2919186I-30002J-19557D01*
G01X2389998Y-2919186D01*
G03X2358629Y-2937720I0J-35814D01*
G01X2296414Y-2875505D01*
G01X2296414Y-2758723D01*
G01X2321996Y-2784305D01*
G03X2354353Y-2798475I34305J34305D01*
G03X2389998Y-2830814I35645J3475D01*
G01X2469998Y-2830814D01*
G03X2500000Y-2814557I0J35814D01*
G03X2530003Y-2830814I30002J19557D01*
G01X2610002Y-2830814D01*
G03X2645816Y-2795000I0J35814D01*
G01X2645816Y-2705000D01*
G03X2610002Y-2669186I-35814J0D01*
G01X2530003Y-2669186D01*
G03X2500000Y-2685443I0J-35814D01*
G03X2469998Y-2669186I-30002J-19557D01*
G01X2389998Y-2669186D01*
G03X2360137Y-2685228I0J-35814D01*
G01X2347214Y-2672305D01*
G01X2347214Y-2485826D01*
G01X2349063Y-2487675D01*
G02X2354184Y-2504901I-26418J-17226D01*
G01X2354184Y-2545000D01*
G03X2389998Y-2580814I35814J0D01*
G01X2469998Y-2580814D01*
G03X2500000Y-2564557I0J35814D01*
G03X2530003Y-2580814I30002J19557D01*
G01X2610002Y-2580814D01*
G03X2645816Y-2545000I0J35814D01*
G01X2645816Y-2455000D01*
G03X2610002Y-2419186I-35814J0D01*
G01X2530003Y-2419186D01*
G03X2500000Y-2435443I0J-35814D01*
G03X2469998Y-2419186I-30002J-19557D01*
G01X2429899Y-2419186D01*
G02X2412673Y-2414066I0J31538D01*
G01X2297121Y-2298514D01*
G01X2351898Y-2298514D01*
G01X2354384Y-2298779D01*
G03X2389998Y-2330814I35614J3779D01*
G01X2469998Y-2330814D01*
G03X2500000Y-2314557I0J35814D01*
G03X2530003Y-2330814I30002J19557D01*
G01X2610002Y-2330814D01*
G03X2645816Y-2295000I0J35814D01*
G01X2645816Y-2205000D01*
G03X2637550Y-2182114I-35814J0D01*
G01X2866400Y-2182114D01*
G03X2900705Y-2167905I0J48514D01*
G01X2955868Y-2112741D01*
G01X2956998Y-2113902D01*
G01X3006998Y-2163902D01*
G03X3050000Y-2181714I43002J43002D01*
G01X3702850Y-2181714D01*
G03X3745852Y-2163902I0J60814D01*
G01X3795852Y-2113902D01*
G03X3813664Y-2070900I-43002J43002D01*
G02X3821027Y-2059274I12859J0D01*
G03X3844495Y-2048526I-2177J35748D01*
G02X3893850Y-2027714I49355J-48114D01*
G01X7339210Y-2027714D01*
G01X7805598Y-2494102D01*
G03X7848600Y-2511914I43002J43002D01*
G01X8113151Y-2511914D01*
G01X8117122Y-2512217D01*
G01X8118602Y-2512584D01*
G01X8120084Y-2513224D01*
G01X8122479Y-2514676D01*
G01X8126173Y-2517428D01*
G01X8131323Y-2521662D01*
G01X8131660Y-2521937D01*
G01X8139287Y-2528054D01*
G03X8295570Y-2516194I72213J84054D01*
G03X8283675Y-2359914I-84070J72194D01*
G01X8331200Y-2359914D01*
G03X8365505Y-2345705I0J48514D01*
G01X8479805Y-2231405D01*
G03X8494014Y-2197100I-34305J34305D01*
G01X8494014Y-2032000D01*
G03X8479805Y-1997695I-48514J0D01*
G01X8383805Y-1901695D01*
G03X8349500Y-1887486I-34305J-34305D01*
G01X8314783Y-1887486D01*
G01X8312747Y-1887397D01*
G01X8305039Y-1875954D01*
G01X8303774Y-1874193D01*
G01X8297799Y-1866388D01*
G03X8295865Y-1864070I-28439J-21769D01*
G01X8292217Y-1860056D01*
G01X8290527Y-1858319D01*
G03X8100686Y-1936000I-79027J-77681D01*
G03X8290527Y-2013681I110814J0D01*
G01X8292217Y-2011943D01*
G01X8295865Y-2007930D01*
G03X8297799Y-2005612I-26504J24087D01*
G01X8303774Y-1997807D01*
G01X8305039Y-1996046D01*
G01X8312747Y-1984603D01*
G01X8314783Y-1984514D01*
G01X8329405Y-1984514D01*
G01X8396986Y-2052095D01*
G01X8396986Y-2177005D01*
G01X8311105Y-2262886D01*
G01X8294967Y-2262886D01*
G03X8208860Y-2079215I-83519J72865D01*
G01X8206507Y-2079279D01*
G01X8201107Y-2079606D01*
G03X8198262Y-2079892I2162J-35749D01*
G01X8188502Y-2081270D01*
G01X8186352Y-2081641D01*
G01X8178025Y-2083339D01*
G01X8172838Y-2084297D01*
G01X8171284Y-2082875D01*
G01X7533923Y-1445514D01*
G01X7904705Y-1445514D01*
G01X8042895Y-1583705D01*
G03X8077200Y-1597914I34305J34305D01*
G01X8139325Y-1597914D01*
G03X8144383Y-1770176I72175J-84086D01*
G03X8311771Y-1729175I67117J88176D01*
G03X8313151Y-1726232I-31699J16667D01*
G01X8316798Y-1717444D01*
G01X8317589Y-1715354D01*
G01X8323533Y-1698049D01*
G01X8326121Y-1691043D01*
G01X8328493Y-1685848D01*
G01X8331146Y-1681483D01*
G01X8331886Y-1680526D01*
G01X8333622Y-1678633D01*
G01X8479805Y-1532450D01*
G03X8494014Y-1498146I-34305J34305D01*
G01X8494014Y-1168400D01*
G03X8479805Y-1134095I-48514J0D01*
G01X8365505Y-1019795D01*
G03X8331200Y-1005586I-34305J-34305D01*
G01X8281890Y-1005586D01*
G03X8276621Y-830340I-70390J85586D01*
G03X8108339Y-879535I-65121J-89660D01*
G03X8100795Y-885695I26762J-40465D01*
G01X7828505Y-1157986D01*
G01X2451100Y-1157986D01*
G03X2416795Y-1172195I0J-48514D01*
G01X2042314Y-1546677D01*
G01X2042314Y-1519007D01*
G03X2040888Y-1509001I-35814J0D01*
G03X2042314Y-1498994I-34388J10006D01*
G01X2042314Y-1482530D01*
G01X2044600Y-1482521D01*
G01X2058493Y-1482521D01*
G03X2092798Y-1468312I0J48514D01*
G01X2464305Y-1096805D01*
G03X2475070Y-1080453I-34305J34305D01*
G03X2500002Y-1064557I-5070J35453D01*
G03X2530005Y-1080814I30002J19557D01*
G01X2610005Y-1080814D01*
G03X2645819Y-1045000I0J35814D01*
G01X2645819Y-955000D01*
G03X2610005Y-919186I-35814J0D01*
G01X2530005Y-919186D01*
G03X2500002Y-935443I0J-35814D01*
G03X2470000Y-919186I-30002J-19557D01*
G01X2390000Y-919186D01*
G03X2354186Y-955000I0J-35814D01*
G01X2354186Y-1045000D01*
G03X2359738Y-1064153I35814J0D01*
G01X2042314Y-1381577D01*
G01X2042314Y-1368994D01*
G03X2040891Y-1359001I-35814J0D01*
G03X2042314Y-1349007I-34391J9994D01*
G01X2042314Y-1319007D01*
G03X2040888Y-1309001I-35814J0D01*
G03X2042314Y-1298995I-34388J10006D01*
G01X2042314Y-1268995D01*
G03X2040891Y-1259001I-35814J0D01*
G03X2042314Y-1249007I-34391J9994D01*
G01X2042314Y-1219007D01*
G03X2006500Y-1183193I-35814J0D01*
G01X1831500Y-1183193D01*
G03X1795686Y-1219007I0J-35814D01*
G01X1795686Y-1249007D01*
G03X1797109Y-1259001I35814J0D01*
G03X1795686Y-1268995I34391J-9994D01*
G01X1795686Y-1298995D01*
G03X1797112Y-1309001I35814J0D01*
G03X1795686Y-1319007I34388J-10006D01*
G01X1795686Y-1349007D01*
G03X1797109Y-1359001I35814J0D01*
G03X1795686Y-1368994I34391J-9994D01*
G01X1795686Y-1398994D01*
G03X1797112Y-1409001I35814J0D01*
G03X1795686Y-1419007I34388J-10006D01*
G01X1795686Y-1449007D01*
G03X1797109Y-1459001I35814J0D01*
G03X1795686Y-1468994I34391J-9994D01*
G01X1795686Y-1498994D01*
G03X1797112Y-1509001I35814J0D01*
G03X1795686Y-1519007I34388J-10006D01*
G01X1795686Y-1549007D01*
G03X1797109Y-1559000I35814J0D01*
G03X1795686Y-1568994I34391J-9994D01*
G01X1795686Y-1598994D01*
G03X1797074Y-1608867I35814J0D01*
G03X1795686Y-1618740I34426J-9873D01*
G01X1795686Y-1648740D01*
G03X1797229Y-1659140I35814J0D01*
G03X1795686Y-1669540I34271J-10400D01*
G01X1795686Y-1699540D01*
G03X1797034Y-1709273I35814J0D01*
G03X1795686Y-1719006I34466J-9733D01*
G01X1795686Y-1749006D01*
G03X1797112Y-1759013I35814J0D01*
G03X1795686Y-1769019I34388J-10006D01*
G01X1795686Y-1799019D01*
G03X1797109Y-1809013I35814J0D01*
G03X1795686Y-1819006I34391J-9994D01*
G01X8322314Y-2623000D02*
G03X8286500Y-2587186I-35814J0D01*
G01X8136500Y-2587186D01*
G03X8100686Y-2623000I0J-35814D01*
G01X8100686Y-2773000D01*
G03X8136500Y-2808814I35814J0D01*
G01X8286500Y-2808814D01*
G03X8322314Y-2773000I0J35814D01*
G01X8322314Y-2623000D01*
G01X8360186Y-3364000D02*
G03X8731814Y-3364000I185814J0D01*
G03X8360186Y-3364000I-185814J0D01*
G01X8360186Y-254000D02*
G03X8731814Y-254000I185814J0D01*
G03X8360186Y-254000I-185814J0D01*
G01X2390000Y-1830814D02*
G01X2470000Y-1830814D01*
G03X2500002Y-1814557I0J35814D01*
G03X2530005Y-1830814I30002J19557D01*
G01X2610005Y-1830814D01*
G03X2645819Y-1795000I0J35814D01*
G01X2645819Y-1705000D01*
G03X2610005Y-1669186I-35814J0D01*
G01X2530005Y-1669186D01*
G03X2513387Y-1673275I0J-35814D01*
G01X2522948Y-1663714D01*
G01X2841852Y-1663714D01*
G01X2916697Y-1738559D01*
G02X2924186Y-1763033I-36246J-24474D01*
G01X2924186Y-1795000D01*
G03X2960000Y-1830814I35814J0D01*
G01X3040000Y-1830814D01*
G03X3070002Y-1814557I0J35814D01*
G03X3100005Y-1830814I30002J19557D01*
G01X3180005Y-1830814D01*
G03X3215819Y-1795000I0J35814D01*
G01X3215819Y-1705000D01*
G03X3210618Y-1686414I-35814J0D01*
G01X3654441Y-1686414D01*
G03X3645336Y-1710273I26709J-23859D01*
G01X3645336Y-1823527D01*
G03X3681150Y-1859341I35814J0D01*
G01X3818851Y-1859341D01*
G03X3854665Y-1823527I0J35814D01*
G01X3854665Y-1710273D01*
G03X3818851Y-1674459I-35814J0D01*
G01X3812500Y-1674459D01*
G01X3810764Y-1673139D01*
G03X3793002Y-1632598I-60764J-2461D01*
G01X3743002Y-1582598D01*
G03X3729669Y-1572514I-43002J-43002D01*
G01X7282405Y-1572514D01*
G01X8055595Y-2345705D01*
G03X8089900Y-2359914I34305J34305D01*
G01X8139325Y-2359914D01*
G03X8130296Y-2368597I72175J-84086D01*
G01X8119638Y-2379851D01*
G01X8115426Y-2383826D01*
G01X8111772Y-2386795D01*
G01X8108930Y-2388645D01*
G01X8106923Y-2389589D01*
G01X8104702Y-2390213D01*
G01X8103111Y-2390286D01*
G01X7873790Y-2390286D01*
G01X7407402Y-1923898D01*
G03X7364400Y-1906086I-43002J-43002D01*
G01X3893850Y-1906086D01*
G02X3844495Y-1885273I0J68927D01*
G03X3818851Y-1874459I-25645J-25000D01*
G01X3681150Y-1874459D01*
G03X3645336Y-1910273I0J-35814D01*
G01X3645336Y-2023527D01*
G03X3678504Y-2059243I35814J0D01*
G01X3677660Y-2060086D01*
G01X3212486Y-2060086D01*
G03X3215819Y-2045000I-32482J15086D01*
G01X3215819Y-1955000D01*
G03X3180005Y-1919186I-35814J0D01*
G01X3100005Y-1919186D01*
G03X3070002Y-1935443I0J-35814D01*
G03X3040000Y-1919186I-30002J-19557D01*
G01X2960000Y-1919186D01*
G03X2924186Y-1955000I0J-35814D01*
G01X2924186Y-1995099D01*
G02X2919066Y-2012325I-31538J0D01*
G01X2846305Y-2085086D01*
G01X2496595Y-2085086D01*
G01X2487664Y-2076155D01*
G03X2500002Y-2064557I-17664J31155D01*
G03X2530005Y-2080814I30002J19557D01*
G01X2610005Y-2080814D01*
G03X2645819Y-2045000I0J35814D01*
G01X2645819Y-1955000D01*
G03X2610005Y-1919186I-35814J0D01*
G01X2530005Y-1919186D01*
G03X2500002Y-1935443I0J-35814D01*
G03X2470000Y-1919186I-30002J-19557D01*
G01X2390000Y-1919186D01*
G03X2369660Y-1925522I0J-35814D01*
G02X2345000Y-1933205I-24660J35739D01*
G01X2253457Y-1933205D01*
G01X2365520Y-1821142D01*
G03X2390000Y-1830814I24480J26142D01*
G54D11*
G01X1636547Y-1164742D02*
G01X1636547Y-1190650D01*
G01X1636547Y-965250D02*
G01X1636547Y-939342D01*
G01X1511802Y-1064996D02*
G01X1485894Y-1064996D01*
G01X1761293Y-1064996D02*
G01X1787201Y-1064996D01*
G01X1636547Y-2652750D02*
G01X1636547Y-2678658D01*
G01X1636547Y-2453258D02*
G01X1636547Y-2427350D01*
G01X1511802Y-2553004D02*
G01X1485894Y-2553004D01*
G01X1761293Y-2553004D02*
G01X1787201Y-2553004D01*
G01X2609748Y-2250000D02*
G01X2635656Y-2250000D01*
G01X2570002Y-2294746D02*
G01X2570002Y-2320654D01*
G01X2609748Y-2750000D02*
G01X2635656Y-2750000D01*
G01X2570002Y-2705254D02*
G01X2570002Y-2679346D01*
G01X2570002Y-2794746D02*
G01X2570002Y-2820654D01*
G01X2609748Y-3000000D02*
G01X2635656Y-3000000D01*
G01X2570002Y-2955254D02*
G01X2570002Y-2929346D01*
G01X2570002Y-3044746D02*
G01X2570002Y-3070654D01*
G01X2609748Y-3250000D02*
G01X2635656Y-3250000D01*
G01X2570002Y-3205254D02*
G01X2570002Y-3179346D01*
G01X2570002Y-3294746D02*
G01X2570002Y-3320654D01*
G01X2609748Y-2500000D02*
G01X2635656Y-2500000D01*
G01X2570002Y-2455254D02*
G01X2570002Y-2429346D01*
G01X2570002Y-2544746D02*
G01X2570002Y-2570654D01*
G01X2609751Y-2000000D02*
G01X2635659Y-2000000D01*
G01X2570005Y-1955254D02*
G01X2570005Y-1929346D01*
G01X2570005Y-2044746D02*
G01X2570005Y-2070654D01*
G01X2609751Y-1000000D02*
G01X2635659Y-1000000D01*
G01X2570005Y-955254D02*
G01X2570005Y-929346D01*
G01X2570005Y-1044746D02*
G01X2570005Y-1070654D01*
G01X2609751Y-1750000D02*
G01X2635659Y-1750000D01*
G01X2570005Y-1705254D02*
G01X2570005Y-1679346D01*
G01X2570005Y-1794746D02*
G01X2570005Y-1820654D01*
G01X3179751Y-1750000D02*
G01X3205659Y-1750000D01*
G01X3140005Y-1794746D02*
G01X3140005Y-1820654D01*
G01X3179751Y-2000000D02*
G01X3205659Y-2000000D01*
G01X3140005Y-1955254D02*
G01X3140005Y-1929346D01*
G01X8211500Y-2772746D02*
G01X8211500Y-2798654D01*
G01X8211500Y-2623254D02*
G01X8211500Y-2597346D01*
G01X8136754Y-2698000D02*
G01X8110846Y-2698000D01*
G01X8286246Y-2698000D02*
G01X8312154Y-2698000D01*
G04 Copper End*

G04 TearDrop Start*
G36*
G01X8114517Y-2476100D02*
G01X8103933Y-2426100D01*
G01X8108060Y-2425911D01*
G01X8112018Y-2425358D01*
G01X8119475Y-2423263D01*
G01X8126400Y-2420006D01*
G01X8132890Y-2415782D01*
G01X8139042Y-2410784D01*
G01X8144952Y-2405206D01*
G01X8156433Y-2393083D01*
G01X8167017Y-2504384D01*
G01X8154068Y-2493998D01*
G01X8148256Y-2489220D01*
G01X8142509Y-2484939D01*
G01X8136545Y-2481320D01*
G01X8130079Y-2478530D01*
G01X8122831Y-2476735D01*
G01X8114517Y-2476100D01*
G37*
G36*
G01X8129830Y-2127990D02*
G01X8146523Y-2108762D01*
G01X8150677Y-2112562D01*
G01X8154648Y-2115502D01*
G01X8158478Y-2117670D01*
G01X8162209Y-2119150D01*
G01X8165883Y-2120032D01*
G01X8169541Y-2120401D01*
G01X8176979Y-2119952D01*
G01X8184856Y-2118497D01*
G01X8193508Y-2116732D01*
G01X8203268Y-2115355D01*
G01X8208669Y-2115028D01*
G01X8214472Y-2115059D01*
G01X8136693Y-2195373D01*
G01X8136484Y-2189498D01*
G01X8136674Y-2184065D01*
G01X8137883Y-2174341D01*
G01X8141050Y-2158123D01*
G01X8141540Y-2150871D01*
G01X8141191Y-2147293D01*
G01X8140323Y-2143684D01*
G01X8138845Y-2139997D01*
G01X8136664Y-2136184D01*
G01X8133690Y-2132197D01*
G01X8129830Y-2127990D01*
G37*
G36*
G01X8314000Y-1923300D02*
G01X8314000Y-1948700D01*
G01X8308336Y-1948948D01*
G01X8303432Y-1949670D01*
G01X8299192Y-1950836D01*
G01X8295524Y-1952413D01*
G01X8292330Y-1954369D01*
G01X8289517Y-1956674D01*
G01X8284656Y-1962201D01*
G01X8275335Y-1976038D01*
G01X8269361Y-1983843D01*
G01X8265713Y-1987857D01*
G01X8261500Y-1991902D01*
G01X8261500Y-1880098D01*
G01X8265713Y-1884143D01*
G01X8269361Y-1888156D01*
G01X8275335Y-1895961D01*
G01X8284656Y-1909799D01*
G01X8289517Y-1915326D01*
G01X8292330Y-1917631D01*
G01X8295524Y-1919587D01*
G01X8299192Y-1921164D01*
G01X8303432Y-1922330D01*
G01X8308336Y-1923052D01*
G01X8314000Y-1923300D01*
G37*
G36*
G01X8314558Y-1611127D02*
G01X8307749Y-1653857D01*
G01X8304472Y-1657432D01*
G01X8301585Y-1661166D01*
G01X8296791Y-1669052D01*
G01X8292988Y-1677382D01*
G01X8289795Y-1686025D01*
G01X8283718Y-1703719D01*
G01X8280071Y-1712508D01*
G01X8275513Y-1721081D01*
G01X8243226Y-1614041D01*
G01X8252241Y-1617788D01*
G01X8261651Y-1620738D01*
G01X8271246Y-1622702D01*
G01X8280813Y-1623492D01*
G01X8290140Y-1622918D01*
G01X8294647Y-1622060D01*
G01X8299014Y-1620791D01*
G01X8303216Y-1619087D01*
G01X8307225Y-1616924D01*
G01X8311014Y-1614278D01*
G01X8314558Y-1611127D01*
G37*
G36*
G01X8130041Y-1364502D02*
G01X8148002Y-1346541D01*
G01X8152182Y-1350371D01*
G01X8156161Y-1353328D01*
G01X8159982Y-1355501D01*
G01X8163692Y-1356981D01*
G01X8167333Y-1357856D01*
G01X8170952Y-1358215D01*
G01X8178298Y-1357744D01*
G01X8194673Y-1354550D01*
G01X8204417Y-1353256D01*
G01X8209833Y-1352997D01*
G01X8215673Y-1353116D01*
G01X8136616Y-1432173D01*
G01X8136497Y-1426333D01*
G01X8136756Y-1420917D01*
G01X8138050Y-1411173D01*
G01X8141244Y-1394798D01*
G01X8141715Y-1387452D01*
G01X8141356Y-1383833D01*
G01X8140481Y-1380192D01*
G01X8139002Y-1376482D01*
G01X8136828Y-1372661D01*
G01X8133871Y-1368682D01*
G01X8130041Y-1364502D01*
G37*
G36*
G01X8314000Y-1161300D02*
G01X8314000Y-1186700D01*
G01X8308336Y-1186948D01*
G01X8303432Y-1187670D01*
G01X8299192Y-1188836D01*
G01X8295524Y-1190413D01*
G01X8292330Y-1192369D01*
G01X8289517Y-1194674D01*
G01X8284656Y-1200201D01*
G01X8275335Y-1214038D01*
G01X8269361Y-1221843D01*
G01X8265713Y-1225857D01*
G01X8261500Y-1229902D01*
G01X8261500Y-1118098D01*
G01X8265713Y-1122143D01*
G01X8269361Y-1126156D01*
G01X8275335Y-1133961D01*
G01X8284656Y-1147799D01*
G01X8289517Y-1153326D01*
G01X8292330Y-1155631D01*
G01X8295524Y-1157587D01*
G01X8299192Y-1159164D01*
G01X8303432Y-1160330D01*
G01X8308336Y-1161052D01*
G01X8314000Y-1161300D01*
G37*
G36*
G01X8135100Y-932700D02*
G01X8135100Y-907300D01*
G01X8137934Y-906933D01*
G01X8140391Y-905887D01*
G01X8142518Y-904238D01*
G01X8144362Y-902069D01*
G01X8147389Y-896479D01*
G01X8149847Y-889749D01*
G01X8152112Y-882514D01*
G01X8154559Y-875405D01*
G01X8157563Y-869056D01*
G01X8159392Y-866363D01*
G01X8161500Y-864098D01*
G01X8161500Y-975902D01*
G01X8159392Y-973637D01*
G01X8157563Y-970944D01*
G01X8154559Y-964595D01*
G01X8152112Y-957486D01*
G01X8149847Y-950251D01*
G01X8147389Y-943521D01*
G01X8144362Y-937931D01*
G01X8142518Y-935761D01*
G01X8140391Y-934113D01*
G01X8137934Y-933066D01*
G01X8135100Y-932700D01*
G37*
G36*
G01X3777850Y-2070900D02*
G01X3727850Y-2070900D01*
G03X3690350Y-2023527I-48673J0D01*
G01X3815350Y-2023527D01*
G03X3777850Y-2070900I11174J-47373D01*
G37*
G36*
G01X3893850Y-1941900D02*
G01X3893850Y-1991900D01*
G03X3818851Y-2023527I0J-104741D01*
G01X3818851Y-1910273D01*
G03X3893850Y-1941900I75000J73114D01*
G37*
G36*
G01X3725000Y-1675600D02*
G01X3775000Y-1675600D01*
G03X3812500Y-1710273I37500J2942D01*
G01X3687500Y-1710273D01*
G03X3725000Y-1675600I0J37615D01*
G37*
G36*
G01X2044570Y-2371610D02*
G01X2044570Y-2397010D01*
G03X2006470Y-2399310I0J-316723D01*
G01X2006470Y-2369310D01*
G03X2044570Y-2371610I38100J314423D01*
G37*
G36*
G01X2044600Y-2071318D02*
G01X2044600Y-2096718D01*
G03X2006500Y-2099018I0J-316723D01*
G01X2006500Y-2069018D01*
G03X2044600Y-2071318I38100J314423D01*
G37*
G36*
G01X2044600Y-1421307D02*
G01X2044600Y-1446707D01*
G03X2006500Y-1449007I0J-316723D01*
G01X2006500Y-1419007D01*
G03X2044600Y-1421307I38100J314423D01*
G37*
G36*
G01X2442700Y-1062500D02*
G01X2417300Y-1062500D01*
G03X2398250Y-1045000I-19050J-1619D01*
G01X2461750Y-1045000D01*
G03X2442700Y-1062500I0J-19119D01*
G37*
G36*
G01X2364800Y-1765000D02*
G01X2364800Y-1735000D01*
G03X2390000Y-1712500I0J25362D01*
G01X2390000Y-1787500D01*
G03X2364800Y-1765000I-25200J-2862D01*
G37*
G36*
G01X2944090Y-1715303D02*
G01X2960303Y-1689090D01*
G03X3008033Y-1705000I47730J63640D01*
G01X2960000Y-1763033D01*
G03X2944090Y-1715303I-79549J0D01*
G37*
G36*
G01X2975000Y-1675600D02*
G01X3025000Y-1675600D01*
G03X3040000Y-1705000I36313J0D01*
G01X2960000Y-1705000D01*
G03X2975000Y-1675600I-21313J29400D01*
G37*
G36*
G01X2345000Y-1999019D02*
G01X2345000Y-1969019D01*
G03X2390000Y-1955000I0J79235D01*
G01X2390000Y-2021519D01*
G03X2345000Y-1999019I-45000J-33750D01*
G37*
G36*
G01X2442700Y-2083100D02*
G01X2417300Y-2083100D01*
G03X2398250Y-2045000I-47625J0D01*
G01X2461750Y-2045000D01*
G03X2442700Y-2083100I28575J-38100D01*
G37*
G36*
G01X2959490Y-2058470D02*
G01X2946530Y-2035510D01*
G03X2960000Y-1995099I-53882J40411D01*
G01X2999902Y-2045000D01*
G03X2959490Y-2058470I0J-67352D01*
G37*
G36*
G01X3025000Y-2070900D02*
G01X2975000Y-2070900D01*
G03X2960000Y-2045000I-29861J0D01*
G01X3040000Y-2045000D01*
G03X3025000Y-2070900I14861J-25900D01*
G37*
G36*
G01X2351898Y-2262700D02*
G01X2351898Y-2237300D01*
G03X2389998Y-2218250I0J47625D01*
G01X2389998Y-2281750D01*
G03X2351898Y-2262700I-38100J-28575D01*
G37*
G36*
G01X2376527Y-2464490D02*
G01X2389488Y-2441530D01*
G03X2429899Y-2455000I40411J53882D01*
G01X2389998Y-2504902D01*
G03X2376527Y-2464490I-67352J0D01*
G37*
G36*
G01X2356300Y-2762700D02*
G01X2356300Y-2737300D01*
G03X2389998Y-2718250I0J39329D01*
G01X2389998Y-2781750D01*
G03X2356300Y-2762700I-33698J-20279D01*
G37*
G36*
G01X2352300Y-3012700D02*
G01X2352300Y-2987300D01*
G03X2389998Y-2968250I0J46825D01*
G01X2389998Y-3031750D01*
G03X2352300Y-3012700I-37698J-27775D01*
G37*
G36*
G01X2351898Y-3262700D02*
G01X2351898Y-3237300D01*
G03X2389998Y-3218250I0J47625D01*
G01X2389998Y-3281750D01*
G03X2351898Y-3262700I-38100J-28575D01*
G37*
G04 TearDrop End*

G04 Pad Start*
G54D12*
G01X8211500Y-2698000D03*
G54D13*
G01X8211500Y-2444000D03*
G01X8211500Y-2190000D03*
G01X8211500Y-1936000D03*
G01X8211500Y-1682000D03*
G01X8211500Y-1428000D03*
G01X8211500Y-1174000D03*
G01X8211500Y-920000D03*
G54D14*
G01X3750000Y-1966900D03*
G01X3750000Y-1766900D03*
G54D15*
G01X1918970Y-2384310D03*
G01X1919000Y-2334005D03*
G01X1919000Y-2284018D03*
G01X1919000Y-2234005D03*
G01X1919000Y-2184018D03*
G01X1919000Y-2134006D03*
G01X1919000Y-2084018D03*
G01X1919000Y-2034006D03*
G01X1919000Y-1984019D03*
G01X1919000Y-1934006D03*
G01X1919000Y-1884019D03*
G01X1919000Y-1834006D03*
G01X1919000Y-1784019D03*
G01X1919000Y-1734006D03*
G01X1919000Y-1684540D03*
G01X1919000Y-1633740D03*
G01X1919000Y-1583994D03*
G01X1919000Y-1534007D03*
G01X1919000Y-1483994D03*
G01X1919000Y-1434007D03*
G01X1919000Y-1383994D03*
G01X1919000Y-1334007D03*
G01X1919000Y-1283995D03*
G01X1919000Y-1234007D03*
G54D17*
G01X1636547Y-2553004D03*
G01X1636547Y-1064996D03*
G54D18*
G01X2570005Y-1000000D03*
G01X2430000Y-1000000D03*
G01X2570005Y-1750000D03*
G01X2430000Y-1750000D03*
G01X3140005Y-1750000D03*
G01X3000000Y-1750000D03*
G01X2570005Y-2000000D03*
G01X2430000Y-2000000D03*
G01X3140005Y-2000000D03*
G01X3000000Y-2000000D03*
G01X2570002Y-2250000D03*
G01X2429998Y-2250000D03*
G01X2570002Y-2500000D03*
G01X2429998Y-2500000D03*
G01X2570002Y-2750000D03*
G01X2429998Y-2750000D03*
G01X2570002Y-3000000D03*
G01X2429998Y-3000000D03*
G01X2570002Y-3250000D03*
G01X2429998Y-3250000D03*
G04 Pad End*

G04 Via Start*
G54D19*
G01X8546000Y-254000D03*
G01X8546000Y-3364000D03*
G01X254000Y-254000D03*
G01X254000Y-3364000D03*
G54D20*
G01X1051814Y-3074186D03*
G01X1051814Y-2566186D03*
G01X1051814Y-2058186D03*
G01X1051814Y-1550186D03*
G01X1051814Y-1042186D03*
G01X1051814Y-534186D03*
G01X1559814Y-3074186D03*
G01X1559814Y-2058186D03*
G01X1559814Y-1550186D03*
G01X1559814Y-534186D03*
G01X2067814Y-3074186D03*
G01X2067814Y-2566186D03*
G01X2067814Y-1042186D03*
G01X2067814Y-534186D03*
G01X2575814Y-534186D03*
G01X3083814Y-3074186D03*
G01X3083814Y-2566186D03*
G01X3083814Y-1042186D03*
G01X3083814Y-534186D03*
G01X3591814Y-3074186D03*
G01X3591814Y-2566186D03*
G01X3591814Y-1042186D03*
G01X3591814Y-534186D03*
G01X4099814Y-3074186D03*
G01X4099814Y-2566186D03*
G01X4099814Y-1042186D03*
G01X4099814Y-534186D03*
G01X4607814Y-3074186D03*
G01X4607814Y-2566186D03*
G01X4607814Y-1042186D03*
G01X4607814Y-534186D03*
G01X5115814Y-3074186D03*
G01X5115814Y-2566186D03*
G01X5115814Y-1042186D03*
G01X5115814Y-534186D03*
G01X5623814Y-3074186D03*
G01X5623814Y-2566186D03*
G01X5623814Y-1042186D03*
G01X5623814Y-534186D03*
G01X6131814Y-3074186D03*
G01X6131814Y-2566186D03*
G01X6131814Y-1042186D03*
G01X6131814Y-534186D03*
G01X6639814Y-3074186D03*
G01X6639814Y-2566186D03*
G01X6639814Y-1042186D03*
G01X6639814Y-534186D03*
G01X7147814Y-3074186D03*
G01X7147814Y-2566186D03*
G01X7147814Y-1042186D03*
G01X7147814Y-534186D03*
G01X7655814Y-3074186D03*
G01X7655814Y-2566186D03*
G01X7655814Y-2058186D03*
G01X7655814Y-1042186D03*
G01X7655814Y-534186D03*
G01X8163814Y-534186D03*
G01X8671814Y-3074186D03*
G01X8671814Y-2566186D03*
G01X8671814Y-2058186D03*
G01X8671814Y-1550186D03*
G01X8671814Y-1042186D03*
G01X8671814Y-534186D03*
G01X2811656Y-1806814D03*
G01X3319656Y-1806814D03*
G01X4335656Y-1806814D03*
G01X4843656Y-1806814D03*
G01X5351656Y-1806814D03*
G01X5859656Y-1806814D03*
G01X6367656Y-1806814D03*
G01X6875656Y-1806814D03*
G01X7383656Y-1806814D03*
G01X7891656Y-2314814D03*
G01X2761457Y-1882286D03*
G01X3269457Y-1882286D03*
G04 Via End*

G04 Track Start*
G54D11*
G01X8349500Y-1936000D02*
G01X8445500Y-2032000D01*
G01X8211500Y-1936000D02*
G01X8349500Y-1936000D01*
G01X8331200Y-2311400D02*
G01X8089900Y-2311400D01*
G01X8445500Y-2197100D02*
G01X8331200Y-2311400D01*
G01X8445500Y-2032000D02*
G01X8445500Y-2197100D01*
G01X8209800Y-2190000D02*
G01X8211500Y-2190000D01*
G01X2023859Y-1633741D02*
G01X1919000Y-1633741D01*
G01X1919000Y-1684541D02*
G01X2049259Y-1684541D01*
G01X1919000Y-1734007D02*
G01X2075993Y-1734007D01*
G01X1919000Y-1784020D02*
G01X2102180Y-1784020D01*
G01X1919000Y-1834007D02*
G01X2128393Y-1834007D01*
G01X2154581Y-1884019D02*
G01X1919000Y-1884019D01*
G01X1919000Y-1434007D02*
G01X2058493Y-1434007D01*
G01X2430000Y-1062500D02*
G01X2430000Y-1000000D01*
G01X2058493Y-1434007D02*
G01X2430000Y-1062500D01*
G01X1919000Y-2184018D02*
G01X2114016Y-2184018D01*
G01X2429998Y-2500000D01*
G01X1919000Y-2234005D02*
G01X1920195Y-2235200D01*
G01X2082800Y-2235200D01*
G01X2298700Y-2451100D01*
G01X2298700Y-2692400D01*
G01X2356300Y-2750000D01*
G01X2429998Y-2750000D01*
G01X1919000Y-2284018D02*
G01X2055418Y-2284018D01*
G01X2352300Y-3000000D02*
G01X2429998Y-3000000D01*
G01X1918970Y-2384310D02*
G01X2079510Y-2384310D01*
G01X2197100Y-2501900D01*
G01X2197100Y-3136900D01*
G01X2310200Y-3250000D01*
G01X2429998Y-3250000D01*
G01X2055418Y-2284018D02*
G01X2247900Y-2476500D01*
G01X2247900Y-2895600D01*
G01X2352300Y-3000000D01*
G01X1919000Y-2084018D02*
G01X2096718Y-2084018D01*
G01X2262700Y-2250000D01*
G01X2429998Y-2250000D01*
G54D21*
G01X3752850Y-1969750D02*
G01X3750000Y-1966900D01*
G54D11*
G01X8261646Y-1682000D02*
G01X8211500Y-1682000D01*
G01X8445500Y-1498146D02*
G01X8261646Y-1682000D01*
G01X8077200Y-1549400D02*
G01X8293100Y-1549400D01*
G01X8382000Y-1460500D01*
G01X8089900Y-1054100D02*
G01X8331200Y-1054100D01*
G01X8445500Y-1168400D01*
G01X8445500Y-1498146D01*
G01X8382000Y-1460500D02*
G01X8382000Y-1219200D01*
G01X8336800Y-1174000D01*
G01X8211500Y-1174000D01*
G54D21*
G01X3750000Y-1966900D02*
G01X7364400Y-1966900D01*
G01X7848600Y-2451100D01*
G01X8204400Y-2451100D01*
G01X8211500Y-2444000D01*
G54D11*
G01X2451100Y-1206500D02*
G01X2023859Y-1633741D01*
G01X2049259Y-1684541D02*
G01X2463800Y-1270000D01*
G01X7874000Y-1270000D01*
G01X8089900Y-1054100D01*
G01X2075993Y-1734007D02*
G01X2476500Y-1333500D01*
G01X8117000Y-1333500D01*
G01X8211500Y-1428000D01*
G01X2102180Y-1784020D02*
G01X2489200Y-1397000D01*
G01X7924800Y-1397000D01*
G01X8077200Y-1549400D01*
G01X2128393Y-1834007D02*
G01X2501900Y-1460500D01*
G01X7480300Y-1460500D01*
G01X8209800Y-2190000D01*
G01X8089900Y-2311400D02*
G01X7302500Y-1524000D01*
G01X2514600Y-1524000D01*
G01X2154581Y-1884019D01*
G01X8211500Y-920000D02*
G01X8135100Y-920000D01*
G01X7848600Y-1206500D01*
G01X2451100Y-1206500D01*
G54D22*
G01X1919000Y-2034006D02*
G01X1701800Y-2034006D01*
G01X1919000Y-1934006D02*
G01X2180794Y-1934006D01*
G01X2364800Y-1750000D01*
G01X2430000Y-1750000D01*
G01X1919000Y-1984019D02*
G01X2414019Y-1984019D01*
G01X2430000Y-2000000D01*
G54D11*
G01X2430000Y-2000000D02*
G01X2430000Y-2087100D01*
G54D21*
G01X3000000Y-2000000D02*
G01X3000000Y-2070900D01*
G01X3050000Y-2120900D01*
G01X3702850Y-2120900D01*
G01X3752850Y-2070900D01*
G01X3752850Y-1969750D01*
G54D22*
G01X2430000Y-1750000D02*
G01X2430000Y-1684800D01*
G54D21*
G01X3000000Y-1750000D02*
G01X3000000Y-1675600D01*
G01X3050000Y-1625600D01*
G01X3700000Y-1625600D01*
G01X3750000Y-1675600D01*
G01X3750000Y-1766900D01*
G54D11*
G01X2430000Y-2087100D02*
G01X2476500Y-2133600D01*
G01X2866400Y-2133600D01*
G01X3000000Y-2000000D01*
G54D22*
G01X2430000Y-1684800D02*
G01X2501900Y-1612900D01*
G01X2862900Y-1612900D01*
G01X3000000Y-1750000D01*
G04 Track End*

M02*

