G04 Layer: TopSolderMaskLayer*
G04 EasyEDA Pro v2.2.32.3, 2025-11-09 01:42:38*
G04 Gerber Generator version 0.3*
G04 Scale: 100 percent, Rotated: No, Reflected: No*
G04 Dimensions in millimeters*
G04 Leading zeros omitted, absolute positions, 3 integers and 5 decimals*
%FSLAX35Y35*%
%MOMM*%
%AMRoundRect*1,1,$1,$2,$3*1,1,$1,$4,$5*1,1,$1,0-$2,0-$3*1,1,$1,0-$4,0-$5*20,1,$1,$2,$3,$4,$5,0*20,1,$1,$4,$5,0-$2,0-$3,0*20,1,$1,0-$2,0-$3,0-$4,0-$5,0*20,1,$1,0-$4,0-$5,$2,$3,0*4,1,4,$2,$3,$4,$5,0-$2,0-$3,0-$4,0-$5,$2,$3,0*%
%ADD10RoundRect,0.09554X-0.75303X-0.75303X-0.75303X0.75303*%
%ADD11C,1.6016*%
%ADD12RoundRect,0.09131X-0.40514X-0.40514X-0.40514X0.40514*%
%ADD13RoundRect,0.09387X0.57013X-0.69237X-0.57013X-0.69237*%
G75*


G04 Image Start*
G36*
G01X444159Y-1290414D02*
G01X444159Y-1290414D01*
G01X436477Y-1290073D01*
G01X436477Y-1290073D01*
G01X429137Y-1289151D01*
G01X429137Y-1289151D01*
G01X428523Y-1287614D01*
G01X428523Y-1287614D01*
G01X420841Y-1287000D01*
G01X413774Y-1287000D01*
G01X413774Y-1285464D01*
G01X413774Y-1283927D01*
G01X406127Y-1283927D01*
G01X398479Y-1283927D01*
G01X398317Y-1282519D01*
G01X398317Y-1282519D01*
G01X395211Y-1280957D01*
G01X395211Y-1280957D01*
G01X392266Y-1279293D01*
G01X392266Y-1279293D01*
G01X390730Y-1277782D01*
G01X389194Y-1277782D01*
G01X389194Y-1274710D01*
G01X389194Y-1274710D01*
G01X387677Y-1271637D01*
G01X386161Y-1271637D01*
G01X386013Y-1267156D01*
G01X386013Y-1267156D01*
G01X384457Y-1262514D01*
G01X384457Y-1262514D01*
G01X383048Y-1259313D01*
G01X383048Y-1259313D01*
G01X381512Y-1256274D01*
G01X379976Y-1256274D01*
G01X379976Y-1253202D01*
G01X379976Y-1250129D01*
G01X378440Y-1250129D01*
G01X378440Y-1250129D01*
G01X376903Y-1248593D01*
G01X376903Y-1248593D01*
G01X378440Y-1247057D01*
G01X378440Y-1247057D01*
G01X379976Y-1245521D01*
G01X379976Y-1245521D01*
G01X381512Y-1243984D01*
G01X381512Y-1243984D01*
G01X383048Y-1242482D01*
G01X383048Y-1242482D01*
G01X384457Y-1240818D01*
G01X384457Y-1240818D01*
G01X386019Y-1237711D01*
G01X386019Y-1237711D01*
G01X387683Y-1234767D01*
G01X387683Y-1234767D01*
G01X389194Y-1233230D01*
G01X389194Y-1233230D01*
G01X390730Y-1231694D01*
G01X392266Y-1231694D01*
G01X392266Y-1228622D01*
G01X392266Y-1225549D01*
G01X393802Y-1225549D01*
G01X393802Y-1225549D01*
G01X395339Y-1224013D01*
G01X395339Y-1224013D01*
G01X396875Y-1222476D01*
G01X396875Y-1222476D01*
G01X398411Y-1220980D01*
G01X398411Y-1220980D01*
G01X399948Y-1217946D01*
G01X399948Y-1217946D01*
G01X401484Y-1214834D01*
G01X401484Y-1214834D01*
G01X403020Y-1213259D01*
G01X403020Y-1213259D01*
G01X404556Y-1210196D01*
G01X404556Y-1210196D01*
G01X405792Y-1206823D01*
G01X405792Y-1206823D01*
G01X407338Y-1205277D01*
G01X407338Y-1205277D01*
G01X407338Y-1202805D01*
G01X407338Y-1202805D01*
G01X405792Y-1201259D01*
G01X405792Y-1201259D01*
G01X404556Y-1199423D01*
G01X404556Y-1199423D01*
G01X403020Y-1197896D01*
G01X403020Y-1197896D01*
G01X401484Y-1196360D01*
G01X401484Y-1196360D01*
G01X399948Y-1194824D01*
G01X399948Y-1194824D01*
G01X398411Y-1193287D01*
G01X398411Y-1193287D01*
G01X396909Y-1191751D01*
G01X396909Y-1191751D01*
G01X395245Y-1190343D01*
G01X395245Y-1190343D01*
G01X393674Y-1188772D01*
G01X393674Y-1188772D01*
G01X392266Y-1187108D01*
G01X392266Y-1187108D01*
G01X390764Y-1185606D01*
G01X390764Y-1185606D01*
G01X389100Y-1184198D01*
G01X389100Y-1184198D01*
G01X387529Y-1182627D01*
G01X387529Y-1182627D01*
G01X386121Y-1180963D01*
G01X386121Y-1180963D01*
G01X384585Y-1179461D01*
G01X384585Y-1179461D01*
G01X383048Y-1177925D01*
G01X383048Y-1177925D01*
G01X381546Y-1176388D01*
G01X381546Y-1176388D01*
G01X379882Y-1174980D01*
G01X379882Y-1174980D01*
G01X378312Y-1173410D01*
G01X378312Y-1173410D01*
G01X376903Y-1171745D01*
G01X376903Y-1171745D01*
G01X375367Y-1170243D01*
G01X375367Y-1170243D01*
G01X373831Y-1168707D01*
G01X373831Y-1167171D01*
G01X367686Y-1167171D01*
G01X361540Y-1167171D01*
G01X361540Y-1168707D01*
G01X361540Y-1168707D01*
G01X360004Y-1170243D01*
G01X360004Y-1170243D01*
G01X358468Y-1171779D01*
G01X358468Y-1173316D01*
G01X355395Y-1173316D01*
G01X352323Y-1173316D01*
G01X352323Y-1174852D01*
G01X352323Y-1174852D01*
G01X350786Y-1176388D01*
G01X350786Y-1176388D01*
G01X349250Y-1177925D01*
G01X349250Y-1179461D01*
G01X346177Y-1179461D01*
G01X343105Y-1179461D01*
G01X343105Y-1180997D01*
G01X343105Y-1180997D01*
G01X341569Y-1182533D01*
G01X341569Y-1182533D01*
G01X340032Y-1184070D01*
G01X340032Y-1185606D01*
G01X336960Y-1185606D01*
G01X333887Y-1185606D01*
G01X333887Y-1187142D01*
G01X333887Y-1187142D01*
G01X332351Y-1188678D01*
G01X332351Y-1188678D01*
G01X330815Y-1190189D01*
G01X330815Y-1190189D01*
G01X327873Y-1191853D01*
G01X327873Y-1191853D01*
G01X324653Y-1193543D01*
G01X324653Y-1193543D01*
G01X324059Y-1193934D01*
G01X324059Y-1193934D01*
G01X322381Y-1192269D01*
G01X322381Y-1192269D01*
G01X318235Y-1191751D01*
G01X318235Y-1191751D01*
G01X315452Y-1190215D01*
G01X315452Y-1188678D01*
G01X312379Y-1188678D01*
G01X309307Y-1188678D01*
G01X309307Y-1187142D01*
G01X309307Y-1185606D01*
G01X304698Y-1185606D01*
G01X300089Y-1185606D01*
G01X300089Y-1184070D01*
G01X300089Y-1182533D01*
G01X297016Y-1182533D01*
G01X293944Y-1182533D01*
G01X293944Y-1180997D01*
G01X293944Y-1180997D01*
G01X292407Y-1179461D01*
G01X290871Y-1179461D01*
G01X290871Y-1176388D01*
G01X290871Y-1176388D01*
G01X289345Y-1173316D01*
G01X287819Y-1173316D01*
G01X287681Y-1162690D01*
G01X287542Y-1152064D01*
G01X286148Y-1151903D01*
G01X284753Y-1151742D01*
G01X284611Y-1144222D01*
G01X284470Y-1136701D01*
G01X283062Y-1136539D01*
G01X283062Y-1136539D01*
G01X281653Y-1133339D01*
G01X281653Y-1130300D01*
G01X252464Y-1130300D01*
G01X223274Y-1130300D01*
G01X223274Y-1136445D01*
G01X223274Y-1142590D01*
G01X221738Y-1142590D01*
G01X220202Y-1142590D01*
G01X220202Y-1150272D01*
G01X220202Y-1150272D01*
G01X219470Y-1157953D01*
G01X219470Y-1157953D01*
G01X217934Y-1158758D01*
G01X217934Y-1158758D01*
G01X217129Y-1167975D01*
G01X217129Y-1176388D01*
G01X215593Y-1176388D01*
G01X215593Y-1176388D01*
G01X214057Y-1177925D01*
G01X214057Y-1179461D01*
G01X210984Y-1179461D01*
G01X207911Y-1179461D01*
G01X207911Y-1180997D01*
G01X207911Y-1182533D01*
G01X204839Y-1182533D01*
G01X201766Y-1182533D01*
G01X201766Y-1184070D01*
G01X201766Y-1185606D01*
G01X197157Y-1185606D01*
G01X192549Y-1185606D01*
G01X192549Y-1187142D01*
G01X192549Y-1188678D01*
G01X189476Y-1188678D01*
G01X186403Y-1188678D01*
G01X186403Y-1190215D01*
G01X186403Y-1191751D01*
G01X180258Y-1191751D01*
G01X174113Y-1191751D01*
G01X174113Y-1190215D01*
G01X174113Y-1190215D01*
G01X172577Y-1188678D01*
G01X172577Y-1188678D01*
G01X171040Y-1187142D01*
G01X171040Y-1187142D01*
G01X169514Y-1185606D01*
G01X169514Y-1185606D01*
G01X167678Y-1184374D01*
G01X167678Y-1184374D01*
G01X166260Y-1182845D01*
G01X166260Y-1182845D01*
G01X163487Y-1182540D01*
G01X163487Y-1182540D01*
G01X161823Y-1180997D01*
G01X161823Y-1180997D01*
G01X160286Y-1179461D01*
G01X160286Y-1179461D01*
G01X158750Y-1177925D01*
G01X158750Y-1176388D01*
G01X155678Y-1176388D01*
G01X152605Y-1176388D01*
G01X152605Y-1174852D01*
G01X152605Y-1174852D01*
G01X151069Y-1173316D01*
G01X151069Y-1173316D01*
G01X149532Y-1171779D01*
G01X149532Y-1171779D01*
G01X147983Y-1170243D01*
G01X147983Y-1170243D01*
G01X145974Y-1169033D01*
G01X145974Y-1169033D01*
G01X144323Y-1167504D01*
G01X144323Y-1167504D01*
G01X138650Y-1167178D01*
G01X134170Y-1167171D01*
G01X134170Y-1168707D01*
G01X134170Y-1168707D01*
G01X132633Y-1170243D01*
G01X132633Y-1170243D01*
G01X131097Y-1171779D01*
G01X131097Y-1171779D01*
G01X129561Y-1173316D01*
G01X129561Y-1173316D01*
G01X128024Y-1174852D01*
G01X128024Y-1174852D01*
G01X126488Y-1176388D01*
G01X126488Y-1176388D01*
G01X124952Y-1177925D01*
G01X124952Y-1177925D01*
G01X123415Y-1179461D01*
G01X123415Y-1179461D01*
G01X121879Y-1180997D01*
G01X121879Y-1180997D01*
G01X120343Y-1182533D01*
G01X120343Y-1182533D01*
G01X118807Y-1184070D01*
G01X118807Y-1184070D01*
G01X117270Y-1185606D01*
G01X117270Y-1185606D01*
G01X115734Y-1187142D01*
G01X115734Y-1187142D01*
G01X114198Y-1188678D01*
G01X114198Y-1188678D01*
G01X112661Y-1190215D01*
G01X112661Y-1190215D01*
G01X111125Y-1191751D01*
G01X111125Y-1191751D01*
G01X109589Y-1193287D01*
G01X109589Y-1193287D01*
G01X108053Y-1194824D01*
G01X108053Y-1194824D01*
G01X106516Y-1196360D01*
G01X106516Y-1196360D01*
G01X104980Y-1197896D01*
G01X104980Y-1197896D01*
G01X103444Y-1199432D01*
G01X103444Y-1199432D01*
G01X101907Y-1200969D01*
G01X100371Y-1200969D01*
G01X100371Y-1205577D01*
G01X100371Y-1210186D01*
G01X101907Y-1210186D01*
G01X103444Y-1210186D01*
G01X103444Y-1213259D01*
G01X103444Y-1216331D01*
G01X104980Y-1216331D01*
G01X104980Y-1216331D01*
G01X106516Y-1217868D01*
G01X106516Y-1217868D01*
G01X108027Y-1219404D01*
G01X108027Y-1219404D01*
G01X109691Y-1222348D01*
G01X109691Y-1222348D01*
G01X111253Y-1225455D01*
G01X111253Y-1225455D01*
G01X112661Y-1227119D01*
G01X112661Y-1227119D01*
G01X114198Y-1228622D01*
G01X115734Y-1228622D01*
G01X115734Y-1231694D01*
G01X115734Y-1234767D01*
G01X117270Y-1234767D01*
G01X117270Y-1234767D01*
G01X118807Y-1236303D01*
G01X118807Y-1236303D01*
G01X120317Y-1237839D01*
G01X120317Y-1237839D01*
G01X121982Y-1240784D01*
G01X121982Y-1240784D01*
G01X123544Y-1243890D01*
G01X123544Y-1243890D01*
G01X124952Y-1245521D01*
G01X124952Y-1245521D01*
G01X123544Y-1247151D01*
G01X123544Y-1247151D01*
G01X121982Y-1250257D01*
G01X121982Y-1250257D01*
G01X120932Y-1253202D01*
G01X120932Y-1253202D01*
G01X119421Y-1253816D01*
G01X119421Y-1253816D01*
G01X118807Y-1256889D01*
G01X118807Y-1256889D01*
G01X117270Y-1259347D01*
G01X115734Y-1259347D01*
G01X115734Y-1263956D01*
G01X115734Y-1268565D01*
G01X118807Y-1268565D01*
G01X121879Y-1268565D01*
G01X121879Y-1270101D01*
G01X121879Y-1271637D01*
G01X126488Y-1271637D01*
G01X131097Y-1271637D01*
G01X131097Y-1273174D01*
G01X131097Y-1274710D01*
G01X134170Y-1274710D01*
G01X137242Y-1274710D01*
G01X137242Y-1276246D01*
G01X137242Y-1276246D01*
G01X140281Y-1277782D01*
G01X140281Y-1277782D01*
G01X143481Y-1279191D01*
G01X143481Y-1279191D01*
G01X148124Y-1280747D01*
G01X152605Y-1280895D01*
G01X152605Y-1282411D01*
G01X152605Y-1282411D01*
G01X155644Y-1283927D01*
G01X155644Y-1283927D01*
G01X158844Y-1285336D01*
G01X158844Y-1285336D01*
G01X163487Y-1286892D01*
G01X167968Y-1287040D01*
G01X167968Y-1288556D01*
G01X167968Y-1288556D01*
G01X171006Y-1290073D01*
G01X171006Y-1290073D01*
G01X174207Y-1291481D01*
G01X174207Y-1291481D01*
G01X178850Y-1293037D01*
G01X183331Y-1293185D01*
G01X183331Y-1294701D01*
G01X183331Y-1294701D01*
G01X186369Y-1296218D01*
G01X186369Y-1296218D01*
G01X189570Y-1297626D01*
G01X189570Y-1297626D01*
G01X194213Y-1299182D01*
G01X198694Y-1299330D01*
G01X198694Y-1300846D01*
G01X198694Y-1300846D01*
G01X201766Y-1302363D01*
G01X204839Y-1302363D01*
G01X204839Y-1300826D01*
G01X204839Y-1300826D01*
G01X206375Y-1299290D01*
G01X206375Y-1299290D01*
G01X207911Y-1297754D01*
G01X207911Y-1297754D01*
G01X209448Y-1296218D01*
G01X210984Y-1296218D01*
G01X210984Y-1293145D01*
G01X210984Y-1290073D01*
G01X212520Y-1290073D01*
G01X212520Y-1290073D01*
G01X214057Y-1288536D01*
G01X214057Y-1288536D01*
G01X215593Y-1287000D01*
G01X215593Y-1287000D01*
G01X217129Y-1285464D01*
G01X217129Y-1285464D01*
G01X218665Y-1283927D01*
G01X218665Y-1283927D01*
G01X220202Y-1282391D01*
G01X220202Y-1282391D01*
G01X221866Y-1280848D01*
G01X221866Y-1280848D01*
G01X224639Y-1280543D01*
G01X224639Y-1280543D01*
G01X226057Y-1279014D01*
G01X226057Y-1279014D01*
G01X227893Y-1277782D01*
G01X227893Y-1277782D01*
G01X229419Y-1276246D01*
G01X229419Y-1274710D01*
G01X232492Y-1274710D01*
G01X235565Y-1274710D01*
G01X235565Y-1273174D01*
G01X235565Y-1271637D01*
G01X252430Y-1271637D01*
G01X269295Y-1271637D01*
G01X269457Y-1273045D01*
G01X269457Y-1273045D01*
G01X272564Y-1274607D01*
G01X272564Y-1274607D01*
G01X275508Y-1276272D01*
G01X275508Y-1276272D01*
G01X278581Y-1277782D01*
G01X281653Y-1277782D01*
G01X281653Y-1279319D01*
G01X281653Y-1279319D01*
G01X283190Y-1280855D01*
G01X283190Y-1280855D01*
G01X284726Y-1282391D01*
G01X284726Y-1282391D01*
G01X286262Y-1283927D01*
G01X286262Y-1283927D01*
G01X287798Y-1285464D01*
G01X287798Y-1285464D01*
G01X289335Y-1287000D01*
G01X289335Y-1287000D01*
G01X290871Y-1288536D01*
G01X290871Y-1288536D01*
G01X292407Y-1290073D01*
G01X292407Y-1290073D01*
G01X293944Y-1291609D01*
G01X293944Y-1291609D01*
G01X295460Y-1293145D01*
G01X296976Y-1293145D01*
G01X297124Y-1297626D01*
G01X297124Y-1297626D01*
G01X298681Y-1302269D01*
G01X300089Y-1302431D01*
G01X300089Y-1307006D01*
G01X300089Y-1311580D01*
G01X301625Y-1311580D01*
G01X303161Y-1311580D01*
G01X303161Y-1319262D01*
G01X303161Y-1326943D01*
G01X301625Y-1326943D01*
G01X300089Y-1326943D01*
G01X300089Y-1331518D01*
G01X300089Y-1336093D01*
G01X298681Y-1336255D01*
G01X298681Y-1336255D01*
G01X297124Y-1340898D01*
G01X296976Y-1345378D01*
G01X295460Y-1345378D01*
G01X295460Y-1345378D01*
G01X293944Y-1346915D01*
G01X293944Y-1346915D01*
G01X292407Y-1348451D01*
G01X292407Y-1348451D01*
G01X290871Y-1349987D01*
G01X290871Y-1349987D01*
G01X289335Y-1351523D01*
G01X289335Y-1351523D01*
G01X287798Y-1353026D01*
G01X287798Y-1353026D01*
G01X286390Y-1354690D01*
G01X286390Y-1354690D01*
G01X284820Y-1356260D01*
G01X284820Y-1356260D01*
G01X283156Y-1357669D01*
G01X283156Y-1357669D01*
G01X281653Y-1359179D01*
G01X281653Y-1359179D01*
G01X278709Y-1360844D01*
G01X278709Y-1360844D01*
G01X275602Y-1362405D01*
G01X275602Y-1362405D01*
G01X273938Y-1363814D01*
G01X273938Y-1363814D01*
G01X272436Y-1365334D01*
G01X272436Y-1366854D01*
G01X266418Y-1366998D01*
G01X260401Y-1367142D01*
G01X260239Y-1368551D01*
G01X260077Y-1369959D01*
G01X253976Y-1369959D01*
G01X253976Y-1369959D01*
G01X247565Y-1368727D01*
G01X247565Y-1368727D01*
G01X246147Y-1367198D01*
G01X246147Y-1367198D01*
G01X238765Y-1366893D01*
G01X232492Y-1366886D01*
G01X232492Y-1365350D01*
G01X232492Y-1365350D01*
G01X230956Y-1363814D01*
G01X230956Y-1363814D01*
G01X229419Y-1362277D01*
G01X229419Y-1360741D01*
G01X226347Y-1360741D01*
G01X223274Y-1360741D01*
G01X223274Y-1359205D01*
G01X223274Y-1359205D01*
G01X221738Y-1357669D01*
G01X221738Y-1357669D01*
G01X220202Y-1356132D01*
G01X220202Y-1356132D01*
G01X218665Y-1354596D01*
G01X218665Y-1354596D01*
G01X217129Y-1353060D01*
G01X217129Y-1353060D01*
G01X215593Y-1351523D01*
G01X215593Y-1351523D01*
G01X214057Y-1349987D01*
G01X214057Y-1349987D01*
G01X212520Y-1348451D01*
G01X212520Y-1348451D01*
G01X210984Y-1345993D01*
G01X210984Y-1345993D01*
G01X210369Y-1342920D01*
G01X210369Y-1342920D01*
G01X208833Y-1342306D01*
G01X208833Y-1342306D01*
G01X207911Y-1340770D01*
G01X207911Y-1340770D01*
G01X206375Y-1339233D01*
G01X206375Y-1339233D01*
G01X204839Y-1337697D01*
G01X204839Y-1336161D01*
G01X201766Y-1336161D01*
G01X198694Y-1336161D01*
G01X198694Y-1337697D01*
G01X198694Y-1339233D01*
G01X195621Y-1339233D01*
G01X192549Y-1339233D01*
G01X192549Y-1340770D01*
G01X192549Y-1342306D01*
G01X187940Y-1342306D01*
G01X183331Y-1342306D01*
G01X183331Y-1343842D01*
G01X183331Y-1345378D01*
G01X180258Y-1345378D01*
G01X177186Y-1345378D01*
G01X177186Y-1346915D01*
G01X177186Y-1348451D01*
G01X174113Y-1348451D01*
G01X171040Y-1348451D01*
G01X171040Y-1349987D01*
G01X171040Y-1351523D01*
G01X166432Y-1351523D01*
G01X161823Y-1351523D01*
G01X161823Y-1353060D01*
G01X161823Y-1354596D01*
G01X158750Y-1354596D01*
G01X155678Y-1354596D01*
G01X155678Y-1356132D01*
G01X155678Y-1357669D01*
G01X151069Y-1357669D01*
G01X146460Y-1357669D01*
G01X146460Y-1359185D01*
G01X146460Y-1360701D01*
G01X141979Y-1360849D01*
G01X141979Y-1360849D01*
G01X137336Y-1362405D01*
G01X137336Y-1362405D01*
G01X134136Y-1363814D01*
G01X134136Y-1363814D01*
G01X131097Y-1365350D01*
G01X131097Y-1365350D01*
G01X128152Y-1366893D01*
G01X128152Y-1366893D01*
G01X124016Y-1367219D01*
G01X124016Y-1367219D01*
G01X122365Y-1368749D01*
G01X122365Y-1368749D01*
G01X119624Y-1369959D01*
G01X119624Y-1369959D01*
G01X116539Y-1370763D01*
G01X116539Y-1370763D01*
G01X115734Y-1375372D01*
G01X115734Y-1379176D01*
G01X117270Y-1379176D01*
G01X118807Y-1379176D01*
G01X118807Y-1382249D01*
G01X118807Y-1385322D01*
G01X120343Y-1385322D01*
G01X121879Y-1385322D01*
G01X121879Y-1388394D01*
G01X121879Y-1391467D01*
G01X123415Y-1391467D01*
G01X124952Y-1391467D01*
G01X124952Y-1394539D01*
G01X124952Y-1397612D01*
G01X123415Y-1397612D01*
G01X123415Y-1397612D01*
G01X121879Y-1399148D01*
G01X121879Y-1399148D01*
G01X120343Y-1400684D01*
G01X118807Y-1400684D01*
G01X118807Y-1403757D01*
G01X118807Y-1406829D01*
G01X117270Y-1406829D01*
G01X117270Y-1406829D01*
G01X115734Y-1408366D01*
G01X115734Y-1408366D01*
G01X114198Y-1409902D01*
G01X114198Y-1409902D01*
G01X112661Y-1411438D01*
G01X112661Y-1411438D01*
G01X111930Y-1412974D01*
G01X111930Y-1412974D01*
G01X110394Y-1413779D01*
G01X110394Y-1413779D01*
G01X109589Y-1416852D01*
G01X109589Y-1416852D01*
G01X108053Y-1419120D01*
G01X108053Y-1419120D01*
G01X106516Y-1420656D01*
G01X106516Y-1420656D01*
G01X104980Y-1422192D01*
G01X103444Y-1422192D01*
G01X103444Y-1425265D01*
G01X103444Y-1428337D01*
G01X101907Y-1428337D01*
G01X100371Y-1428337D01*
G01X100371Y-1432946D01*
G01X100371Y-1437555D01*
G01X101882Y-1437555D01*
G01X101882Y-1437555D01*
G01X103546Y-1440499D01*
G01X103546Y-1440499D01*
G01X105312Y-1443600D01*
G01X105312Y-1443600D01*
G01X107183Y-1444747D01*
G01X107183Y-1444747D01*
G01X108805Y-1446254D01*
G01X108805Y-1446254D01*
G01X111415Y-1446772D01*
G01X111415Y-1446772D01*
G01X112661Y-1449231D01*
G01X112661Y-1449231D01*
G01X113276Y-1452303D01*
G01X113276Y-1452303D01*
G01X116349Y-1452918D01*
G01X116349Y-1452918D01*
G01X118807Y-1454454D01*
G01X118807Y-1454454D01*
G01X120317Y-1455990D01*
G01X120317Y-1455990D01*
G01X121982Y-1458935D01*
G01X122135Y-1461879D01*
G01X125080Y-1462033D01*
G01X125080Y-1462033D01*
G01X128024Y-1463697D01*
G01X128024Y-1463697D01*
G01X129535Y-1465208D01*
G01X129535Y-1465208D01*
G01X131199Y-1468152D01*
G01X131353Y-1471097D01*
G01X138906Y-1471239D01*
G01X146460Y-1471380D01*
G01X146460Y-1469830D01*
G01X146460Y-1469830D01*
G01X147996Y-1468280D01*
G01X147996Y-1468280D01*
G01X149532Y-1466744D01*
G01X149532Y-1466744D01*
G01X151990Y-1465208D01*
G01X151990Y-1465208D01*
G01X155063Y-1464593D01*
G01X155063Y-1464593D01*
G01X155678Y-1463057D01*
G01X155678Y-1463057D01*
G01X157214Y-1462135D01*
G01X157214Y-1462135D01*
G01X158750Y-1460599D01*
G01X158750Y-1460599D01*
G01X160286Y-1459063D01*
G01X160286Y-1459063D01*
G01X161823Y-1457526D01*
G01X161823Y-1455990D01*
G01X164895Y-1455990D01*
G01X167968Y-1455990D01*
G01X167968Y-1454454D01*
G01X167968Y-1454454D01*
G01X169504Y-1452918D01*
G01X169504Y-1452918D01*
G01X171040Y-1451381D01*
G01X171040Y-1449845D01*
G01X174113Y-1449845D01*
G01X177186Y-1449845D01*
G01X177186Y-1448309D01*
G01X177186Y-1448309D01*
G01X180224Y-1446772D01*
G01X180224Y-1446772D01*
G01X183425Y-1448181D01*
G01X183425Y-1448181D01*
G01X188068Y-1449737D01*
G01X192549Y-1449885D01*
G01X192549Y-1451401D01*
G01X192549Y-1451401D01*
G01X195587Y-1452918D01*
G01X195587Y-1452918D01*
G01X198788Y-1454326D01*
G01X198788Y-1454326D01*
G01X203431Y-1455882D01*
G01X207911Y-1456030D01*
G01X207911Y-1457546D01*
G01X207911Y-1457546D01*
G01X210984Y-1459063D01*
G01X214057Y-1459063D01*
G01X214057Y-1460599D01*
G01X214057Y-1460599D01*
G01X215593Y-1462135D01*
G01X217129Y-1462135D01*
G01X217129Y-1470548D01*
G01X217129Y-1470548D01*
G01X217934Y-1479766D01*
G01X217934Y-1479766D01*
G01X219470Y-1480571D01*
G01X219470Y-1480571D01*
G01X220202Y-1488252D01*
G01X220202Y-1495933D01*
G01X221738Y-1495933D01*
G01X223274Y-1495933D01*
G01X223274Y-1502078D01*
G01X223274Y-1508223D01*
G01X224811Y-1508223D01*
G01X224811Y-1508223D01*
G01X226347Y-1509760D01*
G01X226347Y-1511296D01*
G01X252464Y-1511296D01*
G01X278581Y-1511296D01*
G01X278581Y-1509760D01*
G01X278581Y-1509760D01*
G01X280117Y-1508223D01*
G01X281653Y-1508223D01*
G01X281653Y-1505151D01*
G01X281653Y-1502078D01*
G01X283190Y-1502078D01*
G01X284726Y-1502078D01*
G01X284726Y-1494431D01*
G01X284726Y-1486784D01*
G01X286134Y-1486622D01*
G01X287542Y-1486460D01*
G01X287681Y-1475834D01*
G01X287819Y-1465208D01*
G01X289345Y-1465208D01*
G01X289345Y-1465208D01*
G01X290871Y-1462135D01*
G01X290871Y-1459063D01*
G01X292407Y-1459063D01*
G01X292407Y-1459063D01*
G01X293944Y-1457526D01*
G01X293944Y-1455990D01*
G01X298552Y-1455990D01*
G01X303161Y-1455990D01*
G01X303161Y-1454454D01*
G01X303161Y-1452918D01*
G01X306234Y-1452918D01*
G01X309307Y-1452918D01*
G01X309307Y-1451381D01*
G01X309307Y-1449845D01*
G01X312379Y-1449845D01*
G01X315452Y-1449845D01*
G01X315452Y-1448309D01*
G01X315452Y-1446772D01*
G01X323133Y-1446772D01*
G01X330815Y-1446772D01*
G01X330815Y-1448309D01*
G01X330815Y-1448309D01*
G01X332351Y-1449845D01*
G01X332351Y-1449845D01*
G01X333887Y-1451381D01*
G01X333887Y-1451381D01*
G01X335414Y-1452918D01*
G01X335414Y-1452918D01*
G01X337249Y-1454149D01*
G01X337249Y-1454149D01*
G01X338667Y-1455679D01*
G01X338667Y-1455679D01*
G01X341441Y-1455983D01*
G01X341441Y-1455983D01*
G01X343105Y-1457526D01*
G01X343105Y-1457526D01*
G01X344641Y-1459063D01*
G01X344641Y-1459063D01*
G01X346177Y-1460599D01*
G01X346177Y-1462135D01*
G01X349250Y-1462135D01*
G01X352323Y-1462135D01*
G01X352323Y-1463672D01*
G01X352323Y-1463672D01*
G01X353825Y-1465208D01*
G01X353825Y-1465208D01*
G01X355489Y-1466616D01*
G01X355489Y-1466616D01*
G01X358596Y-1468178D01*
G01X358596Y-1468178D01*
G01X361540Y-1469842D01*
G01X361540Y-1471353D01*
G01X367686Y-1471353D01*
G01X373831Y-1471353D01*
G01X373831Y-1469817D01*
G01X373831Y-1469817D01*
G01X375367Y-1468280D01*
G01X375367Y-1468280D01*
G01X376903Y-1466744D01*
G01X376903Y-1466744D01*
G01X378440Y-1465208D01*
G01X378440Y-1465208D01*
G01X379976Y-1463672D01*
G01X379976Y-1463672D01*
G01X381512Y-1462135D01*
G01X381512Y-1462135D01*
G01X383048Y-1460599D01*
G01X383048Y-1460599D01*
G01X384585Y-1459063D01*
G01X384585Y-1459063D01*
G01X386121Y-1457526D01*
G01X386121Y-1457526D01*
G01X387657Y-1455990D01*
G01X387657Y-1455990D01*
G01X389194Y-1454454D01*
G01X389194Y-1454454D01*
G01X390730Y-1452918D01*
G01X390730Y-1452918D01*
G01X392266Y-1451381D01*
G01X392266Y-1451381D01*
G01X393802Y-1449845D01*
G01X393802Y-1449845D01*
G01X395339Y-1448309D01*
G01X395339Y-1448309D01*
G01X396875Y-1446772D01*
G01X396875Y-1446772D01*
G01X398411Y-1445236D01*
G01X398411Y-1445236D01*
G01X399948Y-1443700D01*
G01X399948Y-1443700D01*
G01X401484Y-1442164D01*
G01X401484Y-1442164D01*
G01X403020Y-1440627D01*
G01X403020Y-1440627D01*
G01X404556Y-1439125D01*
G01X404556Y-1439125D01*
G01X405965Y-1437461D01*
G01X405965Y-1437461D01*
G01X407373Y-1434482D01*
G01X407373Y-1434482D01*
G01X405989Y-1431506D01*
G01X405989Y-1431506D01*
G01X404453Y-1428434D01*
G01X404453Y-1428434D01*
G01X402892Y-1425359D01*
G01X402892Y-1425359D01*
G01X401484Y-1423694D01*
G01X401484Y-1423694D01*
G01X399948Y-1422192D01*
G01X398411Y-1422192D01*
G01X398411Y-1419120D01*
G01X398411Y-1416047D01*
G01X396875Y-1416047D01*
G01X396875Y-1416047D01*
G01X395339Y-1414511D01*
G01X395339Y-1414511D01*
G01X393802Y-1412974D01*
G01X392266Y-1412974D01*
G01X392266Y-1409902D01*
G01X392266Y-1406829D01*
G01X390730Y-1406829D01*
G01X390730Y-1406829D01*
G01X389194Y-1405293D01*
G01X389194Y-1405293D01*
G01X387657Y-1403757D01*
G01X387657Y-1403757D01*
G01X386121Y-1402221D01*
G01X386121Y-1402221D01*
G01X384585Y-1400684D01*
G01X383048Y-1400684D01*
G01X383048Y-1397612D01*
G01X383048Y-1394539D01*
G01X381512Y-1394539D01*
G01X381512Y-1394539D01*
G01X379976Y-1393003D01*
G01X379976Y-1393003D01*
G01X379361Y-1391467D01*
G01X379361Y-1391467D01*
G01X379361Y-1390852D01*
G01X379361Y-1390852D01*
G01X379976Y-1386243D01*
G01X379976Y-1382249D01*
G01X381512Y-1382249D01*
G01X383048Y-1382249D01*
G01X383048Y-1379176D01*
G01X383048Y-1376104D01*
G01X384585Y-1376104D01*
G01X386121Y-1376104D01*
G01X386121Y-1371495D01*
G01X386121Y-1366886D01*
G01X387657Y-1366886D01*
G01X389194Y-1366886D01*
G01X389194Y-1363814D01*
G01X389194Y-1360741D01*
G01X390730Y-1360741D01*
G01X390730Y-1360741D01*
G01X392266Y-1359205D01*
G01X392266Y-1357669D01*
G01X396875Y-1357669D01*
G01X401484Y-1357669D01*
G01X401484Y-1356146D01*
G01X401484Y-1354623D01*
G01X409037Y-1354482D01*
G01X416591Y-1354340D01*
G01X416753Y-1352932D01*
G01X416915Y-1351523D01*
G01X425484Y-1351523D01*
G01X425484Y-1351523D01*
G01X434668Y-1350909D01*
G01X434668Y-1350909D01*
G01X435282Y-1349373D01*
G01X435282Y-1349373D01*
G01X439891Y-1348451D01*
G01X444500Y-1348451D01*
G01X444500Y-1319603D01*
G01X444500Y-1319603D01*
G01X444159Y-1290414D01*
G37*
G36*
G01X250928Y-1683359D02*
G01X131097Y-1683359D01*
G01X131097Y-1695649D01*
G01X131097Y-1707939D01*
G01X164895Y-1707939D01*
G01X198694Y-1707939D01*
G01X198694Y-1709475D01*
G01X198694Y-1709475D01*
G01X200230Y-1711012D01*
G01X201766Y-1711012D01*
G01X201766Y-1714084D01*
G01X201766Y-1717157D01*
G01X203303Y-1717157D01*
G01X204839Y-1717157D01*
G01X204839Y-1723302D01*
G01X204839Y-1729447D01*
G01X203303Y-1729447D01*
G01X203303Y-1729447D01*
G01X201766Y-1730983D01*
G01X201766Y-1730983D01*
G01X200230Y-1732519D01*
G01X200230Y-1732519D01*
G01X198694Y-1734052D01*
G01X198694Y-1735584D01*
G01X166560Y-1735716D01*
G01X134426Y-1735848D01*
G01X134264Y-1737256D01*
G01X134264Y-1737256D01*
G01X132599Y-1738665D01*
G01X131097Y-1738665D01*
G01X131097Y-1749419D01*
G01X131097Y-1760172D01*
G01X171040Y-1760172D01*
G01X210984Y-1760172D01*
G01X210984Y-1758636D01*
G01X210984Y-1758636D01*
G01X212520Y-1757100D01*
G01X212520Y-1757100D01*
G01X214057Y-1755589D01*
G01X214057Y-1755589D01*
G01X217001Y-1753925D01*
G01X217001Y-1753925D01*
G01X220108Y-1752363D01*
G01X220108Y-1752363D01*
G01X221772Y-1750955D01*
G01X221772Y-1750955D01*
G01X223274Y-1747882D01*
G01X223274Y-1744810D01*
G01X224811Y-1744810D01*
G01X226347Y-1744810D01*
G01X226347Y-1740201D01*
G01X226347Y-1735592D01*
G01X227883Y-1735592D01*
G01X229419Y-1735592D01*
G01X229419Y-1727911D01*
G01X229419Y-1720229D01*
G01X227883Y-1720229D01*
G01X226347Y-1720229D01*
G01X226347Y-1715620D01*
G01X226347Y-1711012D01*
G01X224811Y-1711012D01*
G01X224811Y-1711012D01*
G01X223274Y-1709475D01*
G01X223274Y-1707939D01*
G01X250928Y-1707939D01*
G01X278581Y-1707939D01*
G01X278581Y-1709488D01*
G01X278581Y-1709488D01*
G01X277370Y-1711497D01*
G01X277370Y-1711497D01*
G01X275841Y-1713149D01*
G01X275841Y-1713149D01*
G01X275515Y-1717285D01*
G01X275515Y-1717285D01*
G01X273972Y-1720229D01*
G01X272436Y-1720229D01*
G01X272436Y-1727911D01*
G01X272436Y-1735592D01*
G01X273972Y-1735592D01*
G01X275508Y-1735592D01*
G01X275508Y-1740201D01*
G01X275508Y-1744810D01*
G01X277044Y-1744810D01*
G01X277044Y-1744810D01*
G01X278581Y-1746346D01*
G01X278581Y-1746346D01*
G01X280117Y-1747882D01*
G01X280117Y-1747882D01*
G01X281653Y-1749419D01*
G01X281653Y-1749419D01*
G01X283190Y-1750955D01*
G01X283190Y-1750955D01*
G01X284726Y-1752491D01*
G01X284726Y-1752491D01*
G01X286262Y-1754027D01*
G01X286262Y-1754027D01*
G01X287798Y-1755564D01*
G01X287798Y-1755564D01*
G01X289301Y-1757100D01*
G01X289301Y-1757100D01*
G01X290965Y-1758508D01*
G01X291127Y-1759916D01*
G01X321725Y-1760048D01*
G01X352323Y-1760180D01*
G01X352323Y-1758640D01*
G01X352323Y-1757100D01*
G01X355395Y-1757100D01*
G01X358468Y-1757100D01*
G01X358468Y-1755564D01*
G01X358468Y-1755564D01*
G01X360004Y-1754027D01*
G01X360004Y-1754027D01*
G01X361540Y-1752491D01*
G01X361540Y-1752491D01*
G01X363077Y-1750955D01*
G01X363077Y-1750955D01*
G01X364613Y-1749419D01*
G01X364613Y-1749419D01*
G01X366149Y-1747882D01*
G01X367686Y-1747882D01*
G01X367686Y-1744810D01*
G01X367686Y-1741737D01*
G01X369222Y-1741737D01*
G01X370758Y-1741737D01*
G01X370758Y-1727911D01*
G01X370758Y-1714084D01*
G01X369222Y-1714084D01*
G01X367686Y-1714084D01*
G01X367686Y-1711012D01*
G01X367686Y-1707939D01*
G01X369222Y-1707939D01*
G01X370758Y-1707939D01*
G01X370758Y-1695649D01*
G01X370758Y-1683359D01*
G01X250928Y-1683359D01*
G37*
%LPC*%
G36*
G01X348018Y-1723591D02*
G01X348018Y-1723591D01*
G01X346489Y-1725010D01*
G01X346489Y-1725010D01*
G01X346184Y-1729319D01*
G01X346177Y-1732519D01*
G01X344641Y-1732519D01*
G01X344641Y-1732519D01*
G01X343105Y-1734056D01*
G01X343105Y-1735592D01*
G01X323133Y-1735592D01*
G01X303161Y-1735592D01*
G01X303161Y-1734056D01*
G01X303161Y-1734056D01*
G01X301625Y-1732519D01*
G01X301625Y-1732519D01*
G01X300089Y-1730983D01*
G01X300089Y-1730983D01*
G01X298552Y-1729447D01*
G01X297016Y-1729447D01*
G01X297016Y-1723302D01*
G01X297016Y-1717157D01*
G01X298552Y-1717157D01*
G01X298552Y-1717157D01*
G01X300089Y-1715400D01*
G01X300089Y-1715400D01*
G01X301241Y-1713480D01*
G01X301241Y-1713480D01*
G01X302557Y-1712164D01*
G01X302557Y-1712164D01*
G01X304477Y-1711012D01*
G01X304477Y-1711012D01*
G01X306234Y-1709475D01*
G01X306234Y-1707939D01*
G01X323133Y-1707939D01*
G01X340032Y-1707939D01*
G01X340032Y-1709475D01*
G01X340032Y-1709475D01*
G01X341569Y-1711012D01*
G01X341569Y-1711012D01*
G01X343105Y-1712548D01*
G01X343105Y-1712548D01*
G01X344641Y-1714084D01*
G01X346177Y-1714084D01*
G01X346177Y-1717157D01*
G01X346177Y-1720229D01*
G01X347714Y-1720229D01*
G01X347714Y-1720229D01*
G01X349250Y-1721756D01*
G01X349250Y-1721756D01*
G01X348018Y-1723591D01*
G37*
%LPD*%
G36*
G01X243246Y-1975251D02*
G01X223274Y-1975251D01*
G01X223274Y-1973715D01*
G01X223274Y-1973715D01*
G01X224811Y-1972178D01*
G01X226347Y-1972178D01*
G01X226347Y-1967569D01*
G01X226347Y-1962961D01*
G01X227883Y-1962961D01*
G01X229419Y-1962961D01*
G01X229419Y-1955279D01*
G01X229419Y-1947598D01*
G01X227883Y-1947598D01*
G01X226347Y-1947598D01*
G01X226347Y-1942989D01*
G01X226347Y-1938380D01*
G01X224811Y-1938380D01*
G01X224811Y-1938380D01*
G01X223274Y-1935922D01*
G01X223274Y-1935922D01*
G01X222660Y-1932850D01*
G01X222660Y-1932850D01*
G01X221158Y-1932235D01*
G01X221158Y-1932235D01*
G01X220108Y-1930827D01*
G01X220108Y-1930827D01*
G01X217001Y-1929265D01*
G01X217001Y-1929265D01*
G01X214057Y-1927601D01*
G01X214057Y-1926090D01*
G01X218665Y-1926090D01*
G01X223274Y-1926090D01*
G01X223274Y-1924554D01*
G01X223274Y-1924554D01*
G01X224811Y-1923017D01*
G01X226347Y-1923017D01*
G01X226347Y-1918409D01*
G01X226347Y-1913800D01*
G01X227895Y-1913800D01*
G01X229443Y-1913800D01*
G01X229303Y-1904710D01*
G01X229163Y-1895621D01*
G01X227775Y-1895460D01*
G01X227775Y-1895460D01*
G01X226238Y-1890852D01*
G01X226238Y-1890852D01*
G01X224683Y-1886241D01*
G01X224683Y-1886241D01*
G01X223274Y-1884577D01*
G01X223274Y-1884577D01*
G01X224811Y-1883074D01*
G01X226347Y-1883074D01*
G01X226347Y-1872320D01*
G01X226347Y-1861567D01*
G01X178722Y-1861567D01*
G01X131097Y-1861567D01*
G01X131097Y-1872320D01*
G01X131097Y-1883074D01*
G01X160252Y-1883074D01*
G01X189408Y-1883074D01*
G01X189570Y-1884483D01*
G01X189570Y-1884483D01*
G01X194213Y-1886039D01*
G01X198694Y-1886187D01*
G01X198694Y-1887703D01*
G01X198694Y-1887703D01*
G01X200230Y-1889219D01*
G01X200230Y-1889219D01*
G01X201766Y-1891487D01*
G01X201766Y-1891487D01*
G01X202571Y-1894560D01*
G01X202571Y-1894560D01*
G01X204107Y-1895365D01*
G01X204107Y-1895365D01*
G01X204839Y-1899973D01*
G01X204839Y-1904582D01*
G01X203303Y-1904582D01*
G01X201766Y-1904582D01*
G01X201766Y-1910727D01*
G01X201766Y-1916872D01*
G01X204839Y-1916872D01*
G01X207911Y-1916872D01*
G01X207911Y-1918409D01*
G01X207911Y-1918409D01*
G01X209448Y-1919945D01*
G01X209448Y-1919945D01*
G01X210984Y-1921481D01*
G01X210984Y-1921481D01*
G01X212520Y-1923017D01*
G01X212520Y-1923017D01*
G01X214057Y-1924554D01*
G01X214057Y-1926090D01*
G01X210984Y-1926090D01*
G01X207911Y-1926090D01*
G01X207911Y-1924554D01*
G01X207911Y-1923017D01*
G01X180386Y-1923069D01*
G01X180386Y-1923069D01*
G01X151581Y-1923474D01*
G01X151581Y-1923474D01*
G01X150137Y-1924959D01*
G01X150137Y-1924959D01*
G01X146680Y-1926090D01*
G01X143387Y-1926090D01*
G01X143387Y-1927626D01*
G01X143387Y-1927626D01*
G01X141851Y-1929163D01*
G01X141851Y-1929163D01*
G01X140315Y-1930699D01*
G01X140315Y-1930699D01*
G01X138778Y-1932235D01*
G01X138778Y-1932235D01*
G01X137242Y-1933737D01*
G01X137242Y-1933737D01*
G01X135834Y-1935402D01*
G01X135834Y-1935402D01*
G01X134272Y-1938508D01*
G01X134272Y-1938508D01*
G01X132608Y-1941453D01*
G01X131097Y-1941453D01*
G01X131097Y-1955279D01*
G01X131097Y-1969106D01*
G01X132588Y-1969106D01*
G01X132588Y-1969106D01*
G01X134252Y-1972156D01*
G01X134426Y-1975207D01*
G01X132889Y-1975357D01*
G01X131353Y-1975507D01*
G01X131216Y-1987669D01*
G01X131078Y-1999831D01*
G01X197148Y-1999831D01*
G01X263218Y-1999831D01*
G01X263218Y-1987541D01*
G01X263218Y-1975251D01*
G01X243246Y-1975251D01*
G37*
%LPC*%
G36*
G01X203431Y-1966127D02*
G01X203431Y-1966127D01*
G01X201869Y-1969234D01*
G01X201715Y-1972178D01*
G01X198668Y-1972178D01*
G01X198668Y-1972178D01*
G01X195621Y-1973715D01*
G01X195621Y-1975251D01*
G01X180292Y-1975251D01*
G01X164963Y-1975251D01*
G01X164801Y-1973843D01*
G01X164801Y-1973843D01*
G01X161695Y-1972281D01*
G01X161695Y-1972281D01*
G01X158750Y-1970616D01*
G01X158750Y-1970616D01*
G01X157214Y-1969106D01*
G01X155678Y-1969106D01*
G01X155678Y-1961458D01*
G01X155678Y-1953811D01*
G01X157086Y-1953649D01*
G01X157086Y-1953649D01*
G01X158656Y-1952079D01*
G01X158656Y-1952079D01*
G01X160320Y-1950670D01*
G01X160320Y-1950670D01*
G01X161823Y-1949134D01*
G01X161823Y-1947598D01*
G01X166432Y-1947598D01*
G01X171040Y-1947598D01*
G01X171040Y-1946062D01*
G01X171040Y-1944525D01*
G01X180258Y-1944525D01*
G01X189476Y-1944525D01*
G01X189476Y-1946062D01*
G01X189476Y-1947598D01*
G01X194085Y-1947598D01*
G01X198694Y-1947598D01*
G01X198694Y-1949134D01*
G01X198694Y-1949134D01*
G01X200230Y-1950670D01*
G01X200230Y-1950670D01*
G01X201766Y-1952207D01*
G01X201766Y-1952207D01*
G01X203303Y-1953743D01*
G01X204839Y-1953743D01*
G01X204839Y-1959854D01*
G01X204839Y-1965965D01*
G01X203431Y-1966127D01*
G37*
%LPD*%
G36*
G01X225542Y-2003708D02*
G01X225542Y-2003708D01*
G01X223274Y-2002904D01*
G01X223274Y-2002904D01*
G01X221006Y-2003708D01*
G01X221006Y-2003708D01*
G01X220202Y-2005245D01*
G01X220202Y-2005245D01*
G01X215593Y-2005976D01*
G01X210984Y-2005976D01*
G01X210984Y-2007513D01*
G01X210984Y-2009049D01*
G01X206375Y-2009049D01*
G01X201766Y-2009049D01*
G01X201766Y-2010585D01*
G01X201766Y-2012121D01*
G01X197157Y-2012121D01*
G01X192549Y-2012121D01*
G01X192549Y-2013658D01*
G01X192549Y-2015194D01*
G01X187208Y-2015194D01*
G01X187208Y-2015194D01*
G01X181063Y-2015999D01*
G01X181063Y-2015999D01*
G01X180258Y-2017535D01*
G01X180258Y-2017535D01*
G01X177186Y-2018266D01*
G01X174113Y-2018266D01*
G01X174113Y-2019803D01*
G01X174113Y-2021339D01*
G01X168773Y-2021339D01*
G01X168773Y-2021339D01*
G01X162627Y-2022144D01*
G01X162627Y-2022144D01*
G01X161823Y-2023680D01*
G01X161823Y-2023680D01*
G01X157214Y-2024412D01*
G01X152605Y-2024412D01*
G01X152605Y-2025948D01*
G01X152605Y-2027484D01*
G01X148611Y-2027484D01*
G01X148611Y-2027484D01*
G01X144002Y-2028099D01*
G01X144002Y-2028099D01*
G01X143387Y-2029635D01*
G01X143387Y-2029635D01*
G01X138778Y-2030557D01*
G01X134170Y-2030557D01*
G01X134170Y-2032093D01*
G01X134170Y-2032093D01*
G01X132633Y-2033629D01*
G01X131097Y-2033629D01*
G01X131097Y-2044383D01*
G01X131097Y-2055137D01*
G01X135672Y-2055137D01*
G01X140247Y-2055137D01*
G01X140409Y-2056545D01*
G01X140571Y-2057954D01*
G01X146588Y-2058098D01*
G01X152605Y-2058242D01*
G01X152605Y-2059762D01*
G01X152605Y-2061282D01*
G01X157214Y-2061282D01*
G01X161823Y-2061282D01*
G01X161823Y-2062818D01*
G01X161823Y-2064355D01*
G01X166398Y-2064355D01*
G01X170972Y-2064355D01*
G01X171134Y-2065763D01*
G01X171297Y-2067171D01*
G01X177314Y-2067315D01*
G01X183331Y-2067460D01*
G01X183331Y-2070500D01*
G01X183331Y-2073540D01*
G01X177314Y-2073684D01*
G01X171297Y-2073828D01*
G01X171134Y-2075237D01*
G01X170972Y-2076645D01*
G01X166398Y-2076645D01*
G01X161823Y-2076645D01*
G01X161823Y-2078181D01*
G01X161823Y-2079717D01*
G01X157214Y-2079717D01*
G01X152605Y-2079717D01*
G01X152605Y-2081254D01*
G01X152605Y-2082790D01*
G01X146460Y-2082790D01*
G01X140315Y-2082790D01*
G01X140315Y-2084326D01*
G01X140315Y-2085863D01*
G01X135706Y-2085863D01*
G01X131097Y-2085863D01*
G01X131097Y-2096616D01*
G01X131097Y-2107370D01*
G01X132633Y-2107370D01*
G01X132633Y-2107370D01*
G01X134170Y-2108907D01*
G01X134170Y-2110443D01*
G01X138778Y-2110443D01*
G01X138778Y-2110443D01*
G01X143387Y-2111365D01*
G01X143387Y-2111365D01*
G01X144002Y-2112901D01*
G01X144002Y-2112901D01*
G01X148611Y-2113515D01*
G01X152605Y-2113515D01*
G01X152605Y-2115052D01*
G01X152605Y-2116588D01*
G01X157214Y-2116588D01*
G01X157214Y-2116588D01*
G01X161823Y-2117320D01*
G01X161823Y-2117320D01*
G01X162627Y-2118856D01*
G01X162627Y-2118856D01*
G01X168773Y-2119661D01*
G01X174113Y-2119661D01*
G01X174113Y-2121197D01*
G01X174113Y-2121197D01*
G01X177152Y-2122733D01*
G01X177152Y-2122733D01*
G01X180352Y-2124141D01*
G01X180514Y-2125550D01*
G01X186531Y-2125694D01*
G01X192549Y-2125838D01*
G01X192549Y-2127358D01*
G01X192549Y-2128878D01*
G01X197157Y-2128878D01*
G01X201766Y-2128878D01*
G01X201766Y-2130415D01*
G01X201766Y-2131951D01*
G01X206375Y-2131951D01*
G01X210984Y-2131951D01*
G01X210984Y-2133487D01*
G01X210984Y-2135023D01*
G01X215583Y-2135023D01*
G01X215583Y-2135023D01*
G01X220492Y-2136259D01*
G01X220492Y-2136259D01*
G01X222038Y-2137805D01*
G01X222038Y-2137805D01*
G01X224506Y-2137806D01*
G01X224506Y-2137806D01*
G01X226035Y-2136388D01*
G01X226035Y-2136388D01*
G01X226340Y-2122861D01*
G01X226347Y-2110443D01*
G01X220236Y-2110443D01*
G01X214125Y-2110443D01*
G01X213963Y-2109035D01*
G01X213801Y-2107626D01*
G01X207783Y-2107482D01*
G01X201766Y-2107338D01*
G01X201766Y-2105818D01*
G01X201766Y-2104298D01*
G01X197157Y-2104298D01*
G01X192549Y-2104298D01*
G01X192549Y-2102762D01*
G01X192549Y-2101225D01*
G01X186437Y-2101225D01*
G01X180326Y-2101225D01*
G01X180164Y-2099817D01*
G01X180164Y-2099817D01*
G01X177058Y-2098255D01*
G01X177058Y-2098255D01*
G01X174113Y-2096591D01*
G01X174113Y-2095080D01*
G01X178722Y-2095080D01*
G01X183331Y-2095080D01*
G01X183331Y-2093560D01*
G01X183331Y-2092040D01*
G01X189348Y-2091896D01*
G01X195365Y-2091752D01*
G01X195525Y-2090363D01*
G01X195525Y-2090363D01*
G01X200134Y-2088827D01*
G01X200134Y-2088827D01*
G01X204745Y-2087271D01*
G01X204745Y-2087271D01*
G01X207945Y-2085863D01*
G01X207945Y-2085863D01*
G01X210984Y-2084326D01*
G01X210984Y-2082790D01*
G01X217129Y-2082790D01*
G01X223274Y-2082790D01*
G01X223274Y-2081254D01*
G01X223274Y-2081254D01*
G01X224811Y-2079717D01*
G01X226347Y-2079717D01*
G01X226347Y-2070500D01*
G01X226347Y-2061282D01*
G01X224811Y-2061282D01*
G01X224811Y-2061282D01*
G01X223274Y-2059746D01*
G01X223274Y-2058210D01*
G01X217129Y-2058210D01*
G01X210984Y-2058210D01*
G01X210984Y-2056673D01*
G01X210984Y-2056673D01*
G01X207945Y-2055137D01*
G01X207945Y-2055137D01*
G01X204745Y-2053729D01*
G01X204745Y-2053729D01*
G01X200102Y-2052173D01*
G01X195621Y-2052025D01*
G01X195621Y-2050508D01*
G01X195621Y-2048992D01*
G01X189476Y-2048992D01*
G01X183331Y-2048992D01*
G01X183331Y-2047456D01*
G01X183331Y-2045919D01*
G01X178722Y-2045919D01*
G01X174113Y-2045919D01*
G01X174113Y-2044409D01*
G01X174113Y-2044409D01*
G01X177058Y-2042744D01*
G01X177058Y-2042744D01*
G01X180164Y-2041183D01*
G01X180326Y-2039774D01*
G01X186437Y-2039774D01*
G01X192549Y-2039774D01*
G01X192549Y-2038238D01*
G01X192549Y-2036702D01*
G01X197889Y-2036702D01*
G01X197889Y-2036702D01*
G01X204034Y-2035897D01*
G01X204034Y-2035897D01*
G01X204839Y-2034381D01*
G01X204839Y-2034381D01*
G01X209320Y-2033521D01*
G01X209320Y-2033521D01*
G01X213963Y-2031965D01*
G01X214125Y-2030557D01*
G01X220236Y-2030557D01*
G01X226347Y-2030557D01*
G01X226347Y-2017535D01*
G01X226347Y-2017535D01*
G01X225542Y-2003708D01*
G37*
G36*
G01X369222Y-2005976D02*
G01X367686Y-2005976D01*
G01X367686Y-2001367D01*
G01X367686Y-1996759D01*
G01X366149Y-1996759D01*
G01X366149Y-1996759D01*
G01X364613Y-1995222D01*
G01X364613Y-1995222D01*
G01X363077Y-1993686D01*
G01X363077Y-1993686D01*
G01X361540Y-1992150D01*
G01X361540Y-1992150D01*
G01X360004Y-1990614D01*
G01X360004Y-1990614D01*
G01X358468Y-1989077D01*
G01X358468Y-1987541D01*
G01X355175Y-1987541D01*
G01X355175Y-1987541D01*
G01X351718Y-1986410D01*
G01X351718Y-1986410D01*
G01X350274Y-1984925D01*
G01X350274Y-1984925D01*
G01X339904Y-1984520D01*
G01X330815Y-1984468D01*
G01X330815Y-1986005D01*
G01X330815Y-1987541D01*
G01X327742Y-1987541D01*
G01X324669Y-1987541D01*
G01X324669Y-1989077D01*
G01X324669Y-1989077D01*
G01X323133Y-1990614D01*
G01X323133Y-1990614D01*
G01X321597Y-1992150D01*
G01X321597Y-1992150D01*
G01X320061Y-1993686D01*
G01X320061Y-1993686D01*
G01X318524Y-1995222D01*
G01X318524Y-1995222D01*
G01X316988Y-1996759D01*
G01X315452Y-1996759D01*
G01X315452Y-2001367D01*
G01X315452Y-2005976D01*
G01X313915Y-2005976D01*
G01X312379Y-2005976D01*
G01X312379Y-2018266D01*
G01X312379Y-2030557D01*
G01X310843Y-2030557D01*
G01X309307Y-2030557D01*
G01X309307Y-2033629D01*
G01X309307Y-2036702D01*
G01X304698Y-2036702D01*
G01X300089Y-2036702D01*
G01X300089Y-2035166D01*
G01X300089Y-2035166D01*
G01X298552Y-2033629D01*
G01X297016Y-2033629D01*
G01X297016Y-2021339D01*
G01X297016Y-2009049D01*
G01X298552Y-2009049D01*
G01X300089Y-2009049D01*
G01X300089Y-2005976D01*
G01X300089Y-2002904D01*
G01X301625Y-2002904D01*
G01X301625Y-2002904D01*
G01X303161Y-2001367D01*
G01X303161Y-2001367D01*
G01X304714Y-1999831D01*
G01X306266Y-1999831D01*
G01X306122Y-1993814D01*
G01X305978Y-1987797D01*
G01X304618Y-1987640D01*
G01X304618Y-1987640D01*
G01X302946Y-1986239D01*
G01X302946Y-1986239D01*
G01X301406Y-1984688D01*
G01X301406Y-1984688D01*
G01X299869Y-1983152D01*
G01X299869Y-1983152D01*
G01X298318Y-1981612D01*
G01X298318Y-1981612D01*
G01X296918Y-1979940D01*
G01X296918Y-1979940D01*
G01X293000Y-1978428D01*
G01X293000Y-1978428D01*
G01X288519Y-1978875D01*
G01X288519Y-1978875D01*
G01X287798Y-1981971D01*
G01X287798Y-1981971D01*
G01X286262Y-1984468D01*
G01X286262Y-1984468D01*
G01X284726Y-1986005D01*
G01X284726Y-1986005D01*
G01X283190Y-1987541D01*
G01X281653Y-1987541D01*
G01X281653Y-1990614D01*
G01X281653Y-1993686D01*
G01X280117Y-1993686D01*
G01X278581Y-1993686D01*
G01X278581Y-1996759D01*
G01X278581Y-1999831D01*
G01X277044Y-1999831D01*
G01X275508Y-1999831D01*
G01X275508Y-2004406D01*
G01X275508Y-2008981D01*
G01X274100Y-2009143D01*
G01X272692Y-2009305D01*
G01X272692Y-2021339D01*
G01X272692Y-2033373D01*
G01X274100Y-2033535D01*
G01X275508Y-2033697D01*
G01X275508Y-2038272D01*
G01X275508Y-2042847D01*
G01X277044Y-2042847D01*
G01X278581Y-2042847D01*
G01X278581Y-2045919D01*
G01X278581Y-2048992D01*
G01X280117Y-2048992D01*
G01X280117Y-2048992D01*
G01X281653Y-2050528D01*
G01X281653Y-2050528D01*
G01X283190Y-2052065D01*
G01X283190Y-2052065D01*
G01X284726Y-2053601D01*
G01X284726Y-2053601D01*
G01X286262Y-2055137D01*
G01X286262Y-2055137D01*
G01X287798Y-2056673D01*
G01X287798Y-2058210D01*
G01X290871Y-2058210D01*
G01X293944Y-2058210D01*
G01X293944Y-2059746D01*
G01X293944Y-2061282D01*
G01X304698Y-2061282D01*
G01X315452Y-2061282D01*
G01X315452Y-2059746D01*
G01X315452Y-2058210D01*
G01X318652Y-2058203D01*
G01X318652Y-2058203D01*
G01X322962Y-2057898D01*
G01X322962Y-2057898D01*
G01X324380Y-2056369D01*
G01X324380Y-2056369D01*
G01X326215Y-2055137D01*
G01X326215Y-2055137D01*
G01X327742Y-2052065D01*
G01X327742Y-2048992D01*
G01X329278Y-2048992D01*
G01X330815Y-2048992D01*
G01X330815Y-2045919D01*
G01X330815Y-2042847D01*
G01X332351Y-2042847D01*
G01X333887Y-2042847D01*
G01X333887Y-2030336D01*
G01X333887Y-2017826D01*
G01X335018Y-2017662D01*
G01X335018Y-2017662D01*
G01X336504Y-2016218D01*
G01X336504Y-2016218D01*
G01X336909Y-2011993D01*
G01X336960Y-2009049D01*
G01X341543Y-2009049D01*
G01X346126Y-2009049D01*
G01X346280Y-2011993D01*
G01X346280Y-2011993D01*
G01X347842Y-2015100D01*
G01X349250Y-2015262D01*
G01X349250Y-2022909D01*
G01X349250Y-2030557D01*
G01X347714Y-2030557D01*
G01X346177Y-2030557D01*
G01X346177Y-2033629D01*
G01X346177Y-2036702D01*
G01X344641Y-2036702D01*
G01X344641Y-2036702D01*
G01X343105Y-2038238D01*
G01X343105Y-2038238D01*
G01X342143Y-2039774D01*
G01X342143Y-2039774D01*
G01X340584Y-2040495D01*
G01X340584Y-2040495D01*
G01X340137Y-2044976D01*
G01X340137Y-2044976D01*
G01X341697Y-2048898D01*
G01X341697Y-2048898D01*
G01X343105Y-2050562D01*
G01X343105Y-2050562D01*
G01X344641Y-2052065D01*
G01X344641Y-2052065D01*
G01X346177Y-2052986D01*
G01X346177Y-2052986D01*
G01X346792Y-2054523D01*
G01X346792Y-2054523D01*
G01X349865Y-2055137D01*
G01X349865Y-2055137D01*
G01X352323Y-2056673D01*
G01X352323Y-2058210D01*
G01X356931Y-2058210D01*
G01X361540Y-2058210D01*
G01X361540Y-2056707D01*
G01X361540Y-2056707D01*
G01X362949Y-2055043D01*
G01X362949Y-2055043D01*
G01X364510Y-2051937D01*
G01X364510Y-2051937D01*
G01X366175Y-2048992D01*
G01X367686Y-2048992D01*
G01X367686Y-2044383D01*
G01X367686Y-2039774D01*
G01X369222Y-2039774D01*
G01X370758Y-2039774D01*
G01X370758Y-2022875D01*
G01X370758Y-2005976D01*
G01X369222Y-2005976D01*
G37*
G36*
G01X227909Y-2159604D02*
G01X226379Y-2159604D01*
G01X226235Y-2153587D01*
G01X226091Y-2147570D01*
G01X224683Y-2147408D01*
G01X224683Y-2147408D01*
G01X223274Y-2145743D01*
G01X223274Y-2145743D01*
G01X221738Y-2144241D01*
G01X221738Y-2144241D01*
G01X220202Y-2142705D01*
G01X220202Y-2142705D01*
G01X218665Y-2141168D01*
G01X218665Y-2141168D01*
G01X217129Y-2139612D01*
G01X217129Y-2138056D01*
G01X212648Y-2138204D01*
G01X208167Y-2138352D01*
G01X208014Y-2141296D01*
G01X208014Y-2141296D01*
G01X206350Y-2144241D01*
G01X206350Y-2144241D01*
G01X204839Y-2145777D01*
G01X204839Y-2145777D01*
G01X203303Y-2147314D01*
G01X203303Y-2147314D01*
G01X201766Y-2148816D01*
G01X201766Y-2148816D01*
G01X200358Y-2150480D01*
G01X200358Y-2150480D01*
G01X198950Y-2153459D01*
G01X198950Y-2153459D01*
G01X200358Y-2156437D01*
G01X200358Y-2156437D01*
G01X201766Y-2158101D01*
G01X201766Y-2158101D01*
G01X203303Y-2159604D01*
G01X204839Y-2159604D01*
G01X204839Y-2171894D01*
G01X204839Y-2184184D01*
G01X203303Y-2184184D01*
G01X203303Y-2184184D01*
G01X201766Y-2185720D01*
G01X201766Y-2187257D01*
G01X195493Y-2187249D01*
G01X195493Y-2187249D01*
G01X190500Y-2186596D01*
G01X190500Y-2186596D01*
G01X192114Y-2181611D01*
G01X192114Y-2181611D01*
G01X192491Y-2172918D01*
G01X192491Y-2172918D01*
G01X192237Y-2167456D01*
G01X192237Y-2167456D01*
G01X190708Y-2166038D01*
G01X189476Y-2165729D01*
G01X189476Y-2156521D01*
G01X189476Y-2147314D01*
G01X187940Y-2147314D01*
G01X187940Y-2147314D01*
G01X186403Y-2145777D01*
G01X186403Y-2145777D01*
G01X184867Y-2144241D01*
G01X184867Y-2144241D01*
G01X183331Y-2142705D01*
G01X183331Y-2142705D01*
G01X181794Y-2141168D01*
G01X181794Y-2141168D01*
G01X180258Y-2139632D01*
G01X180258Y-2139632D01*
G01X178722Y-2138096D01*
G01X178722Y-2138096D01*
G01X177186Y-2136560D01*
G01X177186Y-2135023D01*
G01X172577Y-2135023D01*
G01X167968Y-2135023D01*
G01X167968Y-2133487D01*
G01X167968Y-2131951D01*
G01X161823Y-2131951D01*
G01X155678Y-2131951D01*
G01X155678Y-2133487D01*
G01X155678Y-2135023D01*
G01X151069Y-2135023D01*
G01X146460Y-2135023D01*
G01X146460Y-2136560D01*
G01X146460Y-2138096D01*
G01X143387Y-2138096D01*
G01X140315Y-2138096D01*
G01X140315Y-2139632D01*
G01X140315Y-2139632D01*
G01X138778Y-2141168D01*
G01X137242Y-2141168D01*
G01X137242Y-2144241D01*
G01X137242Y-2147314D01*
G01X135706Y-2147314D01*
G01X135706Y-2147314D01*
G01X134170Y-2148863D01*
G01X134170Y-2148863D01*
G01X132959Y-2150872D01*
G01X132959Y-2150872D01*
G01X131430Y-2152523D01*
G01X131430Y-2152523D01*
G01X131104Y-2168949D01*
G01X131097Y-2184184D01*
G01X132633Y-2184184D01*
G01X132633Y-2184184D01*
G01X134170Y-2185720D01*
G01X134170Y-2185720D01*
G01X132633Y-2187257D01*
G01X131097Y-2187257D01*
G01X131097Y-2199550D01*
G01X131097Y-2211844D01*
G01X169376Y-2211712D01*
G01X207655Y-2211581D01*
G01X207817Y-2210173D01*
G01X207817Y-2210173D01*
G01X211018Y-2208764D01*
G01X211018Y-2208764D01*
G01X214057Y-2207254D01*
G01X214057Y-2207254D01*
G01X217001Y-2205589D01*
G01X219946Y-2205436D01*
G01X220099Y-2202491D01*
G01X220099Y-2202491D01*
G01X221764Y-2199547D01*
G01X221764Y-2199547D01*
G01X223274Y-2198011D01*
G01X223274Y-2198011D01*
G01X224811Y-2196474D01*
G01X226347Y-2196474D01*
G01X226347Y-2190363D01*
G01X226347Y-2184252D01*
G01X227755Y-2184090D01*
G01X229163Y-2183928D01*
G01X229301Y-2171766D01*
G01X229438Y-2159604D01*
G01X227909Y-2159604D01*
G37*
%LPC*%
G36*
G01X164895Y-2187257D02*
G01X158750Y-2187257D01*
G01X158750Y-2185720D01*
G01X158750Y-2185720D01*
G01X157234Y-2184184D01*
G01X155717Y-2184184D01*
G01X155569Y-2179703D01*
G01X155569Y-2179703D01*
G01X154013Y-2175060D01*
G01X154013Y-2175060D01*
G01X152605Y-2171812D01*
G01X152605Y-2171812D01*
G01X153668Y-2168447D01*
G01X153668Y-2168447D01*
G01X155205Y-2166926D01*
G01X155205Y-2166926D01*
G01X155678Y-2162677D01*
G01X155678Y-2162677D01*
G01X157086Y-2159510D01*
G01X157086Y-2159510D01*
G01X158656Y-2157939D01*
G01X158656Y-2157939D01*
G01X161869Y-2156531D01*
G01X161869Y-2156531D01*
G01X165381Y-2157741D01*
G01X165381Y-2157741D01*
G01X166904Y-2159230D01*
G01X166904Y-2159230D01*
G01X167975Y-2161220D01*
G01X167975Y-2161220D01*
G01X168279Y-2164041D01*
G01X168279Y-2164041D01*
G01X169809Y-2165459D01*
G01X171040Y-2165768D01*
G01X171040Y-2176513D01*
G01X171040Y-2187257D01*
G01X164895Y-2187257D01*
G37*
%LPD*%
G36*
G01X229078Y-2316645D02*
G01X229078Y-2316645D01*
G01X227542Y-2316304D01*
G01X227542Y-2316304D01*
G01X226347Y-2311695D01*
G01X226347Y-2307086D01*
G01X224811Y-2307086D01*
G01X224811Y-2307086D01*
G01X223274Y-2305550D01*
G01X223274Y-2305550D01*
G01X221738Y-2304014D01*
G01X221738Y-2304014D01*
G01X220202Y-2302477D01*
G01X220202Y-2302477D01*
G01X218665Y-2300941D01*
G01X218665Y-2300941D01*
G01X217129Y-2298673D01*
G01X217129Y-2298673D01*
G01X216324Y-2295601D01*
G01X216324Y-2295601D01*
G01X213252Y-2294796D01*
G01X213252Y-2294796D01*
G01X210984Y-2293260D01*
G01X210984Y-2293260D01*
G01X207945Y-2291723D01*
G01X207945Y-2291723D01*
G01X204745Y-2290315D01*
G01X204583Y-2288907D01*
G01X198566Y-2288763D01*
G01X192549Y-2288618D01*
G01X192549Y-2287090D01*
G01X192549Y-2285561D01*
G01X178850Y-2285698D01*
G01X165151Y-2285834D01*
G01X164989Y-2287243D01*
G01X164827Y-2288651D01*
G01X160252Y-2288651D01*
G01X155678Y-2288651D01*
G01X155678Y-2290187D01*
G01X155678Y-2291723D01*
G01X152605Y-2291723D01*
G01X149532Y-2291723D01*
G01X149532Y-2293260D01*
G01X149532Y-2294796D01*
G01X146460Y-2294796D01*
G01X143387Y-2294796D01*
G01X143387Y-2296332D01*
G01X143387Y-2296332D01*
G01X141851Y-2297868D01*
G01X141851Y-2297868D01*
G01X140315Y-2299405D01*
G01X140315Y-2299405D01*
G01X138778Y-2300941D01*
G01X137242Y-2300941D01*
G01X137242Y-2304014D01*
G01X137242Y-2307086D01*
G01X135706Y-2307086D01*
G01X134170Y-2307086D01*
G01X134170Y-2310159D01*
G01X134170Y-2313231D01*
G01X132633Y-2313231D01*
G01X131097Y-2313231D01*
G01X131097Y-2329516D01*
G01X131097Y-2329516D01*
G01X131711Y-2346415D01*
G01X131711Y-2346415D01*
G01X133222Y-2347029D01*
G01X133222Y-2347029D01*
G01X134272Y-2349974D01*
G01X134272Y-2349974D01*
G01X135834Y-2353080D01*
G01X135834Y-2353080D01*
G01X137242Y-2354745D01*
G01X137242Y-2354745D01*
G01X138753Y-2356247D01*
G01X138753Y-2356247D01*
G01X140417Y-2359191D01*
G01X140571Y-2362136D01*
G01X143484Y-2362289D01*
G01X143484Y-2362289D01*
G01X146556Y-2363825D01*
G01X146556Y-2363825D01*
G01X149532Y-2365208D01*
G01X152349Y-2365208D01*
G01X152503Y-2362264D01*
G01X152503Y-2362264D01*
G01X154167Y-2359319D01*
G01X154167Y-2359319D01*
G01X155678Y-2357783D01*
G01X155678Y-2357783D01*
G01X157214Y-2356247D01*
G01X157214Y-2356247D01*
G01X158750Y-2354711D01*
G01X158750Y-2354711D01*
G01X160286Y-2353174D01*
G01X161823Y-2353174D01*
G01X161823Y-2348565D01*
G01X161823Y-2343957D01*
G01X160286Y-2343957D01*
G01X160286Y-2343957D01*
G01X158750Y-2342420D01*
G01X158750Y-2342420D01*
G01X157214Y-2340884D01*
G01X155678Y-2340884D01*
G01X155671Y-2336147D01*
G01X155671Y-2336147D01*
G01X155355Y-2330258D01*
G01X155355Y-2330258D01*
G01X154338Y-2329106D01*
G01X154338Y-2329106D01*
G01X153629Y-2328594D01*
G01X153629Y-2328594D01*
G01X154338Y-2328082D01*
G01X154338Y-2328082D01*
G01X155355Y-2326930D01*
G01X155355Y-2326930D01*
G01X155671Y-2322529D01*
G01X155671Y-2322529D01*
G01X156741Y-2319002D01*
G01X156741Y-2319002D01*
G01X158251Y-2317550D01*
G01X158251Y-2317550D01*
G01X160132Y-2316212D01*
G01X160132Y-2316212D01*
G01X161729Y-2314639D01*
G01X161729Y-2314639D01*
G01X163393Y-2313231D01*
G01X163393Y-2313231D01*
G01X164895Y-2311695D01*
G01X164895Y-2310159D01*
G01X167968Y-2310159D01*
G01X171040Y-2310159D01*
G01X171040Y-2337812D01*
G01X171040Y-2365464D01*
G01X187940Y-2365464D01*
G01X204839Y-2365464D01*
G01X204839Y-2363928D01*
G01X204839Y-2362392D01*
G01X207911Y-2362392D01*
G01X210984Y-2362392D01*
G01X210984Y-2360856D01*
G01X210984Y-2360856D01*
G01X212520Y-2359319D01*
G01X212520Y-2359319D01*
G01X214057Y-2357783D01*
G01X214057Y-2357783D01*
G01X215593Y-2356247D01*
G01X215593Y-2356247D01*
G01X217129Y-2354711D01*
G01X217129Y-2354711D01*
G01X218665Y-2353174D01*
G01X218665Y-2353174D01*
G01X220202Y-2351638D01*
G01X220202Y-2351638D01*
G01X221738Y-2350102D01*
G01X221738Y-2350102D01*
G01X223274Y-2348565D01*
G01X223274Y-2348565D01*
G01X224811Y-2347029D01*
G01X226347Y-2347029D01*
G01X226347Y-2340884D01*
G01X226347Y-2334739D01*
G01X227883Y-2334739D01*
G01X229419Y-2334739D01*
G01X229419Y-2325863D01*
G01X229419Y-2325863D01*
G01X229078Y-2316645D01*
G37*
%LPC*%
G36*
G01X203303Y-2334739D02*
G01X203303Y-2334739D01*
G01X201766Y-2336275D01*
G01X201766Y-2336275D01*
G01X200230Y-2337812D01*
G01X200230Y-2337812D01*
G01X198694Y-2339348D01*
G01X198694Y-2340884D01*
G01X195391Y-2340884D01*
G01X192088Y-2340884D01*
G01X192060Y-2325521D01*
G01X192033Y-2310159D01*
G01X193827Y-2310159D01*
G01X193827Y-2310159D01*
G01X195621Y-2311695D01*
G01X195621Y-2311695D01*
G01X197157Y-2313231D01*
G01X197157Y-2313231D01*
G01X198694Y-2314153D01*
G01X198694Y-2314153D01*
G01X199308Y-2315689D01*
G01X199308Y-2315689D01*
G01X200844Y-2316304D01*
G01X200844Y-2316304D01*
G01X201766Y-2317840D01*
G01X201766Y-2317840D01*
G01X203303Y-2319376D01*
G01X204839Y-2319376D01*
G01X204839Y-2327058D01*
G01X204839Y-2334739D01*
G01X203303Y-2334739D01*
G37*
%LPD*%
G36*
G01X369242Y-1793970D02*
G01X367725Y-1793970D01*
G01X367577Y-1789490D01*
G01X367577Y-1789490D01*
G01X366021Y-1784847D01*
G01X366021Y-1784847D01*
G01X364613Y-1783183D01*
G01X364613Y-1783183D01*
G01X363077Y-1781680D01*
G01X363077Y-1781680D01*
G01X361540Y-1780144D01*
G01X361540Y-1780144D01*
G01X360038Y-1778608D01*
G01X360038Y-1778608D01*
G01X358374Y-1777199D01*
G01X358374Y-1777199D01*
G01X355267Y-1775638D01*
G01X355267Y-1775638D01*
G01X352323Y-1773973D01*
G01X352323Y-1773973D01*
G01X349250Y-1772463D01*
G01X346177Y-1772463D01*
G01X346177Y-1770926D01*
G01X346177Y-1769390D01*
G01X322402Y-1769390D01*
G01X322402Y-1769390D01*
G01X297821Y-1770195D01*
G01X297821Y-1770195D01*
G01X297016Y-1771705D01*
G01X297016Y-1771705D01*
G01X294072Y-1772565D01*
G01X294072Y-1772565D01*
G01X290965Y-1774127D01*
G01X290965Y-1774127D01*
G01X289301Y-1775535D01*
G01X289301Y-1775535D01*
G01X287798Y-1777071D01*
G01X287798Y-1777071D01*
G01X286262Y-1778608D01*
G01X286262Y-1778608D01*
G01X284726Y-1780144D01*
G01X284726Y-1780144D01*
G01X283190Y-1781680D01*
G01X283190Y-1781680D01*
G01X281653Y-1783217D01*
G01X281653Y-1783217D01*
G01X280117Y-1784753D01*
G01X278581Y-1784753D01*
G01X278581Y-1787825D01*
G01X278581Y-1790898D01*
G01X277044Y-1790898D01*
G01X275508Y-1790898D01*
G01X275508Y-1795507D01*
G01X275508Y-1800116D01*
G01X273961Y-1800116D01*
G01X272415Y-1800116D01*
G01X272553Y-1810741D01*
G01X272692Y-1821367D01*
G01X274080Y-1821528D01*
G01X274080Y-1821528D01*
G01X275617Y-1826136D01*
G01X275617Y-1826136D01*
G01X277172Y-1830747D01*
G01X277172Y-1830747D01*
G01X278581Y-1833948D01*
G01X278581Y-1833948D01*
G01X280117Y-1836986D01*
G01X280117Y-1836986D01*
G01X281653Y-1838522D01*
G01X281653Y-1838522D01*
G01X283190Y-1840059D01*
G01X283190Y-1840059D01*
G01X284726Y-1841595D01*
G01X284726Y-1841595D01*
G01X286262Y-1843131D01*
G01X286262Y-1843131D01*
G01X287798Y-1844668D01*
G01X287798Y-1846204D01*
G01X290871Y-1846204D01*
G01X293944Y-1846204D01*
G01X293944Y-1844668D01*
G01X293944Y-1844668D01*
G01X295480Y-1843131D01*
G01X295480Y-1843131D01*
G01X297016Y-1841595D01*
G01X297016Y-1841595D01*
G01X298552Y-1840059D01*
G01X298552Y-1840059D01*
G01X300089Y-1838522D01*
G01X300089Y-1838522D01*
G01X301625Y-1836986D01*
G01X301625Y-1836986D01*
G01X303161Y-1835484D01*
G01X303161Y-1835484D01*
G01X304570Y-1833820D01*
G01X304570Y-1833820D01*
G01X305978Y-1830841D01*
G01X305978Y-1830841D01*
G01X304570Y-1827863D01*
G01X304570Y-1827863D01*
G01X303161Y-1826198D01*
G01X303161Y-1826198D01*
G01X301651Y-1824696D01*
G01X301651Y-1824696D01*
G01X299986Y-1821751D01*
G01X299986Y-1821751D01*
G01X298424Y-1818645D01*
G01X297016Y-1818483D01*
G01X297016Y-1809299D01*
G01X297016Y-1800116D01*
G01X298552Y-1800116D01*
G01X298552Y-1800116D01*
G01X300089Y-1798579D01*
G01X300089Y-1798579D01*
G01X301625Y-1797043D01*
G01X301625Y-1797043D01*
G01X303161Y-1795507D01*
G01X303161Y-1793970D01*
G01X307770Y-1793970D01*
G01X312379Y-1793970D01*
G01X312379Y-1820087D01*
G01X312379Y-1846204D01*
G01X313915Y-1846204D01*
G01X313915Y-1846204D01*
G01X315452Y-1846935D01*
G01X315452Y-1846935D01*
G01X316256Y-1848472D01*
G01X316256Y-1848472D01*
G01X325602Y-1849269D01*
G01X325602Y-1849269D01*
G01X335252Y-1848965D01*
G01X335252Y-1848965D01*
G01X336670Y-1847436D01*
G01X336670Y-1847436D01*
G01X343115Y-1846204D01*
G01X349250Y-1846204D01*
G01X349250Y-1844668D01*
G01X349250Y-1843131D01*
G01X352323Y-1843131D01*
G01X355395Y-1843131D01*
G01X355395Y-1841595D01*
G01X355395Y-1841595D01*
G01X356931Y-1840059D01*
G01X356931Y-1840059D01*
G01X358468Y-1838522D01*
G01X358468Y-1838522D01*
G01X360004Y-1836986D01*
G01X360004Y-1836986D01*
G01X361540Y-1835450D01*
G01X361540Y-1835450D01*
G01X363077Y-1833914D01*
G01X363077Y-1833914D01*
G01X364613Y-1832377D01*
G01X364613Y-1832377D01*
G01X366149Y-1830841D01*
G01X367686Y-1830841D01*
G01X367686Y-1826232D01*
G01X367686Y-1821623D01*
G01X369222Y-1821623D01*
G01X370758Y-1821623D01*
G01X370758Y-1807797D01*
G01X370758Y-1793970D01*
G01X369242Y-1793970D01*
G37*
%LPC*%
G36*
G01X347842Y-1812500D02*
G01X347842Y-1812500D01*
G01X346280Y-1815606D01*
G01X346280Y-1815606D01*
G01X344616Y-1818551D01*
G01X344616Y-1818551D01*
G01X343105Y-1820051D01*
G01X343105Y-1821551D01*
G01X338495Y-1821715D01*
G01X333885Y-1821879D01*
G01X333886Y-1807925D01*
G01X333887Y-1793970D01*
G01X338496Y-1793970D01*
G01X343105Y-1793970D01*
G01X343105Y-1795507D01*
G01X343105Y-1795507D01*
G01X344616Y-1797043D01*
G01X344616Y-1797043D01*
G01X346280Y-1799988D01*
G01X346280Y-1799988D01*
G01X347842Y-1803094D01*
G01X349250Y-1803256D01*
G01X349250Y-1807797D01*
G01X349250Y-1812338D01*
G01X347842Y-1812500D01*
G37*
%LPD*%
G36*
G01X370417Y-2408822D02*
G01X370417Y-2408822D01*
G01X368880Y-2408480D01*
G01X368880Y-2408480D01*
G01X367686Y-2405408D01*
G01X367686Y-2402335D01*
G01X366149Y-2402335D01*
G01X366149Y-2402335D01*
G01X364613Y-2400799D01*
G01X364613Y-2400799D01*
G01X363077Y-2399263D01*
G01X363077Y-2399263D01*
G01X361540Y-2397726D01*
G01X361540Y-2397726D01*
G01X360004Y-2396190D01*
G01X360004Y-2396190D01*
G01X358468Y-2394654D01*
G01X358468Y-2394654D01*
G01X356931Y-2393117D01*
G01X356931Y-2393117D01*
G01X355395Y-2391581D01*
G01X355395Y-2390045D01*
G01X350786Y-2390045D01*
G01X346177Y-2390045D01*
G01X346177Y-2388509D01*
G01X346177Y-2386972D01*
G01X341603Y-2386972D01*
G01X337028Y-2386972D01*
G01X336866Y-2385564D01*
G01X336704Y-2384156D01*
G01X322877Y-2384012D01*
G01X322877Y-2384012D01*
G01X307906Y-2384148D01*
G01X307906Y-2384148D01*
G01X306442Y-2385700D01*
G01X306442Y-2385700D01*
G01X301570Y-2386972D01*
G01X297016Y-2386972D01*
G01X297016Y-2388509D01*
G01X297016Y-2390045D01*
G01X293944Y-2390045D01*
G01X290871Y-2390045D01*
G01X290871Y-2391581D01*
G01X290871Y-2391581D01*
G01X289335Y-2393117D01*
G01X289335Y-2393117D01*
G01X287798Y-2394586D01*
G01X287798Y-2394586D01*
G01X285680Y-2396339D01*
G01X285680Y-2396339D01*
G01X282824Y-2397360D01*
G01X282824Y-2397360D01*
G01X281803Y-2400216D01*
G01X281803Y-2400216D01*
G01X280050Y-2402335D01*
G01X280050Y-2402335D01*
G01X278581Y-2405408D01*
G01X278581Y-2408480D01*
G01X277044Y-2408480D01*
G01X275508Y-2408480D01*
G01X275508Y-2411773D01*
G01X275508Y-2411773D01*
G01X274377Y-2415230D01*
G01X274377Y-2415230D01*
G01X272892Y-2416674D01*
G01X272892Y-2416674D01*
G01X272494Y-2426915D01*
G01X272494Y-2426915D01*
G01X272769Y-2437069D01*
G01X272769Y-2437069D01*
G01X274298Y-2438720D01*
G01X274298Y-2438720D01*
G01X275508Y-2442265D01*
G01X275508Y-2445351D01*
G01X277044Y-2445351D01*
G01X278581Y-2445351D01*
G01X278581Y-2449345D01*
G01X278581Y-2449345D01*
G01X279195Y-2453954D01*
G01X279195Y-2453954D01*
G01X280732Y-2454568D01*
G01X280732Y-2454568D01*
G01X281653Y-2456105D01*
G01X281653Y-2456105D01*
G01X283190Y-2457641D01*
G01X283190Y-2457641D01*
G01X284726Y-2459177D01*
G01X284726Y-2459177D01*
G01X287286Y-2460713D01*
G01X287286Y-2460713D01*
G01X289847Y-2461226D01*
G01X289847Y-2461226D01*
G01X290871Y-2461738D01*
G01X290871Y-2461738D01*
G01X291895Y-2461226D01*
G01X291895Y-2461226D01*
G01X294456Y-2460713D01*
G01X294456Y-2460713D01*
G01X297016Y-2459211D01*
G01X297016Y-2459211D01*
G01X298424Y-2457547D01*
G01X298424Y-2457547D01*
G01X299986Y-2454440D01*
G01X299986Y-2454440D01*
G01X301651Y-2451496D01*
G01X303161Y-2451496D01*
G01X303161Y-2446887D01*
G01X303161Y-2442278D01*
G01X301625Y-2442278D01*
G01X300089Y-2442278D01*
G01X300089Y-2439206D01*
G01X300089Y-2436133D01*
G01X298552Y-2436133D01*
G01X297016Y-2436133D01*
G01X297016Y-2426915D01*
G01X297016Y-2417698D01*
G01X298552Y-2417698D01*
G01X298552Y-2417698D01*
G01X300089Y-2416162D01*
G01X300089Y-2416162D01*
G01X301625Y-2414625D01*
G01X301625Y-2414625D01*
G01X303161Y-2413089D01*
G01X303161Y-2413089D01*
G01X304698Y-2411553D01*
G01X304698Y-2411553D01*
G01X306234Y-2410016D01*
G01X306234Y-2410016D01*
G01X309302Y-2408480D01*
G01X312370Y-2408480D01*
G01X312503Y-2436005D01*
G01X312635Y-2463530D01*
G01X329406Y-2463665D01*
G01X346177Y-2463800D01*
G01X346177Y-2462257D01*
G01X346177Y-2460713D01*
G01X349250Y-2460713D01*
G01X352323Y-2460713D01*
G01X352323Y-2459177D01*
G01X352323Y-2457641D01*
G01X355395Y-2457641D01*
G01X358468Y-2457641D01*
G01X358468Y-2456105D01*
G01X358468Y-2456105D01*
G01X360004Y-2454568D01*
G01X360004Y-2454568D01*
G01X361540Y-2453032D01*
G01X361540Y-2453032D01*
G01X363077Y-2451496D01*
G01X364613Y-2451496D01*
G01X364613Y-2448423D01*
G01X364613Y-2445351D01*
G01X366149Y-2445351D01*
G01X367686Y-2445351D01*
G01X367686Y-2442278D01*
G01X367686Y-2439206D01*
G01X369222Y-2439206D01*
G01X370758Y-2439206D01*
G01X370758Y-2424184D01*
G01X370758Y-2424184D01*
G01X370417Y-2408822D01*
G37*
%LPC*%
G36*
G01X347714Y-2429988D02*
G01X347714Y-2429988D01*
G01X346177Y-2431490D01*
G01X346177Y-2431490D01*
G01X344769Y-2433155D01*
G01X344769Y-2433155D01*
G01X343199Y-2434725D01*
G01X343199Y-2434725D01*
G01X341535Y-2436133D01*
G01X341535Y-2436133D01*
G01X340032Y-2437669D01*
G01X340032Y-2439206D01*
G01X336960Y-2439206D01*
G01X333887Y-2439206D01*
G01X333887Y-2423843D01*
G01X333887Y-2408480D01*
G01X335423Y-2408480D01*
G01X335423Y-2408480D01*
G01X336960Y-2409402D01*
G01X336960Y-2409402D01*
G01X337574Y-2410938D01*
G01X337574Y-2410938D01*
G01X340647Y-2411553D01*
G01X340647Y-2411553D01*
G01X343105Y-2413089D01*
G01X343105Y-2413089D01*
G01X344641Y-2414625D01*
G01X344641Y-2414625D01*
G01X346177Y-2416162D01*
G01X346177Y-2416162D01*
G01X347714Y-2417698D01*
G01X349250Y-2417698D01*
G01X349250Y-2423843D01*
G01X349250Y-2429988D01*
G01X347714Y-2429988D01*
G37*
%LPD*%
G36*
G01X369222Y-1618835D02*
G01X367686Y-1618835D01*
G01X367686Y-1614841D01*
G01X367686Y-1614841D01*
G01X367071Y-1610232D01*
G01X367071Y-1610232D01*
G01X365535Y-1609618D01*
G01X365535Y-1609618D01*
G01X364613Y-1608081D01*
G01X364613Y-1608081D01*
G01X363077Y-1606545D01*
G01X363077Y-1606545D01*
G01X361540Y-1605009D01*
G01X361540Y-1605009D01*
G01X360038Y-1603472D01*
G01X360038Y-1603472D01*
G01X358374Y-1602064D01*
G01X358374Y-1602064D01*
G01X355267Y-1600502D01*
G01X355267Y-1600502D01*
G01X352323Y-1598838D01*
G01X352323Y-1598838D01*
G01X349250Y-1597327D01*
G01X346177Y-1597327D01*
G01X346177Y-1595791D01*
G01X346177Y-1594255D01*
G01X323261Y-1594306D01*
G01X323261Y-1594306D01*
G01X299065Y-1594711D01*
G01X299065Y-1594711D01*
G01X297621Y-1596196D01*
G01X297621Y-1596196D01*
G01X294164Y-1597327D01*
G01X290871Y-1597327D01*
G01X290871Y-1598864D01*
G01X290871Y-1598864D01*
G01X289335Y-1600400D01*
G01X289335Y-1600400D01*
G01X287798Y-1601936D01*
G01X287798Y-1601936D01*
G01X286262Y-1603472D01*
G01X286262Y-1603472D01*
G01X284726Y-1605009D01*
G01X284726Y-1605009D01*
G01X283190Y-1606545D01*
G01X283190Y-1606545D01*
G01X281653Y-1608081D01*
G01X281653Y-1608081D01*
G01X280117Y-1609618D01*
G01X278581Y-1609618D01*
G01X278581Y-1612690D01*
G01X278581Y-1615763D01*
G01X277044Y-1615763D01*
G01X275508Y-1615763D01*
G01X275508Y-1620371D01*
G01X275508Y-1624980D01*
G01X273972Y-1624980D01*
G01X272436Y-1624980D01*
G01X272436Y-1634198D01*
G01X272436Y-1643416D01*
G01X273972Y-1643416D01*
G01X275508Y-1643416D01*
G01X275508Y-1648024D01*
G01X275508Y-1652633D01*
G01X277019Y-1652633D01*
G01X277019Y-1652633D01*
G01X278683Y-1655578D01*
G01X278683Y-1655578D01*
G01X280245Y-1658684D01*
G01X280245Y-1658684D01*
G01X281653Y-1660349D01*
G01X281653Y-1660349D01*
G01X283190Y-1661851D01*
G01X283190Y-1661851D01*
G01X284726Y-1663387D01*
G01X284726Y-1663387D01*
G01X286228Y-1664923D01*
G01X286228Y-1664923D01*
G01X287892Y-1666332D01*
G01X287892Y-1666332D01*
G01X290999Y-1667894D01*
G01X290999Y-1667894D01*
G01X293944Y-1669558D01*
G01X293944Y-1671069D01*
G01X298518Y-1671069D01*
G01X303093Y-1671069D01*
G01X303255Y-1672477D01*
G01X303417Y-1673885D01*
G01X323133Y-1673885D01*
G01X342849Y-1673885D01*
G01X343011Y-1672477D01*
G01X343173Y-1671069D01*
G01X347748Y-1671069D01*
G01X352323Y-1671069D01*
G01X352323Y-1669532D01*
G01X352323Y-1669532D01*
G01X353859Y-1667996D01*
G01X353859Y-1667996D01*
G01X355395Y-1666460D01*
G01X355395Y-1666460D01*
G01X357853Y-1664923D01*
G01X357853Y-1664923D01*
G01X360926Y-1664309D01*
G01X360926Y-1664309D01*
G01X361540Y-1662773D01*
G01X361540Y-1662773D01*
G01X362462Y-1661851D01*
G01X362462Y-1661851D01*
G01X363998Y-1661236D01*
G01X363998Y-1661236D01*
G01X364613Y-1658164D01*
G01X364613Y-1658164D01*
G01X366149Y-1655706D01*
G01X367686Y-1655706D01*
G01X367686Y-1652633D01*
G01X367686Y-1649561D01*
G01X369222Y-1649561D01*
G01X370758Y-1649561D01*
G01X370758Y-1634198D01*
G01X370758Y-1618835D01*
G01X369222Y-1618835D01*
G37*
%LPC*%
G36*
G01X348018Y-1634488D02*
G01X348018Y-1634488D01*
G01X346489Y-1635906D01*
G01X346489Y-1635906D01*
G01X346184Y-1640215D01*
G01X346177Y-1643416D01*
G01X344641Y-1643416D01*
G01X344641Y-1643416D01*
G01X343105Y-1644926D01*
G01X343105Y-1644926D01*
G01X340160Y-1646591D01*
G01X340160Y-1646591D01*
G01X337054Y-1648152D01*
G01X336892Y-1649561D01*
G01X323133Y-1649561D01*
G01X309375Y-1649561D01*
G01X309213Y-1648152D01*
G01X309213Y-1648152D01*
G01X306106Y-1646591D01*
G01X306106Y-1646591D01*
G01X303161Y-1644926D01*
G01X303161Y-1644926D01*
G01X301625Y-1643416D01*
G01X301625Y-1643416D01*
G01X300089Y-1641879D01*
G01X300089Y-1641879D01*
G01X298552Y-1640343D01*
G01X297016Y-1640343D01*
G01X297016Y-1634198D01*
G01X297016Y-1628053D01*
G01X298552Y-1628053D01*
G01X298552Y-1628053D01*
G01X300089Y-1626526D01*
G01X300089Y-1626526D01*
G01X301325Y-1624690D01*
G01X301325Y-1624690D01*
G01X302871Y-1623144D01*
G01X302871Y-1623144D01*
G01X304707Y-1621908D01*
G01X304707Y-1621908D01*
G01X306234Y-1620371D01*
G01X306234Y-1618835D01*
G01X323133Y-1618835D01*
G01X340032Y-1618835D01*
G01X340032Y-1620371D01*
G01X340032Y-1620371D01*
G01X341569Y-1621908D01*
G01X341569Y-1621908D01*
G01X343105Y-1623444D01*
G01X343105Y-1623444D01*
G01X344641Y-1624980D01*
G01X346177Y-1624980D01*
G01X346177Y-1628053D01*
G01X346177Y-1631125D01*
G01X347714Y-1631125D01*
G01X347714Y-1631125D01*
G01X349250Y-1632652D01*
G01X349250Y-1632652D01*
G01X348018Y-1634488D01*
G37*
%LPD*%
G36*
G01X369229Y-2092008D02*
G01X367686Y-2092008D01*
G01X367686Y-2087399D01*
G01X367686Y-2082790D01*
G01X366149Y-2082790D01*
G01X366149Y-2082790D01*
G01X364613Y-2081254D01*
G01X364613Y-2081254D01*
G01X363077Y-2079717D01*
G01X363077Y-2079717D01*
G01X361540Y-2078181D01*
G01X361540Y-2078181D01*
G01X360004Y-2076645D01*
G01X360004Y-2076645D01*
G01X358468Y-2075109D01*
G01X358468Y-2075109D01*
G01X356966Y-2073572D01*
G01X356966Y-2073572D01*
G01X355301Y-2072164D01*
G01X355301Y-2072164D01*
G01X352195Y-2070602D01*
G01X352195Y-2070602D01*
G01X349250Y-2068938D01*
G01X349250Y-2067427D01*
G01X323133Y-2067427D01*
G01X297016Y-2067427D01*
G01X297016Y-2068964D01*
G01X297016Y-2070500D01*
G01X293944Y-2070500D01*
G01X290871Y-2070500D01*
G01X290871Y-2072036D01*
G01X290871Y-2072036D01*
G01X289335Y-2073572D01*
G01X289335Y-2073572D01*
G01X287798Y-2075109D01*
G01X287798Y-2075109D01*
G01X286262Y-2076645D01*
G01X286262Y-2076645D01*
G01X284726Y-2078181D01*
G01X284726Y-2078181D01*
G01X283190Y-2079717D01*
G01X283190Y-2079717D01*
G01X281653Y-2081254D01*
G01X281653Y-2081254D01*
G01X280117Y-2082790D01*
G01X278581Y-2082790D01*
G01X278581Y-2085863D01*
G01X278581Y-2088935D01*
G01X277044Y-2088935D01*
G01X275508Y-2088935D01*
G01X275508Y-2092008D01*
G01X275508Y-2092008D01*
G01X274547Y-2095080D01*
G01X274547Y-2095080D01*
G01X272999Y-2095786D01*
G01X272999Y-2095786D01*
G01X272552Y-2106412D01*
G01X272692Y-2116332D01*
G01X274100Y-2116494D01*
G01X274100Y-2116494D01*
G01X275508Y-2120616D01*
G01X275508Y-2120616D01*
G01X276123Y-2125191D01*
G01X276123Y-2125191D01*
G01X277659Y-2125806D01*
G01X277659Y-2125806D01*
G01X278581Y-2127342D01*
G01X278581Y-2127342D01*
G01X280117Y-2128878D01*
G01X281653Y-2128878D01*
G01X281653Y-2131951D01*
G01X281653Y-2135023D01*
G01X284726Y-2135023D01*
G01X287798Y-2135023D01*
G01X287798Y-2136560D01*
G01X287798Y-2136560D01*
G01X289335Y-2138096D01*
G01X289335Y-2138096D01*
G01X290871Y-2139632D01*
G01X290871Y-2139632D01*
G01X292407Y-2141168D01*
G01X292407Y-2141168D01*
G01X293944Y-2142705D01*
G01X293944Y-2144241D01*
G01X304664Y-2144241D01*
G01X315384Y-2144241D01*
G01X315546Y-2145649D01*
G01X315708Y-2147057D01*
G01X323133Y-2147057D01*
G01X330559Y-2147057D01*
G01X330721Y-2145649D01*
G01X330883Y-2144241D01*
G01X340066Y-2144241D01*
G01X349250Y-2144241D01*
G01X349250Y-2142705D01*
G01X349250Y-2141168D01*
G01X352323Y-2141168D01*
G01X355395Y-2141168D01*
G01X355395Y-2139632D01*
G01X355395Y-2139632D01*
G01X356931Y-2138096D01*
G01X356931Y-2138096D01*
G01X358468Y-2136560D01*
G01X358468Y-2136560D01*
G01X360004Y-2135023D01*
G01X360004Y-2135023D01*
G01X361540Y-2133487D01*
G01X361540Y-2133487D01*
G01X363077Y-2131951D01*
G01X363077Y-2131951D01*
G01X364613Y-2130415D01*
G01X364613Y-2130415D01*
G01X366149Y-2128878D01*
G01X366149Y-2128878D01*
G01X367686Y-2125840D01*
G01X367686Y-2125840D01*
G01X369094Y-2122639D01*
G01X370502Y-2122477D01*
G01X370638Y-2107242D01*
G01X370773Y-2092008D01*
G01X369229Y-2092008D01*
G37*
%LPC*%
G36*
G01X347842Y-2107464D02*
G01X347842Y-2107464D01*
G01X346281Y-2110539D01*
G01X346281Y-2110539D01*
G01X344745Y-2113612D01*
G01X344745Y-2113612D01*
G01X343207Y-2116716D01*
G01X343054Y-2119661D01*
G01X338470Y-2119661D01*
G01X333887Y-2119661D01*
G01X333887Y-2121197D01*
G01X333887Y-2122733D01*
G01X323167Y-2122733D01*
G01X312447Y-2122733D01*
G01X312285Y-2121325D01*
G01X312285Y-2121325D01*
G01X307642Y-2119769D01*
G01X303161Y-2119621D01*
G01X303161Y-2118104D01*
G01X303161Y-2118104D01*
G01X301625Y-2116588D01*
G01X301625Y-2116588D01*
G01X300082Y-2114924D01*
G01X300082Y-2114924D01*
G01X299777Y-2112151D01*
G01X299777Y-2112151D01*
G01X298248Y-2110733D01*
G01X298248Y-2110733D01*
G01X297016Y-2105824D01*
G01X297016Y-2101225D01*
G01X298552Y-2101225D01*
G01X300089Y-2101225D01*
G01X300089Y-2098153D01*
G01X300089Y-2095080D01*
G01X301625Y-2095080D01*
G01X301625Y-2095080D01*
G01X303161Y-2093558D01*
G01X303161Y-2092035D01*
G01X310715Y-2091893D01*
G01X318268Y-2091752D01*
G01X318430Y-2090343D01*
G01X318430Y-2090343D01*
G01X321631Y-2088935D01*
G01X321631Y-2088935D01*
G01X324669Y-2089667D01*
G01X324669Y-2089667D01*
G01X325474Y-2091203D01*
G01X325474Y-2091203D01*
G01X333122Y-2092008D01*
G01X339964Y-2092008D01*
G01X340126Y-2093416D01*
G01X340126Y-2093416D01*
G01X341697Y-2094986D01*
G01X341697Y-2094986D01*
G01X343105Y-2096650D01*
G01X343105Y-2096650D01*
G01X344641Y-2098153D01*
G01X346177Y-2098153D01*
G01X346177Y-2101225D01*
G01X346177Y-2104298D01*
G01X347714Y-2104298D01*
G01X347714Y-2104298D01*
G01X349250Y-2105800D01*
G01X349250Y-2105800D01*
G01X347842Y-2107464D01*
G37*
%LPD*%
G36*
G01X332351Y-2156531D02*
G01X293944Y-2156531D01*
G01X293944Y-2158067D01*
G01X293944Y-2159604D01*
G01X290871Y-2159604D01*
G01X287798Y-2159604D01*
G01X287798Y-2161140D01*
G01X287798Y-2161140D01*
G01X286262Y-2162676D01*
G01X286262Y-2162676D01*
G01X284726Y-2164213D01*
G01X284726Y-2164213D01*
G01X283190Y-2165749D01*
G01X283190Y-2165749D01*
G01X281653Y-2167285D01*
G01X281653Y-2167285D01*
G01X280117Y-2168821D01*
G01X280117Y-2168821D01*
G01X278581Y-2170358D01*
G01X278581Y-2170358D01*
G01X277659Y-2171894D01*
G01X277659Y-2171894D01*
G01X276123Y-2172508D01*
G01X276123Y-2172508D01*
G01X275508Y-2177117D01*
G01X275508Y-2181112D01*
G01X273972Y-2181112D01*
G01X272436Y-2181112D01*
G01X272436Y-2189715D01*
G01X272436Y-2189715D01*
G01X273050Y-2198932D01*
G01X273050Y-2198932D01*
G01X274586Y-2199547D01*
G01X274586Y-2199547D01*
G01X275508Y-2202619D01*
G01X275508Y-2205692D01*
G01X277044Y-2205692D01*
G01X277044Y-2205692D01*
G01X278581Y-2207228D01*
G01X278581Y-2207228D01*
G01X277044Y-2208764D01*
G01X275508Y-2208764D01*
G01X275508Y-2221055D01*
G01X275508Y-2233345D01*
G01X323133Y-2233345D01*
G01X370758Y-2233345D01*
G01X370758Y-2221055D01*
G01X370758Y-2208764D01*
G01X338530Y-2208764D01*
G01X306302Y-2208764D01*
G01X306140Y-2207356D01*
G01X306140Y-2207356D01*
G01X303033Y-2205794D01*
G01X300089Y-2205641D01*
G01X300089Y-2202594D01*
G01X300089Y-2202594D01*
G01X298552Y-2199547D01*
G01X297016Y-2199547D01*
G01X297016Y-2194972D01*
G01X297016Y-2190397D01*
G01X298424Y-2190235D01*
G01X298424Y-2190235D01*
G01X299986Y-2187129D01*
G01X299986Y-2187129D01*
G01X301651Y-2184184D01*
G01X301651Y-2184184D01*
G01X303161Y-2182648D01*
G01X303161Y-2181112D01*
G01X308502Y-2181112D01*
G01X308502Y-2181112D01*
G01X314647Y-2180307D01*
G01X314647Y-2180307D01*
G01X315452Y-2178771D01*
G01X315452Y-2178771D01*
G01X316476Y-2178039D01*
G01X316476Y-2178039D01*
G01X317500Y-2178469D01*
G01X317500Y-2178469D01*
G01X318908Y-2179546D01*
G01X318908Y-2179546D01*
G01X337472Y-2180630D01*
G01X337472Y-2180630D01*
G01X360916Y-2181089D01*
G01X360916Y-2181089D01*
G01X367545Y-2180215D01*
G01X367545Y-2180215D01*
G01X368516Y-2178679D01*
G01X368516Y-2178679D01*
G01X369953Y-2178039D01*
G01X369953Y-2178039D01*
G01X370758Y-2167285D01*
G01X370758Y-2156531D01*
G01X332351Y-2156531D01*
G37*
G36*
G01X369242Y-2334739D02*
G01X367725Y-2334739D01*
G01X367577Y-2330258D01*
G01X367577Y-2330258D01*
G01X366021Y-2325615D01*
G01X366021Y-2325615D01*
G01X364613Y-2323951D01*
G01X364613Y-2323951D01*
G01X363077Y-2322449D01*
G01X363077Y-2322449D01*
G01X361540Y-2320913D01*
G01X361540Y-2320913D01*
G01X360004Y-2319376D01*
G01X360004Y-2319376D01*
G01X358468Y-2317840D01*
G01X358468Y-2317840D01*
G01X356931Y-2316304D01*
G01X356931Y-2316304D01*
G01X355395Y-2314767D01*
G01X355395Y-2313231D01*
G01X352323Y-2313231D01*
G01X349250Y-2313231D01*
G01X349250Y-2311695D01*
G01X349250Y-2310159D01*
G01X344641Y-2310159D01*
G01X340032Y-2310159D01*
G01X340032Y-2308622D01*
G01X340032Y-2307086D01*
G01X323133Y-2307086D01*
G01X306234Y-2307086D01*
G01X306234Y-2308606D01*
G01X306234Y-2310126D01*
G01X300217Y-2310270D01*
G01X294200Y-2310415D01*
G01X294038Y-2311823D01*
G01X294038Y-2311823D01*
G01X292373Y-2313231D01*
G01X292373Y-2313231D01*
G01X290871Y-2314767D01*
G01X290871Y-2314767D01*
G01X289335Y-2316304D01*
G01X289335Y-2316304D01*
G01X287798Y-2317747D01*
G01X287798Y-2317747D01*
G01X285110Y-2319667D01*
G01X282421Y-2320144D01*
G01X281944Y-2322833D01*
G01X281944Y-2322833D01*
G01X280024Y-2325521D01*
G01X280024Y-2325521D01*
G01X278581Y-2328594D01*
G01X278581Y-2331666D01*
G01X277044Y-2331666D01*
G01X275508Y-2331666D01*
G01X275508Y-2336275D01*
G01X275508Y-2340884D01*
G01X273972Y-2340884D01*
G01X272436Y-2340884D01*
G01X272436Y-2350102D01*
G01X272436Y-2359319D01*
G01X273972Y-2359319D01*
G01X275508Y-2359319D01*
G01X275508Y-2363928D01*
G01X275508Y-2368537D01*
G01X277044Y-2368537D01*
G01X278581Y-2368537D01*
G01X278581Y-2371610D01*
G01X278581Y-2374682D01*
G01X280117Y-2374682D01*
G01X280117Y-2374682D01*
G01X281653Y-2376218D01*
G01X281653Y-2376218D01*
G01X283190Y-2377755D01*
G01X283190Y-2377755D01*
G01X284726Y-2379291D01*
G01X284726Y-2379291D01*
G01X286262Y-2380827D01*
G01X286262Y-2380827D01*
G01X287798Y-2382363D01*
G01X287798Y-2383900D01*
G01X292407Y-2383900D01*
G01X297016Y-2383900D01*
G01X297016Y-2382363D01*
G01X297016Y-2382363D01*
G01X298552Y-2380827D01*
G01X298552Y-2380827D01*
G01X300089Y-2379291D01*
G01X300089Y-2379291D01*
G01X301625Y-2377755D01*
G01X301625Y-2377755D01*
G01X303161Y-2376218D01*
G01X303161Y-2376218D01*
G01X304698Y-2374682D01*
G01X306234Y-2374682D01*
G01X306234Y-2370073D01*
G01X306234Y-2365464D01*
G01X304698Y-2365464D01*
G01X304698Y-2365464D01*
G01X303161Y-2363928D01*
G01X303161Y-2363928D01*
G01X301625Y-2362392D01*
G01X300089Y-2362392D01*
G01X300089Y-2359319D01*
G01X300089Y-2356247D01*
G01X298552Y-2356247D01*
G01X297016Y-2356247D01*
G01X297016Y-2350102D01*
G01X297016Y-2343957D01*
G01X298552Y-2343957D01*
G01X300089Y-2343957D01*
G01X300089Y-2340884D01*
G01X300089Y-2337812D01*
G01X301625Y-2337812D01*
G01X301625Y-2337812D01*
G01X303161Y-2336275D01*
G01X303161Y-2334739D01*
G01X306234Y-2334739D01*
G01X309307Y-2334739D01*
G01X309307Y-2333203D01*
G01X309307Y-2331666D01*
G01X323133Y-2331666D01*
G01X336960Y-2331666D01*
G01X336960Y-2333203D01*
G01X336960Y-2333203D01*
G01X338462Y-2334739D01*
G01X338462Y-2334739D01*
G01X340126Y-2336147D01*
G01X340126Y-2336147D01*
G01X341697Y-2337718D01*
G01X341697Y-2337718D01*
G01X343105Y-2339382D01*
G01X343105Y-2339382D01*
G01X344641Y-2340884D01*
G01X346177Y-2340884D01*
G01X346177Y-2343957D01*
G01X346177Y-2347029D01*
G01X347714Y-2347029D01*
G01X349250Y-2347029D01*
G01X349250Y-2350102D01*
G01X349250Y-2353174D01*
G01X347714Y-2353174D01*
G01X346177Y-2353174D01*
G01X346177Y-2356247D01*
G01X346177Y-2359319D01*
G01X344641Y-2359319D01*
G01X343105Y-2359319D01*
G01X343105Y-2362392D01*
G01X343105Y-2365464D01*
G01X341569Y-2365464D01*
G01X340032Y-2365464D01*
G01X340032Y-2370073D01*
G01X340032Y-2374682D01*
G01X341569Y-2374682D01*
G01X341569Y-2374682D01*
G01X343105Y-2376218D01*
G01X343105Y-2376218D01*
G01X344641Y-2377755D01*
G01X344641Y-2377755D01*
G01X346177Y-2379291D01*
G01X346177Y-2379291D01*
G01X347714Y-2380827D01*
G01X347714Y-2380827D01*
G01X349250Y-2382363D01*
G01X349250Y-2383900D01*
G01X353859Y-2383900D01*
G01X358468Y-2383900D01*
G01X358468Y-2382363D01*
G01X358468Y-2382363D01*
G01X360004Y-2380827D01*
G01X360004Y-2380827D01*
G01X361540Y-2379291D01*
G01X361540Y-2379291D01*
G01X363077Y-2377755D01*
G01X363077Y-2377755D01*
G01X364613Y-2376218D01*
G01X364613Y-2376218D01*
G01X365535Y-2374682D01*
G01X365535Y-2374682D01*
G01X367071Y-2374068D01*
G01X367071Y-2374068D01*
G01X367686Y-2369459D01*
G01X367686Y-2365464D01*
G01X369222Y-2365464D01*
G01X370758Y-2365464D01*
G01X370758Y-2350102D01*
G01X370758Y-2334739D01*
G01X369242Y-2334739D01*
G37*
G36*
G01X229078Y-1794312D02*
G01X229078Y-1794312D01*
G01X227542Y-1793970D01*
G01X227542Y-1793970D01*
G01X226347Y-1789362D01*
G01X226347Y-1784753D01*
G01X224811Y-1784753D01*
G01X223274Y-1784753D01*
G01X223274Y-1781680D01*
G01X223274Y-1778608D01*
G01X221738Y-1778608D01*
G01X221738Y-1778608D01*
G01X220202Y-1777071D01*
G01X220202Y-1777071D01*
G01X218665Y-1775535D01*
G01X218665Y-1775535D01*
G01X217129Y-1773999D01*
G01X217129Y-1772463D01*
G01X214057Y-1772463D01*
G01X210984Y-1772463D01*
G01X210984Y-1773999D01*
G01X210984Y-1773999D01*
G01X209448Y-1775535D01*
G01X209448Y-1775535D01*
G01X207911Y-1777071D01*
G01X207911Y-1777071D01*
G01X206375Y-1778608D01*
G01X206375Y-1778608D01*
G01X204839Y-1780144D01*
G01X204839Y-1780144D01*
G01X203303Y-1781680D01*
G01X203303Y-1781680D01*
G01X201766Y-1784719D01*
G01X201766Y-1784719D01*
G01X200358Y-1787919D01*
G01X200358Y-1787919D01*
G01X198950Y-1790898D01*
G01X198950Y-1790898D01*
G01X200358Y-1793876D01*
G01X200358Y-1793876D01*
G01X201766Y-1795541D01*
G01X201766Y-1795541D01*
G01X203303Y-1797043D01*
G01X204839Y-1797043D01*
G01X204839Y-1807797D01*
G01X204839Y-1818551D01*
G01X203303Y-1818551D01*
G01X203303Y-1818551D01*
G01X201766Y-1820087D01*
G01X201766Y-1821623D01*
G01X196879Y-1821623D01*
G01X191992Y-1821623D01*
G01X192345Y-1812483D01*
G01X192345Y-1812483D01*
G01X192360Y-1801993D01*
G01X192360Y-1801993D01*
G01X190748Y-1800324D01*
G01X189476Y-1800005D01*
G01X189476Y-1792379D01*
G01X189476Y-1784753D01*
G01X187940Y-1784753D01*
G01X186403Y-1784753D01*
G01X186403Y-1781680D01*
G01X186403Y-1778608D01*
G01X184867Y-1778608D01*
G01X184867Y-1778608D01*
G01X183331Y-1777071D01*
G01X183331Y-1777071D01*
G01X181794Y-1775535D01*
G01X181794Y-1775535D01*
G01X180258Y-1773999D01*
G01X180258Y-1773999D01*
G01X178722Y-1772463D01*
G01X178722Y-1772463D01*
G01X177186Y-1771731D01*
G01X177186Y-1771731D01*
G01X176381Y-1770195D01*
G01X176381Y-1770195D01*
G01X161018Y-1769390D01*
G01X146460Y-1769390D01*
G01X146460Y-1770926D01*
G01X146460Y-1770926D01*
G01X144924Y-1772463D01*
G01X144924Y-1772463D01*
G01X143387Y-1773999D01*
G01X143387Y-1773999D01*
G01X141851Y-1775535D01*
G01X141851Y-1775535D01*
G01X140315Y-1777071D01*
G01X140315Y-1777071D01*
G01X138778Y-1778608D01*
G01X138778Y-1778608D01*
G01X137242Y-1780144D01*
G01X137242Y-1780144D01*
G01X135706Y-1781680D01*
G01X134170Y-1781680D01*
G01X134170Y-1784753D01*
G01X134170Y-1787825D01*
G01X132633Y-1787825D01*
G01X131097Y-1787825D01*
G01X131097Y-1803188D01*
G01X131097Y-1818551D01*
G01X132633Y-1818551D01*
G01X132633Y-1818551D01*
G01X134170Y-1820048D01*
G01X134170Y-1820048D01*
G01X132633Y-1823081D01*
G01X131097Y-1824617D01*
G01X131097Y-1835410D01*
G01X131097Y-1846204D01*
G01X171040Y-1846204D01*
G01X210984Y-1846204D01*
G01X210984Y-1844668D01*
G01X210984Y-1843131D01*
G01X214057Y-1843131D01*
G01X217129Y-1843131D01*
G01X217129Y-1841595D01*
G01X217129Y-1841595D01*
G01X218665Y-1840059D01*
G01X218665Y-1840059D01*
G01X220202Y-1838522D01*
G01X220202Y-1838522D01*
G01X221738Y-1836986D01*
G01X223274Y-1836986D01*
G01X223274Y-1833914D01*
G01X223274Y-1830841D01*
G01X224811Y-1830841D01*
G01X226347Y-1830841D01*
G01X226347Y-1824696D01*
G01X226347Y-1818551D01*
G01X227883Y-1818551D01*
G01X229419Y-1818551D01*
G01X229419Y-1806602D01*
G01X229419Y-1806602D01*
G01X229078Y-1794312D01*
G37*
%LPC*%
G36*
G01X163359Y-1821623D02*
G01X155678Y-1821623D01*
G01X155627Y-1817143D01*
G01X155627Y-1817143D01*
G01X155221Y-1811382D01*
G01X155221Y-1811382D01*
G01X153736Y-1809938D01*
G01X153736Y-1809938D01*
G01X152605Y-1806515D01*
G01X152605Y-1806515D01*
G01X154013Y-1803094D01*
G01X154013Y-1803094D01*
G01X155569Y-1798451D01*
G01X155717Y-1793970D01*
G01X157234Y-1793970D01*
G01X157234Y-1793970D01*
G01X158750Y-1792434D01*
G01X158750Y-1790898D01*
G01X161823Y-1790898D01*
G01X164895Y-1790898D01*
G01X164895Y-1792434D01*
G01X164895Y-1792434D01*
G01X166432Y-1793970D01*
G01X167968Y-1793970D01*
G01X167968Y-1797043D01*
G01X167968Y-1800116D01*
G01X169504Y-1800116D01*
G01X171040Y-1800116D01*
G01X171040Y-1810869D01*
G01X171040Y-1821623D01*
G01X163359Y-1821623D01*
G37*
%LPD*%
G36*
G01X323133Y-1858494D02*
G01X275508Y-1858494D01*
G01X275508Y-1870784D01*
G01X275508Y-1883074D01*
G01X307736Y-1883074D01*
G01X339964Y-1883074D01*
G01X340126Y-1884483D01*
G01X340126Y-1884483D01*
G01X341697Y-1886053D01*
G01X341697Y-1886053D01*
G01X343105Y-1887717D01*
G01X343105Y-1887717D01*
G01X344616Y-1889219D01*
G01X344616Y-1889219D01*
G01X346280Y-1892164D01*
G01X346280Y-1892164D01*
G01X347842Y-1895271D01*
G01X347842Y-1895271D01*
G01X349250Y-1896935D01*
G01X349250Y-1896935D01*
G01X347714Y-1898437D01*
G01X346177Y-1898437D01*
G01X346177Y-1901510D01*
G01X346177Y-1904582D01*
G01X344641Y-1904582D01*
G01X344641Y-1904582D01*
G01X343105Y-1906118D01*
G01X343105Y-1906118D01*
G01X341569Y-1907655D01*
G01X341569Y-1907655D01*
G01X340032Y-1909191D01*
G01X340032Y-1910727D01*
G01X307770Y-1910727D01*
G01X275508Y-1910727D01*
G01X275508Y-1923021D01*
G01X275508Y-1935314D01*
G01X313787Y-1935183D01*
G01X352067Y-1935052D01*
G01X352220Y-1933733D01*
G01X352220Y-1933733D01*
G01X355037Y-1931940D01*
G01X355037Y-1931940D01*
G01X357863Y-1930315D01*
G01X357863Y-1930315D01*
G01X359784Y-1929163D01*
G01X359784Y-1929163D01*
G01X361540Y-1927626D01*
G01X361540Y-1927626D01*
G01X363077Y-1926090D01*
G01X363077Y-1926090D01*
G01X364613Y-1924588D01*
G01X364613Y-1924588D01*
G01X366021Y-1922923D01*
G01X366021Y-1922923D01*
G01X367582Y-1919849D01*
G01X367582Y-1919849D01*
G01X369118Y-1916776D01*
G01X370502Y-1916616D01*
G01X370638Y-1902918D01*
G01X370775Y-1889219D01*
G01X369230Y-1889219D01*
G01X369230Y-1889219D01*
G01X367686Y-1886186D01*
G01X367686Y-1886186D01*
G01X369222Y-1881617D01*
G01X370758Y-1880081D01*
G01X370758Y-1869287D01*
G01X370758Y-1858494D01*
G01X323133Y-1858494D01*
G37*
G36*
G01X227883Y-2260998D02*
G01X226347Y-2260998D01*
G01X226347Y-2256389D01*
G01X226347Y-2251780D01*
G01X224811Y-2251780D01*
G01X224811Y-2251780D01*
G01X223274Y-2250244D01*
G01X223274Y-2250244D01*
G01X224811Y-2248708D01*
G01X226347Y-2248708D01*
G01X226347Y-2236417D01*
G01X226347Y-2224127D01*
G01X179336Y-2224127D01*
G01X179336Y-2224127D01*
G01X131711Y-2224742D01*
G01X131711Y-2224742D01*
G01X131097Y-2237032D01*
G01X131097Y-2248708D01*
G01X163359Y-2248708D01*
G01X195621Y-2248708D01*
G01X195621Y-2250244D01*
G01X195621Y-2250244D01*
G01X197123Y-2251780D01*
G01X197123Y-2251780D01*
G01X198788Y-2253188D01*
G01X198788Y-2253188D01*
G01X200358Y-2254759D01*
G01X200358Y-2254759D01*
G01X201766Y-2256423D01*
G01X201766Y-2256423D01*
G01X203303Y-2257925D01*
G01X204839Y-2257925D01*
G01X204839Y-2264070D01*
G01X204839Y-2270215D01*
G01X203303Y-2270215D01*
G01X201766Y-2270215D01*
G01X201766Y-2274824D01*
G01X201766Y-2279433D01*
G01X203303Y-2279433D01*
G01X203303Y-2279433D01*
G01X204839Y-2280969D01*
G01X204839Y-2280969D01*
G01X206375Y-2282506D01*
G01X206375Y-2282506D01*
G01X207911Y-2284042D01*
G01X207911Y-2284042D01*
G01X209448Y-2285578D01*
G01X209448Y-2285578D01*
G01X210984Y-2287114D01*
G01X210984Y-2287114D01*
G01X212520Y-2288651D01*
G01X212520Y-2288651D01*
G01X214057Y-2290187D01*
G01X214057Y-2291723D01*
G01X218665Y-2291723D01*
G01X223274Y-2291723D01*
G01X223274Y-2290221D01*
G01X223274Y-2290221D01*
G01X224683Y-2288557D01*
G01X224683Y-2288557D01*
G01X226239Y-2283914D01*
G01X226387Y-2279433D01*
G01X227903Y-2279433D01*
G01X229419Y-2279433D01*
G01X229419Y-2270215D01*
G01X229419Y-2260998D01*
G01X227883Y-2260998D01*
G37*
G36*
G01X323133Y-2248708D02*
G01X275508Y-2248708D01*
G01X275508Y-2260998D01*
G01X275508Y-2273288D01*
G01X307736Y-2273288D01*
G01X339964Y-2273288D01*
G01X340126Y-2274696D01*
G01X340126Y-2274696D01*
G01X341666Y-2276264D01*
G01X341666Y-2276264D01*
G01X343202Y-2277800D01*
G01X343202Y-2277800D01*
G01X344745Y-2279337D01*
G01X344745Y-2279337D01*
G01X346281Y-2282409D01*
G01X346281Y-2282409D01*
G01X347842Y-2285484D01*
G01X347842Y-2285484D01*
G01X349250Y-2287148D01*
G01X349250Y-2287148D01*
G01X347714Y-2288651D01*
G01X346177Y-2288651D01*
G01X346177Y-2291723D01*
G01X346177Y-2294796D01*
G01X344641Y-2294796D01*
G01X343105Y-2294796D01*
G01X343105Y-2297868D01*
G01X343105Y-2300941D01*
G01X344641Y-2300941D01*
G01X344641Y-2300941D01*
G01X346177Y-2302477D01*
G01X346177Y-2302477D01*
G01X347714Y-2304014D01*
G01X347714Y-2304014D01*
G01X349250Y-2305550D01*
G01X349250Y-2305550D01*
G01X350786Y-2307086D01*
G01X350786Y-2307086D01*
G01X352323Y-2308622D01*
G01X352323Y-2308622D01*
G01X353859Y-2310159D01*
G01X353859Y-2310159D01*
G01X355395Y-2311120D01*
G01X355395Y-2311120D01*
G01X356110Y-2312675D01*
G01X356110Y-2312675D01*
G01X362127Y-2313122D01*
G01X367429Y-2312975D01*
G01X367583Y-2310031D01*
G01X367583Y-2310031D01*
G01X368633Y-2307086D01*
G01X368633Y-2307086D01*
G01X370144Y-2306472D01*
G01X370144Y-2306472D01*
G01X370758Y-2292645D01*
G01X370758Y-2279433D01*
G01X369222Y-2279433D01*
G01X367686Y-2279433D01*
G01X367686Y-2276164D01*
G01X367686Y-2276164D01*
G01X368704Y-2272629D01*
G01X368704Y-2272629D01*
G01X370240Y-2271000D01*
G01X370240Y-2271000D01*
G01X370758Y-2259172D01*
G01X370758Y-2248708D01*
G01X323133Y-2248708D01*
G37*
G04 Image End*

G04 Pad Start*
G54D10*
G01X8211500Y-2698000D03*
G54D11*
G01X8211500Y-2444000D03*
G01X8211500Y-2190000D03*
G01X8211500Y-1936000D03*
G01X8211500Y-1682000D03*
G01X8211500Y-1428000D03*
G01X8211500Y-1174000D03*
G01X8211500Y-920000D03*
G54D12*
G01X8124254Y-609943D03*
G01X8284147Y-609257D03*
G54D13*
G01X8142300Y-3008400D03*
G01X8342300Y-3008400D03*
G04 Pad End*

M02*

