G04 Layer: TopLayer*
G04 EasyEDA Pro v2.2.32.3, 2025-11-09 01:42:38*
G04 Gerber Generator version 0.3*
G04 Scale: 100 percent, Rotated: No, Reflected: No*
G04 Dimensions in millimeters*
G04 Leading zeros omitted, absolute positions, 3 integers and 5 decimals*
%FSLAX35Y35*%
%MOMM*%
%ADD10C,0.2032*%
%ADD11C,0.254*%
%ADD12R,1.5X1.5*%
%ADD13C,1.5*%
%ADD14R,0.8X0.8*%
%ADD15R,1.13254X1.37701*%
%ADD16C,3.0*%
%ADD17C,0.61*%
%ADD18C,0.5*%
G75*


G04 Copper Start*
G36*
G01X35814Y-254000D02*
G02X254000Y-35814I218186J0D01*
G01X8546000Y-35814D01*
G02X8764186Y-254000I0J-218186D01*
G01X8764186Y-3364000D01*
G02X8546000Y-3582186I-218186J0D01*
G01X254000Y-3582186D01*
G02X35814Y-3364000I0J218186D01*
G01X35814Y-254000D01*
G37*
%LPC*%
G36*
G01X68186Y-3364000D02*
G03X439814Y-3364000I185814J0D01*
G03X68186Y-3364000I-185814J0D01*
G37*
G36*
G01X68186Y-254000D02*
G03X439814Y-254000I185814J0D01*
G03X68186Y-254000I-185814J0D01*
G37*
G36*
G01X633400Y-3399814D02*
G03X729435Y-3360035I0J135814D01*
G03X769214Y-3264000I-96035J96035D01*
G01X769214Y-354000D01*
G03X633400Y-218186I-135814J0D01*
G03X497586Y-354000I0J-135814D01*
G01X497586Y-3264000D01*
G03X633400Y-3399814I135814J0D01*
G37*
G36*
G01X8100686Y-2773000D02*
G03X8136500Y-2808814I35814J0D01*
G01X8286500Y-2808814D01*
G03X8322314Y-2773000I0J35814D01*
G01X8322314Y-2623000D01*
G03X8286500Y-2587186I-35814J0D01*
G01X8154118Y-2587186D01*
G01X8180778Y-2560526D01*
G01X8183486Y-2558241D01*
G01X8184740Y-2557516D01*
G01X8186502Y-2556858D01*
G01X8189518Y-2556186D01*
G01X8194153Y-2555635D01*
G01X8200525Y-2555272D01*
G01X8213900Y-2554788D01*
G03X8289929Y-2365715I-2400J110788D01*
G03X8100717Y-2441396I-78429J-78285D01*
G01X8100203Y-2454616D01*
G01X8099829Y-2461009D01*
G01X8099275Y-2465642D01*
G01X8098604Y-2468646D01*
G01X8097949Y-2470396D01*
G01X8097223Y-2471650D01*
G01X8094927Y-2474370D01*
G01X7983398Y-2585898D01*
G03X7965586Y-2628900I43002J-43002D01*
G01X7965586Y-2932100D01*
G03X7983398Y-2975102I60814J0D01*
G01X8020889Y-3012592D01*
G02X8049859Y-3059340I-85073J-85073D01*
G01X8049859Y-3077250D01*
G03X8085673Y-3113064I35814J0D01*
G01X8198927Y-3113064D01*
G03X8234741Y-3077250I0J35814D01*
G01X8234741Y-2939549D01*
G03X8198927Y-2903735I-35814J0D01*
G01X8091720Y-2903735D01*
G02X8087214Y-2901760I24058J61013D01*
G01X8087214Y-2654090D01*
G01X8100686Y-2640618D01*
G01X8100686Y-2773000D01*
G37*
G36*
G01X8164253Y-685757D02*
G03X8200067Y-649943I0J35814D01*
G01X8200067Y-569943D01*
G03X8164253Y-534129I-35814J0D01*
G01X8084254Y-534129D01*
G03X8048440Y-569943I0J-35814D01*
G01X8048440Y-649943D01*
G03X8084254Y-685757I35814J0D01*
G01X8164253Y-685757D01*
G37*
G36*
G01X8211500Y-1284814D02*
G03X8211500Y-1063186I0J110814D01*
G03X8211500Y-1284814I0J-110814D01*
G37*
G36*
G01X8211500Y-1538814D02*
G03X8211500Y-1317186I0J110814D01*
G03X8211500Y-1538814I0J-110814D01*
G37*
G36*
G01X8211500Y-1792814D02*
G03X8211500Y-1571186I0J110814D01*
G03X8211500Y-1792814I0J-110814D01*
G37*
G36*
G01X8211500Y-1030814D02*
G03X8211500Y-809186I0J110814D01*
G03X8211500Y-1030814I0J-110814D01*
G37*
G36*
G01X8211500Y-2046814D02*
G03X8211500Y-1825186I0J110814D01*
G03X8211500Y-2046814I0J-110814D01*
G37*
G36*
G01X8211500Y-2300814D02*
G03X8211500Y-2079186I0J110814D01*
G03X8211500Y-2300814I0J-110814D01*
G37*
G36*
G01X8434869Y-2869426D02*
G02X8389851Y-2903735I-149572J149572D01*
G01X8285673Y-2903735D01*
G03X8249859Y-2939549I0J-35814D01*
G01X8249859Y-3077250D01*
G03X8285673Y-3113064I35814J0D01*
G01X8398927Y-3113064D01*
G03X8434741Y-3077250I0J35814D01*
G01X8434741Y-3059340D01*
G02X8463711Y-3012592I114044J-38325D01*
G01X8577402Y-2898902D01*
G03X8595214Y-2855900I-43002J43002D01*
G01X8595214Y-673100D01*
G03X8577402Y-630098I-60814J0D01*
G01X8513902Y-566598D01*
G03X8470900Y-548786I-43002J-43002D01*
G01X8399146Y-548786D01*
G02X8338211Y-536320I0J155167D01*
G03X8324146Y-533443I-14064J-32937D01*
G01X8244147Y-533443D01*
G03X8208333Y-569257I0J-35814D01*
G01X8208333Y-649257D01*
G03X8244147Y-685071I35814J0D01*
G01X8324146Y-685071D01*
G03X8337630Y-682436I0J35814D01*
G02X8399146Y-670414I61517J-151379D01*
G01X8445710Y-670414D01*
G01X8473586Y-698290D01*
G01X8473586Y-2830710D01*
G01X8434869Y-2869426D01*
G37*
G36*
G01X8360186Y-3364000D02*
G03X8731814Y-3364000I185814J0D01*
G03X8360186Y-3364000I-185814J0D01*
G37*
G36*
G01X8360186Y-254000D02*
G03X8731814Y-254000I185814J0D01*
G03X8360186Y-254000I-185814J0D01*
G37*
%LPD*%
G54D10*
G01X35814Y-254000D02*
G02X254000Y-35814I218186J0D01*
G01X8546000Y-35814D01*
G02X8764186Y-254000I0J-218186D01*
G01X8764186Y-3364000D01*
G02X8546000Y-3582186I-218186J0D01*
G01X254000Y-3582186D01*
G02X35814Y-3364000I0J218186D01*
G01X35814Y-254000D01*
G01X68186Y-3364000D02*
G03X439814Y-3364000I185814J0D01*
G03X68186Y-3364000I-185814J0D01*
G01X68186Y-254000D02*
G03X439814Y-254000I185814J0D01*
G03X68186Y-254000I-185814J0D01*
G01X633400Y-3399814D02*
G03X729435Y-3360035I0J135814D01*
G03X769214Y-3264000I-96035J96035D01*
G01X769214Y-354000D01*
G03X633400Y-218186I-135814J0D01*
G03X497586Y-354000I0J-135814D01*
G01X497586Y-3264000D01*
G03X633400Y-3399814I135814J0D01*
G01X8100686Y-2773000D02*
G03X8136500Y-2808814I35814J0D01*
G01X8286500Y-2808814D01*
G03X8322314Y-2773000I0J35814D01*
G01X8322314Y-2623000D01*
G03X8286500Y-2587186I-35814J0D01*
G01X8154118Y-2587186D01*
G01X8180778Y-2560526D01*
G01X8183486Y-2558241D01*
G01X8184740Y-2557516D01*
G01X8186502Y-2556858D01*
G01X8189518Y-2556186D01*
G01X8194153Y-2555635D01*
G01X8200525Y-2555272D01*
G01X8213900Y-2554788D01*
G03X8289929Y-2365715I-2400J110788D01*
G03X8100717Y-2441396I-78429J-78285D01*
G01X8100203Y-2454616D01*
G01X8099829Y-2461009D01*
G01X8099275Y-2465642D01*
G01X8098604Y-2468646D01*
G01X8097949Y-2470396D01*
G01X8097223Y-2471650D01*
G01X8094927Y-2474370D01*
G01X7983398Y-2585898D01*
G03X7965586Y-2628900I43002J-43002D01*
G01X7965586Y-2932100D01*
G03X7983398Y-2975102I60814J0D01*
G01X8020889Y-3012592D01*
G02X8049859Y-3059340I-85073J-85073D01*
G01X8049859Y-3077250D01*
G03X8085673Y-3113064I35814J0D01*
G01X8198927Y-3113064D01*
G03X8234741Y-3077250I0J35814D01*
G01X8234741Y-2939549D01*
G03X8198927Y-2903735I-35814J0D01*
G01X8091720Y-2903735D01*
G02X8087214Y-2901760I24058J61013D01*
G01X8087214Y-2654090D01*
G01X8100686Y-2640618D01*
G01X8100686Y-2773000D01*
G01X8164253Y-685757D02*
G03X8200067Y-649943I0J35814D01*
G01X8200067Y-569943D01*
G03X8164253Y-534129I-35814J0D01*
G01X8084254Y-534129D01*
G03X8048440Y-569943I0J-35814D01*
G01X8048440Y-649943D01*
G03X8084254Y-685757I35814J0D01*
G01X8164253Y-685757D01*
G01X8211500Y-1284814D02*
G03X8211500Y-1063186I0J110814D01*
G03X8211500Y-1284814I0J-110814D01*
G01X8211500Y-1538814D02*
G03X8211500Y-1317186I0J110814D01*
G03X8211500Y-1538814I0J-110814D01*
G01X8211500Y-1792814D02*
G03X8211500Y-1571186I0J110814D01*
G03X8211500Y-1792814I0J-110814D01*
G01X8211500Y-1030814D02*
G03X8211500Y-809186I0J110814D01*
G03X8211500Y-1030814I0J-110814D01*
G01X8211500Y-2046814D02*
G03X8211500Y-1825186I0J110814D01*
G03X8211500Y-2046814I0J-110814D01*
G01X8211500Y-2300814D02*
G03X8211500Y-2079186I0J110814D01*
G03X8211500Y-2300814I0J-110814D01*
G01X8434869Y-2869426D02*
G02X8389851Y-2903735I-149572J149572D01*
G01X8285673Y-2903735D01*
G03X8249859Y-2939549I0J-35814D01*
G01X8249859Y-3077250D01*
G03X8285673Y-3113064I35814J0D01*
G01X8398927Y-3113064D01*
G03X8434741Y-3077250I0J35814D01*
G01X8434741Y-3059340D01*
G02X8463711Y-3012592I114044J-38325D01*
G01X8577402Y-2898902D01*
G03X8595214Y-2855900I-43002J43002D01*
G01X8595214Y-673100D01*
G03X8577402Y-630098I-60814J0D01*
G01X8513902Y-566598D01*
G03X8470900Y-548786I-43002J-43002D01*
G01X8399146Y-548786D01*
G02X8338211Y-536320I0J155167D01*
G03X8324146Y-533443I-14064J-32937D01*
G01X8244147Y-533443D01*
G03X8208333Y-569257I0J-35814D01*
G01X8208333Y-649257D01*
G03X8244147Y-685071I35814J0D01*
G01X8324146Y-685071D01*
G03X8337630Y-682436I0J35814D01*
G02X8399146Y-670414I61517J-151379D01*
G01X8445710Y-670414D01*
G01X8473586Y-698290D01*
G01X8473586Y-2830710D01*
G01X8434869Y-2869426D01*
G01X8360186Y-3364000D02*
G03X8731814Y-3364000I185814J0D01*
G03X8360186Y-3364000I-185814J0D01*
G01X8360186Y-254000D02*
G03X8731814Y-254000I185814J0D01*
G03X8360186Y-254000I-185814J0D01*
G54D11*
G01X8286246Y-2698000D02*
G01X8312154Y-2698000D01*
G01X8136754Y-2698000D02*
G01X8110846Y-2698000D01*
G01X8211500Y-2623254D02*
G01X8211500Y-2597346D01*
G01X8211500Y-2772746D02*
G01X8211500Y-2798654D01*
G01X8163999Y-609943D02*
G01X8189907Y-609943D01*
G01X8084508Y-609943D02*
G01X8058600Y-609943D01*
G01X8124254Y-570197D02*
G01X8124254Y-544289D01*
G01X8124254Y-649689D02*
G01X8124254Y-675597D01*
G04 Copper End*

G04 TearDrop Start*
G36*
G01X8156525Y-2534130D02*
G01X8121319Y-2498626D01*
G01X8126629Y-2492335D01*
G01X8130440Y-2485754D01*
G01X8133016Y-2478875D01*
G01X8134620Y-2471688D01*
G01X8135519Y-2464185D01*
G01X8135976Y-2456356D01*
G01X8136624Y-2439686D01*
G01X8215532Y-2518891D01*
G01X8198858Y-2519495D01*
G01X8191016Y-2519942D01*
G01X8183497Y-2520836D01*
G01X8176294Y-2522439D01*
G01X8169402Y-2525015D01*
G01X8162814Y-2528824D01*
G01X8156525Y-2534130D01*
G37*
G36*
G01X8399146Y-584600D02*
G01X8399146Y-634600D01*
G03X8324146Y-649257I0J-199214D01*
G01X8324146Y-569257D01*
G03X8399146Y-584600I75000J175638D01*
G37*
G36*
G01X8046213Y-2987268D02*
G01X8044078Y-2914422D01*
G03X8085673Y-2939549I71700J71700D01*
G01X8085673Y-3053873D01*
G03X8046213Y-2987268I-149858J-43793D01*
G37*
G36*
G01X8460194Y-2894751D02*
G01X8438387Y-2987268D01*
G03X8398927Y-3053873I110397J-110398D01*
G01X8398927Y-2939549D01*
G03X8460194Y-2894751I-113629J219694D01*
G37*
G04 TearDrop End*

G04 Pad Start*
G54D12*
G01X8211500Y-2698000D03*
G54D13*
G01X8211500Y-2444000D03*
G01X8211500Y-2190000D03*
G01X8211500Y-1936000D03*
G01X8211500Y-1682000D03*
G01X8211500Y-1428000D03*
G01X8211500Y-1174000D03*
G01X8211500Y-920000D03*
G54D14*
G01X8124254Y-609943D03*
G01X8284147Y-609257D03*
G54D15*
G01X8142300Y-3008400D03*
G01X8342300Y-3008400D03*
G04 Pad End*

G04 Via Start*
G54D16*
G01X8546000Y-254000D03*
G01X8546000Y-3364000D03*
G01X254000Y-254000D03*
G01X254000Y-3364000D03*
G54D17*
G01X1051814Y-3074186D03*
G01X1051814Y-2566186D03*
G01X1051814Y-2058186D03*
G01X1051814Y-1550186D03*
G01X1051814Y-1042186D03*
G01X1051814Y-534186D03*
G01X1559814Y-3074186D03*
G01X1559814Y-2058186D03*
G01X1559814Y-1550186D03*
G01X1559814Y-534186D03*
G01X2067814Y-3074186D03*
G01X2067814Y-2566186D03*
G01X2067814Y-1042186D03*
G01X2067814Y-534186D03*
G01X2575814Y-534186D03*
G01X3083814Y-3074186D03*
G01X3083814Y-2566186D03*
G01X3083814Y-1042186D03*
G01X3083814Y-534186D03*
G01X3591814Y-3074186D03*
G01X3591814Y-2566186D03*
G01X3591814Y-1042186D03*
G01X3591814Y-534186D03*
G01X4099814Y-3074186D03*
G01X4099814Y-2566186D03*
G01X4099814Y-1042186D03*
G01X4099814Y-534186D03*
G01X4607814Y-3074186D03*
G01X4607814Y-2566186D03*
G01X4607814Y-1042186D03*
G01X4607814Y-534186D03*
G01X5115814Y-3074186D03*
G01X5115814Y-2566186D03*
G01X5115814Y-1042186D03*
G01X5115814Y-534186D03*
G01X5623814Y-3074186D03*
G01X5623814Y-2566186D03*
G01X5623814Y-1042186D03*
G01X5623814Y-534186D03*
G01X6131814Y-3074186D03*
G01X6131814Y-2566186D03*
G01X6131814Y-1042186D03*
G01X6131814Y-534186D03*
G01X6639814Y-3074186D03*
G01X6639814Y-2566186D03*
G01X6639814Y-1042186D03*
G01X6639814Y-534186D03*
G01X7147814Y-3074186D03*
G01X7147814Y-2566186D03*
G01X7147814Y-1042186D03*
G01X7147814Y-534186D03*
G01X7655814Y-3074186D03*
G01X7655814Y-2566186D03*
G01X7655814Y-2058186D03*
G01X7655814Y-1042186D03*
G01X7655814Y-534186D03*
G01X8163814Y-534186D03*
G01X8671814Y-3074186D03*
G01X8671814Y-2566186D03*
G01X8671814Y-2058186D03*
G01X8671814Y-1550186D03*
G01X8671814Y-1042186D03*
G01X8671814Y-534186D03*
G01X2811656Y-1806814D03*
G01X3319656Y-1806814D03*
G01X4335656Y-1806814D03*
G01X4843656Y-1806814D03*
G01X5351656Y-1806814D03*
G01X5859656Y-1806814D03*
G01X6367656Y-1806814D03*
G01X6875656Y-1806814D03*
G01X7383656Y-1806814D03*
G01X7891656Y-2314814D03*
G01X2761457Y-1882286D03*
G01X3269457Y-1882286D03*
G04 Via End*

G04 Track Start*
G54D18*
G01X8211300Y-2444000D02*
G01X8026400Y-2628900D01*
G01X8026400Y-2932100D02*
G01X8142300Y-3048000D01*
G01X8026400Y-2628900D02*
G01X8026400Y-2932100D01*
G01X8342300Y-3048000D02*
G01X8534400Y-2855900D01*
G01X8534400Y-673100D01*
G01X8284489Y-609600D02*
G01X8284147Y-609257D01*
G01X8470900Y-609600D02*
G01X8284489Y-609600D01*
G01X8534400Y-673100D02*
G01X8470900Y-609600D01*
G04 Track End*

M02*

