G04 Layer: DrillDrawingLayer*
G04 EasyEDA Pro v2.2.32.3, 2025-11-09 01:42:38*
G04 Gerber Generator version 0.3*
G04 Scale: 100 percent, Rotated: No, Reflected: No*
G04 Dimensions in millimeters*
G04 Leading zeros omitted, absolute positions, 3 integers and 5 decimals*
%FSLAX35Y35*%
%MOMM*%
%AMIconRect*4,1,4,0.2,-0.2,-0.2,-0.2,-0.2,0.2,0.2,0.2,0.2,-0.2,0*4,0,4,0.166667,-0.166667,0.166667,0.166667,-0.166667,0.166667,-0.166667,-0.166667,0.166667,-0.166667,0*%
%AMIconTriangle*4,1,3,-0.242567,0.171767,0.242567,0.171767,0,-0.2706,-0.242567,0.171767,0*4,0,3,-0.189767,0.1386,0,-0.1953,0.190167,0.1386,-0.189767,0.1386,0*%
%ADD10IconRect*%
%ADD11C,0.44X0.373333*%
%ADD12IconTriangle*%
G75*


G04 Drill Drawing Start*
G54D10*
G01X254000Y-3364000D03*
G01X254000Y-254000D03*
G01X8546000Y-3364000D03*
G01X8546000Y-254000D03*
G54D11*
G01X8211500Y-2698000D03*
G01X8211500Y-2444000D03*
G01X8211500Y-2190000D03*
G01X8211500Y-1936000D03*
G01X8211500Y-1682000D03*
G01X8211500Y-1428000D03*
G01X8211500Y-1174000D03*
G01X8211500Y-920000D03*
G54D12*
G01X1051814Y-3074186D03*
G01X1051814Y-2566186D03*
G01X1051814Y-2058186D03*
G01X1051814Y-1550186D03*
G01X1051814Y-1042186D03*
G01X1051814Y-534186D03*
G01X1559814Y-3074186D03*
G01X1559814Y-2058186D03*
G01X1559814Y-1550186D03*
G01X1559814Y-534186D03*
G01X2067814Y-3074186D03*
G01X2067814Y-2566186D03*
G01X2067814Y-1042186D03*
G01X2067814Y-534186D03*
G01X2575814Y-534186D03*
G01X2761457Y-1882286D03*
G01X2811656Y-1806814D03*
G01X3083814Y-3074186D03*
G01X3083814Y-2566186D03*
G01X3083814Y-1042186D03*
G01X3083814Y-534186D03*
G01X3269457Y-1882286D03*
G01X3319656Y-1806814D03*
G01X3591814Y-3074186D03*
G01X3591814Y-2566186D03*
G01X3591814Y-1042186D03*
G01X3591814Y-534186D03*
G01X4099814Y-3074186D03*
G01X4099814Y-2566186D03*
G01X4099814Y-1042186D03*
G01X4099814Y-534186D03*
G01X4335656Y-1806814D03*
G01X4607814Y-3074186D03*
G01X4607814Y-2566186D03*
G01X4607814Y-1042186D03*
G01X4607814Y-534186D03*
G01X4843656Y-1806814D03*
G01X5115814Y-3074186D03*
G01X5115814Y-2566186D03*
G01X5115814Y-1042186D03*
G01X5115814Y-534186D03*
G01X5351656Y-1806814D03*
G01X5623814Y-3074186D03*
G01X5623814Y-2566186D03*
G01X5623814Y-1042186D03*
G01X5623814Y-534186D03*
G01X5859656Y-1806814D03*
G01X6131814Y-3074186D03*
G01X6131814Y-2566186D03*
G01X6131814Y-1042186D03*
G01X6131814Y-534186D03*
G01X6367656Y-1806814D03*
G01X6639814Y-3074186D03*
G01X6639814Y-2566186D03*
G01X6639814Y-1042186D03*
G01X6639814Y-534186D03*
G01X6875656Y-1806814D03*
G01X7147814Y-3074186D03*
G01X7147814Y-2566186D03*
G01X7147814Y-1042186D03*
G01X7147814Y-534186D03*
G01X7383656Y-1806814D03*
G01X7655814Y-3074186D03*
G01X7655814Y-2566186D03*
G01X7655814Y-2058186D03*
G01X7655814Y-1042186D03*
G01X7655814Y-534186D03*
G01X7891656Y-2314814D03*
G01X8163814Y-534186D03*
G01X8671814Y-3074186D03*
G01X8671814Y-2566186D03*
G01X8671814Y-2058186D03*
G01X8671814Y-1550186D03*
G01X8671814Y-1042186D03*
G01X8671814Y-534186D03*
G04 Drill Drawing End*

M02*

